<?xml version="1.0" encoding="UTF-8" standalone="no"?>
<svg
   width="81.28mm"
   height="128.5mm"
   viewBox="0 0 81.28 128.5"
   version="1.1"
   id="svg36"
   sodipodi:docname="AmbianRandomSyth.svg"
   inkscape:version="1.4.3 (0d15f75, 2025-12-25)"
   xmlns:inkscape="http://www.inkscape.org/namespaces/inkscape"
   xmlns:sodipodi="http://sodipodi.sourceforge.net/DTD/sodipodi-0.dtd"
   xmlns:xlink="http://www.w3.org/1999/xlink"
   xmlns="http://www.w3.org/2000/svg"
   xmlns:svg="http://www.w3.org/2000/svg">
  <sodipodi:namedview
     id="namedview36"
     pagecolor="#ffffff"
     bordercolor="#000000"
     borderopacity="0.25"
     inkscape:showpageshadow="2"
     inkscape:pageopacity="0.0"
     inkscape:pagecheckerboard="0"
     inkscape:deskcolor="#d1d1d1"
     inkscape:document-units="mm"
     inkscape:zoom="1.5998541"
     inkscape:cx="153.76402"
     inkscape:cy="242.83465"
     inkscape:window-width="1920"
     inkscape:window-height="991"
     inkscape:window-x="-9"
     inkscape:window-y="-9"
     inkscape:window-maximized="1"
     inkscape:current-layer="svg36" />
  <!-- Panel background -->
  <rect
     width="81.28"
     height="128.5"
     fill="#0F172A"
     rx="2"
     ry="2"
     id="rect1" />
  <!-- Gradient overlay for depth -->
  <defs
     id="defs4">
    <linearGradient
       id="panelGrad"
       x1="0%"
       y1="0%"
       x2="0%"
       y2="100%">
      <stop
         offset="0%"
         style="stop-color:#1E293B;stop-opacity:0.6"
         id="stop1" />
      <stop
         offset="100%"
         style="stop-color:#0F172A;stop-opacity:0"
         id="stop2" />
    </linearGradient>
    <linearGradient
       id="knobGrad"
       x1="0%"
       y1="0%"
       x2="100%"
       y2="100%">
      <stop
         offset="0%"
         style="stop-color:#334155;stop-opacity:0.8"
         id="stop3" />
      <stop
         offset="100%"
         style="stop-color:#1E293B;stop-opacity:1"
         id="stop4" />
    </linearGradient>
    <linearGradient
       inkscape:collect="always"
       xlink:href="#knobGrad"
       id="linearGradient37"
       x1="-4.85"
       y1="-4.85"
       x2="4.85"
       y2="4.85"
       gradientUnits="userSpaceOnUse" />
    <linearGradient
       inkscape:collect="always"
       xlink:href="#knobGrad"
       id="linearGradient38"
       x1="-4.85"
       y1="-4.85"
       x2="4.85"
       y2="4.85"
       gradientUnits="userSpaceOnUse" />
  </defs>
  <rect
     width="81.28"
     height="128.5"
     fill="url(#panelGrad)"
     id="rect4" />
  <!-- Accent lines -->
  <line
     x1="5"
     y1="22"
     x2="76.28"
     y2="22"
     stroke="#22D3EE"
     stroke-width="0.4"
     opacity="0.3"
     id="line4" />
  <line
     x1="40.64"
     y1="5"
     x2="40.64"
     y2="18"
     stroke="#22D3EE"
     stroke-width="0.3"
     opacity="0.4"
     id="line5" />
  <!-- Title -->
  <path
     d="m 15.67601,16 h -0.864746 l -0.34375,-0.894287 h -1.57373 L 12.568832,16 h -0.843261 l 1.533447,-3.937012 h 0.840576 z m -1.463623,-1.557617 -0.54248,-1.460938 -0.531739,1.460938 z M 16.586899,16 v -3.937012 h 1.189697 l 0.714356,2.685547 0.706298,-2.685547 h 1.192383 V 16 H 19.651108 V 12.900879 L 18.869614,16 H 18.104233 L 17.325424,12.900879 V 16 Z m 5.094971,-3.937012 h 1.57373 q 0.467285,0 0.695557,0.04028 0.230957,0.0376 0.410888,0.161133 0.182617,0.123535 0.303467,0.330323 0.12085,0.204101 0.12085,0.459228 0,0.276611 -0.150391,0.507568 -0.147705,0.230957 -0.402832,0.346436 0.359863,0.104736 0.553223,0.357178 0.193359,0.252441 0.193359,0.593506 0,0.268554 -0.126221,0.523681 -0.123535,0.252442 -0.341064,0.405518 -0.214844,0.15039 -0.531738,0.185303 Q 23.781967,15.994629 23.021957,16 H 21.68187 Z m 0.794921,0.655274 v 0.9104 h 0.520996 q 0.4646,0 0.577393,-0.01343 0.204102,-0.02417 0.31958,-0.139648 0.118164,-0.118164 0.118164,-0.308838 0,-0.182617 -0.102051,-0.29541 -0.09936,-0.115479 -0.298095,-0.139649 -0.118164,-0.01343 -0.679444,-0.01343 z m 0,1.565674 v 1.052734 h 0.73584 q 0.429688,0 0.545166,-0.02417 0.177246,-0.03223 0.287354,-0.155762 0.112793,-0.12622 0.112793,-0.335693 0,-0.177246 -0.08594,-0.300781 -0.08594,-0.123535 -0.249756,-0.179932 -0.161132,-0.0564 -0.703613,-0.0564 z M 26.126938,16 V 12.062988 H 26.92186 V 16 Z m 2.052246,0 v -3.937012 h 2.919189 v 0.666016 h -2.124267 v 0.872803 h 1.976562 v 0.66333 h -1.976562 v 1.071533 h 2.199463 V 16 Z m 4.176514,0 v -3.937012 h 0.773437 l 1.611328,2.629151 v -2.629151 h 0.738526 V 16 H 34.681381 L 33.094223,13.432617 V 16 Z m 5.350097,0 v -3.270996 h -1.168213 v -0.666016 h 3.128663 v 0.666016 H 38.500717 V 16 Z m 5.004151,0 v -3.937012 h 1.673095 q 0.631104,0 0.915772,0.107422 0.287353,0.104736 0.459228,0.375977 0.171875,0.27124 0.171875,0.620361 0,0.443115 -0.260498,0.733154 -0.260498,0.287354 -0.778808,0.362549 0.257812,0.150391 0.424316,0.330322 0.16919,0.179932 0.453858,0.639161 L 46.249496,16 H 45.298813 L 44.724106,15.143311 Q 44.417953,14.684082 44.305161,14.565918 44.192368,14.445068 44.066147,14.4021 43.939926,14.356445 43.666,14.356445 H 43.504868 V 16 Z m 0.794922,-2.271973 h 0.588134 q 0.572022,0 0.714356,-0.04834 0.142334,-0.04834 0.2229,-0.166504 0.08057,-0.118164 0.08057,-0.295411 0,-0.19873 -0.107422,-0.31958 -0.104737,-0.123535 -0.298096,-0.155761 -0.09668,-0.01343 -0.580078,-0.01343 H 43.504868 Z M 50.729477,16 h -0.864746 l -0.34375,-0.894287 H 47.94725 L 47.622299,16 h -0.843262 l 1.533448,-3.937012 h 0.840576 z m -1.463623,-1.557617 -0.542481,-1.460938 -0.531738,1.460938 z M 51.659164,16 v -3.937012 h 0.773438 l 1.611328,2.629151 v -2.629151 h 0.738525 V 16 H 53.984848 L 52.39769,13.432617 V 16 Z m 4.461182,-3.937012 h 1.452881 q 0.491455,0 0.749268,0.0752 0.346435,0.10205 0.593505,0.362548 0.247071,0.260498 0.375977,0.639161 0.128906,0.375976 0.128906,0.929199 0,0.486084 -0.120849,0.83789 -0.147706,0.429688 -0.421631,0.695557 -0.206787,0.201416 -0.558594,0.314209 Q 58.056625,16 57.616196,16 h -1.49585 z m 0.794922,0.666016 v 2.607666 h 0.593506 q 0.333008,0 0.480713,-0.0376 0.193359,-0.04834 0.31958,-0.163818 0.128906,-0.115479 0.209472,-0.378662 0.08057,-0.265869 0.08057,-0.722412 0,-0.456543 -0.08057,-0.700928 -0.08057,-0.244385 -0.225586,-0.381348 -0.145019,-0.136963 -0.367919,-0.185302 -0.166504,-0.0376 -0.652588,-0.0376 z m 3.518555,1.32666 q 0,-0.601562 0.179931,-1.009766 0.134278,-0.300781 0.365235,-0.539794 0.233642,-0.239014 0.510254,-0.354493 0.367919,-0.155761 0.848632,-0.155761 0.870118,0 1.391114,0.539795 0.523681,0.539794 0.523681,1.50122 0,0.953369 -0.51831,1.493164 -0.518311,0.53711 -1.385742,0.53711 -0.878174,0 -1.396485,-0.534424 -0.51831,-0.53711 -0.51831,-1.477051 z m 0.819091,-0.02685 q 0,0.668701 0.308838,1.015136 0.308838,0.34375 0.78418,0.34375 0.475342,0 0.778809,-0.341064 0.306152,-0.34375 0.306152,-1.028565 0,-0.676757 -0.298096,-1.009765 -0.29541,-0.333008 -0.786865,-0.333008 -0.491455,0 -0.792236,0.338379 -0.300782,0.335693 -0.300782,1.015137 z M 65.362289,16 v -3.937012 h 1.189698 l 0.714355,2.685547 0.706299,-2.685547 h 1.192383 V 16 H 68.426498 V 12.900879 L 67.645004,16 H 66.879623 L 66.100815,12.900879 V 16 Z"
     id="text5"
     style="font-weight:bold;font-size:5.5px;font-family:Arial, sans-serif;letter-spacing:0.5;text-anchor:middle;fill:#22d3ee"
     aria-label="AMBIENT RANDOM" />
  <path
     d="m 30.041367,21.080078 0.357421,-0.03125 q 0.02539,0.214844 0.117188,0.353516 0.09375,0.136718 0.289062,0.222656 0.195313,0.08398 0.439454,0.08398 0.216796,0 0.382812,-0.06445 0.166016,-0.06445 0.246094,-0.175781 0.08203,-0.113281 0.08203,-0.246094 0,-0.134765 -0.07813,-0.234375 -0.07813,-0.101562 -0.257812,-0.169922 -0.115235,-0.04492 -0.509766,-0.138672 -0.394531,-0.0957 -0.552734,-0.179687 -0.205079,-0.107422 -0.306641,-0.265625 -0.09961,-0.160156 -0.09961,-0.357422 0,-0.216797 0.123046,-0.404297 0.123047,-0.189453 0.359375,-0.287109 0.236329,-0.09766 0.525391,-0.09766 0.318359,0 0.560547,0.103515 0.244141,0.101563 0.375,0.300781 0.130859,0.199219 0.140625,0.451172 l -0.363281,0.02734 q -0.0293,-0.271484 -0.199219,-0.410156 -0.167969,-0.138672 -0.498047,-0.138672 -0.34375,0 -0.501953,0.126953 -0.15625,0.125 -0.15625,0.302734 0,0.154297 0.111328,0.253907 0.109375,0.09961 0.570313,0.205078 0.46289,0.103515 0.634765,0.18164 0.25,0.115235 0.369141,0.292969 0.11914,0.175781 0.11914,0.40625 0,0.228516 -0.130859,0.431641 -0.130859,0.201172 -0.376953,0.314453 -0.244141,0.111328 -0.550781,0.111328 -0.388672,0 -0.652344,-0.113281 -0.261719,-0.113281 -0.412109,-0.339844 -0.148438,-0.228516 -0.15625,-0.515625 z M 35.644882,22 v -1.212891 l -1.103515,-1.65039 h 0.460937 L 35.566757,20 q 0.15625,0.242187 0.291016,0.484375 0.128906,-0.224609 0.3125,-0.505859 l 0.554687,-0.841797 h 0.441407 l -1.142579,1.65039 V 22 Z m 3.857422,0 v -2.863281 h 0.388672 l 1.503906,2.248047 v -2.248047 h 0.363281 V 22 H 41.369492 L 39.865585,19.75 V 22 Z m 5.621094,0 v -2.525391 h -0.94336 v -0.33789 h 2.269532 v 0.33789 H 45.502304 V 22 Z m 3.726562,0 v -2.863281 h 0.378907 V 20.3125 h 1.488281 v -1.175781 h 0.378906 V 22 H 50.717148 V 20.650391 H 49.228867 V 22 Z"
     id="text6"
     style="font-size:4px;font-family:Arial, sans-serif;letter-spacing:2;text-anchor:middle;fill:#67e8f9"
     aria-label="SYNTH" />
  <!-- Top row knobs: TEMPO, DENSITY, MOTION -->
  <!-- TEMPO -->
  <g
     transform="translate(13.55, 30)"
     id="g7">
    <circle
       r="7"
       fill="url(#knobGrad)"
       stroke="#22D3EE"
       stroke-width="0.8"
       opacity="0.8"
       id="circle6" />
    <circle
       r="6"
       fill="none"
       stroke="#1E293B"
       stroke-width="0.5"
       id="circle7" />
    <line
       x1="0"
       y1="-5"
       x2="0"
       y2="-3"
       stroke="#67E8F9"
       stroke-width="1.2"
       id="line7" />
  </g>
  <path
     d="M 8.6093751,44 V 42.096875 H 7.9296876 v -0.3875 h 1.8203125 v 0.3875 H 9.0718751 V 44 Z m 1.4390629,0 v -2.290625 h 1.698437 v 0.3875 h -1.235937 v 0.507812 h 1.15 v 0.385938 h -1.15 v 0.623437 h 1.279687 V 44 Z m 2.128125,0 v -2.290625 h 0.692187 l 0.415625,1.5625 0.410938,-1.5625 h 0.69375 V 44 H 13.959375 V 42.196875 L 13.504688,44 H 13.059375 L 12.60625,42.196875 V 44 Z m 2.671875,0 v -2.290625 h 0.742187 q 0.421875,0 0.55,0.03437 0.196875,0.05156 0.329688,0.225 0.132812,0.171875 0.132812,0.445312 0,0.210938 -0.07656,0.354688 -0.07656,0.14375 -0.195313,0.226562 -0.117187,0.08125 -0.239062,0.107813 -0.165625,0.03281 -0.479688,0.03281 H 15.310938 V 44 Z m 0.4625,-1.903125 v 0.65 h 0.253125 q 0.273437,0 0.365625,-0.03594 0.09219,-0.03594 0.14375,-0.1125 0.05313,-0.07656 0.05313,-0.178125 0,-0.125 -0.07344,-0.20625 -0.07344,-0.08125 -0.185937,-0.101562 -0.08281,-0.01563 -0.332813,-0.01563 z m 1.578125,0.771875 q 0,-0.35 0.104687,-0.5875 0.07813,-0.175 0.2125,-0.314063 0.135938,-0.139062 0.296875,-0.20625 0.214063,-0.09062 0.493751,-0.09062 0.50625,0 0.809375,0.314063 0.304687,0.314062 0.304687,0.873437 0,0.554688 -0.301562,0.86875 -0.301563,0.312501 -0.80625,0.312501 -0.510938,0 -0.812501,-0.310938 -0.301562,-0.3125 -0.301562,-0.859375 z m 0.476562,-0.01563 q 0,0.389062 0.179688,0.590625 0.179688,0.2 0.45625,0.2 0.276563,0 0.453125,-0.198438 0.178125,-0.2 0.178125,-0.598437 0,-0.39375 -0.173437,-0.5875 -0.171875,-0.19375 -0.457813,-0.19375 -0.285937,0 -0.460938,0.196875 -0.175,0.195312 -0.175,0.590625 z"
     id="text7"
     style="font-weight:bold;font-size:3.2px;font-family:Arial, sans-serif;text-anchor:middle;fill:#a5f3fc"
     aria-label="TEMPO" />
  <!-- DENSITY -->
  <g
     transform="translate(40.64, 30)"
     id="g9">
    <circle
       r="7"
       fill="url(#knobGrad)"
       stroke="#22D3EE"
       stroke-width="0.8"
       opacity="0.8"
       id="circle8" />
    <circle
       r="6"
       fill="none"
       stroke="#1E293B"
       stroke-width="0.5"
       id="circle9" />
    <line
       x1="0"
       y1="-5"
       x2="0"
       y2="-3"
       stroke="#67E8F9"
       stroke-width="1.2"
       id="line9" />
  </g>
  <path
     d="m 33.936874,41.709375 h 0.845313 q 0.285937,0 0.435937,0.04375 0.201563,0.05938 0.345313,0.210937 0.14375,0.151563 0.21875,0.371875 0.075,0.21875 0.075,0.540625 0,0.282813 -0.07031,0.4875 -0.08594,0.25 -0.245312,0.404688 -0.120313,0.117187 -0.325,0.182812 Q 35.063437,44 34.807187,44 h -0.870313 z m 0.4625,0.3875 v 1.517187 h 0.345313 q 0.19375,0 0.279687,-0.02187 0.1125,-0.02813 0.185938,-0.09531 0.075,-0.06719 0.121875,-0.220313 0.04687,-0.154687 0.04687,-0.420312 0,-0.265625 -0.04687,-0.407813 -0.04687,-0.142187 -0.13125,-0.221875 -0.08438,-0.07969 -0.214063,-0.107812 -0.09687,-0.02188 -0.379687,-0.02188 z M 36.249374,44 v -2.290625 h 1.698438 v 0.3875 h -1.235938 v 0.507812 h 1.15 v 0.385938 h -1.15 v 0.623437 h 1.279688 V 44 Z m 2.139063,0 v -2.290625 h 0.45 l 0.9375,1.529687 v -1.529687 h 0.429687 V 44 H 39.741562 L 38.818124,42.50625 V 44 Z m 2.189063,-0.745313 0.45,-0.04375 q 0.04062,0.226563 0.164062,0.332813 0.125,0.10625 0.335938,0.10625 0.223437,0 0.335937,-0.09375 0.114063,-0.09531 0.114063,-0.221875 0,-0.08125 -0.04844,-0.1375 -0.04687,-0.05781 -0.165625,-0.1 -0.08125,-0.02812 -0.370312,-0.1 -0.371875,-0.09219 -0.521875,-0.226563 -0.210938,-0.189062 -0.210938,-0.460937 0,-0.175 0.09844,-0.326563 0.1,-0.153125 0.285937,-0.232812 0.1875,-0.07969 0.451563,-0.07969 0.43125,0 0.648437,0.189063 0.21875,0.189062 0.229688,0.504687 l -0.4625,0.02031 q -0.02969,-0.176563 -0.128125,-0.253125 -0.09687,-0.07813 -0.292188,-0.07813 -0.201562,0 -0.315625,0.08281 -0.07344,0.05313 -0.07344,0.142188 0,0.08125 0.06875,0.139062 0.0875,0.07344 0.425,0.153125 0.3375,0.07969 0.498437,0.165625 0.1625,0.08438 0.253125,0.232813 0.09219,0.146875 0.09219,0.364062 0,0.196875 -0.109375,0.36875 -0.109375,0.171875 -0.309375,0.25625 -0.2,0.08281 -0.498438,0.08281 -0.434375,0 -0.667187,-0.2 Q 40.622812,43.639062 40.5775,43.254687 Z M 42.814999,44 v -2.290625 h 0.4625 V 44 Z m 1.418751,0 v -1.903125 h -0.679688 v -0.3875 h 1.820313 v 0.3875 H 44.69625 V 44 Z m 2.040624,0 v -0.964063 l -0.839062,-1.326562 h 0.542187 l 0.539063,0.90625 0.528125,-0.90625 h 0.532812 l -0.842187,1.329687 V 44 Z"
     id="text9"
     style="font-weight:bold;font-size:3.2px;font-family:Arial, sans-serif;text-anchor:middle;fill:#a5f3fc"
     aria-label="DENSITY" />
  <!-- MOTION -->
  <g
     transform="translate(67.73, 30)"
     id="g11">
    <circle
       r="7"
       fill="url(#knobGrad)"
       stroke="#22D3EE"
       stroke-width="0.8"
       opacity="0.8"
       id="circle10" />
    <circle
       r="6"
       fill="none"
       stroke="#1E293B"
       stroke-width="0.5"
       id="circle11" />
    <line
       x1="0"
       y1="-5"
       x2="0"
       y2="-3"
       stroke="#67E8F9"
       stroke-width="1.2"
       id="line11" />
  </g>
  <path
     d="m 61.557347,44 v -2.290625 h 0.692188 l 0.415625,1.5625 0.410937,-1.5625 h 0.69375 V 44 H 63.34016 V 42.196875 L 62.885472,44 H 62.44016 L 61.987035,42.196875 V 44 Z m 2.578125,-1.13125 q 0,-0.35 0.104688,-0.5875 0.07813,-0.175 0.2125,-0.314063 0.135937,-0.139062 0.296875,-0.20625 0.214062,-0.09062 0.49375,-0.09062 0.50625,0 0.809375,0.314063 0.304687,0.314062 0.304687,0.873437 0,0.554688 -0.301562,0.86875 -0.301563,0.312501 -0.80625,0.312501 -0.510938,0 -0.8125,-0.310938 -0.301563,-0.3125 -0.301563,-0.859375 z m 0.476563,-0.01563 q 0,0.389062 0.179687,0.590625 0.179688,0.2 0.45625,0.2 0.276563,0 0.453125,-0.198438 0.178125,-0.2 0.178125,-0.598437 0,-0.39375 -0.173437,-0.5875 -0.171875,-0.19375 -0.457813,-0.19375 -0.285937,0 -0.460937,0.196875 -0.175,0.195312 -0.175,0.590625 z M 67.23391,44 v -1.903125 h -0.679688 v -0.3875 h 1.820313 v 0.3875 H 67.69641 V 44 Z m 1.425,0 v -2.290625 h 0.4625 V 44 Z m 0.809375,-1.13125 q 0,-0.35 0.104687,-0.5875 0.07813,-0.175 0.2125,-0.314063 0.135938,-0.139062 0.296875,-0.20625 0.214063,-0.09062 0.49375,-0.09062 0.50625,0 0.809375,0.314063 0.304688,0.314062 0.304688,0.873437 0,0.554688 -0.301563,0.86875 -0.301562,0.312501 -0.80625,0.312501 -0.510937,0 -0.8125,-0.310938 -0.301562,-0.3125 -0.301562,-0.859375 z m 0.476562,-0.01563 q 0,0.389062 0.179688,0.590625 0.179687,0.2 0.45625,0.2 0.276562,0 0.453125,-0.198438 0.178125,-0.2 0.178125,-0.598437 0,-0.39375 -0.173438,-0.5875 -0.171875,-0.19375 -0.457812,-0.19375 -0.285938,0 -0.460938,0.196875 -0.175,0.195312 -0.175,0.590625 z M 72.055785,44 v -2.290625 h 0.45 l 0.9375,1.529687 v -1.529687 h 0.429687 V 44 H 73.40891 L 72.485472,42.50625 V 44 Z"
     id="text11"
     style="font-weight:bold;font-size:3.2px;font-family:Arial, sans-serif;text-anchor:middle;fill:#a5f3fc"
     aria-label="MOTION" />
  <!-- Second row knobs: TONE, SPACE, MIX -->
  <!-- TONE -->
  <g
     transform="translate(13.55, 58)"
     id="g13">
    <circle
       r="7"
       fill="url(#knobGrad)"
       stroke="#22D3EE"
       stroke-width="0.8"
       opacity="0.8"
       id="circle12" />
    <circle
       r="6"
       fill="none"
       stroke="#1E293B"
       stroke-width="0.5"
       id="circle13" />
    <line
       x1="0"
       y1="-5"
       x2="0"
       y2="-3"
       stroke="#67E8F9"
       stroke-width="1.2"
       id="line13" />
  </g>
  <path
     d="M 9.8828126,72 V 70.096875 H 9.2031251 v -0.3875 h 1.8203129 v 0.3875 H 10.345313 V 72 Z m 1.2875004,-1.13125 q 0,-0.35 0.104687,-0.5875 0.07813,-0.175 0.2125,-0.314063 0.135938,-0.139062 0.296875,-0.20625 0.214063,-0.09063 0.49375,-0.09063 0.50625,0 0.809375,0.314063 0.304688,0.314062 0.304688,0.873437 0,0.554688 -0.301563,0.86875 -0.301562,0.312501 -0.80625,0.312501 -0.510937,0 -0.8125,-0.310938 -0.301562,-0.3125 -0.301562,-0.859375 z m 0.476562,-0.01563 q 0,0.389062 0.179688,0.590625 0.179687,0.2 0.45625,0.2 0.276562,0 0.453125,-0.198438 0.178125,-0.2 0.178125,-0.598437 0,-0.39375 -0.173438,-0.5875 -0.171875,-0.19375 -0.457812,-0.19375 -0.285938,0 -0.460938,0.196875 -0.175,0.195312 -0.175,0.590625 z M 13.757813,72 v -2.290625 h 0.45 l 0.9375,1.529687 V 69.709375 H 15.575 V 72 H 15.110938 L 14.1875,70.50625 V 72 Z m 2.30625,0 V 69.709375 H 17.7625 v 0.3875 h -1.235937 v 0.507812 h 1.15 v 0.385938 h -1.15 v 0.623437 H 17.80625 V 72 Z"
     id="text13"
     style="font-weight:bold;font-size:3.2px;font-family:Arial, sans-serif;text-anchor:middle;fill:#a5f3fc"
     aria-label="TONE" />
  <!-- SPACE -->
  <g
     transform="translate(40.64, 58)"
     id="g15">
    <circle
       r="7"
       fill="url(#knobGrad)"
       stroke="#22D3EE"
       stroke-width="0.8"
       opacity="0.8"
       id="circle14" />
    <circle
       r="6"
       fill="none"
       stroke="#1E293B"
       stroke-width="0.5"
       id="circle15" />
    <line
       x1="0"
       y1="-5"
       x2="0"
       y2="-3"
       stroke="#67E8F9"
       stroke-width="1.2"
       id="line15" />
  </g>
  <path
     d="m 35.361874,71.254687 0.45,-0.04375 q 0.04062,0.226563 0.164063,0.332813 0.125,0.10625 0.335937,0.10625 0.223438,0 0.335938,-0.09375 0.114062,-0.09531 0.114062,-0.221875 0,-0.08125 -0.04844,-0.1375 -0.04687,-0.05781 -0.165625,-0.1 -0.08125,-0.02813 -0.370313,-0.1 -0.371875,-0.09219 -0.521875,-0.226563 -0.210937,-0.189062 -0.210937,-0.460937 0,-0.175 0.09844,-0.326563 0.1,-0.153125 0.285938,-0.232812 0.1875,-0.07969 0.451562,-0.07969 0.43125,0 0.648438,0.189063 0.21875,0.189062 0.229687,0.504687 l -0.4625,0.02031 q -0.02969,-0.176563 -0.128125,-0.253125 -0.09687,-0.07813 -0.292187,-0.07813 -0.201563,0 -0.315625,0.08281 -0.07344,0.05313 -0.07344,0.142188 0,0.08125 0.06875,0.139062 0.0875,0.07344 0.425,0.153125 0.3375,0.07969 0.498438,0.165625 0.1625,0.08437 0.253125,0.232813 0.09219,0.146875 0.09219,0.364062 0,0.196875 -0.109375,0.36875 -0.109375,0.171875 -0.309375,0.25625 -0.2,0.08281 -0.498437,0.08281 -0.434375,0 -0.667188,-0.2 -0.232812,-0.201563 -0.278125,-0.585938 z M 37.613437,72 v -2.290625 h 0.742187 q 0.421875,0 0.55,0.03438 0.196875,0.05156 0.329688,0.225 0.132812,0.171875 0.132812,0.445312 0,0.210938 -0.07656,0.354688 -0.07656,0.14375 -0.195313,0.226562 -0.117187,0.08125 -0.239062,0.107813 -0.165625,0.03281 -0.479688,0.03281 H 38.075937 V 72 Z m 0.4625,-1.903125 v 0.65 h 0.253125 q 0.273437,0 0.365625,-0.03594 0.09219,-0.03594 0.14375,-0.1125 0.05313,-0.07656 0.05313,-0.178125 0,-0.125 -0.07344,-0.20625 -0.07344,-0.08125 -0.185937,-0.101562 -0.08281,-0.01563 -0.332813,-0.01563 z m 3.5,1.903125 h -0.503125 l -0.2,-0.520313 H 39.957187 L 39.768124,72 h -0.490625 l 0.892188,-2.290625 h 0.489062 z m -0.851563,-0.90625 -0.315625,-0.85 -0.309375,0.85 z m 2.562501,0.06406 L 43.735312,71.3 q -0.103125,0.375 -0.34375,0.557812 -0.239062,0.181251 -0.607812,0.181251 -0.45625,0 -0.75,-0.310938 Q 41.74,71.415625 41.74,70.875 q 0,-0.571875 0.295312,-0.8875 0.295313,-0.317188 0.776563,-0.317188 0.420312,0 0.682812,0.248438 0.15625,0.146875 0.234375,0.421875 L 43.27125,70.45 q -0.04062,-0.178125 -0.170313,-0.28125 -0.128125,-0.103125 -0.3125,-0.103125 -0.254687,0 -0.414062,0.182812 -0.157813,0.182813 -0.157813,0.592188 0,0.434375 0.15625,0.61875 0.15625,0.184375 0.40625,0.184375 0.184375,0 0.317188,-0.117188 0.132812,-0.117187 0.190625,-0.36875 z M 44.132188,72 v -2.290625 h 1.698437 v 0.3875 h -1.235937 v 0.507812 h 1.15 v 0.385938 h -1.15 v 0.623437 h 1.279687 V 72 Z"
     id="text15"
     style="font-weight:bold;font-size:3.2px;font-family:Arial, sans-serif;text-anchor:middle;fill:#a5f3fc"
     aria-label="SPACE" />
  <!-- MIX -->
  <g
     transform="translate(67.73, 58)"
     id="g17">
    <circle
       r="7"
       fill="url(#knobGrad)"
       stroke="#22D3EE"
       stroke-width="0.8"
       opacity="0.8"
       id="circle16" />
    <circle
       r="6"
       fill="none"
       stroke="#1E293B"
       stroke-width="0.5"
       id="circle17" />
    <line
       x1="0"
       y1="-5"
       x2="0"
       y2="-3"
       stroke="#67E8F9"
       stroke-width="1.2"
       id="line17" />
  </g>
  <path
     d="m 65.112035,72 v -2.290625 h 0.692187 l 0.415625,1.5625 0.410938,-1.5625 h 0.69375 V 72 H 66.894847 V 70.196875 L 66.44016,72 H 65.994847 L 65.541722,70.196875 V 72 Z m 2.657812,0 v -2.290625 h 0.4625 V 72 Z m 0.670313,0 0.782812,-1.195313 -0.709375,-1.095312 h 0.540625 l 0.459375,0.735937 0.45,-0.735937 h 0.535938 l -0.7125,1.1125 L 70.569847,72 H 70.012035 L 69.504222,71.207812 68.994847,72 Z"
     id="text17"
     style="font-weight:bold;font-size:3.2px;font-family:Arial, sans-serif;text-anchor:middle;fill:#a5f3fc"
     aria-label="MIX" />
  <!-- Control section -->
  <rect
     x="6.0119228"
     y="74.307755"
     width="69.256149"
     height="21.960711"
     rx="1.9993116"
     fill="#1e293b"
     opacity="0.4"
     stroke="#334155"
     stroke-width="0.523846"
     id="rect17" />
  <!-- ROOT knob -->
  <g
     transform="translate(18,82.354165)"
     id="g19">
    <circle
       r="4.5"
       fill="url(#knobGrad)"
       stroke="#06b6d4"
       stroke-width="0.7"
       id="circle18"
       style="fill:url(#linearGradient37)"
       cx="0"
       cy="0" />
    <circle
       r="3.5"
       fill="none"
       stroke="#1e293b"
       stroke-width="0.4"
       id="circle19"
       cx="0"
       cy="0" />
    <line
       x1="0"
       y1="-3"
       x2="0"
       y2="-2"
       stroke="#67e8f9"
       stroke-width="1"
       id="line19" />
  </g>
  <path
     d="m 14.160938,91.766664 v -2.004297 h 0.851757 q 0.321289,0 0.466211,0.05469 0.146289,0.05332 0.233789,0.191406 0.0875,0.138086 0.0875,0.31582 0,0.225586 -0.132617,0.373242 -0.132617,0.146289 -0.396484,0.184571 0.13125,0.07656 0.216015,0.168164 0.08613,0.0916 0.231055,0.32539 l 0.244727,0.391014 h -0.483985 l -0.292578,-0.436133 q -0.155859,-0.233789 -0.213281,-0.293945 -0.05742,-0.06152 -0.12168,-0.0834 -0.06426,-0.02324 -0.203711,-0.02324 h -0.08203 v 0.836718 z m 0.404687,-1.156641 h 0.299414 q 0.291211,0 0.363672,-0.02461 0.07246,-0.02461 0.113477,-0.08477 0.04101,-0.06016 0.04101,-0.15039 0,-0.101172 -0.05469,-0.162696 -0.05332,-0.06289 -0.151758,-0.0793 -0.04922,-0.0068 -0.295313,-0.0068 h -0.31582 z m 1.533984,0.166797 q 0,-0.30625 0.0916,-0.514062 0.06836,-0.153125 0.185937,-0.274805 0.118946,-0.12168 0.259766,-0.180469 0.187305,-0.0793 0.432031,-0.0793 0.442969,0 0.708203,0.274805 0.266602,0.274805 0.266602,0.764258 0,0.485352 -0.263867,0.760156 -0.263867,0.273438 -0.705469,0.273438 -0.44707,0 -0.710938,-0.272071 -0.263867,-0.273437 -0.263867,-0.751953 z m 0.416992,-0.01367 q 0,0.34043 0.157227,0.516797 0.157227,0.175 0.399219,0.175 0.241992,0 0.396484,-0.173633 0.15586,-0.175 0.15586,-0.523632 0,-0.344532 -0.151758,-0.514063 -0.150391,-0.169531 -0.400586,-0.169531 -0.250196,0 -0.403321,0.172266 -0.153125,0.170898 -0.153125,0.516796 z m 1.760938,0.01367 q 0,-0.30625 0.0916,-0.514062 0.06836,-0.153125 0.185938,-0.274805 0.118945,-0.12168 0.259766,-0.180469 0.187304,-0.0793 0.432031,-0.0793 0.442969,0 0.708203,0.274805 0.266602,0.274805 0.266602,0.764258 0,0.485352 -0.263868,0.760156 -0.263867,0.273438 -0.705468,0.273438 -0.447071,0 -0.710938,-0.272071 -0.263867,-0.273437 -0.263867,-0.751953 z m 0.416992,-0.01367 q 0,0.34043 0.157227,0.516797 0.157226,0.175 0.399218,0.175 0.241993,0 0.396485,-0.173633 0.155859,-0.175 0.155859,-0.523632 0,-0.344532 -0.151758,-0.514063 -0.15039,-0.169531 -0.400586,-0.169531 -0.250195,0 -0.40332,0.172266 -0.153125,0.170898 -0.153125,0.516796 z m 2.294141,1.003514 V 90.10143 h -0.594727 v -0.339063 h 1.592774 v 0.339063 h -0.59336 v 1.665234 z"
     id="text19"
     style="font-weight:600;font-size:2.8px;font-family:Arial, sans-serif;text-anchor:middle;fill:#06b6d4"
     aria-label="ROOT" />
  <!-- SCALE knob -->
  <g
     transform="translate(35,82.354165)"
     id="g21">
    <circle
       r="4.5"
       fill="url(#knobGrad)"
       stroke="#06b6d4"
       stroke-width="0.7"
       id="circle20"
       style="fill:url(#linearGradient38)"
       cx="0"
       cy="0" />
    <circle
       r="3.5"
       fill="none"
       stroke="#1e293b"
       stroke-width="0.4"
       id="circle21"
       cx="0"
       cy="0" />
    <line
       x1="0"
       y1="-3"
       x2="0"
       y2="-2"
       stroke="#67e8f9"
       stroke-width="1"
       id="line21" />
  </g>
  <path
     d="m 30.356348,91.114516 0.39375,-0.03828 q 0.03555,0.198243 0.143554,0.291211 0.109375,0.09297 0.293946,0.09297 0.195508,0 0.293945,-0.08203 0.0998,-0.0834 0.0998,-0.194141 0,-0.07109 -0.04238,-0.120312 -0.04102,-0.05059 -0.144922,-0.0875 -0.07109,-0.02461 -0.324023,-0.0875 -0.325391,-0.08066 -0.456641,-0.198243 -0.18457,-0.165429 -0.18457,-0.40332 0,-0.153125 0.08613,-0.285742 0.0875,-0.133984 0.250196,-0.203711 0.164062,-0.06973 0.395117,-0.06973 0.377344,0 0.567383,0.16543 0.191406,0.16543 0.200976,0.441602 l -0.404687,0.01777 q -0.02598,-0.154492 -0.11211,-0.221484 -0.08477,-0.06836 -0.255664,-0.06836 -0.176367,0 -0.276171,0.07246 -0.06426,0.04649 -0.06426,0.124414 0,0.07109 0.06016,0.12168 0.07656,0.06426 0.371875,0.133984 0.295312,0.06973 0.436133,0.144922 0.142187,0.07383 0.221484,0.203711 0.08066,0.128516 0.08066,0.318555 0,0.172266 -0.0957,0.322656 -0.0957,0.150391 -0.270703,0.224219 -0.175,0.07246 -0.436133,0.07246 -0.380078,0 -0.583789,-0.175 -0.203711,-0.176367 -0.243359,-0.512695 z m 3.252539,-0.08477 0.392383,0.124414 q -0.09023,0.328125 -0.300782,0.488086 -0.209179,0.158594 -0.531836,0.158594 -0.399218,0 -0.65625,-0.272071 -0.257031,-0.273437 -0.257031,-0.746484 0,-0.500391 0.258399,-0.776562 0.258398,-0.27754 0.679492,-0.27754 0.367773,0 0.597461,0.217383 0.136718,0.128516 0.205078,0.369141 l -0.400586,0.0957 q -0.03555,-0.155859 -0.149024,-0.246094 -0.112109,-0.09023 -0.273437,-0.09023 -0.222852,0 -0.362305,0.159961 -0.138086,0.159961 -0.138086,0.518164 0,0.380078 0.136719,0.541406 0.136719,0.161328 0.355469,0.161328 0.161328,0 0.277539,-0.102539 0.116211,-0.102539 0.166797,-0.322657 z m 2.54707,0.736918 h -0.440234 l -0.175,-0.455273 h -0.801172 l -0.16543,0.455273 h -0.429297 l 0.780664,-2.004297 h 0.42793 z m -0.745117,-0.792969 -0.276172,-0.74375 -0.270703,0.74375 z m 0.970703,0.792969 v -1.987891 h 0.404687 v 1.650196 h 1.00625 v 0.337695 z m 1.699414,0 v -2.004297 h 1.486133 v 0.339063 h -1.081445 v 0.444336 h 1.00625 v 0.337695 h -1.00625 v 0.545508 h 1.119726 v 0.337695 z"
     id="text21"
     style="font-weight:600;font-size:2.8px;font-family:Arial, sans-serif;text-anchor:middle;fill:#06b6d4"
     aria-label="SCALE" />
  <!-- FREEZE button -->
  <rect
     x="52"
     y="80"
     width="14"
     height="6"
     rx="1.5"
     fill="#0EA5E9"
     stroke="#06B6D4"
     stroke-width="0.6"
     opacity="0.3"
     id="rect21" />
  <rect
     x="52.5"
     y="78.383331"
     width="13"
     height="5"
     rx="1"
     fill="#1e293b"
     stroke="#22d3ee"
     stroke-width="0.5"
     id="rect22" />
  <path
     d="m 54.112404,77.385053 v -1.717969 h 1.177734 v 0.290625 h -0.830859 v 0.406641 h 0.717187 v 0.290625 h -0.717187 v 0.730078 z m 1.464844,0 v -1.717969 h 0.730078 q 0.27539,0 0.399609,0.04687 0.125391,0.0457 0.200391,0.164063 0.075,0.118359 0.075,0.270703 0,0.193359 -0.113672,0.319922 -0.113672,0.12539 -0.339844,0.158203 0.1125,0.06562 0.185156,0.14414 0.07383,0.07852 0.198047,0.278907 l 0.209766,0.335161 h -0.414844 l -0.250781,-0.373828 q -0.133594,-0.200391 -0.182813,-0.251953 -0.04922,-0.05273 -0.104296,-0.07148 -0.05508,-0.01992 -0.17461,-0.01992 h -0.07031 v 0.717181 z m 0.346875,-0.991406 h 0.25664 q 0.24961,0 0.311719,-0.02109 0.06211,-0.02109 0.09727,-0.07266 0.03516,-0.05156 0.03516,-0.128907 0,-0.08672 -0.04687,-0.139453 -0.0457,-0.05391 -0.130078,-0.06797 -0.04219,-0.0059 -0.253125,-0.0059 h -0.270716 z m 1.385156,0.991406 v -1.717969 h 1.273828 v 0.290625 h -0.926953 v 0.38086 h 0.8625 v 0.289453 h -0.8625 V 77.0956 h 0.959766 v 0.289453 z m 1.600781,0 v -1.717969 h 1.273828 v 0.290625 h -0.926953 v 0.38086 h 0.8625 v 0.289453 h -0.8625 V 77.0956 h 0.959766 v 0.289453 z m 1.451954,0 v -0.312891 l 0.902343,-1.114453 h -0.80039 v -0.290625 h 1.257422 v 0.269531 L 60.780373,77.0956 h 0.977344 v 0.289453 z m 1.614844,0 v -1.717969 h 1.273828 v 0.290625 h -0.926953 v 0.38086 h 0.8625 v 0.289453 h -0.8625 V 77.0956 h 0.959765 v 0.289453 z"
     id="text22"
     style="font-weight:bold;font-size:2.4px;font-family:Arial, sans-serif;text-anchor:middle;fill:#22d3ee"
     aria-label="FREEZE" />
  <!-- RESET button -->
  <rect
     x="52"
     y="88"
     width="14"
     height="6"
     rx="1.5"
     fill="#0EA5E9"
     stroke="#06B6D4"
     stroke-width="0.6"
     opacity="0.3"
     id="rect23" />
  <rect
     x="52.5"
     y="86.383331"
     width="13"
     height="5"
     rx="1"
     fill="#1e293b"
     stroke="#22d3ee"
     stroke-width="0.5"
     id="rect24" />
  <path
     d="m 55.34038,94.315555 v -1.717969 h 0.730078 q 0.275391,0 0.399609,0.04687 0.125391,0.0457 0.200391,0.164063 0.075,0.118359 0.075,0.270703 0,0.193359 -0.113672,0.319922 -0.113672,0.12539 -0.339844,0.158203 0.1125,0.06562 0.185157,0.14414 0.07383,0.07852 0.198047,0.278907 l 0.209765,0.335161 h -0.414844 l -0.250781,-0.373828 q -0.133594,-0.200391 -0.182812,-0.251953 -0.04922,-0.05273 -0.104297,-0.07148 -0.05508,-0.01992 -0.17461,-0.01992 h -0.07031 v 0.717181 z m 0.346875,-0.991406 h 0.25664 q 0.24961,0 0.311719,-0.02109 0.06211,-0.02109 0.09727,-0.07266 0.03516,-0.05156 0.03516,-0.128907 0,-0.08672 -0.04687,-0.139453 -0.0457,-0.05391 -0.130078,-0.06797 -0.04219,-0.0059 -0.253125,-0.0059 h -0.270716 z m 1.385156,0.991406 v -1.717969 h 1.273828 v 0.290625 h -0.926953 v 0.38086 h 0.8625 v 0.289453 h -0.8625 v 0.467578 h 0.959766 v 0.289453 z m 1.512891,-0.558984 0.3375,-0.03281 q 0.03047,0.169922 0.123047,0.249609 0.09375,0.07969 0.251953,0.07969 0.167578,0 0.251953,-0.07031 0.08555,-0.07148 0.08555,-0.166406 0,-0.06094 -0.03633,-0.103125 -0.03516,-0.04336 -0.124219,-0.075 -0.06094,-0.02109 -0.277735,-0.075 -0.278906,-0.06914 -0.391406,-0.169922 -0.158203,-0.141797 -0.158203,-0.345703 0,-0.13125 0.07383,-0.244922 0.075,-0.114843 0.214453,-0.174609 0.140625,-0.05977 0.338672,-0.05977 0.323438,0 0.486328,0.141797 0.164063,0.141797 0.172266,0.378516 l -0.346875,0.01523 q -0.02227,-0.132422 -0.09609,-0.189844 -0.07266,-0.05859 -0.21914,-0.05859 -0.151172,0 -0.236719,0.06211 -0.05508,0.03984 -0.05508,0.106641 0,0.06094 0.05156,0.104297 0.06562,0.05508 0.31875,0.114843 0.253125,0.05977 0.373828,0.124219 0.121875,0.06328 0.189844,0.174609 0.06914,0.110157 0.06914,0.273047 0,0.147657 -0.08203,0.276563 -0.08203,0.128906 -0.232032,0.192187 -0.15,0.06211 -0.373828,0.06211 -0.325781,0 -0.500391,-0.15 -0.174609,-0.151172 -0.208593,-0.439453 z m 1.688672,0.558984 v -1.717969 h 1.273828 v 0.290625 h -0.926953 v 0.38086 h 0.8625 v 0.289453 h -0.8625 v 0.467578 h 0.959765 v 0.289453 z m 1.9875,0 v -1.427344 h -0.509766 v -0.290625 h 1.365235 v 0.290625 h -0.508594 v 1.427344 z"
     id="text24"
     style="font-weight:bold;font-size:2.4px;font-family:Arial, sans-serif;text-anchor:middle;fill:#22d3ee"
     aria-label="RESET" />
  <!-- I/O Section -->
  <line
     x1="5.496139"
     y1="97.865509"
     x2="76.776138"
     y2="97.865509"
     stroke="#334155"
     stroke-width="0.3"
     opacity="0.5"
     id="line24" />
  <!-- Inputs -->
  <path
     d="m 13.149064,101.05406 v -2.004303 h 0.404688 v 2.004303 z m 0.794336,0 v -2.004303 h 0.39375 l 0.820313,1.338483 v -1.338483 h 0.375976 v 2.004303 h -0.406054 l -0.808008,-1.307033 v 1.307033 z m 2.017969,0 v -2.004303 h 0.649414 q 0.36914,0 0.48125,0.0301 0.172265,0.0451 0.288476,0.19688 0.116211,0.15039 0.116211,0.38964 0,0.18458 -0.06699,0.31036 -0.06699,0.125783 -0.170898,0.198243 -0.102539,0.0711 -0.20918,0.0943 -0.144922,0.0287 -0.419727,0.0287 h -0.263869 v 0.75608 z m 0.404687,-1.665233 v 0.56875 h 0.221485 q 0.239257,0 0.319921,-0.0315 0.08067,-0.0314 0.125782,-0.0984 0.04648,-0.067 0.04648,-0.15586 0,-0.10937 -0.06426,-0.18047 -0.06426,-0.0711 -0.162695,-0.0889 -0.07246,-0.0137 -0.291211,-0.0137 z m 1.460156,-0.33907 H 18.2309 v 1.085553 q 0,0.2584 0.01504,0.33496 0.02598,0.12305 0.123047,0.19824 0.09844,0.0738 0.267969,0.0738 0.172265,0 0.259765,-0.0697 0.0875,-0.0711 0.105274,-0.17363 0.01777,-0.10254 0.01777,-0.34043 v -1.108793 h 0.404688 v 1.052743 q 0,0.36094 -0.03281,0.50996 -0.03281,0.14902 -0.12168,0.25156 -0.0875,0.10254 -0.235156,0.16406 -0.147656,0.0602 -0.385547,0.0602 -0.287109,0 -0.436133,-0.0656 -0.147656,-0.067 -0.233789,-0.17226 -0.08613,-0.10664 -0.113476,-0.22285 -0.03965,-0.17227 -0.03965,-0.5086 z m 2.475977,2.004303 v -1.665233 h -0.594727 v -0.33907 h 1.592774 v 0.33907 h -0.593359 v 1.665233 z"
     id="text25"
     style="font-weight:600;font-size:2.8px;font-family:Arial, sans-serif;text-anchor:middle;fill:#06b6d4"
     aria-label="INPUT" />
  <!-- CLK input -->
  <g
     transform="translate(10,107.23747)"
     id="g26">
    <circle
       r="4.5"
       fill="#0f172a"
       stroke="#475569"
       stroke-width="1.2"
       id="circle25"
       cx="0"
       cy="0" />
    <circle
       r="3.5"
       fill="#1e293b"
       stroke="#64748b"
       stroke-width="0.6"
       id="circle26"
       cx="0"
       cy="0" />
  </g>
  <path
     d="m 9.1535156,115.68532 0.2083984,0.0526 q -0.065527,0.25674 -0.2363281,0.39209 -0.1697265,0.13428 -0.4157226,0.13428 -0.2545899,0 -0.4146485,-0.10313 -0.1589844,-0.1042 -0.2427734,-0.30078 -0.082715,-0.19658 -0.082715,-0.42217 0,-0.24599 0.093457,-0.42861 0.094531,-0.18369 0.2674804,-0.27822 0.1740235,-0.0956 0.3824219,-0.0956 0.2363281,0 0.397461,0.12031 0.1611328,0.12031 0.2245117,0.33838 l -0.2051758,0.0483 q -0.054785,-0.17187 -0.1589844,-0.25029 -0.1041992,-0.0784 -0.2621094,-0.0784 -0.1815429,0 -0.3040039,0.087 -0.1213867,0.087 -0.1708008,0.23418 -0.049414,0.1461 -0.049414,0.30186 0,0.20088 0.058008,0.35127 0.059082,0.14931 0.1826172,0.22343 0.1235351,0.0741 0.2674805,0.0741 0.1750976,0 0.2964843,-0.10098 0.1213868,-0.10098 0.1643555,-0.29971 z m 0.456543,0.55215 v -1.5748 H 9.818457 v 1.38896 h 0.775586 v 0.18584 z m 1.2235354,0 v -1.5748 h 0.208398 v 0.78095 l 0.782031,-0.78095 h 0.28252 l -0.660645,0.63808 0.689649,0.93672 h -0.275 l -0.560742,-0.79707 -0.257813,0.25137 v 0.5457 z"
     id="text26"
     style="font-size:2.2px;font-family:Arial, sans-serif;text-anchor:middle;fill:#94a3b8"
     aria-label="CLK" />
  <!-- RST input -->
  <g
     transform="translate(22,107.23747)"
     id="g28">
    <circle
       r="4.5"
       fill="#0f172a"
       stroke="#475569"
       stroke-width="1.2"
       id="circle27"
       cx="0"
       cy="0" />
    <circle
       r="3.5"
       fill="#1e293b"
       stroke="#64748b"
       stroke-width="0.6"
       id="circle28"
       cx="0"
       cy="0" />
  </g>
  <path
     d="m 19.972949,116.23747 v -1.5748 h 0.698242 q 0.210547,0 0.320118,0.043 0.10957,0.0419 0.175097,0.14932 0.06553,0.10742 0.06553,0.2374 0,0.16758 -0.108497,0.28252 -0.108496,0.11494 -0.335156,0.1461 0.08272,0.0397 0.125684,0.0784 0.09131,0.0838 0.172949,0.20948 l 0.273924,0.42858 h -0.26211 l -0.208398,-0.32764 q -0.09131,-0.14179 -0.150391,-0.21699 -0.05908,-0.0752 -0.106347,-0.10527 -0.04619,-0.0301 -0.09453,-0.0419 -0.03545,-0.008 -0.116015,-0.008 h -0.241701 v 0.6998 z m 0.208399,-0.87979 h 0.447949 q 0.142871,0 0.223437,-0.029 0.08057,-0.0301 0.122461,-0.0945 0.0419,-0.0655 0.0419,-0.1418 0,-0.11172 -0.08164,-0.18369 -0.08057,-0.072 -0.255664,-0.072 h -0.498437 z m 1.30625,0.37383 0.196582,-0.0172 q 0.01396,0.11816 0.06445,0.19443 0.05156,0.0752 0.158984,0.12246 0.107422,0.0462 0.241699,0.0462 0.119239,0 0.210547,-0.0354 0.09131,-0.0354 0.135352,-0.0967 0.04512,-0.0623 0.04512,-0.13535 0,-0.0741 -0.04297,-0.12891 -0.04297,-0.0559 -0.141797,-0.0935 -0.06338,-0.0247 -0.280371,-0.0763 -0.216992,-0.0526 -0.304004,-0.0988 -0.112793,-0.0591 -0.168652,-0.14609 -0.05478,-0.0881 -0.05478,-0.19659 0,-0.11923 0.06768,-0.22236 0.06768,-0.1042 0.197656,-0.15791 0.12998,-0.0537 0.288965,-0.0537 0.175097,0 0.308301,0.0569 0.134277,0.0559 0.20625,0.16543 0.07197,0.10957 0.07734,0.24815 l -0.199804,0.015 q -0.01611,-0.14932 -0.109571,-0.22559 -0.09238,-0.0763 -0.273925,-0.0763 -0.189063,0 -0.276075,0.0698 -0.08594,0.0687 -0.08594,0.1665 0,0.0849 0.06123,0.13965 0.06016,0.0548 0.313672,0.11279 0.25459,0.0569 0.349121,0.0999 0.1375,0.0634 0.203028,0.16114 0.06553,0.0967 0.06553,0.22343 0,0.12569 -0.07197,0.23741 -0.07197,0.11064 -0.207324,0.17294 -0.134277,0.0612 -0.30293,0.0612 -0.213769,0 -0.358789,-0.0623 -0.143945,-0.0623 -0.22666,-0.18691 -0.08164,-0.12569 -0.08594,-0.2836 z m 1.938964,0.50596 v -1.38896 h -0.518847 v -0.18584 h 1.248242 v 0.18584 h -0.520996 v 1.38896 z"
     id="text28"
     style="font-size:2.2px;font-family:Arial, sans-serif;text-anchor:middle;fill:#94a3b8"
     aria-label="RST" />
  <!-- CV Outputs -->
  <path
     d="m 38.701029,100.64791 0.392383,0.12441 q -0.09023,0.32813 -0.300781,0.48809 -0.20918,0.15859 -0.531836,0.15859 -0.399219,0 -0.65625,-0.27207 -0.257032,-0.27344 -0.257032,-0.74648 0,-0.500404 0.258399,-0.776574 0.258398,-0.27754 0.679492,-0.27754 0.367773,0 0.597461,0.21739 0.136719,0.12851 0.205078,0.36914 l -0.400586,0.0957 q -0.03555,-0.155864 -0.149023,-0.246094 -0.11211,-0.0902 -0.273438,-0.0902 -0.222851,0 -0.362304,0.15996 -0.138086,0.159964 -0.138086,0.518174 0,0.38008 0.136718,0.5414 0.136719,0.16133 0.355469,0.16133 0.161328,0 0.277539,-0.10254 0.116211,-0.10254 0.166797,-0.32265 z m 1.250976,0.73691 -0.716406,-2.004304 h 0.438867 l 0.507227,1.483404 0.49082,-1.483404 h 0.429297 l -0.717773,2.004304 z m 2.052149,-0.98984 q 0,-0.30625 0.0916,-0.514074 0.06836,-0.15312 0.185938,-0.2748 0.118945,-0.12168 0.259765,-0.18047 0.187305,-0.0793 0.432032,-0.0793 0.442968,0 0.708203,0.27481 0.266601,0.2748 0.266601,0.764264 0,0.48535 -0.263867,0.76015 -0.263867,0.27344 -0.705469,0.27344 -0.44707,0 -0.710937,-0.27207 -0.263867,-0.27344 -0.263866,-0.75195 z m 0.416992,-0.0137 q 0,0.34043 0.157226,0.5168 0.157227,0.175 0.399219,0.175 0.241992,0 0.396485,-0.17363 0.155859,-0.175 0.155859,-0.52363 0,-0.34454 -0.151758,-0.514074 -0.150391,-0.16953 -0.400586,-0.16953 -0.250195,0 -0.40332,0.17227 -0.153125,0.170904 -0.153125,0.516794 z m 1.840234,-1.000784 h 0.404688 v 1.085554 q 0,0.2584 0.01504,0.33496 0.02598,0.12305 0.123047,0.19824 0.09844,0.0738 0.267969,0.0738 0.172265,0 0.259765,-0.0697 0.0875,-0.0711 0.105274,-0.17363 0.01777,-0.10254 0.01777,-0.34043 v -1.108794 h 0.404688 v 1.052744 q 0,0.36094 -0.03281,0.50996 -0.03281,0.14902 -0.12168,0.25156 -0.0875,0.10254 -0.235156,0.16406 -0.147656,0.0602 -0.385547,0.0602 -0.287109,0 -0.436133,-0.0656 -0.147656,-0.067 -0.233789,-0.17226 -0.08613,-0.10664 -0.113476,-0.22285 -0.03965,-0.17227 -0.03965,-0.5086 z m 2.475977,2.004324 V 99.719586 H 46.14263 v -0.33907 h 1.592773 v 0.33907 h -0.593359 v 1.665234 z"
     id="text29"
     style="font-weight:600;font-size:2.8px;font-family:Arial, sans-serif;text-anchor:middle;fill:#22d3ee"
     aria-label="CV OUT" />
  <!-- V/OCT output -->
  <g
     transform="translate(37,107.23747)"
     id="g30">
    <circle
       r="4.5"
       fill="#0f172a"
       stroke="#22d3ee"
       stroke-width="1.2"
       id="circle29"
       cx="0"
       cy="0" />
    <circle
       r="3.5"
       fill="#1e293b"
       stroke="#67e8f9"
       stroke-width="0.8"
       id="circle30"
       cx="0"
       cy="0" />
  </g>
  <path
     d="m 34.258594,116.23747 -0.610157,-1.5748 h 0.225586 l 0.409278,1.14404 q 0.04941,0.1375 0.08272,0.25781 0.03652,-0.12891 0.08486,-0.25781 l 0.42539,-1.14404 h 0.212696 l -0.616604,1.5748 z m 0.847558,0.0269 0.456543,-1.62852 h 0.154688 l -0.455469,1.62852 z m 0.717578,-0.79385 q 0,-0.39209 0.210547,-0.61338 0.210547,-0.22236 0.543555,-0.22236 0.218066,0 0.393164,0.10419 0.175098,0.1042 0.266406,0.29112 0.09238,0.18584 0.09238,0.42217 0,0.23955 -0.09668,0.42861 -0.09668,0.18906 -0.273925,0.28682 -0.177246,0.0967 -0.382422,0.0967 -0.222364,0 -0.397461,-0.10743 -0.175098,-0.10742 -0.265332,-0.29326 -0.09023,-0.18584 -0.09023,-0.39316 z m 0.214844,0.003 q 0,0.28467 0.152539,0.44902 0.153614,0.16329 0.384571,0.16329 0.235253,0 0.386718,-0.16543 0.152539,-0.16543 0.152539,-0.46944 0,-0.19228 -0.06553,-0.33515 -0.06445,-0.14395 -0.190137,-0.22237 -0.124609,-0.0795 -0.280371,-0.0795 -0.221289,0 -0.381347,0.15254 -0.158985,0.15146 -0.158985,0.50703 z m 2.683399,0.21162 0.208398,0.0526 q -0.06553,0.25674 -0.236328,0.39209 -0.169727,0.13428 -0.415723,0.13428 -0.25459,0 -0.414648,-0.10313 -0.158985,-0.1042 -0.242774,-0.30078 -0.08271,-0.19658 -0.08271,-0.42217 0,-0.24599 0.09346,-0.42861 0.09453,-0.18369 0.26748,-0.27822 0.174024,-0.0956 0.382422,-0.0956 0.236328,0 0.397461,0.12031 0.161133,0.12031 0.224512,0.33838 l -0.205176,0.0483 q -0.05479,-0.17187 -0.158985,-0.25029 -0.104199,-0.0784 -0.262109,-0.0784 -0.181543,0 -0.304004,0.087 -0.121387,0.087 -0.170801,0.23418 -0.04941,0.1461 -0.04941,0.30186 0,0.20088 0.05801,0.35127 0.05908,0.14931 0.182617,0.22343 0.123535,0.0741 0.267481,0.0741 0.175097,0 0.296484,-0.10098 0.121387,-0.10098 0.164356,-0.29971 z m 0.86582,0.55233 v -1.38896 h -0.518848 v -0.18584 h 1.248243 v 0.18584 h -0.520996 v 1.38896 z"
     id="text30"
     style="font-size:2.2px;font-family:Arial, sans-serif;text-anchor:middle;fill:#a5f3fc"
     aria-label="V/OCT" />
  <!-- GATE output -->
  <g
     transform="translate(49,107.23747)"
     id="g32">
    <circle
       r="4.5"
       fill="#0f172a"
       stroke="#22d3ee"
       stroke-width="1.2"
       id="circle31"
       cx="0"
       cy="0" />
    <circle
       r="3.5"
       fill="#1e293b"
       stroke="#67e8f9"
       stroke-width="0.8"
       id="circle32"
       cx="0"
       cy="0" />
  </g>
  <path
     d="m 46.993359,115.61979 v -0.18476 l 0.66709,-10e-4 v 0.58438 q -0.153613,0.12246 -0.316894,0.18476 -0.163282,0.0612 -0.335157,0.0612 -0.232031,0 -0.422168,-0.0988 -0.189062,-0.0999 -0.285742,-0.28789 -0.09668,-0.18799 -0.09668,-0.42002 0,-0.22989 0.0956,-0.42862 0.09668,-0.1998 0.277148,-0.29648 0.180469,-0.0967 0.415723,-0.0967 0.170801,0 0.308301,0.0559 0.138574,0.0548 0.216992,0.15361 0.07842,0.0988 0.119238,0.25781 l -0.187988,0.0516 q -0.03545,-0.12032 -0.08809,-0.18907 -0.05264,-0.0688 -0.15039,-0.10957 -0.09775,-0.0419 -0.216993,-0.0419 -0.142871,0 -0.24707,0.044 -0.104199,0.043 -0.168652,0.11387 -0.06338,0.0709 -0.09883,0.15576 -0.06016,0.1461 -0.06016,0.3169 0,0.21054 0.07197,0.35234 0.07305,0.1418 0.211621,0.21055 0.138574,0.0687 0.294336,0.0687 0.135352,0 0.264258,-0.0516 0.128906,-0.0526 0.195508,-0.11171 v -0.29327 z m 0.801368,0.61768 0.604785,-1.5748 h 0.224511 l 0.644532,1.5748 h -0.237403 l -0.183691,-0.47695 h -0.658496 l -0.172949,0.47695 z m 0.454394,-0.64668 h 0.533887 l -0.164356,-0.43613 q -0.0752,-0.19873 -0.111718,-0.32657 -0.03008,0.15147 -0.08486,0.30079 z m 1.42334,0.64668 v -1.38896 h -0.518848 v -0.18584 h 1.248243 v 0.18584 H 49.88086 v 1.38896 z m 0.947461,0 v -1.5748 h 1.138672 v 0.18584 H 50.82832 v 0.48232 h 0.871191 v 0.18476 H 50.82832 v 0.53604 h 0.966797 v 0.18584 z"
     id="text32"
     style="font-size:2.2px;font-family:Arial, sans-serif;text-anchor:middle;fill:#a5f3fc"
     aria-label="GATE" />
  <!-- Audio Outputs -->
  <path
     d="m 65.500098,101.21944 h -0.440235 l -0.175,-0.45527 h -0.801172 l -0.165429,0.45527 h -0.429297 l 0.780664,-2.004303 h 0.42793 z m -0.745117,-0.79297 -0.276172,-0.743753 -0.270703,0.743753 z m 0.957031,-1.211333 h 0.404687 v 1.085553 q 0,0.2584 0.01504,0.33496 0.02598,0.12305 0.123047,0.19824 0.09844,0.0738 0.267969,0.0738 0.172265,0 0.259765,-0.0697 0.0875,-0.0711 0.105274,-0.17363 0.01777,-0.10254 0.01777,-0.34043 v -1.108793 h 0.404688 v 1.052743 q 0,0.36094 -0.03281,0.50996 -0.03281,0.14902 -0.121679,0.25156 -0.0875,0.10254 -0.235157,0.16406 -0.147656,0.0602 -0.385546,0.0602 -0.28711,0 -0.436133,-0.0656 -0.147657,-0.067 -0.233789,-0.17226 -0.08613,-0.10664 -0.113477,-0.22285 -0.03965,-0.17227 -0.03965,-0.5086 z m 2.023437,0 h 0.739648 q 0.250196,0 0.381446,0.0383 0.176367,0.052 0.302148,0.18457 0.125781,0.13262 0.191406,0.3254 0.06562,0.1914 0.06562,0.473043 0,0.24746 -0.06152,0.42656 -0.07519,0.21875 -0.214648,0.35411 -0.105274,0.10254 -0.284375,0.15996 -0.133983,0.0424 -0.358202,0.0424 h -0.761523 z m 0.404687,0.33907 v 1.327533 h 0.302149 q 0.169531,0 0.244726,-0.0191 0.09844,-0.0246 0.162696,-0.0834 0.06563,-0.0588 0.10664,-0.19278 0.04102,-0.13535 0.04102,-0.36777 0,-0.232423 -0.04102,-0.356843 -0.04101,-0.12441 -0.114843,-0.19414 -0.07383,-0.0697 -0.187305,-0.0943 -0.08477,-0.0191 -0.332227,-0.0191 z m 1.606446,1.665233 v -2.004303 h 0.404687 v 2.004303 z m 0.708203,-0.98984 q 0,-0.306253 0.0916,-0.514073 0.06836,-0.15312 0.185938,-0.2748 0.118945,-0.12168 0.259765,-0.18047 0.187305,-0.0793 0.432032,-0.0793 0.442968,0 0.708203,0.27481 0.266601,0.2748 0.266601,0.764263 0,0.48535 -0.263867,0.76015 -0.263867,0.27344 -0.705469,0.27344 -0.44707,0 -0.710937,-0.27207 -0.263867,-0.27344 -0.263867,-0.75195 z m 0.416992,-0.0137 q 0,0.34043 0.157226,0.5168 0.157227,0.175 0.399219,0.175 0.241992,0 0.396485,-0.17363 0.155859,-0.175 0.155859,-0.52363 0,-0.344543 -0.151758,-0.514073 -0.150391,-0.16953 -0.400586,-0.16953 -0.250195,0 -0.40332,0.17227 -0.153125,0.1709 -0.153125,0.516793 z"
     id="text33"
     style="font-weight:600;font-size:2.8px;font-family:Arial, sans-serif;text-anchor:middle;fill:#f0f9ff"
     aria-label="AUDIO" />
  <!-- L output -->
  <g
     transform="translate(62,107.23747)"
     id="g34">
    <circle
       r="4.5"
       fill="#0f172a"
       stroke="#f0f9ff"
       stroke-width="1.5"
       id="circle33"
       cx="0"
       cy="0" />
    <circle
       r="3.5"
       fill="#1e293b"
       stroke="#ffffff"
       stroke-width="1"
       id="circle34"
       cx="0"
       cy="0" />
  </g>
  <path
     d="m 61.496729,116.23747 v -1.56191 h 0.317968 v 1.29658 h 0.790625 v 0.26533 z"
     id="text34"
     style="font-weight:bold;font-size:2.2px;font-family:Arial, sans-serif;text-anchor:middle;fill:#e2e8f0"
     aria-label="L" />
  <!-- R output -->
  <g
     transform="translate(74,107.23747)"
     id="g36">
    <circle
       r="4.5"
       fill="#0f172a"
       stroke="#f0f9ff"
       stroke-width="1.5"
       id="circle35"
       cx="0"
       cy="0" />
    <circle
       r="3.5"
       fill="#1e293b"
       stroke="#ffffff"
       stroke-width="1"
       id="circle36"
       cx="0"
       cy="0" />
  </g>
  <path
     d="m 73.366748,116.23747 v -1.5748 h 0.669238 q 0.252442,0 0.366309,0.043 0.114941,0.0419 0.183691,0.15039 0.06875,0.1085 0.06875,0.24815 0,0.17725 -0.104199,0.29326 -0.104199,0.11494 -0.311523,0.14502 0.103125,0.0602 0.169726,0.13213 0.06768,0.072 0.181543,0.25566 l 0.192285,0.30719 h -0.380273 l -0.229883,-0.34268 q -0.122461,-0.18369 -0.167578,-0.23095 -0.04512,-0.0483 -0.09561,-0.0655 -0.05049,-0.0183 -0.160059,-0.0183 h -0.06445 v 0.65743 z m 0.317969,-0.90879 h 0.235254 q 0.228808,0 0.285742,-0.0193 0.05693,-0.0193 0.08916,-0.0666 0.03223,-0.0473 0.03223,-0.11816 0,-0.0795 -0.04297,-0.12783 -0.04189,-0.0494 -0.119238,-0.0623 -0.03867,-0.005 -0.232032,-0.005 h -0.248144 z"
     id="text36"
     style="font-weight:bold;font-size:2.2px;font-family:Arial, sans-serif;text-anchor:middle;fill:#e2e8f0"
     aria-label="R" />
  <path
     style="font-size:5.64444px;font-family:Arial;-inkscape-font-specification:'Arial, Normal';fill:#d8f6f6;stroke-width:0.264583"
     d="m 32.356504,122.06691 q 0,-1.00596 0.54019,-1.57371 0.540191,-0.57051 1.394574,-0.57051 0.559483,0 1.008723,0.26734 0.44924,0.26734 0.683507,0.74689 0.237022,0.47681 0.237022,1.08314 0,0.61461 -0.248047,1.09968 -0.248046,0.48506 -0.702799,0.73587 -0.454752,0.24804 -0.981162,0.24804 -0.570507,0 -1.019748,-0.2756 -0.44924,-0.27561 -0.68075,-0.75241 -0.23151,-0.4768 -0.23151,-1.00873 z m 0.551215,0.008 q 0,0.73036 0.391362,1.15204 0.394119,0.41893 0.986675,0.41893 0.60358,0 0.992187,-0.42444 0.391362,-0.42444 0.391362,-1.2044 0,-0.49334 -0.16812,-0.8599 -0.165365,-0.36931 -0.487826,-0.57051 -0.319704,-0.20395 -0.719335,-0.20395 -0.567751,0 -0.978406,0.39137 -0.407899,0.3886 -0.407899,1.30086 z m 3.985283,1.95957 v -4.0404 h 0.804774 l 0.956357,2.8608 q 0.132292,0.39963 0.192926,0.59807 0.0689,-0.22049 0.214973,-0.64768 l 0.967383,-2.81119 h 0.719335 v 4.0404 h -0.515386 v -3.3817 l -1.174088,3.3817 h -0.482313 l -1.168575,-3.43958 v 3.43958 z m 4.712887,0 v -4.0404 h 0.548459 l 2.122177,3.17224 v -3.17224 h 0.51263 v 4.0404 h -0.548459 l -2.122177,-3.175 v 3.175 z m 4.172697,0 v -4.0404 h 0.534678 v 4.0404 z m 1.033527,0 1.55167,-4.0404 h 0.576019 l 1.653645,4.0404 h -0.609093 l -0.471288,-1.2237 h -1.689474 l -0.443728,1.2237 z m 1.165819,-1.65915 h 1.369769 l -0.421679,-1.11897 q -0.192925,-0.50987 -0.286632,-0.83785 -0.07717,0.38861 -0.21773,0.7717 z"
     id="text38"
     aria-label="OMNIA" />
</svg>
