<?xml version="1.0" encoding="UTF-8" standalone="no"?>
<svg
   width="30.48mm"
   height="128.5mm"
   viewBox="0 0 30.48 128.5"
   version="1.1"
   id="svg1"
   sodipodi:docname="BasicOscillator.svg"
   inkscape:version="1.4.3 (0d15f75, 2025-12-25)"
   xmlns:inkscape="http://www.inkscape.org/namespaces/inkscape"
   xmlns:sodipodi="http://sodipodi.sourceforge.net/DTD/sodipodi-0.dtd"
   xmlns="http://www.w3.org/2000/svg"
   xmlns:svg="http://www.w3.org/2000/svg">
  <defs
     id="defs1" />
  <sodipodi:namedview
     id="namedview1"
     pagecolor="#ffffff"
     bordercolor="#000000"
     borderopacity="0.25"
     inkscape:showpageshadow="2"
     inkscape:pageopacity="0.0"
     inkscape:pagecheckerboard="0"
     inkscape:deskcolor="#d1d1d1"
     inkscape:document-units="mm"
     inkscape:zoom="1.5998541"
     inkscape:cx="57.505244"
     inkscape:cy="242.20959"
     inkscape:window-width="1920"
     inkscape:window-height="991"
     inkscape:window-x="-9"
     inkscape:window-y="-9"
     inkscape:window-maximized="1"
     inkscape:current-layer="svg1" />
  <!-- Panel background -->
  <rect
     width="30.48"
     height="128.5"
     fill="#1a237e"
     id="rect1" />
  <!-- Title: PureFreq (converted to path) -->
  <path
     d="m 6.8442478,9.7609863 q 0,0.2197266 -0.076904,0.4306637 -0.076904,0.208741 -0.2197265,0.351563 -0.1955567,0.193359 -0.4372559,0.292236 -0.239502,0.09888 -0.5976563,0.09888 H 4.9875584 V 12 h -0.84375 V 8.7282715 h 1.3886718 q 0.3120118,0 0.5251465,0.054932 0.2153321,0.052734 0.380127,0.1604004 0.1977539,0.1296387 0.3010254,0.3317871 0.1054687,0.2021485 0.1054687,0.4855957 z m -0.8723144,0.019775 q 0,-0.1384277 -0.074707,-0.2373047 Q 5.8225193,9.4423828 5.7236423,9.402832 5.5918064,9.3500977 5.4665623,9.3457031 5.3413181,9.3391113 5.1325779,9.3391113 H 4.9875584 v 0.9799807 h 0.2416992 q 0.215332,0 0.3537597,-0.02637 0.140625,-0.02637 0.2351075,-0.105469 0.081299,-0.07031 0.116455,-0.166992 0.037354,-0.098877 0.037354,-0.2395023 z M 9.856699,12 H 9.0656834 v -0.272461 q -0.2197266,0.166992 -0.4020996,0.254883 -0.1823731,0.08569 -0.4350586,0.08569 -0.4086914,0 -0.6306153,-0.235107 Q 7.3781834,11.5979 7.3781834,11.138672 V 9.5324707 h 0.7954101 v 1.2238773 q 0,0.186767 0.010986,0.312011 0.013184,0.123047 0.057129,0.204346 0.041748,0.0813 0.1252441,0.118652 0.085693,0.03735 0.2373047,0.03735 0.1010742,0 0.2241211,-0.03735 0.1230469,-0.03735 0.2373047,-0.109863 V 9.5324707 H 9.856699 Z m 2.535645,-1.713867 h -0.07031 q -0.05054,-0.01758 -0.162598,-0.02637 -0.11206,-0.0088 -0.186767,-0.0088 -0.16919,0 -0.298828,0.02197 -0.129639,0.02197 -0.279053,0.07471 V 12 H 10.603769 V 9.5324707 h 0.791016 v 0.3625488 q 0.261475,-0.2241211 0.454834,-0.2966308 0.193359,-0.074707 0.355957,-0.074707 0.04175,0 0.09448,0.0022 0.05274,0.0022 0.09229,0.00659 z m 2.878417,0.626221 h -1.810546 q 0.01758,0.290039 0.219726,0.443847 0.204346,0.153809 0.599854,0.153809 0.250488,0 0.485595,-0.09009 0.235108,-0.09009 0.371338,-0.193359 h 0.08789 v 0.635009 q -0.268066,0.107666 -0.505371,0.156006 -0.237305,0.04834 -0.525147,0.04834 -0.742675,0 -1.138183,-0.333984 -0.395508,-0.333985 -0.395508,-0.951416 0,-0.61084 0.373535,-0.9667973 0.375733,-0.3581543 1.02832,-0.3581543 0.602051,0 0.905274,0.3054199 0.303222,0.3032227 0.303222,0.8745117 z M 14.48414,10.44873 q -0.0066,-0.248291 -0.123046,-0.373535 -0.116456,-0.1252438 -0.362549,-0.1252438 -0.228516,0 -0.375733,0.1186528 -0.147217,0.118652 -0.164795,0.380126 z m 3.733155,-1.087646 h -1.505127 v 0.6086426 h 1.395263 V 10.602539 H 16.712168 V 12 H 15.872812 V 8.7282715 h 2.344483 z m 2.326904,0.925049 h -0.07031 q -0.05054,-0.01758 -0.162597,-0.02637 -0.112061,-0.0088 -0.186768,-0.0088 -0.169189,0 -0.298828,0.02197 -0.129639,0.02197 -0.279053,0.07471 V 12 H 18.755625 V 9.5324707 h 0.791015 v 0.3625488 q 0.261475,-0.2241211 0.454834,-0.2966308 0.19336,-0.074707 0.355957,-0.074707 0.04175,0 0.09448,0.0022 0.05273,0.0022 0.09229,0.00659 z m 2.878418,0.626221 H 21.61207 q 0.01758,0.290039 0.219727,0.443847 0.204345,0.153809 0.599853,0.153809 0.250488,0 0.485596,-0.09009 0.235107,-0.09009 0.371338,-0.193359 h 0.08789 v 0.635009 q -0.268066,0.107666 -0.505371,0.156006 -0.237304,0.04834 -0.525146,0.04834 -0.742676,0 -1.138184,-0.333984 -0.395508,-0.333985 -0.395508,-0.951416 0,-0.61084 0.373536,-0.9667973 0.375732,-0.3581543 1.02832,-0.3581543 0.602051,0 0.905273,0.3054199 0.303223,0.3032227 0.303223,0.8745117 z M 22.635996,10.44873 q -0.0066,-0.248291 -0.123047,-0.373535 -0.116455,-0.1252438 -0.362549,-0.1252438 -0.228515,0 -0.375732,0.1186528 -0.147217,0.118652 -0.164795,0.380126 z m 3.74414,2.456543 h -0.791015 v -1.146972 q -0.19336,0.156006 -0.37793,0.23291 -0.18457,0.0769 -0.415283,0.0769 -0.452637,0 -0.7229,-0.347168 -0.268067,-0.347168 -0.268067,-0.936035 0,-0.314209 0.09009,-0.555908 0.09229,-0.2438966 0.250488,-0.4174806 0.149414,-0.1647949 0.362549,-0.2548828 0.213135,-0.092285 0.42627,-0.092285 0.20874,0 0.349365,0.04834 0.142822,0.046143 0.301025,0.1296387 l 0.02857,-0.1098633 h 0.766845 z m -0.791015,-1.586425 v -1.210694 q -0.0835,-0.03516 -0.175781,-0.05054 -0.09229,-0.01538 -0.16919,-0.01538 -0.312012,0 -0.468017,0.195557 -0.156006,0.193359 -0.156006,0.53833 0,0.362549 0.125244,0.527344 0.125244,0.162597 0.402099,0.162597 0.107666,0 0.228516,-0.03955 0.12085,-0.04175 0.213135,-0.107666 z"
     fill="#ffffff"
     id="path1" />
  <!-- Carrier Frequency label -->
  <path
     d="m 8.6040619,31.117836 q -0.075792,0.03307 -0.1378037,0.06201 -0.060634,0.02894 -0.1598524,0.06063 -0.08406,0.02618 -0.1832789,0.0441 -0.097841,0.01929 -0.2163518,0.01929 -0.2232421,0 -0.406521,-0.06201 Q 7.3183532,31.17847 7.1833056,31.0448 7.051014,30.913886 6.9766,30.712693 6.902186,30.510122 6.902186,30.242782 q 0,-0.253558 0.071658,-0.453374 0.071658,-0.199815 0.2067056,-0.337619 0.1309135,-0.13367 0.3155705,-0.203949 0.186035,-0.07028 0.4120331,-0.07028 0.1653645,0 0.3293509,0.03996 0.1653644,0.03996 0.3665579,0.14056 v 0.323838 H 8.583391 Q 8.4138924,29.53998 8.2471499,29.475213 q -0.1667425,-0.06477 -0.3569116,-0.06477 -0.1557182,0 -0.2811196,0.05099 -0.1240233,0.04961 -0.2218639,0.155719 -0.095085,0.103352 -0.1488281,0.261827 -0.052365,0.157096 -0.052365,0.363801 0,0.216352 0.057878,0.37207 0.059256,0.155719 0.1515841,0.253559 0.096463,0.101975 0.22462,0.151584 0.1295355,0.04823 0.2728514,0.04823 0.1970593,0 0.369314,-0.06752 0.1722546,-0.06752 0.3224606,-0.202572 h 0.019293 z m 1.5613161,0.148828 H 9.907685 v -0.163986 q -0.034451,0.02343 -0.093707,0.06614 -0.057878,0.04134 -0.1129991,0.06615 -0.064768,0.03169 -0.148828,0.05237 -0.08406,0.02205 -0.1970593,0.02205 -0.2080836,0 -0.3527775,-0.137804 -0.1446939,-0.137803 -0.1446939,-0.351399 0,-0.175011 0.074414,-0.282498 0.075792,-0.108865 0.2149738,-0.170876 0.1405598,-0.06201 0.3376191,-0.08406 0.1970593,-0.02205 0.4230574,-0.03307 v -0.03996 q 0,-0.0882 -0.031695,-0.146072 -0.030317,-0.05788 -0.088194,-0.09095 -0.055121,-0.03169 -0.1322915,-0.04272 -0.07717,-0.01102 -0.1612304,-0.01102 -0.1019747,0 -0.2273761,0.02756 -0.1254014,0.02618 -0.259071,0.07717 h -0.01378 v -0.263205 q 0.075792,-0.02067 0.219108,-0.04548 0.1433158,-0.02481 0.2824976,-0.02481 0.1626084,0 0.2824976,0.02756 0.1212673,0.02618 0.2094616,0.09095 0.086816,0.06339 0.1322917,0.163986 0.04547,0.100597 0.04547,0.249425 z m -0.257693,-0.37896 v -0.42857 q -0.1185112,0.0069 -0.2797416,0.02067 -0.1598523,0.01378 -0.2535588,0.03996 -0.111621,0.03169 -0.1805229,0.09922 -0.068902,0.06614 -0.068902,0.183278 0,0.132292 0.079926,0.199816 0.079926,0.06615 0.2439126,0.06615 0.1364257,0 0.2494247,-0.05237 0.1129991,-0.05374 0.2094617,-0.128157 z m 1.717034,-0.87781 h -0.01378 q -0.05788,-0.01378 -0.112999,-0.01929 -0.05374,-0.0069 -0.128158,-0.0069 -0.119889,0 -0.23151,0.05374 -0.111621,0.05236 -0.214974,0.136426 v 1.092794 h -0.259071 v -1.539267 h 0.259071 v 0.227376 q 0.154341,-0.124024 0.271474,-0.175011 0.118511,-0.05237 0.241156,-0.05237 0.06752,0 0.09784,0.0041 0.03032,0.0028 0.09095,0.0124 z m 1.204405,0 h -0.01378 q -0.05788,-0.01378 -0.112999,-0.01929 -0.05374,-0.0069 -0.128157,-0.0069 -0.119889,0 -0.23151,0.05374 -0.111621,0.05236 -0.214974,0.136426 v 1.092794 h -0.259071 v -1.539267 h 0.259071 v 0.227376 q 0.15434,-0.124024 0.271473,-0.175011 0.118511,-0.05237 0.241157,-0.05237 0.06752,0 0.09784,0.0041 0.03032,0.0028 0.09095,0.0124 z M 13.3514,29.469704 H 13.059256 V 29.200986 H 13.3514 Z m -0.01654,1.79696 h -0.259071 v -1.539267 h 0.259071 z m 1.801095,-0.742762 H 14.00183 q 0,0.141938 0.04272,0.248047 0.04272,0.10473 0.117134,0.172254 0.07166,0.06615 0.169498,0.09922 0.09922,0.03307 0.21773,0.03307 0.157096,0 0.315571,-0.06201 0.159852,-0.06339 0.227376,-0.124023 h 0.01378 v 0.282497 q -0.130913,0.05512 -0.267339,0.09233 -0.136426,0.03721 -0.286632,0.03721 -0.383094,0 -0.598068,-0.206706 -0.214974,-0.208083 -0.214974,-0.5898 0,-0.377582 0.205328,-0.599446 0.206705,-0.221864 0.542946,-0.221864 0.311437,0 0.479557,0.181901 0.169499,0.181901 0.169499,0.516764 z m -0.252181,-0.198437 q -0.0014,-0.20395 -0.103353,-0.315571 -0.100596,-0.111621 -0.307302,-0.111621 -0.208084,0 -0.332107,0.122645 -0.122645,0.122646 -0.139182,0.304547 z m 1.605414,-0.315571 h -0.01378 q -0.05788,-0.01378 -0.112999,-0.01929 -0.05374,-0.0069 -0.128157,-0.0069 -0.119889,0 -0.23151,0.05374 -0.111621,0.05236 -0.214974,0.136426 v 1.092794 H 15.5287 v -1.539267 h 0.259071 v 0.227376 q 0.15434,-0.124024 0.271473,-0.175011 0.118511,-0.05237 0.241157,-0.05237 0.06752,0 0.09784,0.0041 0.03032,0.0028 0.09095,0.0124 z m 2.567282,-0.552593 h -1.037662 v 0.578776 h 0.89159 v 0.242534 h -0.89159 v 0.988053 H 17.74596 v -2.051897 h 1.310513 z m 1.251258,0.552593 h -0.01378 q -0.05788,-0.01378 -0.112999,-0.01929 -0.05374,-0.0069 -0.128158,-0.0069 -0.119889,0 -0.23151,0.05374 -0.111621,0.05236 -0.214974,0.136426 v 1.092794 h -0.259071 v -1.539267 h 0.259071 v 0.227376 q 0.154341,-0.124024 0.271474,-0.175011 0.118511,-0.05237 0.241156,-0.05237 0.06752,0 0.09784,0.0041 0.03032,0.0028 0.09095,0.0124 z m 1.532378,0.514008 h -1.134125 q 0,0.141938 0.04272,0.248047 0.04272,0.10473 0.117133,0.172254 0.07166,0.06615 0.169498,0.09922 0.09922,0.03307 0.21773,0.03307 0.157096,0 0.315571,-0.06201 0.159852,-0.06339 0.227376,-0.124023 h 0.01378 v 0.282497 q -0.130913,0.05512 -0.267339,0.09233 -0.136426,0.03721 -0.286632,0.03721 -0.383094,0 -0.598068,-0.206706 -0.214974,-0.208083 -0.214974,-0.5898 0,-0.377582 0.205328,-0.599446 0.206705,-0.221864 0.542947,-0.221864 0.311436,0 0.479556,0.181901 0.169499,0.181901 0.169499,0.516764 z m -0.252181,-0.198437 q -0.0014,-0.20395 -0.103353,-0.315571 -0.100596,-0.111621 -0.307302,-0.111621 -0.208083,0 -0.332107,0.122645 -0.122645,0.122646 -0.139182,0.304547 z m 1.893423,1.50895 H 23.22228 v -0.741384 q -0.119889,0.103353 -0.238401,0.15434 -0.118511,0.04961 -0.256315,0.04961 -0.274229,0 -0.438215,-0.21084 -0.162609,-0.212218 -0.162609,-0.584288 0,-0.198437 0.0565,-0.350021 0.05788,-0.152962 0.151584,-0.256315 0.09095,-0.100597 0.213596,-0.155718 0.122645,-0.05512 0.259071,-0.05512 0.124023,0 0.219107,0.02756 0.09646,0.02756 0.195682,0.0813 l 0.01654,-0.06615 h 0.242535 z M 23.22228,30.875301 v -0.870919 q -0.107487,-0.04823 -0.190169,-0.06752 -0.08268,-0.01929 -0.179145,-0.01929 -0.22462,0 -0.341753,0.152962 -0.117134,0.151584 -0.117134,0.418923 0,0.270095 0.09371,0.416167 0.09508,0.144694 0.297656,0.144694 0.112999,0 0.225998,-0.04823 0.112999,-0.04961 0.21084,-0.12678 z"
     id="text-carrier-freq"
     style="font-size:2.82222px;-inkscape-font-specification:'sans-serif, Normal';text-anchor:middle;fill:#ffffff"
     aria-label="Carrier Freq" />
  <!-- Beat Frequency label -->
  <path
     d="m 10.222567,46.635523 q 0,0.152962 -0.05788,0.270095 -0.05788,0.117133 -0.155718,0.192925 -0.1157534,0.09095 -0.2549351,0.129536 -0.1378037,0.03858 -0.3513995,0.03858 H 8.6750308 v -2.051897 h 0.6077144 q 0.22462,0 0.336241,0.01654 0.111621,0.01654 0.2135958,0.0689 0.112999,0.05926 0.1639864,0.152962 0.050988,0.09233 0.050988,0.221864 0,0.146072 -0.074414,0.249425 -0.074414,0.101975 -0.1984374,0.163986 v 0.01102 q 0.2080836,0.04272 0.327973,0.183278 0.11989,0.139182 0.11989,0.352778 z M 9.7636801,45.71086 q 0,-0.07441 -0.024805,-0.125401 -0.024805,-0.05099 -0.079926,-0.08268 -0.064768,-0.03721 -0.1570962,-0.04547 -0.092329,-0.0096 -0.2287542,-0.0096 H 8.9478821 v 0.592556 h 0.3527775 q 0.1281575,0 0.2039495,-0.0124 0.075792,-0.01378 0.1405598,-0.05512 0.064768,-0.04134 0.09095,-0.106109 0.027561,-0.06615 0.027561,-0.155718 z m 0.1750107,0.935687 q 0,-0.124023 -0.037207,-0.197059 -0.037207,-0.07304 -0.1350476,-0.124023 -0.066146,-0.03445 -0.1612303,-0.0441 -0.093707,-0.01102 -0.2287542,-0.01102 H 8.9478821 v 0.763433 h 0.3610458 q 0.1791448,0 0.2935219,-0.01791 0.1143771,-0.01929 0.187413,-0.0689 0.07717,-0.05374 0.1129991,-0.122645 0.035829,-0.0689 0.035829,-0.177767 z m 1.9388982,-0.122645 h -1.134124 q 0,0.141938 0.04272,0.248047 0.04272,0.10473 0.117133,0.172254 0.07166,0.06615 0.169498,0.09922 0.09922,0.03307 0.21773,0.03307 0.157097,0 0.315571,-0.06201 0.159852,-0.06339 0.227376,-0.124023 h 0.01378 v 0.282497 q -0.130913,0.05512 -0.267339,0.09233 -0.136426,0.03721 -0.286632,0.03721 -0.383094,0 -0.598068,-0.206706 -0.214974,-0.208083 -0.214974,-0.5898 0,-0.377582 0.205328,-0.599446 0.206706,-0.221864 0.542947,-0.221864 0.311436,0 0.479557,0.181901 0.169498,0.181901 0.169498,0.516764 z m -0.252181,-0.198437 q -0.0014,-0.20395 -0.103352,-0.315571 -0.100597,-0.111621 -0.307303,-0.111621 -0.208083,0 -0.332107,0.122645 -0.122645,0.122646 -0.139181,0.304547 z m 1.841058,0.941199 h -0.257693 v -0.163986 q -0.03445,0.02343 -0.09371,0.06614 -0.05788,0.04134 -0.112999,0.06615 -0.06477,0.03169 -0.148828,0.05237 -0.08406,0.02205 -0.197059,0.02205 -0.208084,0 -0.352777,-0.137804 -0.144694,-0.137803 -0.144694,-0.351399 0,-0.175011 0.07441,-0.282498 0.07579,-0.108865 0.214973,-0.170876 0.14056,-0.06201 0.33762,-0.08406 0.197059,-0.02205 0.423057,-0.03307 v -0.03996 q 0,-0.0882 -0.0317,-0.146072 -0.03032,-0.05788 -0.08819,-0.09095 -0.05512,-0.03169 -0.132292,-0.04272 -0.07717,-0.01102 -0.16123,-0.01102 -0.101975,0 -0.227376,0.02756 -0.125402,0.02618 -0.259071,0.07717 h -0.01378 v -0.263205 q 0.07579,-0.02067 0.219108,-0.04548 0.143316,-0.02481 0.282498,-0.02481 0.162608,0 0.282497,0.02756 0.121268,0.02618 0.209462,0.09095 0.08682,0.06339 0.132292,0.163986 0.04547,0.100597 0.04547,0.249425 z m -0.257693,-0.37896 v -0.42857 q -0.118511,0.0069 -0.279742,0.02067 -0.159852,0.01378 -0.253558,0.03996 -0.111621,0.03169 -0.180523,0.09922 -0.0689,0.06614 -0.0689,0.183278 0,0.132292 0.07993,0.199816 0.07993,0.06615 0.243913,0.06615 0.136425,0 0.249424,-0.05237 0.112999,-0.05374 0.209462,-0.128157 z m 1.555804,0.36518 q -0.07304,0.01929 -0.159852,0.03169 -0.08544,0.0124 -0.152963,0.0124 -0.235644,0 -0.358289,-0.12678 -0.122646,-0.126779 -0.122646,-0.406521 v -0.818554 h -0.17501 V 45.72739 h 0.17501 v -0.44235 h 0.259071 v 0.44235 h 0.534679 v 0.217729 h -0.534679 v 0.701421 q 0,0.121268 0.0055,0.190169 0.0055,0.06752 0.03859,0.12678 0.03032,0.05512 0.08268,0.0813 0.05374,0.0248 0.162608,0.0248 0.06339,0 0.132292,-0.01791 0.0689,-0.01929 0.09922,-0.03169 h 0.01378 z m 2.636185,-1.795583 H 16.3631 v 0.578776 h 0.89159 v 0.242534 H 16.3631 v 0.988053 h -0.272851 v -2.051897 h 1.310513 z m 1.251258,0.552593 h -0.01378 q -0.05788,-0.01378 -0.112999,-0.01929 -0.05374,-0.0069 -0.128157,-0.0069 -0.119889,0 -0.23151,0.05374 -0.111621,0.05236 -0.214974,0.136426 v 1.092794 H 17.691529 V 45.727397 H 17.9506 v 0.227376 q 0.15434,-0.124024 0.271473,-0.175011 0.118511,-0.05237 0.241157,-0.05237 0.06752,0 0.09784,0.0041 0.03032,0.0028 0.09095,0.0124 z m 1.532377,0.514008 h -1.134124 q 0,0.141938 0.04272,0.248047 0.04272,0.10473 0.117133,0.172254 0.07166,0.06615 0.169499,0.09922 0.09922,0.03307 0.21773,0.03307 0.157096,0 0.31557,-0.06201 0.159852,-0.06339 0.227376,-0.124023 h 0.01378 v 0.282497 q -0.130914,0.05512 -0.26734,0.09233 -0.136425,0.03721 -0.286631,0.03721 -0.383095,0 -0.598069,-0.206706 -0.214973,-0.208083 -0.214973,-0.5898 0,-0.377582 0.205327,-0.599446 0.206706,-0.221864 0.542947,-0.221864 0.311436,0 0.479557,0.181901 0.169498,0.181901 0.169498,0.516764 z m -0.25218,-0.198437 q -0.0014,-0.20395 -0.103353,-0.315571 -0.100597,-0.111621 -0.307303,-0.111621 -0.208083,0 -0.332106,0.122645 -0.122646,0.122646 -0.139182,0.304547 z m 1.893422,1.50895 h -0.259071 v -0.741384 q -0.119889,0.103353 -0.2384,0.15434 -0.118512,0.04961 -0.256315,0.04961 -0.27423,0 -0.438216,-0.21084 -0.162608,-0.212218 -0.162608,-0.584288 0,-0.198437 0.0565,-0.350021 0.05788,-0.152962 0.151584,-0.256315 0.09095,-0.100597 0.213596,-0.155718 0.122645,-0.05512 0.259071,-0.05512 0.124023,0 0.219108,0.02756 0.09646,0.02756 0.195681,0.0813 l 0.01654,-0.06615 h 0.242534 z m -0.259071,-0.959114 v -0.870919 q -0.107487,-0.04823 -0.190169,-0.06752 -0.08268,-0.01929 -0.179145,-0.01929 -0.22462,0 -0.341753,0.152962 -0.117133,0.151584 -0.117133,0.418923 0,0.270095 0.09371,0.416167 0.09509,0.144694 0.297656,0.144694 0.112999,0 0.225998,-0.04823 0.112999,-0.04961 0.21084,-0.12678 z"
     id="text-beat-freq"
     style="font-size:2.82222px;-inkscape-font-specification:'sans-serif, Normal';text-anchor:middle;fill:#ffffff"
     aria-label="Beat Freq" />
  <!-- Harmonic Count label -->
  <path
     d="M 5.6509282,63.266664 H 5.3780769 V 62.262075 H 4.3541953 v 1.004589 H 4.0813439 v -2.051897 h 0.2728514 v 0.804773 h 1.0238816 v -0.804773 h 0.2728513 z m 1.7266805,0 h -0.257693 v -0.163986 q -0.034451,0.02343 -0.093706,0.06614 -0.057878,0.04134 -0.112999,0.06615 -0.064768,0.03169 -0.148828,0.05237 -0.08406,0.02205 -0.1970594,0.02205 -0.2080836,0 -0.3527775,-0.137804 -0.1446939,-0.137803 -0.1446939,-0.351399 0,-0.175011 0.074414,-0.282498 0.075792,-0.108865 0.2149738,-0.170876 0.1405598,-0.06201 0.3376191,-0.08406 0.1970593,-0.02205 0.4230574,-0.03307 v -0.03996 q 0,-0.08819 -0.031695,-0.146072 -0.030317,-0.05788 -0.088194,-0.09095 -0.055121,-0.03169 -0.1322916,-0.04272 -0.07717,-0.01102 -0.1612303,-0.01102 -0.1019748,0 -0.2273761,0.02756 -0.1254014,0.02618 -0.259071,0.07717 h -0.01378 v -0.263205 q 0.075792,-0.02067 0.2191079,-0.04547 0.1433159,-0.02481 0.2824976,-0.02481 0.1626084,0 0.2824976,0.02756 0.1212673,0.02618 0.2094617,0.09095 0.086816,0.06339 0.1322916,0.163986 0.045475,0.100597 0.045475,0.249425 z m -0.257693,-0.37896 v -0.42857 q -0.1185112,0.0069 -0.2797415,0.02067 -0.1598523,0.01378 -0.2535588,0.03996 -0.111621,0.0317 -0.1805229,0.09922 -0.068902,0.06615 -0.068902,0.183278 0,0.132292 0.079926,0.199816 0.079926,0.06615 0.2439126,0.06615 0.1364256,0 0.2494247,-0.05237 0.112999,-0.05374 0.2094616,-0.128157 z m 1.7170345,-0.87781 h -0.01378 q -0.057878,-0.01378 -0.112999,-0.01929 -0.053743,-0.0069 -0.1281575,-0.0069 -0.1198892,0 -0.2315102,0.05374 -0.111621,0.05236 -0.2149738,0.136426 v 1.092794 h -0.259071 v -1.539267 h 0.259071 v 0.227376 q 0.1543402,-0.124024 0.2714733,-0.175011 0.1185112,-0.05236 0.2411565,-0.05236 0.067524,0 0.097841,0.0041 0.030317,0.0028 0.09095,0.0124 z m 2.4901128,1.25677 h -0.259071 v -0.876432 q 0,-0.09922 -0.0096,-0.191547 -0.0083,-0.09233 -0.03721,-0.14745 -0.03169,-0.05925 -0.09095,-0.08957 -0.05926,-0.03032 -0.170877,-0.03032 -0.108865,0 -0.21773,0.05512 -0.108865,0.05374 -0.21773,0.137804 0.0041,0.03169 0.0069,0.07441 0.0028,0.04134 0.0028,0.08268 v 0.985305 h -0.259071 v -0.876432 q 0,-0.101974 -0.0096,-0.192925 -0.0083,-0.09233 -0.03721,-0.14745 -0.031695,-0.05925 -0.09095,-0.08819 -0.059256,-0.03032 -0.1708766,-0.03032 -0.1061088,0 -0.2135957,0.05236 -0.1061089,0.05237 -0.2122178,0.13367 v 1.149287 H 9.0808627 v -1.539267 h 0.2590709 v 0.170876 q 0.1212673,-0.100597 0.2411565,-0.157096 0.1212673,-0.0565 0.257693,-0.0565 0.1570962,0 0.2659609,0.06615 0.110243,0.06615 0.163987,0.183279 0.157096,-0.132291 0.286631,-0.190169 0.129536,-0.05926 0.276986,-0.05926 0.253559,0 0.373448,0.154341 0.121267,0.152962 0.121267,0.428569 z m 1.810741,-0.768945 q 0,0.376204 -0.192925,0.593934 -0.192925,0.21773 -0.516764,0.21773 -0.326595,0 -0.51952,-0.21773 -0.191547,-0.21773 -0.191547,-0.593934 0,-0.376204 0.191547,-0.593934 0.192925,-0.219108 0.51952,-0.219108 0.323839,0 0.516764,0.219108 0.192925,0.21773 0.192925,0.593934 z m -0.267339,0 q 0,-0.299034 -0.117133,-0.443728 -0.117134,-0.146072 -0.325217,-0.146072 -0.21084,0 -0.327973,0.146072 -0.115755,0.144694 -0.115755,0.443728 0,0.289388 0.117133,0.439594 0.117133,0.148828 0.326595,0.148828 0.206705,0 0.323839,-0.14745 0.118511,-0.148828 0.118511,-0.440972 z m 1.955435,0.768945 h -0.259071 v -0.876432 q 0,-0.106108 -0.0124,-0.198437 -0.0124,-0.09371 -0.04548,-0.146072 -0.03445,-0.05788 -0.09922,-0.08544 -0.06477,-0.02894 -0.168121,-0.02894 -0.106109,0 -0.221864,0.05236 -0.115755,0.05237 -0.221864,0.13367 v 1.149291 h -0.259071 v -1.539267 h 0.259071 v 0.170876 q 0.121268,-0.100597 0.250803,-0.157096 0.129535,-0.0565 0.265961,-0.0565 0.249425,0 0.380338,0.150206 0.130914,0.150206 0.130914,0.432704 z m 0.777212,-1.79696 h -0.292144 v -0.268718 h 0.292144 z m -0.01654,1.79696 h -0.259071 v -1.539267 h 0.259071 z m 1.650888,-0.09646 q -0.129535,0.06201 -0.246668,0.09646 -0.115755,0.03445 -0.246669,0.03445 -0.166742,0 -0.305924,-0.04823 -0.139182,-0.04961 -0.238401,-0.148828 -0.100596,-0.09922 -0.155718,-0.250803 -0.05512,-0.151584 -0.05512,-0.354156 0,-0.377582 0.206705,-0.592556 0.208084,-0.214973 0.548459,-0.214973 0.132292,0 0.259071,0.03721 0.128157,0.03721 0.234266,0.09095 v 0.28801 h -0.01378 Q 17.10517,62.015408 16.97839,61.9658 16.852989,61.91619 16.7331,61.91619 q -0.220486,0 -0.348644,0.148828 -0.126779,0.14745 -0.126779,0.434081 0,0.278364 0.124023,0.42857 0.125402,0.148828 0.3514,0.148828 0.07855,0 0.159852,-0.02067 0.0813,-0.02067 0.146072,-0.05374 0.0565,-0.02894 0.106109,-0.06063 0.04961,-0.03307 0.07855,-0.0565 h 0.01378 z m 2.929707,-0.05236 q -0.07579,0.03307 -0.137804,0.06201 -0.06063,0.02894 -0.159852,0.06063 -0.08406,0.02618 -0.183279,0.0441 -0.09784,0.01929 -0.216352,0.01929 -0.223242,0 -0.406521,-0.06201 -0.181901,-0.06339 -0.316948,-0.197059 -0.132292,-0.130914 -0.206706,-0.332107 -0.07441,-0.202571 -0.07441,-0.469911 0,-0.253558 0.07166,-0.453374 0.07166,-0.199815 0.206706,-0.337619 0.130913,-0.13367 0.31557,-0.203949 0.186035,-0.07028 0.412033,-0.07028 0.165365,0 0.329351,0.03996 0.165365,0.03996 0.366558,0.14056 v 0.323838 H 20.1465 q -0.169498,-0.141938 -0.336241,-0.206705 -0.166742,-0.06477 -0.356911,-0.06477 -0.155718,0 -0.28112,0.05099 -0.124023,0.04961 -0.221864,0.155719 -0.09508,0.103352 -0.148828,0.261827 -0.05236,0.157096 -0.05236,0.363801 0,0.216352 0.05788,0.37207 0.05926,0.155719 0.151584,0.253559 0.09646,0.101975 0.22462,0.151584 0.129536,0.04823 0.272852,0.04823 0.197059,0 0.369314,-0.06752 0.172254,-0.06752 0.32246,-0.202572 h 0.01929 z m 1.677072,-0.620117 q 0,0.376204 -0.192926,0.593934 -0.192925,0.21773 -0.516764,0.21773 -0.326594,0 -0.51952,-0.21773 -0.191547,-0.21773 -0.191547,-0.593934 0,-0.376204 0.191547,-0.593934 0.192926,-0.219108 0.51952,-0.219108 0.323839,0 0.516764,0.219108 0.192926,0.21773 0.192926,0.593934 z m -0.26734,0 q 0,-0.299034 -0.117133,-0.443728 -0.117133,-0.146072 -0.325217,-0.146072 -0.210839,0 -0.327972,0.146072 -0.115756,0.144694 -0.115756,0.443728 0,0.289388 0.117134,0.439594 0.117133,0.148828 0.326594,0.148828 0.206706,0 0.323839,-0.14745 0.118511,-0.148828 0.118511,-0.440972 z m 1.944411,0.768937 h -0.259071 v -0.170877 q -0.130914,0.103353 -0.250803,0.158475 -0.119889,0.05512 -0.264583,0.05512 -0.242535,0 -0.377582,-0.14745 -0.135048,-0.148828 -0.135048,-0.43546 v -0.999076 h 0.259071 v 0.876431 q 0,0.117133 0.01102,0.201194 0.01103,0.08268 0.04685,0.141937 0.03721,0.06063 0.09646,0.08819 0.05926,0.02756 0.172255,0.02756 0.100597,0 0.219108,-0.05237 0.119889,-0.05236 0.223242,-0.13367 V 61.727386 H 23.5213 Z m 1.79696,0 h -0.259071 v -0.876432 q 0,-0.106108 -0.0124,-0.198437 -0.0124,-0.09371 -0.04547,-0.146072 -0.03445,-0.05788 -0.09922,-0.08544 -0.06477,-0.02894 -0.16812,-0.02894 -0.106109,0 -0.221864,0.05236 -0.115755,0.05237 -0.221864,0.13367 v 1.149291 H 24.03119 v -1.539267 h 0.259071 v 0.170876 q 0.121267,-0.100597 0.250802,-0.157096 0.129536,-0.0565 0.265962,-0.0565 0.249424,0 0.380338,0.150206 0.130913,0.150206 0.130913,0.432704 z m 1.298112,-0.01378 q -0.07304,0.01929 -0.159853,0.03169 -0.08544,0.0124 -0.152962,0.0124 -0.235644,0 -0.35829,-0.12678 -0.122645,-0.126779 -0.122645,-0.406521 V 61.945119 H 25.647621 V 61.72739 h 0.175011 v -0.44235 h 0.259071 v 0.44235 h 0.534679 v 0.217729 h -0.534679 v 0.701421 q 0,0.121268 0.0055,0.190169 0.0055,0.06752 0.03858,0.12678 0.03032,0.05512 0.08268,0.0813 0.05374,0.02481 0.162608,0.02481 0.06339,0 0.132292,-0.01792 0.0689,-0.01929 0.09922,-0.03169 h 0.01378 z"
     id="text-harmonic-count"
     style="font-size:2.82222px;-inkscape-font-specification:'sans-serif, Normal';text-anchor:middle;fill:#ffffff"
     aria-label="Harmonic Count" />
  <!-- Harmonic Strength label -->
  <path
     d="M 3.6500183,79.266664 H 3.3771669 V 78.262075 H 2.3532853 v 1.004589 H 2.080434 v -2.051897 h 0.2728513 v 0.804773 h 1.0238816 v -0.804773 h 0.2728514 z m 1.7266804,0 H 5.1190058 v -0.163986 q -0.034451,0.02343 -0.093706,0.06614 -0.057878,0.04134 -0.1129991,0.06615 -0.064768,0.03169 -0.148828,0.05237 -0.08406,0.02205 -0.1970593,0.02205 -0.2080836,0 -0.3527775,-0.137804 -0.1446939,-0.137803 -0.1446939,-0.351399 0,-0.175011 0.074414,-0.282498 0.075792,-0.108865 0.2149738,-0.170876 0.1405598,-0.06201 0.3376191,-0.08406 0.1970593,-0.02205 0.4230574,-0.03307 v -0.03996 q 0,-0.08819 -0.031695,-0.146072 -0.030317,-0.05788 -0.088194,-0.09095 -0.055121,-0.03169 -0.1322916,-0.04272 -0.07717,-0.01102 -0.1612303,-0.01102 -0.1019748,0 -0.2273762,0.02756 -0.1254014,0.02618 -0.259071,0.07717 h -0.01378 v -0.263205 q 0.075792,-0.02067 0.2191079,-0.04547 0.1433158,-0.02481 0.2824976,-0.02481 0.1626084,0 0.2824976,0.02756 0.1212673,0.02618 0.2094617,0.09095 0.086816,0.06339 0.1322915,0.163986 0.045475,0.100597 0.045475,0.249425 z m -0.2576929,-0.37896 v -0.42857 q -0.1185112,0.0069 -0.2797415,0.02067 -0.1598524,0.01378 -0.2535589,0.03996 -0.111621,0.0317 -0.1805228,0.09922 -0.068902,0.06615 -0.068902,0.183278 0,0.132292 0.079926,0.199816 0.079926,0.06615 0.2439126,0.06615 0.1364257,0 0.2494247,-0.05237 0.1129991,-0.05374 0.2094617,-0.128157 z m 1.7170345,-0.87781 h -0.01378 q -0.057878,-0.01378 -0.1129991,-0.01929 -0.053743,-0.0069 -0.1281574,-0.0069 -0.1198892,0 -0.2315103,0.05374 -0.111621,0.05236 -0.2149738,0.136426 v 1.092794 H 5.8755484 v -1.539267 h 0.2590709 v 0.227376 q 0.1543402,-0.124024 0.2714734,-0.175011 0.1185112,-0.05236 0.2411565,-0.05236 0.067524,0 0.097841,0.0041 0.030317,0.0028 0.09095,0.0124 z m 2.490113,1.25677 h -0.259071 v -0.876432 q 0,-0.09922 -0.00965,-0.191547 -0.00827,-0.09233 -0.037207,-0.14745 -0.031695,-0.05925 -0.09095,-0.08957 -0.059256,-0.03032 -0.1708766,-0.03032 -0.108865,0 -0.2177299,0.05512 -0.1088649,0.05374 -0.2177299,0.137804 0.00413,0.03169 0.00689,0.07441 0.00276,0.04134 0.00276,0.08268 v 0.985305 h -0.259071 v -0.876432 q 0,-0.101974 -0.00965,-0.192925 -0.00827,-0.09233 -0.037207,-0.14745 -0.031695,-0.05925 -0.09095,-0.08819 -0.059256,-0.03032 -0.1708766,-0.03032 -0.1061089,0 -0.2135958,0.05236 -0.1061088,0.05237 -0.2122177,0.13367 v 1.149287 h -0.259071 v -1.539267 h 0.259071 v 0.170876 q 0.1212673,-0.100597 0.2411565,-0.157096 0.1212673,-0.0565 0.257693,-0.0565 0.1570962,0 0.2659611,0.06615 0.110243,0.06615 0.1639864,0.183279 0.1570963,-0.132291 0.2866318,-0.190169 0.1295355,-0.05926 0.2769854,-0.05926 0.2535589,0 0.3734481,0.154341 0.1212673,0.152962 0.1212673,0.428569 z m 1.8107407,-0.768945 q 0,0.376204 -0.192925,0.593934 -0.192925,0.21773 -0.516764,0.21773 -0.326595,0 -0.5195201,-0.21773 -0.1915472,-0.21773 -0.1915472,-0.593934 0,-0.376204 0.1915472,-0.593934 0.1929251,-0.219108 0.5195201,-0.219108 0.323839,0 0.516764,0.219108 0.192925,0.21773 0.192925,0.593934 z m -0.267339,0 q 0,-0.299034 -0.117133,-0.443728 -0.117133,-0.146072 -0.325217,-0.146072 -0.21084,0 -0.327973,0.146072 -0.1157551,0.144694 -0.1157551,0.443728 0,0.289388 0.1171331,0.439594 0.117133,0.148828 0.326595,0.148828 0.206705,0 0.323839,-0.14745 0.118511,-0.148828 0.118511,-0.440972 z m 1.955435,0.768945 h -0.259071 v -0.876432 q 0,-0.106108 -0.0124,-0.198437 -0.0124,-0.09371 -0.04548,-0.146072 -0.03445,-0.05788 -0.09922,-0.08544 -0.06477,-0.02894 -0.168121,-0.02894 -0.106109,0 -0.221864,0.05236 -0.115755,0.05237 -0.221864,0.13367 v 1.149291 h -0.259071 v -1.539267 h 0.259071 v 0.170876 q 0.121268,-0.100597 0.250803,-0.157096 0.129536,-0.0565 0.265961,-0.0565 0.249425,0 0.380338,0.150206 0.130914,0.150206 0.130914,0.432704 z m 0.777212,-1.79696 h -0.292144 v -0.268718 h 0.292144 z m -0.01654,1.79696 h -0.259071 v -1.539267 h 0.259071 z m 1.650888,-0.09646 q -0.129535,0.06201 -0.246668,0.09646 -0.115755,0.03445 -0.246669,0.03445 -0.166742,0 -0.305924,-0.04823 -0.139182,-0.04961 -0.238401,-0.148828 -0.100596,-0.09922 -0.155718,-0.250803 -0.05512,-0.151584 -0.05512,-0.354156 0,-0.377582 0.206705,-0.592556 0.208084,-0.214973 0.548459,-0.214973 0.132292,0 0.259071,0.03721 0.128158,0.03721 0.234266,0.09095 v 0.28801 h -0.01378 Q 15.10426,78.015408 14.97748,77.9658 q -0.125401,-0.04961 -0.24529,-0.04961 -0.220486,0 -0.348644,0.148828 -0.126779,0.14745 -0.126779,0.434081 0,0.278364 0.124023,0.42857 0.125402,0.148828 0.3514,0.148828 0.07855,0 0.159852,-0.02067 0.0813,-0.02067 0.146072,-0.05374 0.0565,-0.02894 0.106109,-0.06063 0.04961,-0.03307 0.07855,-0.0565 h 0.01378 z m 2.836001,-0.489203 q 0,0.119889 -0.0565,0.237023 -0.05512,0.117133 -0.155718,0.198437 -0.110243,0.08819 -0.257693,0.137804 -0.146072,0.04961 -0.352778,0.04961 -0.221864,0 -0.39963,-0.04134 -0.176389,-0.04134 -0.359668,-0.122645 v -0.341754 h 0.01929 q 0.155719,0.129536 0.359668,0.199816 0.20395,0.07028 0.383094,0.07028 0.253559,0 0.394119,-0.09508 0.141938,-0.09508 0.141938,-0.253559 0,-0.136425 -0.06752,-0.201193 -0.06615,-0.06477 -0.202571,-0.100597 -0.103353,-0.02756 -0.22462,-0.04547 -0.11989,-0.01792 -0.254937,-0.04547 -0.272852,-0.05788 -0.405143,-0.19706 -0.130914,-0.140559 -0.130914,-0.365179 0,-0.257693 0.21773,-0.42168 0.21773,-0.165364 0.552593,-0.165364 0.216352,0 0.396875,0.04134 0.180523,0.04134 0.319704,0.101975 v 0.32246 h -0.01929 q -0.117133,-0.09922 -0.308681,-0.163986 -0.190169,-0.06615 -0.389984,-0.06615 -0.219108,0 -0.352778,0.09095 -0.132291,0.09095 -0.132291,0.234267 0,0.128157 0.06615,0.201193 0.06614,0.07304 0.232888,0.111621 0.08819,0.01929 0.250803,0.04685 0.162608,0.02756 0.275607,0.0565 0.228754,0.06063 0.344509,0.183279 0.115756,0.122645 0.115756,0.343131 z m 1.216806,0.571886 q -0.07304,0.01929 -0.159852,0.03169 -0.08544,0.0124 -0.152962,0.0124 -0.235645,0 -0.35829,-0.12678 -0.122645,-0.126779 -0.122645,-0.406521 v -0.818554 h -0.175011 v -0.217729 h 0.175011 v -0.44235 h 0.259071 v 0.44235 h 0.534678 v 0.217729 h -0.534678 v 0.701421 q 0,0.121268 0.0055,0.190169 0.0055,0.06752 0.03859,0.12678 0.03032,0.05512 0.08268,0.0813 0.05374,0.02481 0.162608,0.02481 0.06339,0 0.132292,-0.01792 0.0689,-0.01929 0.09922,-0.03169 h 0.01378 z m 1.273306,-1.24299 h -0.01378 q -0.05788,-0.01378 -0.112999,-0.01929 -0.05374,-0.0069 -0.128158,-0.0069 -0.119889,0 -0.23151,0.05374 -0.111621,0.05236 -0.214974,0.136426 v 1.092791 h -0.259071 v -1.539267 h 0.259071 v 0.227376 q 0.15434,-0.124024 0.271474,-0.175011 0.118511,-0.05236 0.241156,-0.05236 0.06752,0 0.09784,0.0041 0.03032,0.0028 0.09095,0.0124 z m 1.532378,0.514008 H 20.96092 q 0,0.141938 0.04272,0.248047 0.04272,0.10473 0.117134,0.172254 0.07166,0.06615 0.169498,0.09922 0.09922,0.03307 0.21773,0.03307 0.157096,0 0.31557,-0.06201 0.159853,-0.06339 0.227377,-0.124023 h 0.01378 v 0.282497 q -0.130914,0.05512 -0.267339,0.09233 -0.136426,0.03721 -0.286632,0.03721 -0.383094,0 -0.598068,-0.206706 -0.214974,-0.208083 -0.214974,-0.5898 0,-0.377582 0.205328,-0.599446 0.206705,-0.221864 0.542946,-0.221864 0.311437,0 0.479557,0.181901 0.169499,0.181901 0.169499,0.516764 z M 21.84286,78.325468 q -0.0014,-0.20395 -0.103353,-0.315571 -0.100596,-0.111621 -0.307302,-0.111621 -0.208084,0 -0.332107,0.122645 -0.122645,0.122646 -0.139182,0.304547 z m 1.932009,0.941196 h -0.259071 v -0.876432 q 0,-0.106108 -0.0124,-0.198437 -0.0124,-0.09371 -0.04548,-0.146072 -0.03445,-0.05788 -0.09922,-0.08544 -0.06477,-0.02894 -0.16812,-0.02894 -0.106109,0 -0.221864,0.05236 -0.115755,0.05237 -0.221864,0.13367 v 1.149291 h -0.259071 v -1.539267 h 0.259071 v 0.170876 q 0.121267,-0.100597 0.250803,-0.157096 0.129535,-0.0565 0.265961,-0.0565 0.249424,0 0.380338,0.150206 0.130914,0.150206 0.130914,0.432704 z m 1.747351,-0.175011 q 0,0.391363 -0.177767,0.574642 -0.177767,0.183279 -0.547081,0.183279 -0.122645,0 -0.239778,-0.01792 -0.115755,-0.01654 -0.228754,-0.04823 v -0.264583 h 0.01378 q 0.06339,0.0248 0.201193,0.06063 0.137804,0.03721 0.275608,0.03721 0.132291,0 0.219108,-0.03169 0.08682,-0.03169 0.135047,-0.08819 0.04823,-0.05374 0.0689,-0.129535 0.02067,-0.07579 0.02067,-0.169499 v -0.14056 q -0.117133,0.09371 -0.22462,0.14056 -0.106109,0.04547 -0.271474,0.04547 -0.275607,0 -0.438215,-0.198437 -0.161231,-0.199815 -0.161231,-0.562239 0,-0.198437 0.05512,-0.341753 0.0565,-0.144694 0.152962,-0.249425 0.08957,-0.09784 0.21773,-0.151584 0.128157,-0.05512 0.254937,-0.05512 0.133669,0 0.223242,0.02756 0.09095,0.02618 0.191547,0.0813 l 0.01654,-0.06614 h 0.242535 z m -0.259071,-0.248046 v -0.839225 q -0.103353,-0.04685 -0.192925,-0.06615 -0.08819,-0.02067 -0.176389,-0.02067 -0.213596,0 -0.336241,0.143315 -0.122645,0.143316 -0.122645,0.416168 0,0.259071 0.09095,0.39274 0.09095,0.13367 0.30179,0.13367 0.112999,0 0.225998,-0.04272 0.114377,-0.0441 0.209462,-0.117133 z m 1.568206,0.409277 q -0.07304,0.01929 -0.159852,0.03169 -0.08544,0.0124 -0.152963,0.0124 -0.235644,0 -0.358289,-0.12678 -0.122646,-0.126779 -0.122646,-0.406521 v -0.818554 h -0.17501 V 77.72739 h 0.17501 v -0.44235 h 0.259071 v 0.44235 h 0.534679 v 0.217729 H 26.29668 v 0.701421 q 0,0.121268 0.0055,0.190169 0.0055,0.06752 0.03859,0.12678 0.03032,0.05512 0.08268,0.0813 0.05374,0.02481 0.162608,0.02481 0.06339,0 0.132292,-0.01792 0.0689,-0.01929 0.09922,-0.03169 h 0.01378 z m 1.599901,0.01378 h -0.259071 v -0.876432 q 0,-0.106108 -0.0124,-0.198437 -0.0124,-0.09371 -0.04548,-0.146072 -0.03445,-0.05788 -0.09922,-0.08544 -0.06477,-0.02894 -0.168121,-0.02894 -0.106109,0 -0.221864,0.05236 -0.115755,0.05237 -0.221864,0.13367 v 1.149291 h -0.259071 v -2.144226 h 0.259071 v 0.775835 q 0.121267,-0.100597 0.250803,-0.157096 0.129535,-0.0565 0.265961,-0.0565 0.249425,0 0.380338,0.150206 0.130914,0.150206 0.130914,0.432704 z"
     id="text-harmonic-strength"
     style="font-size:2.82222px;-inkscape-font-specification:'sans-serif, Normal';text-anchor:middle;fill:#ffffff"
     aria-label="Harmonic Strength" />
  <path
     style="font-size:3.52778px;font-family:'Arabic Typesetting';-inkscape-font-specification:'Arabic Typesetting, Normal';fill:#fafafa;stroke-width:0.264583"
     d="m 11.881408,123.47105 q 0.187757,0 0.344509,0.0603 0.158475,0.0586 0.270441,0.16881 0.111965,0.11024 0.173977,0.26699 0.06373,0.15503 0.06373,0.34796 0,0.1912 -0.06201,0.35312 -0.06201,0.1602 -0.173977,0.27733 -0.111966,0.11713 -0.268718,0.18259 -0.156752,0.0655 -0.347954,0.0655 -0.187758,0 -0.34451,-0.0586 -0.156752,-0.0603 -0.27044,-0.17053 -0.111966,-0.11024 -0.1757,-0.26527 -0.06201,-0.15676 -0.06201,-0.34968 0,-0.1912 0.06201,-0.3514 0.06201,-0.16192 0.173977,-0.27905 0.111966,-0.11714 0.268718,-0.18259 0.156752,-0.0655 0.347955,-0.0655 z m -0.01034,0.093 q -0.118856,0 -0.229099,0.0396 -0.10852,0.0379 -0.192925,0.12402 -0.08268,0.0861 -0.132636,0.22393 -0.04995,0.13608 -0.04995,0.33245 0,0.23082 0.05684,0.38758 0.05684,0.15675 0.146416,0.25321 0.08957,0.0947 0.199816,0.13608 0.111966,0.0396 0.222209,0.0396 0.118856,0 0.227376,-0.0379 0.110243,-0.0396 0.192926,-0.12574 0.08441,-0.0861 0.134359,-0.22221 0.04995,-0.1378 0.04995,-0.33417 0,-0.23083 -0.05684,-0.38758 -0.05684,-0.15675 -0.146416,-0.25149 -0.08957,-0.0965 -0.201538,-0.13608 -0.110244,-0.0413 -0.220488,-0.0413 z m 1.03353,-0.0586 q 0.02067,0 0.07062,0.002 0.05168,0 0.113688,0 0.06201,0 0.125746,0.002 0.06374,0 0.110243,0 0.03101,0.0741 0.06201,0.14641 0.03273,0.0724 0.06546,0.14642 l 0.492649,1.0852 0.477146,-1.10759 q 0.02928,-0.0672 0.05684,-0.13436 0.02756,-0.0689 0.05512,-0.13608 0.03273,0 0.09302,0 0.06201,-0.002 0.125746,-0.002 0.06546,0 0.122301,0 0.05684,-0.002 0.08096,-0.002 l 0.0034,0.0586 q -0.07579,0.005 -0.122301,0.0172 -0.04479,0.0103 -0.0689,0.0345 -0.02412,0.0224 -0.031,0.0637 -0.0069,0.0413 -0.0052,0.10507 l 0.03617,1.15928 q 0.0017,0.0413 0.01034,0.0689 0.01033,0.0276 0.03445,0.0465 0.02584,0.0172 0.07062,0.0258 0.04651,0.009 0.122301,0.0121 l -0.0034,0.062 q -0.03101,0 -0.07235,0 -0.04134,-0.002 -0.08785,-0.002 -0.04479,0 -0.0913,0 -0.04651,-0.002 -0.08785,-0.002 -0.03445,0 -0.07235,0.002 -0.03617,0 -0.07235,0 -0.03617,0 -0.0689,0.002 -0.03273,0 -0.05684,0 l -0.0052,-0.0586 q 0.06201,-0.005 0.09819,-0.0155 0.0379,-0.0121 0.05684,-0.0362 0.02067,-0.0241 0.02412,-0.0637 0.0052,-0.0413 0.0034,-0.10508 l -0.03617,-1.09898 q -0.151585,0.34968 -0.299724,0.69419 -0.146416,0.34278 -0.292833,0.69763 l -0.08268,0.0103 q -0.04995,-0.1223 -0.239435,-0.53915 -0.18948,-0.41686 -0.356567,-0.78549 l -0.0379,0.99908 q -0.0034,0.081 0.0034,0.12747 0.0069,0.0448 0.02928,0.0689 0.02239,0.0224 0.06373,0.031 0.04134,0.007 0.106798,0.0121 l -0.0034,0.062 q -0.05512,0 -0.118856,-0.002 -0.06373,-0.002 -0.146416,-0.002 -0.06546,0 -0.137804,0.002 -0.07062,0.002 -0.130914,0.002 l -0.0052,-0.0586 q 0.07062,-0.007 0.11541,-0.0155 0.04479,-0.0103 0.07062,-0.0396 0.02584,-0.0293 0.03617,-0.0878 0.01034,-0.0586 0.01378,-0.16192 l 0.03617,-0.89056 q 0.0017,-0.062 0,-0.10507 -0.0017,-0.0448 -0.0086,-0.0758 -0.0069,-0.0327 -0.01895,-0.0551 -0.01206,-0.0224 -0.03101,-0.0413 -0.03273,-0.0327 -0.08268,-0.0448 -0.04995,-0.0121 -0.115411,-0.0155 z m 3.651803,1.67776 q -0.04479,-0.0637 -0.08957,-0.1223 -0.04479,-0.0603 -0.09474,-0.12058 l -0.928454,-1.10071 v 1.01803 q 0,0.081 0.0086,0.12747 0.01033,0.0448 0.03617,0.0689 0.02584,0.0224 0.0689,0.031 0.04479,0.007 0.115411,0.0121 l -0.0034,0.062 q -0.05512,0 -0.130914,-0.002 -0.07407,-0.002 -0.156752,-0.002 -0.06546,0 -0.137804,0.002 -0.07062,0.002 -0.130914,0.002 l -0.0052,-0.0586 q 0.0689,-0.007 0.113688,-0.0155 0.04479,-0.0103 0.07062,-0.0396 0.02756,-0.0293 0.0379,-0.0878 0.01033,-0.0586 0.01033,-0.16192 v -0.863 q 0,-0.0723 -0.0017,-0.11713 -0.0017,-0.0448 -0.0086,-0.0724 -0.0052,-0.0293 -0.0155,-0.0482 -0.01034,-0.019 -0.02756,-0.0396 -0.01723,-0.0224 -0.03445,-0.0379 -0.01723,-0.0155 -0.03962,-0.0258 -0.02239,-0.0103 -0.05512,-0.0155 -0.03273,-0.005 -0.08096,-0.009 l 0.0034,-0.062 q 0.02067,0 0.06029,0.002 0.04134,0 0.0913,0 0.04995,0 0.103353,0.002 0.0534,0 0.09991,0 l 1.107599,1.29707 v -0.99735 q 0,-0.081 -0.01034,-0.12575 -0.0086,-0.0465 -0.03445,-0.0689 -0.02584,-0.0241 -0.07063,-0.031 -0.04479,-0.009 -0.115411,-0.0138 l 0.0034,-0.062 q 0.05512,0 0.130913,0.002 0.07579,0.002 0.158475,0.002 0.03273,0 0.0689,0 0.03617,-0.002 0.07062,-0.002 0.03617,-0.002 0.06718,-0.002 0.03273,-0.002 0.05684,-0.002 l 0.0017,0.0586 q -0.06718,0.007 -0.110243,0.0172 -0.04306,0.0103 -0.0689,0.0396 -0.02412,0.0293 -0.03445,0.0879 -0.01034,0.0586 -0.01034,0.16192 v 1.29536 z m 0.478869,-0.0827 q 0.06718,-0.005 0.10852,-0.0155 0.04134,-0.0121 0.06374,-0.0344 0.02411,-0.0241 0.03273,-0.0637 0.0086,-0.0413 0.0086,-0.1068 v -1.15927 q 0,-0.0413 -0.0069,-0.0689 -0.0069,-0.0276 -0.03101,-0.0448 -0.02239,-0.019 -0.06546,-0.0276 -0.04306,-0.009 -0.113688,-0.0121 l 0.0034,-0.062 q 0.02756,0 0.06718,0.002 0.03962,0 0.08441,0 0.04651,0 0.09302,0.002 0.04823,0 0.08957,0 0.03273,0 0.07235,0 0.04134,-0.002 0.08096,-0.002 0.03962,0 0.07407,0 0.03617,-0.002 0.06029,-0.002 l 0.0052,0.0586 q -0.06718,0.005 -0.10852,0.0172 -0.04134,0.0103 -0.06546,0.0345 -0.02412,0.0224 -0.03273,0.0637 -0.0086,0.0396 -0.0086,0.10335 v 1.161 q 0,0.0413 0.0069,0.0689 0.0069,0.0276 0.02928,0.0465 0.02412,0.0172 0.06718,0.0258 0.04306,0.009 0.115411,0.0121 l -0.0034,0.062 q -0.02756,0 -0.0689,0 -0.03962,-0.002 -0.08613,-0.002 -0.04479,0 -0.09129,0 -0.04651,-0.002 -0.08785,-0.002 -0.03445,0 -0.07407,0.002 -0.03962,0 -0.07924,0 -0.03962,0 -0.07579,0.002 -0.03445,0 -0.05857,0 z m 1.794896,-0.55294 h -0.573609 l -0.132636,0.33934 q -0.03445,0.0982 -0.03445,0.12403 0,0.0448 0.04134,0.062 0.04306,0.0172 0.151584,0.0224 l -0.0052,0.062 q -0.06374,0 -0.142972,-0.002 -0.07924,-0.002 -0.156752,-0.002 -0.06373,0 -0.132636,0.002 -0.06718,0.002 -0.130914,0.002 l -0.0034,-0.0586 q 0.06718,-0.005 0.110243,-0.0155 0.04306,-0.0121 0.07407,-0.0413 0.03273,-0.031 0.06029,-0.0827 0.02928,-0.0534 0.06718,-0.14125 l 0.494372,-1.16616 q 0.02067,-0.0517 0.03445,-0.0896 0.0155,-0.0396 0.03273,-0.0844 l 0.108521,-0.0138 q 0.01895,0.0827 0.03962,0.15158 0.02239,0.0689 0.04134,0.12575 l 0.387573,1.1231 q 0.02584,0.0758 0.04651,0.11886 0.02067,0.0431 0.04823,0.0672 0.02756,0.0224 0.0689,0.031 0.04306,0.009 0.110243,0.0138 l -0.0052,0.062 q -0.07235,0 -0.160197,-0.002 -0.08613,-0.002 -0.173978,-0.002 -0.07235,0 -0.146416,0.002 -0.07407,0.002 -0.146417,0.002 l -0.0052,-0.0586 q 0.09646,-0.007 0.137804,-0.0224 0.04134,-0.0172 0.04134,-0.062 0,-0.019 -0.0069,-0.0431 -0.0069,-0.0258 -0.01722,-0.0568 z m -0.53399,-0.0999 h 0.501261 l -0.230817,-0.68206 z"
     id="text1"
     aria-label="OMNIA" />
  <rect
     style="fill:#070707;fill-opacity:1;stroke-width:0.269861"
     id="rect2"
     width="30.48"
     height="15.049542"
     x="0"
     y="107.36443"
     ry="0" />
</svg>
