<?xml version="1.0" encoding="UTF-8" standalone="no"?>
<svg
   width="45.72mm"
   height="128.5mm"
   viewBox="0 0 45.72 128.5"
   version="1.1"
   id="svg13"
   sodipodi:docname="BuildupLooper.svg"
   inkscape:version="1.4.2 (f4327f4, 2025-05-13)"
   xmlns:inkscape="http://www.inkscape.org/namespaces/inkscape"
   xmlns:sodipodi="http://sodipodi.sourceforge.net/DTD/sodipodi-0.dtd"
   xmlns="http://www.w3.org/2000/svg"
   xmlns:svg="http://www.w3.org/2000/svg">
  <defs
     id="defs13" />
  <sodipodi:namedview
     id="namedview13"
     pagecolor="#ffffff"
     bordercolor="#000000"
     borderopacity="0.25"
     inkscape:showpageshadow="2"
     inkscape:pageopacity="0.0"
     inkscape:pagecheckerboard="0"
     inkscape:deskcolor="#d1d1d1"
     inkscape:document-units="mm"
     inkscape:zoom="2.5058204"
     inkscape:cx="86.398851"
     inkscape:cy="242.83465"
     inkscape:window-width="2560"
     inkscape:window-height="1494"
     inkscape:window-x="-11"
     inkscape:window-y="-11"
     inkscape:window-maximized="1"
     inkscape:current-layer="svg13" />
  <rect
     width="45.72"
     height="128.5"
     fill="#1a237e"
     id="rect1" />
  <g
     id="text1"
     style="font-size:4.12153px;text-anchor:middle;fill:#ffffff;stroke-width:1.03038"
     transform="matrix(0.98002303,-0.58267809,0.44822808,0.7538877,-2.9618058,6.8164587)"
     aria-label="Omnia&#10;Looper">
    <path
       d="m 5.2714397,5.9162193 q 0.1831344,0.2012466 0.2797328,0.4930541 0.098611,0.2918076 0.098611,0.6621013 0,0.3702937 -0.1006233,0.6641137 Q 5.4505492,8.027296 5.2714397,8.2225052 5.0862929,8.4257642 4.8327222,8.5284 4.5811639,8.6310357 4.2571569,8.6310357 q -0.3159571,0 -0.5755652,-0.1046482 Q 3.4239961,8.4217393 3.2428742,8.2225052 3.0617522,8.023271 2.9631414,7.733476 2.866543,7.4436809 2.866543,7.0713747 q 0,-0.3662688 0.096598,-0.6560639 0.096598,-0.2918075 0.2817452,-0.4990915 0.177097,-0.1972216 0.4387176,-0.3018699 0.263633,-0.1046482 0.5735527,-0.1046482 0.3219946,0 0.5775777,0.1066607 0.2575957,0.1046482 0.4367055,0.2998574 z m -0.036224,1.1551554 q 0,-0.5836151 -0.2616205,-0.8995722 -0.2616206,-0.3179696 -0.7144254,-0.3179696 -0.4568297,0 -0.7184503,0.3179696 -0.2596081,0.3159571 -0.2596081,0.8995722 0,0.5896525 0.2656455,0.9035972 0.2656455,0.3119322 0.7124129,0.3119322 0.4467674,0 0.7104004,-0.3119322 Q 5.2352153,7.6610272 5.2352157,7.0713747 Z M 9.5318298,8.5686493 H 9.1534862 V 7.288721 q 0,-0.1448975 -0.014087,-0.2797327 Q 9.1273242,6.874153 9.0850624,6.7936544 9.0387757,6.7071184 8.9522397,6.6628441 8.8657036,6.6185699 8.7026939,6.6185699 q -0.1589848,0 -0.3179696,0.080499 -0.1589848,0.078486 -0.3179696,0.2012466 0.00604,0.046287 0.010062,0.1086732 0.00403,0.060374 0.00403,0.1207479 V 8.5686493 H 7.7024984 V 7.288721 q 0,-0.1489225 -0.014087,-0.2817452 Q 7.6763363,6.8721406 7.6340745,6.7916419 7.5877878,6.7051059 7.5012518,6.6628441 7.4147158,6.6185699 7.251706,6.6185699 q -0.1549598,0 -0.3119322,0.076474 -0.1549599,0.076474 -0.3099197,0.1952092 V 8.5686493 H 6.2515105 V 6.3207249 h 0.3783436 v 0.2495458 q 0.177097,-0.14691 0.3521815,-0.2294211 0.177097,-0.082511 0.3763311,-0.082511 0.2294211,0 0.3884059,0.096598 0.1609973,0.096598 0.2394835,0.2676579 0.2294211,-0.1931967 0.4185929,-0.2777203 0.1891717,-0.086536 0.4045056,-0.086536 0.3702937,0 0.5453782,0.2253962 0.177097,0.2233837 0.177097,0.6258769 z m 2.6081562,0 H 11.761642 V 7.288721 q 0,-0.1549599 -0.01811,-0.2897951 -0.01811,-0.1368476 -0.06641,-0.2133213 -0.05031,-0.084524 -0.144897,-0.1247729 -0.09459,-0.042262 -0.245521,-0.042262 -0.15496,0 -0.324007,0.076474 -0.169047,0.076474 -0.324007,0.1952092 V 8.5686493 H 10.260342 V 6.3207249 h 0.378344 v 0.2495458 q 0.177097,-0.14691 0.366269,-0.2294211 0.189172,-0.082511 0.388406,-0.082511 0.364256,0 0.55544,0.2193588 0.191185,0.2193588 0.191185,0.6319143 z m 1.13503,-2.6242555 H 12.848373 V 5.551963 h 0.426643 z m -0.02415,2.6242555 H 12.872523 V 6.3207249 h 0.378343 z m 2.495458,0 H 15.369993 V 8.3291659 q -0.05031,0.034212 -0.136847,0.096598 -0.08452,0.060374 -0.165023,0.096598 -0.09459,0.046287 -0.217346,0.076474 -0.12276,0.032199 -0.287783,0.032199 -0.303882,0 -0.515191,-0.2012466 -0.211309,-0.2012465 -0.211309,-0.5131787 0,-0.2555832 0.108673,-0.4125555 0.110686,-0.1589848 0.313945,-0.2495458 0.205272,-0.090561 0.493054,-0.1227604 0.287783,-0.032199 0.617827,-0.048299 V 7.025088 q 0,-0.1287978 -0.04629,-0.2133214 -0.04427,-0.084524 -0.128797,-0.1328227 -0.0805,-0.046287 -0.193197,-0.062387 -0.112698,-0.0161 -0.235459,-0.0161 -0.148922,0 -0.332056,0.040249 -0.183135,0.038237 -0.378344,0.1126981 H 14.03572 V 6.369023 q 0.110686,-0.030187 0.319982,-0.066411 0.209297,-0.036224 0.412556,-0.036224 0.237471,0 0.412555,0.040249 0.177097,0.038237 0.305895,0.1328227 0.126786,0.092574 0.193197,0.2394835 0.06641,0.14691 0.06641,0.3642563 z M 15.369993,8.0152212 V 7.3893443 q -0.173072,0.010062 -0.40853,0.030187 -0.233446,0.020125 -0.370294,0.058362 -0.16301,0.046287 -0.263633,0.1448975 -0.100623,0.096598 -0.100623,0.267658 0,0.1931967 0.116723,0.2918075 0.116723,0.096598 0.356206,0.096598 0.199234,0 0.364256,-0.076474 0.165023,-0.078486 0.305895,-0.1871591 z"
       id="path14" />
    <path
       d="M 4.6274507,13.720562 H 2.7317078 V 10.724 h 0.3984683 v 2.642368 h 1.4972746 z m 2.2841488,-1.122956 q 0,0.549403 -0.2817452,0.867373 -0.2817453,0.317969 -0.7546747,0.317969 -0.4769544,0 -0.7586997,-0.317969 -0.2797327,-0.31797 -0.2797327,-0.867373 0,-0.549403 0.2797327,-0.867373 0.2817453,-0.319982 0.7586997,-0.319982 0.4729294,0 0.7546747,0.319982 0.2817452,0.31797 0.2817452,0.867373 z m -0.3904184,0 q 0,-0.436705 -0.1710596,-0.648014 -0.1710596,-0.213321 -0.4749419,-0.213321 -0.3079073,0 -0.4789669,0.213321 -0.1690471,0.211309 -0.1690471,0.648014 0,0.422618 0.1710596,0.641977 0.1710596,0.217346 0.4769544,0.217346 0.3018698,0 0.4729294,-0.215334 0.1730721,-0.217346 0.1730721,-0.643989 z m 2.8919135,0 q 0,0.549403 -0.2817452,0.867373 -0.2817452,0.317969 -0.7546747,0.317969 -0.4769544,0 -0.7586996,-0.317969 -0.2797328,-0.31797 -0.2797328,-0.867373 0,-0.549403 0.2797328,-0.867373 0.2817452,-0.319982 0.7586996,-0.319982 0.4729295,0 0.7546747,0.319982 0.2817452,0.31797 0.2817452,0.867373 z m -0.3904184,0 q 0,-0.436705 -0.1710596,-0.648014 -0.1710596,-0.213321 -0.4749419,-0.213321 -0.3079073,0 -0.4789669,0.213321 -0.1690471,0.211309 -0.1690471,0.648014 0,0.422618 0.1710596,0.641977 0.1710596,0.217346 0.4769544,0.217346 0.3018699,0 0.4729295,-0.215334 0.173072,-0.217346 0.173072,-0.643989 z m 2.9542998,-0.02818 q 0,0.273696 -0.07849,0.501104 -0.07849,0.225397 -0.221371,0.382369 -0.132823,0.148922 -0.313945,0.231433 -0.17911,0.0805 -0.380356,0.0805 -0.175085,0 -0.31797,-0.03824 -0.140872,-0.03824 -0.287782,-0.118735 v 0.941834 h -0.37834 v -3.07706 h 0.378344 v 0.235458 q 0.150935,-0.126785 0.338094,-0.211309 0.189172,-0.08654 0.402493,-0.08654 0.406518,0 0.631914,0.307907 0.227409,0.305895 0.227409,0.851273 z m -0.390418,0.01006 q 0,-0.406518 -0.138861,-0.607765 -0.13886,-0.201247 -0.426642,-0.201247 -0.16301,0 -0.328032,0.07044 -0.165022,0.07044 -0.315957,0.185147 v 1.27389 q 0.160997,0.07245 0.275707,0.09861 0.116723,0.02616 0.263633,0.02616 0.315958,0 0.493055,-0.213321 0.177097,-0.213321 0.177097,-0.631914 z m 2.861726,0.05635 h -1.656259 q 0,0.207284 0.06239,0.362244 0.06239,0.152947 0.17106,0.251558 0.104648,0.0966 0.247533,0.144897 0.144897,0.0483 0.317969,0.0483 0.229422,0 0.460855,-0.09056 0.233446,-0.09257 0.332057,-0.181122 h 0.02013 v 0.412555 q -0.191185,0.0805 -0.390419,0.134835 -0.199234,0.05434 -0.418593,0.05434 -0.559465,0 -0.87341,-0.30187 -0.313944,-0.303882 -0.313944,-0.861335 0,-0.551416 0.299857,-0.875423 0.30187,-0.324007 0.792912,-0.324007 0.454817,0 0.700338,0.265646 0.247533,0.265645 0.247533,0.754674 z m -0.368281,-0.289795 q -0.002,-0.297845 -0.150935,-0.460855 -0.14691,-0.16301 -0.44878,-0.16301 -0.303882,0 -0.485004,0.17911 -0.17911,0.179109 -0.203259,0.444755 z m 2.344523,-0.460855 h -0.02013 q -0.08452,-0.02012 -0.165022,-0.02817 -0.07849,-0.01006 -0.187159,-0.01006 -0.175085,0 -0.338095,0.07849 -0.163009,0.07647 -0.313944,0.199234 v 1.595886 h -0.378344 v -2.247924 h 0.378344 v 0.332056 q 0.225396,-0.181122 0.396456,-0.255583 0.173072,-0.07647 0.352181,-0.07647 0.09861,0 0.142885,0.006 0.04427,0.004 0.132823,0.01811 z"
       id="path15" />
  </g>
  <path
     d="m 20.049698,18.1541 q 0,0.162597 -0.06152,0.287109 -0.06152,0.124512 -0.165527,0.205078 -0.123047,0.09668 -0.270996,0.137695 -0.146488,0.04102 -0.373539,0.04102 H 18.404678 V 16.64385 h 0.645996 q 0.23877,0 0.357422,0.01758 0.118653,0.01758 0.227051,0.07324 0.120117,0.06299 0.174317,0.162598 0.0542,0.09814 0.0542,0.235839 0,0.155274 -0.0791,0.265137 -0.0791,0.108399 -0.210937,0.174317 v 0.01172 q 0.221191,0.04541 0.348632,0.194825 0.127442,0.147949 0.127442,0.375 z m -0.487793,-0.982911 q 0,-0.0791 -0.02637,-0.1333 -0.02637,-0.0542 -0.08496,-0.08789 -0.06885,-0.03955 -0.166992,-0.04834 -0.09814,-0.01025 -0.243164,-0.01025 h -0.345704 v 0.629883 h 0.375 q 0.136231,0 0.216797,-0.01318 0.08057,-0.01465 0.149414,-0.05859 0.06885,-0.04395 0.09668,-0.112793 0.0293,-0.07031 0.0293,-0.165528 z m 0.186035,0.994629 q 0,-0.131836 -0.03955,-0.209472 -0.03955,-0.07764 -0.143554,-0.131836 -0.07031,-0.03662 -0.171387,-0.04687 -0.09961,-0.01172 -0.243164,-0.01172 h -0.455567 v 0.811523 h 0.383789 q 0.19043,0 0.312012,-0.01904 0.121582,-0.02051 0.199219,-0.07324 0.08203,-0.05713 0.120117,-0.130371 0.03809,-0.07324 0.03809,-0.188965 z m 2.355469,-0.216797 q 0,0.237305 -0.05273,0.414551 -0.05127,0.175781 -0.169921,0.292969 -0.112793,0.111328 -0.263672,0.162598 -0.150879,0.05127 -0.351563,0.05127 -0.205078,0 -0.357422,-0.0542 -0.152343,-0.0542 -0.256347,-0.159668 -0.118653,-0.120117 -0.171387,-0.290039 -0.05127,-0.169922 -0.05127,-0.417481 v -1.305175 h 0.290039 v 1.319824 q 0,0.177246 0.02344,0.279785 0.0249,0.102539 0.08203,0.186035 0.06445,0.09521 0.174317,0.143555 0.111328,0.04834 0.266601,0.04834 0.156738,0 0.266602,-0.04687 0.109863,-0.04834 0.175781,-0.14502 0.05713,-0.0835 0.08057,-0.19043 0.0249,-0.108398 0.0249,-0.268066 v -1.327148 h 0.290039 z m 1.322754,0.875977 h -0.861328 v -0.222656 h 0.285644 v -1.73584 h -0.285644 v -0.222656 h 0.861328 v 0.222656 h -0.285645 v 1.73584 h 0.285645 z m 1.873535,0 h -1.379883 v -2.181152 h 0.290039 v 1.923339 h 1.089844 z m 2.132812,-1.088379 q 0,0.297363 -0.130371,0.539063 -0.128906,0.241699 -0.344238,0.375 -0.149414,0.09229 -0.333984,0.1333 -0.183106,0.04102 -0.483399,0.04102 H 25.589737 V 16.64385 h 0.544922 q 0.319336,0 0.506836,0.04687 0.188965,0.04541 0.319336,0.125976 0.222656,0.13916 0.347168,0.370606 0.124511,0.231445 0.124511,0.549316 z m -0.303222,-0.0044 q 0,-0.256348 -0.08936,-0.432129 -0.08936,-0.175782 -0.266601,-0.276856 -0.128907,-0.07324 -0.273926,-0.101074 -0.14502,-0.0293 -0.347168,-0.0293 h -0.272461 v 1.683106 h 0.272461 q 0.209473,0 0.364746,-0.03076 0.156738,-0.03076 0.287109,-0.114258 0.162598,-0.104004 0.243164,-0.273926 0.08203,-0.169922 0.08203,-0.424804 z"
     id="text2"
     style="font-size:3px;text-anchor:middle;fill:#ffffff"
     aria-label="BUILD" />
  <path
     d="M 8.0081787,39.354165 H 7.2904053 V 39.168618 H 7.5284424 V 37.722085 H 7.2904053 v -0.185547 h 0.7177734 v 0.185547 H 7.7701416 v 1.446533 h 0.2380371 z m 1.7980957,0 H 9.5072021 L 8.6453857,37.728188 v 1.625977 h -0.22583 v -1.817627 h 0.3747558 l 0.7861328,1.484375 V 37.536538 H 9.8062744 Z M 11.58606,37.751382 h -0.649414 v 1.602783 h -0.2417 v -1.602783 h -0.649414 v -0.214844 h 1.540528 z m 1.44165,1.602783 H 11.8302 v -1.817627 h 1.19751 v 0.214844 h -0.955811 v 0.498047 h 0.955811 v 0.214843 h -0.955811 v 0.675049 h 0.955811 z m 1.770019,0 h -0.299072 l -0.861816,-1.625977 v 1.625977 h -0.22583 v -1.817627 h 0.374756 l 0.786132,1.484375 v -1.484375 h 0.22583 z m 1.8042,-0.518799 q 0,0.106201 -0.05005,0.209961 -0.04883,0.10376 -0.13794,0.175781 -0.09766,0.07813 -0.228271,0.122071 -0.129395,0.04395 -0.3125,0.04395 -0.196533,0 -0.354004,-0.03662 -0.15625,-0.03662 -0.318603,-0.108643 v -0.302734 h 0.01709 q 0.13794,0.114746 0.318604,0.177002 0.180664,0.06226 0.339355,0.06226 0.22461,0 0.349121,-0.08423 0.125733,-0.08423 0.125733,-0.224609 0,-0.12085 -0.05982,-0.178223 -0.05859,-0.05737 -0.179443,-0.08911 -0.09155,-0.02441 -0.198975,-0.04028 -0.106201,-0.01587 -0.22583,-0.04028 -0.241699,-0.05127 -0.358886,-0.17456 -0.115967,-0.124512 -0.115967,-0.323486 0,-0.228272 0.192871,-0.373536 0.192871,-0.146484 0.489502,-0.146484 0.19165,0 0.351562,0.03662 0.159913,0.03662 0.283204,0.09033 v 0.285645 h -0.01709 q -0.10376,-0.08789 -0.273438,-0.145264 -0.168457,-0.05859 -0.345459,-0.05859 -0.194092,0 -0.3125,0.08057 -0.117187,0.08057 -0.117187,0.207519 0,0.113526 0.05859,0.178223 0.05859,0.0647 0.206299,0.09888 0.07813,0.01709 0.222168,0.0415 0.144043,0.02441 0.244141,0.05005 0.202637,0.05371 0.305176,0.162353 0.102539,0.108643 0.102539,0.303955 z m 1.029052,0.518799 h -0.717773 v -0.185547 h 0.238037 v -1.446533 h -0.238037 v -0.185547 h 0.717773 v 0.185547 h -0.238037 v 1.446533 h 0.238037 z m 1.707764,-1.602783 h -0.649414 v 1.602783 h -0.241699 v -1.602783 h -0.649414 v -0.214844 h 1.540527 z m 1.530762,-0.214844 -0.639649,1.020508 v 0.797119 h -0.241699 v -0.771484 l -0.64209,-1.046143 h 0.267334 l 0.496826,0.812988 0.501709,-0.812988 z"
     id="text3"
     style="font-size:2.5px;text-anchor:middle;fill:#cccccc"
     aria-label="INTENSITY" />
  <path
     d="m 30.400269,37.751382 h -0.649415 v 1.602783 h -0.241699 v -1.602783 h -0.649414 v -0.214844 h 1.540528 z m 0.885009,1.602783 h -0.717773 v -0.185547 h 0.238037 v -1.446533 h -0.238037 v -0.185547 h 0.717773 v 0.185547 h -0.238037 v 1.446533 h 0.238037 z m 2.03003,0 h -0.2417 v -1.566162 l -0.505371,1.065674 h -0.144043 l -0.501709,-1.065674 v 1.566162 h -0.22583 v -1.817627 h 0.32959 l 0.484619,1.011963 0.46875,-1.011963 h 0.335694 z m 1.685791,0 h -1.19751 v -1.817627 h 1.19751 v 0.214844 h -0.955811 v 0.498047 h 0.955811 v 0.214843 h -0.955811 v 0.675049 h 0.955811 z"
     id="text4"
     style="font-size:2.5px;text-anchor:middle;fill:#cccccc"
     aria-label="TIME" />
  <path
     d="m 11.988892,57.354165 h -1.149903 v -1.817627 h 0.241699 v 1.602783 h 0.908204 z m 1.572265,-1.608887 q 0.111084,0.122071 0.169678,0.299073 0.05981,0.177001 0.05981,0.401611 0,0.224609 -0.06104,0.402832 -0.05981,0.177002 -0.168457,0.29541 -0.112304,0.123291 -0.266113,0.185547 -0.152588,0.06226 -0.349121,0.06226 -0.191651,0 -0.349121,-0.06348 -0.15625,-0.06348 -0.266114,-0.184326 -0.109863,-0.12085 -0.169677,-0.296631 -0.05859,-0.175781 -0.05859,-0.401611 0,-0.222168 0.05859,-0.397949 0.05859,-0.177002 0.170898,-0.302735 0.107422,-0.119629 0.266113,-0.183105 0.159913,-0.06348 0.347901,-0.06348 0.195312,0 0.350342,0.0647 0.15625,0.06348 0.264892,0.181884 z m -0.02197,0.700684 q 0,-0.354004 -0.158692,-0.545654 -0.158691,-0.192872 -0.433349,-0.192872 -0.2771,0 -0.435791,0.192872 -0.157471,0.19165 -0.157471,0.545654 0,0.357666 0.161133,0.548096 0.161132,0.189209 0.432129,0.189209 0.270996,0 0.430908,-0.189209 0.161133,-0.19043 0.161133,-0.548096 z m 1.989746,-0.700684 q 0.111084,0.122071 0.169677,0.299073 0.05982,0.177001 0.05982,0.401611 0,0.224609 -0.06104,0.402832 -0.05982,0.177002 -0.168457,0.29541 -0.112305,0.123291 -0.266114,0.185547 -0.152588,0.06226 -0.349121,0.06226 -0.19165,0 -0.349121,-0.06348 -0.15625,-0.06348 -0.266113,-0.184326 -0.109863,-0.12085 -0.169678,-0.296631 -0.05859,-0.175781 -0.05859,-0.401611 0,-0.222168 0.05859,-0.397949 0.05859,-0.177002 0.170899,-0.302735 0.107421,-0.119629 0.266113,-0.183105 0.159912,-0.06348 0.3479,-0.06348 0.195313,0 0.350342,0.0647 0.15625,0.06348 0.264893,0.181884 z m -0.02197,0.700684 q 0,-0.354004 -0.158691,-0.545654 -0.158692,-0.192872 -0.43335,-0.192872 -0.2771,0 -0.435791,0.192872 -0.157471,0.19165 -0.157471,0.545654 0,0.357666 0.161133,0.548096 0.161133,0.189209 0.432129,0.189209 0.270996,0 0.430908,-0.189209 0.161133,-0.19043 0.161133,-0.548096 z m 1.82373,-0.360108 q 0,0.12085 -0.04272,0.22461 -0.0415,0.102539 -0.117188,0.178222 -0.09399,0.09399 -0.222168,0.141602 -0.128173,0.04639 -0.323486,0.04639 h -0.241708 v 0.677487 h -0.241699 v -1.817627 h 0.493164 q 0.163574,0 0.277099,0.02808 0.113526,0.02686 0.201416,0.08545 0.10376,0.06958 0.159912,0.17334 0.05737,0.10376 0.05737,0.262451 z m -0.251464,0.0061 q 0,-0.09399 -0.03296,-0.163574 -0.03296,-0.06958 -0.100098,-0.113526 -0.05859,-0.03784 -0.134277,-0.05371 -0.07446,-0.01709 -0.189209,-0.01709 h -0.239258 v 0.726318 h 0.203857 q 0.146485,0 0.238037,-0.02564 0.09155,-0.02685 0.148926,-0.08423 0.05737,-0.05859 0.08057,-0.123291 0.02441,-0.0647 0.02441,-0.145264 z"
     id="text5"
     style="font-size:2.5px;text-anchor:middle;fill:#cccccc"
     aria-label="LOOP" />
  <path
     d="m 31.034424,56.795083 q 0,0.135498 -0.05127,0.239258 -0.05127,0.10376 -0.137939,0.170898 -0.102539,0.08057 -0.22583,0.114746 -0.122071,0.03418 -0.31128,0.03418 h -0.644531 v -1.817627 h 0.53833 q 0.198975,0 0.297852,0.01465 0.09888,0.01465 0.189209,0.06104 0.100097,0.05249 0.145264,0.135498 0.04517,0.08179 0.04517,0.196533 0,0.129394 -0.06592,0.220947 -0.06592,0.09033 -0.175782,0.145264 v 0.0098 q 0.184326,0.03784 0.290528,0.162354 0.106201,0.123291 0.106201,0.3125 z M 30.62793,55.975991 q 0,-0.06592 -0.02197,-0.111084 -0.02197,-0.04517 -0.0708,-0.07324 -0.05737,-0.03296 -0.13916,-0.04028 -0.08179,-0.0085 -0.202637,-0.0085 h -0.288086 v 0.524902 h 0.3125 q 0.113526,0 0.180664,-0.01099 0.06714,-0.01221 0.124512,-0.04883 0.05737,-0.03662 0.08057,-0.09399 0.02441,-0.05859 0.02441,-0.13794 z m 0.155029,0.828858 q 0,-0.109864 -0.03296,-0.174561 -0.03296,-0.0647 -0.119629,-0.109863 -0.05859,-0.03052 -0.142822,-0.03906 -0.08301,-0.0098 -0.202637,-0.0098 h -0.379639 v 0.676269 h 0.319825 q 0.158691,0 0.260009,-0.01587 0.101319,-0.01709 0.166016,-0.06103 0.06836,-0.04761 0.100098,-0.108643 0.03174,-0.06103 0.03174,-0.15747 z m 2.027588,0.549316 H 32.552979 L 32.374756,56.847573 H 31.588623 L 31.4104,57.354165 h -0.245361 l 0.661621,-1.817627 h 0.322266 z m -0.510254,-0.714111 -0.318604,-0.892334 -0.319824,0.892334 z m 2.290039,0.714111 h -0.313721 l -0.60791,-0.722656 h -0.340576 v 0.722656 h -0.241699 v -1.817627 h 0.509033 q 0.164795,0 0.274658,0.02197 0.109863,0.02075 0.197754,0.07568 0.09888,0.06226 0.153809,0.157471 0.05615,0.09399 0.05615,0.239258 0,0.196533 -0.09888,0.32959 -0.09888,0.131836 -0.272217,0.198974 z m -0.565186,-1.306152 q 0,-0.07813 -0.02808,-0.13794 -0.02685,-0.06104 -0.09033,-0.102539 -0.05249,-0.0354 -0.124511,-0.04883 -0.07202,-0.01465 -0.169678,-0.01465 h -0.284424 v 0.686035 h 0.244141 q 0.114746,0 0.200195,-0.01953 0.08545,-0.02075 0.145264,-0.07568 0.05493,-0.05127 0.08057,-0.117188 0.02685,-0.06714 0.02685,-0.169677 z"
     id="text6"
     style="font-size:2.5px;text-anchor:middle;fill:#cccccc"
     aria-label="BAR" />
  <path
     d="m 30.065995,75.058334 h -0.717773 v -0.185547 h 0.238037 v -1.446533 h -0.238037 v -0.185547 h 0.717773 v 0.185547 h -0.238037 v 1.446533 h 0.238037 z m 1.798096,0 h -0.299072 l -0.861817,-1.625977 v 1.625977 h -0.22583 v -1.817627 h 0.374756 l 0.786133,1.484375 v -1.484375 h 0.22583 z m 1.779785,-1.602783 h -0.649414 v 1.602783 h -0.241699 v -1.602783 h -0.649414 v -0.214844 h 1.540527 z m 2.526856,1.470947 q -0.06714,0.0293 -0.122071,0.05493 -0.05371,0.02563 -0.141601,0.05371 -0.07446,0.02319 -0.162354,0.03906 -0.08667,0.01709 -0.19165,0.01709 -0.197754,0 -0.360107,-0.05493 -0.161133,-0.05615 -0.280762,-0.17456 -0.117188,-0.115967 -0.183106,-0.29419 -0.06592,-0.179443 -0.06592,-0.416259 0,-0.22461 0.06348,-0.401612 0.06348,-0.177002 0.183105,-0.299072 0.115967,-0.118408 0.279541,-0.180664 0.164795,-0.06226 0.364991,-0.06226 0.146484,0 0.291748,0.0354 0.146484,0.0354 0.324707,0.124512 v 0.286865 h -0.01831 q -0.150146,-0.125732 -0.297851,-0.183105 -0.147705,-0.05737 -0.316162,-0.05737 -0.13794,0 -0.249024,0.04517 -0.109863,0.04394 -0.196533,0.137939 -0.08423,0.09155 -0.131836,0.231934 -0.04639,0.13916 -0.04639,0.322266 0,0.19165 0.05127,0.329589 0.05249,0.13794 0.134277,0.22461 0.08545,0.09033 0.198975,0.134277 0.114746,0.04273 0.241699,0.04273 0.17456,0 0.327148,-0.05982 0.152588,-0.05981 0.285645,-0.179443 h 0.01709 z m 1.774902,-1.685791 -0.661621,1.817627 h -0.322266 l -0.661621,-1.817627 h 0.258789 l 0.570069,1.599121 0.570068,-1.599121 z"
     id="text7"
     style="font-size:2.5px;text-anchor:middle;fill:#cccccc"
     aria-label="INT CV" />
  <path
     d="m 12.405762,79.86805 h -0.649414 v 1.602783 h -0.2417 V 79.86805 h -0.649414 v -0.214844 h 1.540528 z m 1.748047,1.602783 h -0.313721 l -0.60791,-0.722656 h -0.340576 v 0.722656 h -0.2417 v -1.817627 h 0.509034 q 0.164794,0 0.274658,0.02197 0.109863,0.02075 0.197754,0.07568 0.09888,0.06226 0.153808,0.157471 0.05615,0.09399 0.05615,0.239258 0,0.196533 -0.09888,0.32959 -0.09888,0.131836 -0.272217,0.198974 z m -0.565186,-1.306152 q 0,-0.07813 -0.02808,-0.13794 -0.02686,-0.06104 -0.09033,-0.102539 -0.05249,-0.0354 -0.124512,-0.04883 -0.07202,-0.01465 -0.169678,-0.01465 H 12.8916 v 0.686035 h 0.24414 q 0.114746,0 0.200196,-0.01953 0.08545,-0.02075 0.145263,-0.07568 0.05493,-0.05127 0.08057,-0.117188 0.02685,-0.06714 0.02685,-0.169677 z m 1.44043,1.306152 h -0.717774 v -0.185547 h 0.238037 v -1.446533 h -0.238037 v -0.185547 h 0.717774 v 0.185547 h -0.238037 v 1.446533 h 0.238037 z m 1.92749,-0.134277 q -0.148926,0.06836 -0.325928,0.119629 -0.175781,0.05005 -0.340576,0.05005 -0.212402,0 -0.389404,-0.05859 -0.177002,-0.05859 -0.301514,-0.175782 -0.125732,-0.118408 -0.194092,-0.29541 -0.06836,-0.178222 -0.06836,-0.41626 0,-0.435791 0.253906,-0.687255 0.255127,-0.252686 0.699463,-0.252686 0.155029,0 0.316162,0.03784 0.162354,0.03662 0.349121,0.125732 v 0.286866 h -0.02197 q -0.03784,-0.0293 -0.109864,-0.0769 -0.07202,-0.04761 -0.141601,-0.07935 -0.08423,-0.03784 -0.191651,-0.06226 -0.106201,-0.02564 -0.241699,-0.02564 -0.305176,0 -0.483398,0.196533 -0.177002,0.195313 -0.177002,0.529785 0,0.352783 0.185547,0.549317 0.185547,0.195312 0.505371,0.195312 0.117187,0 0.233154,-0.02319 0.117188,-0.02319 0.205078,-0.05982 v -0.445556 h -0.48706 v -0.212403 h 0.726318 z"
     id="text8"
     style="font-size:2.5px;text-anchor:middle;fill:#cccccc"
     aria-label="TRIG" />
  <path
     d="m 29.368774,81.338997 q -0.06714,0.0293 -0.12207,0.05493 -0.05371,0.02563 -0.141601,0.05371 -0.07446,0.02319 -0.162354,0.03906 -0.08667,0.01709 -0.19165,0.01709 -0.197754,0 -0.360108,-0.05493 -0.161133,-0.05615 -0.280762,-0.17456 -0.117187,-0.115967 -0.183105,-0.29419 -0.06592,-0.179443 -0.06592,-0.416259 0,-0.22461 0.06348,-0.401612 0.06348,-0.177002 0.183105,-0.299072 0.115967,-0.118408 0.279541,-0.180664 0.164795,-0.06226 0.36499,-0.06226 0.146485,0 0.291748,0.0354 0.146485,0.0354 0.324707,0.124512 v 0.286865 h -0.01831 q -0.150147,-0.125732 -0.297852,-0.183105 -0.147705,-0.05737 -0.316162,-0.05737 -0.137939,0 -0.249023,0.04517 -0.109864,0.04394 -0.196533,0.137939 -0.08423,0.09155 -0.131836,0.231934 -0.04639,0.13916 -0.04639,0.322266 0,0.19165 0.05127,0.329589 0.05249,0.13794 0.134278,0.22461 0.08545,0.09033 0.198974,0.134277 0.114746,0.04273 0.2417,0.04273 0.17456,0 0.327148,-0.05982 0.152588,-0.05981 0.285645,-0.179443 h 0.01709 z m 1.4917,0.131836 h -1.149903 v -1.817627 h 0.2417 v 1.602783 h 0.908203 z m 1.572265,-1.608887 q 0.111084,0.122071 0.169678,0.299073 0.05981,0.177001 0.05981,0.401611 0,0.224609 -0.06103,0.402832 -0.05981,0.177002 -0.168457,0.29541 -0.112304,0.123291 -0.266113,0.185547 -0.152588,0.06226 -0.349121,0.06226 -0.191651,0 -0.349121,-0.06348 -0.15625,-0.06348 -0.266113,-0.184326 -0.109864,-0.12085 -0.169678,-0.296631 -0.05859,-0.175781 -0.05859,-0.401611 0,-0.222168 0.05859,-0.397949 0.05859,-0.177002 0.170898,-0.302735 0.107422,-0.119629 0.266113,-0.183105 0.159913,-0.06348 0.347901,-0.06348 0.195312,0 0.350342,0.0647 0.15625,0.06348 0.264892,0.181884 z m -0.02197,0.700684 q 0,-0.354004 -0.158692,-0.545654 -0.158691,-0.192872 -0.433349,-0.192872 -0.2771,0 -0.435791,0.192872 -0.157471,0.19165 -0.157471,0.545654 0,0.357666 0.161133,0.548096 0.161132,0.189209 0.432129,0.189209 0.270996,0 0.430908,-0.189209 0.161133,-0.19043 0.161133,-0.548096 z m 2.038574,0.776367 q -0.06714,0.0293 -0.12207,0.05493 -0.05371,0.02563 -0.141602,0.05371 -0.07446,0.02319 -0.162354,0.03906 -0.08667,0.01709 -0.19165,0.01709 -0.197754,0 -0.360107,-0.05493 -0.161133,-0.05615 -0.280762,-0.17456 -0.117188,-0.115967 -0.183106,-0.29419 -0.06592,-0.179443 -0.06592,-0.416259 0,-0.22461 0.06348,-0.401612 0.06348,-0.177002 0.183105,-0.299072 0.115967,-0.118408 0.279542,-0.180664 0.164794,-0.06226 0.36499,-0.06226 0.146484,0 0.291748,0.0354 0.146484,0.0354 0.324707,0.124512 v 0.286865 h -0.01831 q -0.150146,-0.125732 -0.297851,-0.183105 -0.147705,-0.05737 -0.316162,-0.05737 -0.13794,0 -0.249024,0.04517 -0.109863,0.04394 -0.196533,0.137939 -0.08423,0.09155 -0.131836,0.231934 -0.04639,0.13916 -0.04639,0.322266 0,0.19165 0.05127,0.329589 0.05249,0.13794 0.134277,0.22461 0.08545,0.09033 0.198975,0.134277 0.114746,0.04273 0.241699,0.04273 0.174561,0 0.327148,-0.05982 0.152588,-0.05981 0.285645,-0.179443 h 0.01709 z m 1.802976,0.131836 h -0.31372 l -0.718995,-0.809326 -0.180664,0.192871 v 0.616455 h -0.241699 v -1.817627 h 0.241699 v 0.948486 l 0.882569,-0.948486 h 0.292969 l -0.811768,0.854492 z"
     id="text9"
     style="font-size:2.5px;text-anchor:middle;fill:#cccccc"
     aria-label="CLOCK" />
  <path
     d="m 12.797607,95.354165 h -1.149902 v -1.817627 h 0.241699 v 1.602783 h 0.908203 z m 1.761475,0 h -0.717773 v -0.185547 h 0.238037 v -1.446533 h -0.238037 v -0.185547 h 0.717773 v 0.185547 h -0.238037 v 1.446533 h 0.238037 z m 1.798096,0 h -0.299073 l -0.861816,-1.625977 v 1.625977 h -0.22583 v -1.817627 h 0.374756 l 0.786133,1.484375 v -1.484375 h 0.22583 z"
     id="text10"
     style="font-size:2.5px;text-anchor:middle;fill:#cccccc"
     aria-label="L IN" />
  <path
     d="m 30.978271,95.354165 h -0.31372 l -0.60791,-0.722656 h -0.340577 v 0.722656 h -0.241699 v -1.817627 h 0.509033 q 0.164795,0 0.274659,0.02197 0.109863,0.02075 0.197754,0.07568 0.09888,0.06226 0.153808,0.157471 0.05615,0.09399 0.05615,0.239258 0,0.196533 -0.09888,0.32959 -0.09888,0.131836 -0.272217,0.198974 z m -0.565185,-1.306152 q 0,-0.07813 -0.02808,-0.13794 -0.02686,-0.06104 -0.09033,-0.102539 -0.05249,-0.0354 -0.124512,-0.04883 -0.07202,-0.01465 -0.169678,-0.01465 h -0.284424 v 0.686035 h 0.244141 q 0.114746,0 0.200195,-0.01953 0.08545,-0.02075 0.145264,-0.07568 0.05493,-0.05127 0.08057,-0.117188 0.02686,-0.06714 0.02686,-0.169677 z m 2.319336,1.306152 h -0.717774 v -0.185547 h 0.238038 v -1.446533 h -0.238038 v -0.185547 h 0.717774 v 0.185547 h -0.238037 v 1.446533 h 0.238037 z m 1.798096,0 h -0.299073 l -0.861816,-1.625977 v 1.625977 h -0.22583 v -1.817627 h 0.374756 l 0.786132,1.484375 v -1.484375 h 0.225831 z"
     id="text11"
     style="font-size:2.5px;text-anchor:middle;fill:#cccccc"
     aria-label="R IN" />
  <path
     d="m 11.589722,111.35415 h -1.149903 v -1.81763 h 0.2417 v 1.60279 h 0.908203 z m 2.475586,-1.60889 q 0.111084,0.12207 0.169677,0.29908 0.05982,0.177 0.05982,0.40161 0,0.22461 -0.06104,0.40283 -0.05982,0.177 -0.168457,0.29541 -0.112305,0.12329 -0.266114,0.18555 -0.152588,0.0623 -0.349121,0.0623 -0.19165,0 -0.349121,-0.0635 -0.15625,-0.0635 -0.266113,-0.18433 -0.109863,-0.12085 -0.169678,-0.29663 -0.05859,-0.17578 -0.05859,-0.40161 0,-0.22217 0.05859,-0.39795 0.05859,-0.177 0.170899,-0.30274 0.107421,-0.11963 0.266113,-0.1831 0.159912,-0.0635 0.3479,-0.0635 0.195313,0 0.350342,0.0647 0.15625,0.0635 0.264893,0.18188 z m -0.02197,0.70069 q 0,-0.35401 -0.158691,-0.54566 -0.158692,-0.19287 -0.43335,-0.19287 -0.2771,0 -0.435791,0.19287 -0.157471,0.19165 -0.157471,0.54566 0,0.35766 0.161133,0.54809 0.161133,0.18921 0.432129,0.18921 0.270996,0 0.430908,-0.18921 0.161133,-0.19043 0.161133,-0.54809 z m 2.003174,0.17822 q 0,0.19775 -0.04395,0.34546 -0.04272,0.14648 -0.141601,0.24414 -0.09399,0.0928 -0.219727,0.1355 -0.125732,0.0427 -0.292968,0.0427 -0.170899,0 -0.297852,-0.0452 -0.126953,-0.0452 -0.213623,-0.13306 -0.09888,-0.1001 -0.142822,-0.2417 -0.04273,-0.1416 -0.04273,-0.3479 v -1.08765 h 0.241699 v 1.09986 q 0,0.1477 0.01953,0.23315 0.02075,0.0855 0.06836,0.15503 0.05371,0.0793 0.145264,0.11963 0.09277,0.0403 0.222168,0.0403 0.130615,0 0.222168,-0.0391 0.09155,-0.0403 0.146484,-0.12085 0.04761,-0.0696 0.06714,-0.15869 0.02075,-0.0903 0.02075,-0.22339 v -1.10596 h 0.241699 z m 1.757812,-0.8728 h -0.649417 v 1.60278 h -0.241699 v -1.60278 h -0.649414 v -0.21485 h 1.540527 z"
     id="text12"
     style="font-size:2.5px;text-anchor:middle;fill:#cccccc"
     aria-label="L OUT" />
  <path
     d="m 29.770386,111.35415 h -0.313721 l -0.60791,-0.72266 h -0.340576 v 0.72266 h -0.2417 v -1.81763 h 0.509034 q 0.164795,0 0.274658,0.022 0.109863,0.0207 0.197754,0.0757 0.09888,0.0623 0.153808,0.15747 0.05615,0.094 0.05615,0.23926 0,0.19653 -0.09888,0.32959 -0.09888,0.13183 -0.272217,0.19897 z M 29.2052,110.048 q 0,-0.0781 -0.02808,-0.13794 -0.02685,-0.061 -0.09033,-0.10254 -0.05249,-0.0354 -0.124512,-0.0488 -0.07202,-0.0147 -0.169677,-0.0147 h -0.284424 v 0.68604 h 0.24414 q 0.114746,0 0.200196,-0.0195 0.08545,-0.0208 0.145263,-0.0757 0.05493,-0.0513 0.08057,-0.11718 0.02686,-0.0671 0.02686,-0.16968 z m 3.033447,-0.30274 q 0.111084,0.12207 0.169678,0.29908 0.05982,0.177 0.05982,0.40161 0,0.22461 -0.06104,0.40283 -0.05981,0.177 -0.168457,0.29541 -0.112304,0.12329 -0.266113,0.18555 -0.152588,0.0623 -0.349121,0.0623 -0.19165,0 -0.349121,-0.0635 -0.15625,-0.0635 -0.266113,-0.18433 -0.109864,-0.12085 -0.169678,-0.29663 -0.05859,-0.17578 -0.05859,-0.40161 0,-0.22217 0.05859,-0.39795 0.05859,-0.177 0.170898,-0.30274 0.107422,-0.11963 0.266114,-0.1831 0.159912,-0.0635 0.3479,-0.0635 0.195313,0 0.350342,0.0647 0.15625,0.0635 0.264892,0.18188 z m -0.02197,0.70069 q 0,-0.35401 -0.158692,-0.54566 -0.158691,-0.19287 -0.433349,-0.19287 -0.2771,0 -0.435791,0.19287 -0.157471,0.19165 -0.157471,0.54566 0,0.35766 0.161133,0.54809 0.161133,0.18921 0.432129,0.18921 0.270996,0 0.430908,-0.18921 0.161133,-0.19043 0.161133,-0.54809 z m 2.003174,0.17822 q 0,0.19775 -0.04395,0.34546 -0.04272,0.14648 -0.141601,0.24414 -0.09399,0.0928 -0.219727,0.1355 -0.125732,0.0427 -0.292969,0.0427 -0.170898,0 -0.297851,-0.0452 -0.126953,-0.0452 -0.213623,-0.13306 -0.09888,-0.1001 -0.142822,-0.2417 -0.04273,-0.1416 -0.04273,-0.3479 v -1.08765 h 0.241699 v 1.09986 q 0,0.1477 0.01953,0.23315 0.02075,0.0855 0.06836,0.15503 0.05371,0.0793 0.145263,0.11963 0.09277,0.0403 0.222168,0.0403 0.130616,0 0.222168,-0.0391 0.09155,-0.0403 0.146485,-0.12085 0.04761,-0.0696 0.06714,-0.15869 0.02075,-0.0903 0.02075,-0.22339 v -1.10596 h 0.2417 z m 1.757812,-0.8728 h -0.649416 v 1.60278 h -0.241699 v -1.60278 h -0.649414 v -0.21485 h 1.540527 z"
     id="text13"
     style="font-size:2.5px;text-anchor:middle;fill:#cccccc"
     aria-label="R OUT" />
</svg>
