<?xml version="1.0" encoding="UTF-8" standalone="no"?>
<!-- VCV Rack Panel SVG (mm units). Default: 12HP = 60.96mm wide, 128.5mm tall -->

<svg
   width="60.96mm"
   height="128.5mm"
   viewBox="0 0 60.96 128.5"
   version="1.1"
   id="svg27"
   sodipodi:docname="ChordSynth.svg"
   inkscape:version="1.4.3 (0d15f75, 2025-12-25)"
   xmlns:inkscape="http://www.inkscape.org/namespaces/inkscape"
   xmlns:sodipodi="http://sodipodi.sourceforge.net/DTD/sodipodi-0.dtd"
   xmlns="http://www.w3.org/2000/svg"
   xmlns:svg="http://www.w3.org/2000/svg">
  <sodipodi:namedview
     id="namedview27"
     pagecolor="#ffffff"
     bordercolor="#000000"
     borderopacity="0.25"
     inkscape:showpageshadow="2"
     inkscape:pageopacity="0.0"
     inkscape:pagecheckerboard="0"
     inkscape:deskcolor="#d1d1d1"
     inkscape:document-units="mm"
     showguides="false"
     inkscape:zoom="1.5998541"
     inkscape:cx="115.01049"
     inkscape:cy="242.20959"
     inkscape:window-width="1920"
     inkscape:window-height="991"
     inkscape:window-x="-9"
     inkscape:window-y="-9"
     inkscape:window-maximized="1"
     inkscape:current-layer="svg27" />
  <defs
     id="defs4">
    <linearGradient
       id="swatch27"
       inkscape:swatch="solid">
      <stop
         style="stop-color:#070707;stop-opacity:1;"
         offset="0"
         id="stop27" />
    </linearGradient>
    <!-- Subtle panel gradient -->
    <linearGradient
       id="bgGrad"
       x1="0"
       y1="0"
       x2="0"
       y2="1">
      <stop
         offset="0%"
         stop-color="#1a237e"
         id="stop1" />
      <stop
         offset="100%"
         stop-color="#1a237e"
         id="stop2" />
    </linearGradient>
    <!-- Accent gradient -->
    <linearGradient
       id="accentGrad"
       x1="0"
       y1="0"
       x2="1"
       y2="0">
      <stop
         offset="0%"
         stop-color="#7cf6ff"
         id="stop3" />
      <stop
         offset="100%"
         stop-color="#b38bff"
         id="stop4" />
    </linearGradient>
    <style
       id="style4">
      .panel-bg { fill: url(#bgGrad); }
      .frame { fill: none; stroke: #2a2a2a; stroke-width: 0.4; }
      .label { fill: #eaeaea; font-family: &quot;DejaVu Sans&quot;, Arial, sans-serif; font-size: 3.2px; letter-spacing: 0.3px; }
      .sublabel { fill: #bdbdbd; font-family: &quot;DejaVu Sans&quot;, Arial, sans-serif; font-size: 2.4px; letter-spacing: 0.25px; }
      .tiny { fill: #9a9a9a; font-family: &quot;DejaVu Sans&quot;, Arial, sans-serif; font-size: 2.1px; }
      .accent-line { stroke: url(#accentGrad); stroke-width: 0.8; stroke-linecap: round; opacity: 0.9; }
      .cut { fill: none; stroke: #3a3a3a; stroke-width: 0.35; opacity: 0.8; }
      .port-ring { fill: none; stroke: #6a6a6a; stroke-width: 0.45; opacity: 0.9; }
      .knob-ring { fill: none; stroke: #4a4a4a; stroke-width: 0.55; opacity: 0.9; }
      .guide { fill: none; stroke: #ff4dd2; stroke-width: 0.25; stroke-dasharray: 1.2 1.2; opacity: 0.35; }
    </style>
  </defs>
  <!-- Panel background -->
  <rect
     x="0"
     y="0"
     width="60.96"
     height="128.5"
     rx="1.2"
     ry="1.2"
     fill="#1a237e"
     id="rect4" />
  <!-- Screw holes (Eurorack style) -->
  <circle
     id="screw_top"
     cx="7.0"
     cy="5.6"
     r="1.65"
     class="cut" />
  <circle
     id="screw_bottom"
     cx="7.0"
     cy="122.9"
     r="1.65"
     class="cut" />
  <circle
     cx="7.0"
     cy="5.6"
     r="0.9"
     class="cut"
     opacity="0.6"
     id="circle5" />
  <circle
     cx="7.0"
     cy="122.9"
     r="0.9"
     class="cut"
     opacity="0.6"
     id="circle6" />
  <!-- Brand / Title -->
  <path
     d="m 23.19958,8.7357421 q 0,-0.7485352 0.401953,-1.1709961 0.401953,-0.4245117 1.037695,-0.4245117 0.416309,0 0.750586,0.1989258 0.334278,0.1989258 0.508594,0.5557617 0.176367,0.3547851 0.176367,0.805957 0,0.4573242 -0.18457,0.8182617 -0.184571,0.3609374 -0.522949,0.5475585 -0.338379,0.18457 -0.730079,0.18457 -0.424511,0 -0.758789,-0.205078 Q 23.544111,9.8411131 23.371846,9.486328 23.19958,9.1315428 23.19958,8.7357421 Z m 0.410156,0.00615 q 0,0.543457 0.291211,0.8572265 0.293262,0.3117188 0.73418,0.3117188 0.449121,0 0.738281,-0.3158203 0.291211,-0.3158203 0.291211,-0.8961914 0,-0.3670898 -0.125098,-0.6398437 -0.123047,-0.2748047 -0.362988,-0.4245117 -0.237891,-0.1517578 -0.535254,-0.1517578 -0.422461,0 -0.728027,0.2912109 -0.303516,0.2891601 -0.303516,0.9679687 z M 26.875166,10.2 V 7.1935546 h 0.598828 l 0.711621,2.1287109 q 0.09844,0.2973632 0.143554,0.4450195 0.05127,-0.1640625 0.159961,-0.4819336 l 0.719825,-2.0917968 h 0.535253 V 10.2 H 29.360712 V 7.6836913 L 28.48708,10.2 H 28.128193 L 27.258662,7.6406249 V 10.2 Z m 3.806836,0 V 7.1935546 h 0.408105 l 1.579102,2.3604491 V 7.1935546 h 0.381445 V 10.2 H 32.642548 L 31.063447,7.8374999 V 10.2 Z m 3.404882,0 V 7.1935546 h 0.397852 V 10.2 Z m 1.069044,0 1.154589,-3.0064454 h 0.428614 L 37.969599,10.2 H 37.516377 L 37.165693,9.289453 H 35.908564 L 35.578388,10.2 Z m 0.86748,-1.2345704 h 1.019238 L 36.728877,8.1328124 Q 36.585322,7.7534179 36.515595,7.5093749 36.458174,7.7985351 36.353584,8.0835937 Z"
     id="text6"
     style="font-size:4.2px;font-family:'DejaVu Sans', Arial, sans-serif;letter-spacing:0.3px;text-anchor:middle;fill:#eaeaea"
     class="label"
     aria-label="OMNIA" />
  <path
     d="m 21.840741,13.697656 0.227344,0.05742 q -0.07148,0.280078 -0.257812,0.427735 -0.185157,0.146484 -0.453516,0.146484 -0.277734,0 -0.452344,-0.1125 -0.173437,-0.113672 -0.264843,-0.328125 -0.09023,-0.214453 -0.09023,-0.460547 0,-0.268359 0.101953,-0.467578 0.103125,-0.200391 0.291797,-0.303516 0.189844,-0.104297 0.417188,-0.104297 0.257812,0 0.433593,0.131251 0.175782,0.13125 0.244922,0.36914 l -0.223828,0.05274 q -0.05976,-0.1875 -0.173437,-0.273047 -0.113672,-0.08555 -0.285938,-0.08555 -0.198047,0 -0.33164,0.09492 -0.132422,0.09492 -0.186329,0.255468 -0.05391,0.159375 -0.05391,0.329297 0,0.219141 0.06328,0.383203 0.06445,0.162891 0.199219,0.24375 0.134766,0.08086 0.291797,0.08086 0.191016,0 0.323438,-0.110156 0.132421,-0.110157 0.179296,-0.326954 z M 22.605195,14.3 v -1.717969 h 0.227343 V 13.2875 h 0.892969 v -0.705469 h 0.227344 V 14.3 H 23.725507 V 13.490235 H 22.832538 V 14.3 Z m 1.907031,-0.836719 q 0,-0.427734 0.229687,-0.66914 0.229688,-0.242578 0.592969,-0.242578 0.237891,0 0.428906,0.113672 0.191016,0.113671 0.290625,0.317578 0.100782,0.202734 0.100782,0.460547 0,0.261328 -0.105469,0.467578 -0.105469,0.20625 -0.298828,0.31289 -0.19336,0.105469 -0.417188,0.105469 -0.242578,0 -0.433594,-0.117187 -0.191015,-0.117188 -0.289453,-0.319922 -0.09844,-0.202735 -0.09844,-0.428907 z m 0.234375,0.0035 q 0,0.310547 0.166406,0.489844 0.167578,0.178125 0.419531,0.178125 0.256641,0 0.421875,-0.180469 0.166407,-0.180469 0.166407,-0.512109 0,-0.209766 -0.07148,-0.365625 -0.07031,-0.157032 -0.207422,-0.242578 -0.135937,-0.08672 -0.305859,-0.08672 -0.241406,0 -0.416016,0.166406 -0.173437,0.165234 -0.173437,0.553125 z M 26.701679,14.3 v -1.717969 h 0.761719 q 0.229687,0 0.349219,0.04687 0.119531,0.0457 0.191015,0.162891 0.07148,0.117188 0.07148,0.258984 0,0.182813 -0.11836,0.308204 -0.118359,0.12539 -0.365625,0.159375 0.09023,0.04336 0.13711,0.08555 0.09961,0.09141 0.188672,0.228516 L 28.215742,14.3 H 27.929804 L 27.70246,13.942578 q -0.09961,-0.154687 -0.164062,-0.236718 -0.06445,-0.08203 -0.116016,-0.114844 -0.05039,-0.03281 -0.103125,-0.0457 -0.03867,-0.0082 -0.126562,-0.0082 H 26.929023 V 14.3 Z m 0.227344,-0.959765 h 0.488672 q 0.155859,0 0.24375,-0.03164 0.08789,-0.03281 0.133593,-0.103125 0.0457,-0.07148 0.0457,-0.154688 0,-0.121875 -0.08906,-0.20039 -0.08789,-0.07852 -0.278906,-0.07852 h -0.54375 z M 28.681366,14.3 v -1.717969 h 0.591797 q 0.200391,0 0.30586,0.02461 0.147656,0.03398 0.251953,0.123047 0.135937,0.114843 0.202734,0.29414 0.06797,0.178125 0.06797,0.407813 0,0.195703 -0.0457,0.346875 -0.0457,0.151172 -0.117188,0.250781 -0.07148,0.09844 -0.157031,0.155859 -0.08437,0.05625 -0.205078,0.08555 Q 29.457148,14.3 29.301288,14.3 Z m 0.227344,-0.202734 h 0.366797 q 0.169922,0 0.266016,-0.03164 0.09727,-0.03164 0.154687,-0.08906 0.08086,-0.08086 0.125391,-0.216797 0.0457,-0.13711 0.0457,-0.331641 0,-0.269531 -0.08906,-0.413672 -0.08789,-0.145312 -0.214453,-0.194531 -0.09141,-0.03516 -0.29414,-0.03516 H 28.90871 Z m 2.595313,-0.349219 0.214453,-0.01875 q 0.01524,0.128906 0.07031,0.212109 0.05625,0.08203 0.173437,0.133594 0.117188,0.05039 0.263672,0.05039 0.130078,0 0.229688,-0.03867 0.09961,-0.03867 0.147656,-0.105469 0.04922,-0.06797 0.04922,-0.147656 0,-0.08086 -0.04687,-0.140625 -0.04687,-0.06094 -0.154688,-0.101953 -0.06914,-0.02695 -0.305859,-0.0832 Q 31.90832,13.450391 31.813398,13.4 q -0.123047,-0.06445 -0.183984,-0.159375 -0.05977,-0.09609 -0.05977,-0.214453 0,-0.130078 0.07383,-0.242578 0.07383,-0.113672 0.215625,-0.172266 0.141797,-0.05859 0.315235,-0.05859 0.191015,0 0.336328,0.06211 0.146484,0.06094 0.225,0.180469 0.07852,0.119531 0.08438,0.270703 l -0.217969,0.01641 q -0.01758,-0.162891 -0.119531,-0.246094 -0.100781,-0.0832 -0.298828,-0.0832 -0.20625,0 -0.301172,0.07617 -0.09375,0.075 -0.09375,0.181641 0,0.09258 0.0668,0.152343 0.06563,0.05977 0.342187,0.123047 0.277735,0.06211 0.38086,0.108985 0.15,0.06914 0.221484,0.175781 0.07148,0.105469 0.07148,0.24375 0,0.137109 -0.07851,0.258984 -0.07852,0.120703 -0.226172,0.188672 -0.146485,0.0668 -0.330469,0.0668 -0.233203,0 -0.391406,-0.06797 -0.157031,-0.06797 -0.247266,-0.203906 -0.08906,-0.137109 -0.09375,-0.309375 z M 33.916133,14.3 v -0.727734 l -0.66211,-0.990235 h 0.276563 L 33.869258,13.1 q 0.09375,0.145313 0.174609,0.290625 0.07734,-0.134765 0.1875,-0.303515 l 0.332813,-0.505079 h 0.264843 l -0.685546,0.990235 V 14.3 Z m 1.364452,0 v -1.717969 h 0.233203 l 0.902344,1.348829 v -1.348829 h 0.217969 V 14.3 h -0.233203 l -0.902344,-1.35 v 1.35 z m 2.422657,0 v -1.515234 h -0.566015 v -0.202735 h 1.361718 v 0.202735 H 37.930586 V 14.3 Z m 1.285937,0 v -1.717969 h 0.227344 V 13.2875 h 0.892968 v -0.705469 h 0.227344 V 14.3 H 40.109491 V 13.490235 H 39.216523 V 14.3 Z"
     id="text7"
     class="sublabel"
     style="font-size:2.4px;font-family:'DejaVu Sans', Arial, sans-serif;letter-spacing:0.25px;text-anchor:middle;fill:#bdbdbd"
     aria-label="CHORD SYNTH" />
  <line
     x1="10.0"
     y1="16.2"
     x2="50.96"
     y2="16.2"
     class="accent-line"
     id="line7" />
  <!-- Section dividers -->
  <line
     x1="8"
     y1="41.587502"
     x2="52.959999"
     y2="41.587502"
     class="cut"
     id="line8" />
  <line
     x1="8"
     y1="79.587502"
     x2="52.959999"
     y2="79.587502"
     class="cut"
     id="line9" />
  <line
     x1="8"
     y1="99.766685"
     x2="52.959999"
     y2="99.766685"
     class="cut"
     id="line10" />
  <!-- ===== TOP: Main chord knob ===== -->
  <path
     d="m 19.606366,20.339322 0.227344,0.05742 q -0.07148,0.280078 -0.257812,0.427734 -0.185157,0.146485 -0.453516,0.146485 -0.277734,0 -0.452344,-0.1125 -0.173437,-0.113672 -0.264844,-0.328125 -0.09023,-0.214454 -0.09023,-0.460547 0,-0.26836 0.101953,-0.467579 0.103125,-0.20039 0.291797,-0.303515 0.189844,-0.104297 0.417188,-0.104297 0.257812,0 0.433593,0.13125 0.175782,0.13125 0.244922,0.369141 l -0.223828,0.05273 q -0.05977,-0.1875 -0.173437,-0.273047 -0.113672,-0.08555 -0.285938,-0.08555 -0.198047,0 -0.331641,0.09492 -0.132421,0.09492 -0.186328,0.255469 -0.05391,0.159375 -0.05391,0.329297 0,0.21914 0.06328,0.383203 0.06445,0.162891 0.199219,0.24375 0.134766,0.08086 0.291797,0.08086 0.191016,0 0.323437,-0.110156 0.132422,-0.110156 0.179297,-0.326953 z m 0.764453,0.602344 v -1.717969 h 0.227344 v 0.705469 h 0.892969 v -0.705469 h 0.227344 v 1.717969 H 21.491132 V 20.1319 h -0.892969 v 0.809766 z m 1.907032,-0.836719 q 0,-0.427735 0.229687,-0.669141 0.229688,-0.242578 0.592969,-0.242578 0.237891,0 0.428906,0.113672 0.191016,0.113672 0.290625,0.317578 0.100782,0.202734 0.100782,0.460547 0,0.261328 -0.105469,0.467578 -0.105469,0.20625 -0.298828,0.312891 -0.19336,0.105469 -0.417188,0.105469 -0.242578,0 -0.433594,-0.117188 -0.191015,-0.117187 -0.289453,-0.319922 -0.09844,-0.202734 -0.09844,-0.428906 z m 0.234375,0.0035 q 0,0.310547 0.166406,0.489844 0.167578,0.178125 0.419531,0.178125 0.256641,0 0.421875,-0.180468 0.166407,-0.180469 0.166407,-0.51211 0,-0.209766 -0.07148,-0.365625 -0.07031,-0.157031 -0.207422,-0.242578 -0.135937,-0.08672 -0.305859,-0.08672 -0.241406,0 -0.416016,0.166406 -0.173437,0.165235 -0.173437,0.553125 z m 1.955078,0.833204 v -1.717969 h 0.761719 q 0.229687,0 0.349219,0.04687 0.119531,0.0457 0.191015,0.16289 0.07148,0.117188 0.07148,0.258985 0,0.182812 -0.11836,0.308203 -0.118359,0.125391 -0.365625,0.159375 0.09023,0.04336 0.13711,0.08555 0.09961,0.09141 0.188671,0.228516 l 0.298829,0.467578 h -0.285938 l -0.227344,-0.357422 q -0.09961,-0.154688 -0.164062,-0.236719 -0.06445,-0.08203 -0.116016,-0.114844 -0.05039,-0.03281 -0.103125,-0.0457 -0.03867,-0.0082 -0.126562,-0.0082 h -0.263672 v 0.762891 z M 24.694648,19.9819 h 0.488672 q 0.155859,0 0.24375,-0.03164 0.08789,-0.03281 0.133593,-0.103125 0.0457,-0.07148 0.0457,-0.154687 0,-0.121875 -0.08906,-0.200391 -0.08789,-0.07852 -0.278906,-0.07852 h -0.54375 z m 1.752343,0.959766 v -1.717969 h 0.591797 q 0.200391,0 0.30586,0.02461 0.147656,0.03399 0.251953,0.123047 0.135937,0.114844 0.202734,0.294141 0.06797,0.178125 0.06797,0.407812 0,0.195703 -0.0457,0.346875 -0.0457,0.151172 -0.117188,0.250782 -0.07148,0.09844 -0.157031,0.155859 -0.08437,0.05625 -0.205078,0.08555 -0.119531,0.0293 -0.275391,0.0293 z m 0.227344,-0.202735 h 0.366797 q 0.169922,0 0.266016,-0.03164 0.09727,-0.03164 0.154687,-0.08906 0.08086,-0.08086 0.125391,-0.216797 0.0457,-0.137109 0.0457,-0.33164 0,-0.269532 -0.08906,-0.413672 -0.08789,-0.145313 -0.214453,-0.194532 -0.09141,-0.03516 -0.29414,-0.03516 h -0.360938 z m 2.487501,0.232032 0.498047,-1.776563 h 0.16875 l -0.496875,1.776563 z m 3.320702,-0.213282 q 0.158204,0.108985 0.291797,0.159375 l -0.0668,0.158203 q -0.185156,-0.0668 -0.36914,-0.210937 -0.191016,0.106641 -0.421875,0.106641 -0.233203,0 -0.423047,-0.1125 -0.189844,-0.1125 -0.292969,-0.316407 -0.101953,-0.203906 -0.101953,-0.459375 0,-0.254297 0.103125,-0.46289 0.103125,-0.208594 0.292969,-0.317579 0.191015,-0.108984 0.426562,-0.108984 0.237891,0 0.428907,0.113672 0.191015,0.1125 0.290625,0.316406 0.100781,0.202735 0.100781,0.458203 0,0.21211 -0.06445,0.382032 -0.06445,0.16875 -0.194532,0.29414 z m -0.50039,-0.290625 q 0.196875,0.05508 0.324609,0.164063 0.200391,-0.182813 0.200391,-0.54961 0,-0.208593 -0.07149,-0.364453 -0.07031,-0.155859 -0.207421,-0.241406 -0.135938,-0.08672 -0.30586,-0.08672 -0.254297,0 -0.421875,0.17461 -0.167578,0.173437 -0.167578,0.51914 0,0.335157 0.165234,0.514453 0.166407,0.179297 0.424219,0.179297 0.121875,0 0.229688,-0.0457 -0.106641,-0.06914 -0.225,-0.09844 z m 2.442579,-1.243359 h 0.227343 v 0.992578 q 0,0.258984 -0.05859,0.411328 -0.05859,0.152344 -0.21211,0.248438 -0.152344,0.09492 -0.400781,0.09492 -0.241406,0 -0.394922,-0.0832 -0.153516,-0.0832 -0.219141,-0.240234 -0.06563,-0.158203 -0.06563,-0.43125 v -0.992578 h 0.227344 v 0.991406 q 0,0.223828 0.04102,0.330469 0.04219,0.105469 0.142968,0.162891 0.101954,0.05742 0.248438,0.05742 0.250781,0 0.357422,-0.113671 0.106641,-0.113672 0.106641,-0.43711 z m 0.667188,1.717969 0.659765,-1.717969 h 0.244922 l 0.703125,1.717969 h -0.258984 l -0.200391,-0.520313 h -0.718359 l -0.188672,0.520313 z m 0.495703,-0.705469 h 0.582422 l -0.179297,-0.475781 q -0.08203,-0.216797 -0.121875,-0.35625 -0.03281,0.165234 -0.09258,0.328125 z m 1.534374,0.705469 v -1.717969 h 0.227344 v 1.515234 h 0.846094 v 0.202735 z m 1.632813,0 v -1.717969 h 0.227344 v 1.717969 z m 1.315234,0 v -1.515235 h -0.566016 v -0.202734 h 1.361719 v 0.202734 h -0.56836 v 1.515235 z m 1.762891,0 v -0.727735 l -0.662109,-0.990234 h 0.276562 l 0.338672,0.517969 q 0.09375,0.145312 0.17461,0.290625 0.07734,-0.134766 0.1875,-0.303516 l 0.332812,-0.505078 h 0.264844 l -0.685547,0.990234 v 0.727735 z"
     id="text10"
     class="sublabel"
     style="font-size:2.4px;font-family:'DejaVu Sans', Arial, sans-serif;letter-spacing:0.25px;text-anchor:middle;fill:#bdbdbd"
     aria-label="CHORD / QUALITY" />
  <!-- big knob guide -->
  <circle
     id="param_CHORD"
     cx="30.48"
     cy="30.941666"
     r="9"
     class="knob-ring" />
  <circle
     cx="30.48"
     cy="30.941666"
     r="1.1"
     class="cut"
     opacity="0.55"
     id="circle10" />
  <path
     d="m 12.482344,43.941666 v -1.088965 h 0.165088 v 0.152783 q 0.05127,-0.07998 0.136377,-0.128174 0.08511,-0.04922 0.193799,-0.04922 0.120996,0 0.1979,0.05024 0.07793,0.05024 0.109717,0.140478 0.129199,-0.190723 0.336328,-0.190723 0.162012,0 0.24917,0.09023 0.08716,0.08921 0.08716,0.27583 v 0.74751 h -0.183545 v -0.685987 q 0,-0.110742 -0.01846,-0.158935 -0.01743,-0.04922 -0.0646,-0.07896 -0.04717,-0.02974 -0.110743,-0.02974 -0.114843,0 -0.190722,0.0769 -0.07588,0.07588 -0.07588,0.244043 v 0.632666 h -0.18457 v -0.70752 q 0,-0.123047 -0.04512,-0.18457 -0.04512,-0.06152 -0.147656,-0.06152 -0.07793,0 -0.14458,0.04102 -0.06562,0.04102 -0.09536,0.119971 -0.02974,0.07896 -0.02974,0.227636 v 0.564991 z m 2.459912,-0.134327 q -0.102539,0.08716 -0.1979,0.123047 -0.09434,0.03589 -0.203028,0.03589 -0.179443,0 -0.27583,-0.08716 -0.09639,-0.08818 -0.09639,-0.224561 0,-0.07998 0.03589,-0.145605 0.03691,-0.06665 0.09536,-0.106641 0.05947,-0.03999 0.1333,-0.0605 0.05435,-0.01435 0.164063,-0.02768 0.223535,-0.02666 0.32915,-0.06358 0.001,-0.03794 0.001,-0.04819 0,-0.112793 -0.0523,-0.158935 -0.07075,-0.06255 -0.210205,-0.06255 -0.130225,0 -0.192774,0.04614 -0.06152,0.04512 -0.09126,0.160987 l -0.180468,-0.02461 q 0.02461,-0.115869 0.08101,-0.186621 0.0564,-0.07178 0.163037,-0.109717 0.10664,-0.03896 0.247119,-0.03896 0.139453,0 0.226611,0.03281 0.08716,0.03281 0.128174,0.08306 0.04102,0.04922 0.05742,0.125097 0.0092,0.04717 0.0092,0.170215 v 0.246094 q 0,0.257373 0.01128,0.326074 0.0123,0.06768 0.04717,0.130225 H 14.97917 q -0.02871,-0.05742 -0.03691,-0.134327 z m -0.01538,-0.412207 q -0.100488,0.04102 -0.301465,0.06973 -0.113818,0.01641 -0.160986,0.03691 -0.04717,0.02051 -0.0728,0.0605 -0.02563,0.03896 -0.02563,0.08716 0,0.07383 0.05537,0.123047 0.0564,0.04922 0.164062,0.04922 0.106641,0 0.189697,-0.04614 0.08306,-0.04717 0.122022,-0.128173 0.02974,-0.06255 0.02974,-0.184571 z m 0.47168,-0.742382 v -0.214307 h 0.18457 v 0.214307 z m -0.233789,1.711377 0.03486,-0.156885 q 0.05537,0.01436 0.08716,0.01436 0.0564,0 0.08408,-0.03794 0.02768,-0.03691 0.02768,-0.186621 v -1.144336 h 0.18457 v 1.148437 q 0,0.200977 -0.0523,0.279932 -0.06665,0.102539 -0.221484,0.102539 -0.07485,0 -0.14458,-0.01948 z m 1.258154,-1.158692 q 0,-0.107666 0.07588,-0.183545 0.0769,-0.07588 0.183545,-0.07588 0.107666,0 0.183545,0.07588 0.0769,0.07588 0.0769,0.183545 0,0.107666 -0.0769,0.184571 -0.07588,0.07588 -0.183545,0.07588 -0.106641,0 -0.183545,-0.07588 -0.07588,-0.0769 -0.07588,-0.184571 z m 1.345312,0.736231 v -1.088965 h 0.165088 v 0.152783 q 0.05127,-0.07998 0.136377,-0.128174 0.08511,-0.04922 0.193799,-0.04922 0.120996,0 0.1979,0.05024 0.07793,0.05024 0.109717,0.140478 0.129199,-0.190723 0.336328,-0.190723 0.162012,0 0.24917,0.09023 0.08716,0.08921 0.08716,0.27583 v 0.74751 h -0.183545 v -0.685987 q 0,-0.110742 -0.01846,-0.158935 -0.01743,-0.04922 -0.0646,-0.07896 -0.04717,-0.02974 -0.110742,-0.02974 -0.114844,0 -0.190723,0.0769 -0.07588,0.07588 -0.07588,0.244043 v 0.632666 h -0.18457 v -0.70752 q 0,-0.123047 -0.04512,-0.18457 -0.04512,-0.06152 -0.147657,-0.06152 -0.07793,0 -0.14458,0.04102 -0.06563,0.04102 -0.09536,0.119971 -0.02974,0.07896 -0.02974,0.227636 v 0.564991 z m 1.750342,-1.290967 v -0.212256 h 0.184571 v 0.212256 z m 0,1.290967 v -1.088965 h 0.184571 v 1.088965 z m 0.465528,0 v -1.088965 h 0.166113 v 0.154834 q 0.119971,-0.179444 0.346582,-0.179444 0.09844,0 0.180469,0.03589 0.08306,0.03486 0.124072,0.09229 0.04102,0.05742 0.05742,0.136377 0.01025,0.05127 0.01025,0.179444 v 0.66958 h -0.184571 v -0.662403 q 0,-0.112793 -0.02153,-0.168164 -0.02153,-0.0564 -0.0769,-0.08921 -0.05435,-0.03384 -0.128174,-0.03384 -0.11792,0 -0.204053,0.07485 -0.08511,0.07485 -0.08511,0.284033 v 0.594727 z m 1.724706,-0.736231 q 0,-0.107666 0.07588,-0.183545 0.0769,-0.07588 0.183545,-0.07588 0.107666,0 0.183545,0.07588 0.0769,0.07588 0.0769,0.183545 0,0.107666 -0.0769,0.184571 -0.07588,0.07588 -0.183545,0.07588 -0.106641,0 -0.183545,-0.07588 -0.07588,-0.0769 -0.07588,-0.184571 z m 2.051807,0.736231 v -0.137403 q -0.103565,0.162012 -0.304541,0.162012 -0.130225,0 -0.239942,-0.07178 -0.108691,-0.07178 -0.169189,-0.199951 -0.05947,-0.1292 -0.05947,-0.296338 0,-0.163037 0.05435,-0.295313 0.05435,-0.133301 0.163037,-0.204053 0.108691,-0.07075 0.243017,-0.07075 0.09844,0 0.175342,0.04204 0.07691,0.04102 0.125098,0.107667 v -0.539356 h 0.183545 v 1.503223 z m -0.583448,-0.543457 q 0,0.209179 0.08818,0.312744 0.08818,0.103564 0.208154,0.103564 0.120996,0 0.205078,-0.09844 0.08511,-0.09946 0.08511,-0.30249 0,-0.223536 -0.08613,-0.328125 -0.08613,-0.10459 -0.212256,-0.10459 -0.123047,0 -0.206103,0.100488 -0.08203,0.100488 -0.08203,0.316846 z m 1.045899,-0.74751 v -0.212256 h 0.18457 v 0.212256 z m 0,1.290967 v -1.088965 h 0.18457 v 1.088965 z m 0.465527,0 v -1.088965 h 0.165088 v 0.152783 q 0.05127,-0.07998 0.136377,-0.128174 0.08511,-0.04922 0.193799,-0.04922 0.120996,0 0.1979,0.05024 0.07793,0.05024 0.109717,0.140478 0.129199,-0.190723 0.336328,-0.190723 0.162012,0 0.24917,0.09023 0.08716,0.08921 0.08716,0.27583 v 0.74751 h -0.183545 v -0.685987 q 0,-0.110742 -0.01846,-0.158935 -0.01743,-0.04922 -0.0646,-0.07896 -0.04717,-0.02974 -0.110742,-0.02974 -0.114844,0 -0.190723,0.0769 -0.07588,0.07588 -0.07588,0.244043 v 0.632666 h -0.18457 v -0.70752 q 0,-0.123047 -0.04512,-0.18457 -0.04512,-0.06152 -0.147657,-0.06152 -0.07793,0 -0.14458,0.04102 -0.06563,0.04102 -0.09536,0.119971 -0.02974,0.07896 -0.02974,0.227636 v 0.564991 z m 2.306104,-0.736231 q 0,-0.107666 0.07588,-0.183545 0.0769,-0.07588 0.183545,-0.07588 0.107666,0 0.183545,0.07588 0.0769,0.07588 0.0769,0.183545 0,0.107666 -0.0769,0.184571 -0.07588,0.07588 -0.183545,0.07588 -0.106641,0 -0.183545,-0.07588 -0.07588,-0.0769 -0.07588,-0.184571 z m 2.055908,0.601904 q -0.102539,0.08716 -0.197901,0.123047 -0.09434,0.03589 -0.203027,0.03589 -0.179443,0 -0.27583,-0.08716 -0.09639,-0.08818 -0.09639,-0.224561 0,-0.07998 0.03589,-0.145605 0.03691,-0.06665 0.09536,-0.106641 0.05947,-0.03999 0.133301,-0.0605 0.05435,-0.01435 0.164063,-0.02768 0.223535,-0.02666 0.32915,-0.06358 0.001,-0.03794 0.001,-0.04819 0,-0.112793 -0.0523,-0.158935 -0.07075,-0.06255 -0.210205,-0.06255 -0.130224,0 -0.192773,0.04614 -0.06152,0.04512 -0.09126,0.160987 l -0.180469,-0.02461 q 0.02461,-0.115869 0.08101,-0.186621 0.0564,-0.07178 0.163037,-0.109717 0.106641,-0.03896 0.24712,-0.03896 0.139453,0 0.226611,0.03281 0.08716,0.03281 0.128174,0.08306 0.04102,0.04922 0.05742,0.125097 0.0092,0.04717 0.0092,0.170215 v 0.246094 q 0,0.257373 0.01128,0.326074 0.01231,0.06768 0.04717,0.130225 h -0.192773 q -0.02871,-0.05742 -0.03691,-0.134327 z m -0.01538,-0.412207 q -0.100488,0.04102 -0.301465,0.06973 -0.113818,0.01641 -0.160986,0.03691 -0.04717,0.02051 -0.0728,0.0605 -0.02564,0.03896 -0.02564,0.08716 0,0.07383 0.05537,0.123047 0.0564,0.04922 0.164063,0.04922 0.106641,0 0.189697,-0.04614 0.08306,-0.04717 0.122022,-0.128173 0.02974,-0.06255 0.02974,-0.184571 z m 1.186377,0.546534 v -0.159961 q -0.127148,0.18457 -0.345556,0.18457 -0.09639,0 -0.180469,-0.03691 -0.08306,-0.03691 -0.124073,-0.09228 -0.03999,-0.0564 -0.0564,-0.137403 -0.01128,-0.05434 -0.01128,-0.172265 v -0.674707 h 0.18457 v 0.603955 q 0,0.14458 0.01128,0.194824 0.01743,0.0728 0.07383,0.114844 0.0564,0.04102 0.139454,0.04102 0.08306,0 0.155859,-0.04204 0.0728,-0.04307 0.102539,-0.115869 0.03076,-0.07383 0.03076,-0.213281 v -0.583447 h 0.18457 v 1.088965 z m 0.42041,0.09023 0.179443,0.02666 q 0.01128,0.08306 0.06255,0.120996 0.0687,0.05127 0.187646,0.05127 0.128174,0 0.197901,-0.05127 0.06973,-0.05127 0.09434,-0.143554 0.01435,-0.0564 0.01333,-0.236866 -0.120996,0.14253 -0.301465,0.14253 -0.224561,0 -0.347608,-0.162012 -0.123047,-0.162012 -0.123047,-0.388623 0,-0.155859 0.0564,-0.287109 0.0564,-0.132276 0.163037,-0.204053 0.107666,-0.07178 0.252246,-0.07178 0.192774,0 0.317871,0.15586 v -0.13125 h 0.170215 v 0.941308 q 0,0.254297 -0.0523,0.359912 -0.05127,0.106641 -0.164062,0.168165 -0.111768,0.06152 -0.27583,0.06152 -0.194825,0 -0.314795,-0.08818 -0.119971,-0.08716 -0.115869,-0.263525 z m 0.152783,-0.654199 q 0,0.214306 0.08511,0.312744 0.08511,0.09844 0.213281,0.09844 0.127149,0 0.213282,-0.09741 0.08613,-0.09844 0.08613,-0.307617 0,-0.199951 -0.08921,-0.301465 -0.08818,-0.101513 -0.213281,-0.101513 -0.123047,0 -0.209179,0.100488 -0.08613,0.09946 -0.08613,0.296338 z m 1.605762,-0.172266 q 0,-0.107666 0.07588,-0.183545 0.0769,-0.07588 0.183545,-0.07588 0.107666,0 0.183545,0.07588 0.0769,0.07588 0.0769,0.183545 0,0.107666 -0.0769,0.184571 -0.07588,0.07588 -0.183545,0.07588 -0.106641,0 -0.183545,-0.07588 -0.07588,-0.0769 -0.07588,-0.184571 z m 1.306348,-0.570117 V 42.457925 H 34.68 v 0.143555 q -0.143555,0.152783 -0.285059,0.406055 -0.140478,0.253271 -0.217382,0.520898 -0.05537,0.188672 -0.07075,0.413233 h -0.189698 q 0.0031,-0.177393 0.06973,-0.428614 0.06665,-0.25122 0.190723,-0.483984 0.125097,-0.233789 0.265576,-0.39375 z m 1.763671,0.570117 q 0,-0.107666 0.07588,-0.183545 0.0769,-0.07588 0.183544,-0.07588 0.107666,0 0.183545,0.07588 0.07691,0.07588 0.07691,0.183545 0,0.107666 -0.07691,0.184571 -0.07588,0.07588 -0.183545,0.07588 -0.10664,0 -0.183544,-0.07588 -0.07588,-0.0769 -0.07588,-0.184571 z m 1.271485,0.411182 0.182519,-0.02871 q 0.01538,0.109717 0.08511,0.168164 0.07075,0.05845 0.196875,0.05845 0.127148,0 0.188672,-0.05127 0.06152,-0.05229 0.06152,-0.122022 0,-0.06255 -0.05435,-0.09844 -0.03794,-0.02461 -0.188672,-0.06255 -0.203027,-0.05127 -0.281982,-0.08818 -0.07793,-0.03794 -0.118945,-0.103564 -0.03999,-0.06665 -0.03999,-0.146631 0,-0.0728 0.03281,-0.134326 0.03384,-0.06255 0.09126,-0.103565 0.04307,-0.03179 0.116894,-0.05332 0.07485,-0.02256 0.159961,-0.02256 0.128174,0 0.224561,0.03692 0.09741,0.03691 0.143554,0.100488 0.04614,0.06255 0.06358,0.168164 l -0.180469,0.02461 q -0.01231,-0.08408 -0.07178,-0.13125 -0.05845,-0.04717 -0.166114,-0.04717 -0.127148,0 -0.181494,0.04204 -0.05435,0.04204 -0.05435,0.09844 0,0.03589 0.02256,0.0646 0.02256,0.02974 0.07075,0.04922 0.02769,0.01025 0.163037,0.04717 0.19585,0.0523 0.272754,0.08613 0.07793,0.03281 0.122021,0.09639 0.04409,0.06357 0.04409,0.15791 0,0.09228 -0.05434,0.174316 -0.05332,0.08101 -0.154834,0.126123 -0.101514,0.04409 -0.229688,0.04409 -0.212256,0 -0.324023,-0.08818 -0.110743,-0.08818 -0.141504,-0.261474 z m 1.837499,0.325049 v -0.159961 q -0.127148,0.18457 -0.345557,0.18457 -0.09639,0 -0.180468,-0.03691 -0.08306,-0.03691 -0.124073,-0.09228 -0.03999,-0.0564 -0.0564,-0.137403 -0.01128,-0.05434 -0.01128,-0.172265 v -0.674707 h 0.18457 v 0.603955 q 0,0.14458 0.01128,0.194824 0.01743,0.0728 0.07383,0.114844 0.0564,0.04102 0.139453,0.04102 0.08306,0 0.15586,-0.04204 0.0728,-0.04307 0.102539,-0.115869 0.03076,-0.07383 0.03076,-0.213281 v -0.583447 h 0.18457 v 1.088965 z m 0.380421,-0.325049 0.18252,-0.02871 q 0.01538,0.109717 0.08511,0.168164 0.07075,0.05845 0.196875,0.05845 0.127148,0 0.188672,-0.05127 0.06152,-0.05229 0.06152,-0.122022 0,-0.06255 -0.05435,-0.09844 -0.03794,-0.02461 -0.188672,-0.06255 -0.203028,-0.05127 -0.281983,-0.08818 -0.07793,-0.03794 -0.118945,-0.103564 -0.03999,-0.06665 -0.03999,-0.146631 0,-0.0728 0.03281,-0.134326 0.03384,-0.06255 0.09126,-0.103565 0.04307,-0.03179 0.116895,-0.05332 0.07485,-0.02256 0.159961,-0.02256 0.128173,0 0.22456,0.03692 0.09741,0.03691 0.143555,0.100488 0.04614,0.06255 0.06357,0.168164 l -0.180469,0.02461 q -0.0123,-0.08408 -0.07178,-0.13125 -0.05845,-0.04717 -0.166113,-0.04717 -0.127149,0 -0.181495,0.04204 -0.05435,0.04204 -0.05435,0.09844 0,0.03589 0.02256,0.0646 0.02256,0.02974 0.07075,0.04922 0.02769,0.01025 0.163037,0.04717 0.19585,0.0523 0.272754,0.08613 0.07793,0.03281 0.122022,0.09639 0.04409,0.06357 0.04409,0.15791 0,0.09228 -0.05435,0.174316 -0.05332,0.08101 -0.154834,0.126123 -0.101514,0.04409 -0.229688,0.04409 -0.212255,0 -0.324023,-0.08818 -0.110742,-0.08818 -0.141504,-0.261474 z m 1.680614,-0.411182 q 0,-0.107666 0.07588,-0.183545 0.0769,-0.07588 0.183545,-0.07588 0.107666,0 0.183545,0.07588 0.0769,0.07588 0.0769,0.183545 0,0.107666 -0.0769,0.184571 -0.07588,0.07588 -0.183545,0.07588 -0.106641,0 -0.183545,-0.07588 -0.07588,-0.0769 -0.07588,-0.184571 z m 2.055909,0.337354 0.181494,0.02358 q -0.02974,0.187646 -0.152783,0.294287 -0.122022,0.105615 -0.30044,0.105615 -0.223535,0 -0.359912,-0.145605 -0.135351,-0.146631 -0.135351,-0.419385 0,-0.176367 0.05845,-0.308643 0.05845,-0.132275 0.177392,-0.1979 0.119971,-0.06665 0.26045,-0.06665 0.177392,0 0.290185,0.09023 0.112793,0.08921 0.14458,0.254297 l -0.179443,0.02768 q -0.02564,-0.109717 -0.09126,-0.165088 -0.0646,-0.05537 -0.156885,-0.05537 -0.139453,0 -0.226611,0.100489 -0.08716,0.09946 -0.08716,0.31582 0,0.219433 0.08408,0.318896 0.08408,0.09946 0.219433,0.09946 0.108692,0 0.181495,-0.06665 0.0728,-0.06665 0.09228,-0.205078 z m 1.053075,0.398877 v -0.159961 q -0.127148,0.18457 -0.345557,0.18457 -0.09639,0 -0.180468,-0.03691 -0.08306,-0.03691 -0.124073,-0.09228 -0.03999,-0.0564 -0.0564,-0.137403 -0.01128,-0.05434 -0.01128,-0.172265 v -0.674707 h 0.18457 v 0.603955 q 0,0.14458 0.01128,0.194824 0.01743,0.0728 0.07383,0.114844 0.0564,0.04102 0.139454,0.04102 0.08306,0 0.155859,-0.04204 0.0728,-0.04307 0.102539,-0.115869 0.03076,-0.07383 0.03076,-0.213281 v -0.583447 h 0.18457 v 1.088965 z m 0.380421,-0.325049 0.18252,-0.02871 q 0.01538,0.109717 0.08511,0.168164 0.07075,0.05845 0.196875,0.05845 0.127149,0 0.188672,-0.05127 0.06152,-0.05229 0.06152,-0.122022 0,-0.06255 -0.05434,-0.09844 -0.03794,-0.02461 -0.188672,-0.06255 -0.203027,-0.05127 -0.281983,-0.08818 -0.07793,-0.03794 -0.118945,-0.103564 -0.03999,-0.06665 -0.03999,-0.146631 0,-0.0728 0.03281,-0.134326 0.03384,-0.06255 0.09126,-0.103565 0.04307,-0.03179 0.116895,-0.05332 0.07485,-0.02256 0.159961,-0.02256 0.128173,0 0.22456,0.03692 0.09741,0.03691 0.143555,0.100488 0.04614,0.06255 0.06357,0.168164 l -0.180469,0.02461 q -0.0123,-0.08408 -0.07178,-0.13125 -0.05845,-0.04717 -0.166113,-0.04717 -0.127149,0 -0.181494,0.04204 -0.05435,0.04204 -0.05435,0.09844 0,0.03589 0.02256,0.0646 0.02256,0.02974 0.07075,0.04922 0.02769,0.01025 0.163038,0.04717 0.195849,0.0523 0.272753,0.08613 0.07793,0.03281 0.122022,0.09639 0.04409,0.06357 0.04409,0.15791 0,0.09228 -0.05435,0.174316 -0.05332,0.08101 -0.154834,0.126123 -0.101514,0.04409 -0.229687,0.04409 -0.212256,0 -0.324024,-0.08818 -0.110742,-0.08818 -0.141504,-0.261474 z m 1.526808,0.159961 0.02666,0.163037 q -0.07793,0.01641 -0.139453,0.01641 -0.100488,0 -0.155859,-0.03179 -0.05537,-0.03179 -0.07793,-0.08306 -0.02256,-0.0523 -0.02256,-0.218408 v -0.626513 h -0.135351 v -0.143555 h 0.135351 v -0.269678 l 0.183545,-0.110742 v 0.38042 h 0.185596 v 0.143555 h -0.185596 v 0.636767 q 0,0.07896 0.0092,0.101514 0.01025,0.02256 0.03179,0.03589 0.02256,0.01333 0.06357,0.01333 0.03076,0 0.08101,-0.0072 z m 0.111767,-0.379395 q 0,-0.30249 0.168164,-0.448095 0.140478,-0.120997 0.34248,-0.120997 0.224561,0 0.36709,0.147657 0.142529,0.146631 0.142529,0.406054 0,0.210205 -0.06357,0.331202 -0.06255,0.11997 -0.183545,0.186621 -0.11997,0.06665 -0.2625,0.06665 -0.228662,0 -0.370166,-0.146631 -0.140478,-0.146631 -0.140478,-0.422461 z m 0.189697,0 q 0,0.20918 0.09126,0.31377 0.09126,0.103564 0.229687,0.103564 0.137403,0 0.228662,-0.10459 0.09126,-0.104589 0.09126,-0.318896 0,-0.202002 -0.09228,-0.305566 -0.09126,-0.10459 -0.227637,-0.10459 -0.138427,0 -0.229687,0.103564 -0.09126,0.103565 -0.09126,0.312744 z m 1.046923,0.544483 v -1.088965 h 0.165088 v 0.152783 q 0.05127,-0.07998 0.136377,-0.128174 0.08511,-0.04922 0.193799,-0.04922 0.120996,0 0.1979,0.05024 0.07793,0.05024 0.109717,0.140478 0.129199,-0.190723 0.336328,-0.190723 0.162012,0 0.24917,0.09023 0.08716,0.08921 0.08716,0.27583 v 0.74751 h -0.183545 v -0.685987 q 0,-0.110742 -0.01846,-0.158935 -0.01743,-0.04922 -0.0646,-0.07896 -0.04717,-0.02974 -0.110743,-0.02974 -0.114843,0 -0.190722,0.0769 -0.07588,0.07588 -0.07588,0.244043 v 0.632666 h -0.18457 v -0.70752 q 0,-0.123047 -0.04512,-0.18457 -0.04512,-0.06152 -0.147656,-0.06152 -0.07793,0 -0.14458,0.04102 -0.06562,0.04102 -0.09536,0.119971 -0.02974,0.07896 -0.02974,0.227636 v 0.564991 z"
     id="text11"
     class="tiny"
     style="font-size:2.1px;font-family:'DejaVu Sans', Arial, sans-serif;text-anchor:middle;fill:#9a9a9a"
     aria-label="maj • min • dim • aug • 7 • sus • custom" />
  <!-- ===== MID: Tuning & voicing ===== -->
  <path
     d="m 14.281561,46.542709 v -1.717968 h 0.342188 l 0.406641,1.216406 q 0.05625,0.169922 0.08203,0.254297 0.0293,-0.09375 0.09141,-0.275391 l 0.411328,-1.195312 h 0.30586 v 1.717968 h -0.219141 v -1.43789 l -0.499219,1.43789 h -0.205078 l -0.496875,-1.4625 v 1.4625 z m 2.294923,0 v -1.717968 h 0.227343 v 1.717968 z m 2.103906,-0.602343 0.227343,0.05742 q -0.07148,0.280079 -0.257812,0.427735 -0.185156,0.146484 -0.453516,0.146484 -0.277734,0 -0.452343,-0.1125 -0.173438,-0.113672 -0.264844,-0.328125 -0.09023,-0.214453 -0.09023,-0.460547 0,-0.268359 0.101953,-0.467578 0.103125,-0.20039 0.291797,-0.303515 0.189844,-0.104297 0.417188,-0.104297 0.257812,0 0.433594,0.13125 0.175781,0.13125 0.244922,0.36914 l -0.223829,0.05273 q -0.05976,-0.1875 -0.173437,-0.273047 -0.113672,-0.08555 -0.285938,-0.08555 -0.198046,0 -0.33164,0.09492 -0.132422,0.09492 -0.186328,0.255469 -0.05391,0.159375 -0.05391,0.329296 0,0.219141 0.06328,0.383204 0.06445,0.16289 0.199218,0.24375 0.134766,0.08086 0.291797,0.08086 0.191016,0 0.323438,-0.110156 0.132422,-0.110157 0.179297,-0.326953 z m 0.760937,0.602343 v -1.717968 h 0.761719 q 0.229688,0 0.349219,0.04687 0.119531,0.0457 0.191016,0.16289 0.07148,0.117188 0.07148,0.258985 0,0.182812 -0.118359,0.308203 -0.11836,0.12539 -0.365625,0.159375 0.09023,0.04336 0.137109,0.08555 0.09961,0.09141 0.188672,0.228515 l 0.298828,0.467578 h -0.285938 l -0.227343,-0.357422 q -0.09961,-0.154687 -0.164063,-0.236718 -0.06445,-0.08203 -0.116015,-0.114844 -0.05039,-0.03281 -0.103125,-0.0457 -0.03867,-0.0082 -0.126563,-0.0082 h -0.263672 v 0.76289 z m 0.227344,-0.959765 h 0.488672 q 0.155859,0 0.24375,-0.03164 0.08789,-0.03281 0.133594,-0.103125 0.0457,-0.07148 0.0457,-0.154687 0,-0.121875 -0.08906,-0.200391 -0.08789,-0.07852 -0.278906,-0.07852 h -0.54375 z m 1.683203,0.123047 q 0,-0.427735 0.229688,-0.669141 0.229687,-0.242578 0.592968,-0.242578 0.237891,0 0.428907,0.113672 0.191015,0.113672 0.290625,0.317578 0.100781,0.202734 0.100781,0.460547 0,0.261328 -0.105469,0.467578 -0.105469,0.20625 -0.298828,0.31289 -0.193359,0.105469 -0.417188,0.105469 -0.242578,0 -0.433593,-0.117187 -0.191016,-0.117188 -0.289453,-0.319922 -0.09844,-0.202735 -0.09844,-0.428906 z m 0.234375,0.0035 q 0,0.310547 0.166406,0.489844 0.167578,0.178125 0.419532,0.178125 0.25664,0 0.421875,-0.180469 0.166406,-0.180469 0.166406,-0.512109 0,-0.209766 -0.07148,-0.365625 -0.07031,-0.157031 -0.207422,-0.242578 -0.135938,-0.08672 -0.30586,-0.08672 -0.241406,0 -0.416015,0.166406 -0.173438,0.165235 -0.173438,0.553125 z m 2.388672,0.833203 v -1.515234 h -0.566016 v -0.202734 h 1.361719 v 0.202734 h -0.568359 v 1.515234 z m 1.166406,-0.836718 q 0,-0.427735 0.229688,-0.669141 0.229687,-0.242578 0.592968,-0.242578 0.237891,0 0.428907,0.113672 0.191015,0.113672 0.290625,0.317578 0.100781,0.202734 0.100781,0.460547 0,0.261328 -0.105469,0.467578 -0.105469,0.20625 -0.298828,0.31289 -0.193359,0.105469 -0.417187,0.105469 -0.242579,0 -0.433594,-0.117187 -0.191016,-0.117188 -0.289453,-0.319922 -0.09844,-0.202735 -0.09844,-0.428906 z m 0.234375,0.0035 q 0,0.310547 0.166406,0.489844 0.167579,0.178125 0.419532,0.178125 0.25664,0 0.421875,-0.180469 0.166406,-0.180469 0.166406,-0.512109 0,-0.209766 -0.07148,-0.365625 -0.07031,-0.157031 -0.207422,-0.242578 -0.135938,-0.08672 -0.30586,-0.08672 -0.241406,0 -0.416015,0.166406 -0.173438,0.165235 -0.173438,0.553125 z m 1.949219,0.833203 v -1.717968 h 0.233204 l 0.902343,1.348828 v -1.348828 h 0.217969 v 1.717968 h -0.233203 l -0.902344,-1.35 v 1.35 z m 1.796875,0 0.659766,-1.717968 h 0.244922 l 0.703125,1.717968 h -0.258985 l -0.20039,-0.520312 h -0.71836 l -0.188671,0.520312 z m 0.495703,-0.705468 h 0.582422 l -0.179297,-0.475782 q -0.08203,-0.216797 -0.121875,-0.35625 -0.03281,0.165235 -0.09258,0.328125 z m 1.534377,0.705468 v -1.717968 h 0.227343 v 1.515234 h 0.846094 v 0.202734 z m 2.236717,0.0293 0.498047,-1.776562 h 0.16875 l -0.496875,1.776562 z m 2.509767,-0.0293 -0.665625,-1.717968 h 0.246094 l 0.446484,1.248046 q 0.05391,0.15 0.09023,0.28125 0.03984,-0.140625 0.09258,-0.28125 l 0.464062,-1.248046 h 0.232031 l -0.672656,1.717968 z m 1.290624,-0.836718 q 0,-0.427735 0.229688,-0.669141 0.229687,-0.242578 0.592968,-0.242578 0.237891,0 0.428907,0.113672 0.191015,0.113672 0.290625,0.317578 0.100781,0.202734 0.100781,0.460547 0,0.261328 -0.105469,0.467578 -0.105469,0.20625 -0.298828,0.31289 -0.193359,0.105469 -0.417187,0.105469 -0.242579,0 -0.433594,-0.117187 -0.191016,-0.117188 -0.289453,-0.319922 -0.09844,-0.202735 -0.09844,-0.428906 z m 0.234375,0.0035 q 0,0.310547 0.166406,0.489844 0.167579,0.178125 0.419532,0.178125 0.25664,0 0.421875,-0.180469 0.166406,-0.180469 0.166406,-0.512109 0,-0.209766 -0.07148,-0.365625 -0.07031,-0.157031 -0.207422,-0.242578 -0.135938,-0.08672 -0.30586,-0.08672 -0.241406,0 -0.416015,0.166406 -0.173438,0.165235 -0.173438,0.553125 z m 1.990234,0.833203 v -1.717968 h 0.227344 v 1.717968 z m 2.103907,-0.602343 0.227344,0.05742 q -0.07148,0.280079 -0.257813,0.427735 -0.185156,0.146484 -0.453515,0.146484 -0.277735,0 -0.452344,-0.1125 -0.173437,-0.113672 -0.264844,-0.328125 -0.09023,-0.214453 -0.09023,-0.460547 0,-0.268359 0.101953,-0.467578 0.103125,-0.20039 0.291797,-0.303515 0.189844,-0.104297 0.417187,-0.104297 0.257813,0 0.433594,0.13125 0.175781,0.13125 0.244922,0.36914 l -0.223828,0.05273 q -0.05977,-0.1875 -0.173438,-0.273047 -0.113671,-0.08555 -0.285937,-0.08555 -0.198047,0 -0.331641,0.09492 -0.132422,0.09492 -0.186328,0.255469 -0.05391,0.159375 -0.05391,0.329296 0,0.219141 0.06328,0.383204 0.06445,0.16289 0.199219,0.24375 0.134766,0.08086 0.291797,0.08086 0.191015,0 0.323437,-0.110156 0.132422,-0.110157 0.179297,-0.326953 z m 0.796095,0.602343 v -1.717968 h 0.227343 v 1.717968 z m 0.87578,0 v -1.717968 h 0.233203 l 0.902344,1.348828 v -1.348828 h 0.217968 v 1.717968 h -0.233203 l -0.902343,-1.35 v 1.35 z m 2.789454,-0.673828 v -0.201562 l 0.727734,-0.0012 v 0.6375 q -0.167578,0.133594 -0.345703,0.201562 -0.178125,0.0668 -0.365625,0.0668 -0.253125,0 -0.460547,-0.107812 -0.20625,-0.108985 -0.311719,-0.314063 -0.105468,-0.205078 -0.105468,-0.458203 0,-0.250781 0.104296,-0.467578 0.105469,-0.217969 0.302344,-0.323438 0.196875,-0.105468 0.453516,-0.105468 0.186328,0 0.336328,0.06094 0.151172,0.05977 0.236719,0.167578 0.08555,0.107813 0.130078,0.28125 l -0.205078,0.05625 q -0.03867,-0.13125 -0.09609,-0.20625 -0.05742,-0.075 -0.164063,-0.119531 -0.10664,-0.0457 -0.236718,-0.0457 -0.15586,0 -0.269532,0.04805 -0.113671,0.04687 -0.183984,0.124219 -0.06914,0.07734 -0.107812,0.169921 -0.06563,0.159375 -0.06563,0.345704 0,0.229687 0.07852,0.384375 0.07969,0.154687 0.23086,0.229687 0.151171,0.075 0.321093,0.075 0.147657,0 0.288282,-0.05625 0.140625,-0.05742 0.213281,-0.121875 v -0.319922 z"
     id="text12"
     class="sublabel"
     style="font-size:2.4px;font-family:'DejaVu Sans', Arial, sans-serif;letter-spacing:0.25px;text-anchor:middle;fill:#bdbdbd"
     aria-label="MICROTONAL / VOICING" />
  <!-- 4 medium knobs -->
  <!-- left column -->
  <circle
     id="param_TUNE"
     cx="18.5"
     cy="53.760422"
     r="5.1999998"
     class="knob-ring" />
  <path
     d="m 15.690067,62.386551 v -1.32583 h -0.495264 v -0.177393 h 1.191504 v 0.177393 h -0.497315 v 1.32583 z m 1.886718,-1.503223 h 0.198926 v 0.868506 q 0,0.226611 -0.05127,0.359912 -0.05127,0.133301 -0.185596,0.217383 -0.133301,0.08306 -0.350684,0.08306 -0.21123,0 -0.345556,-0.0728 -0.134327,-0.0728 -0.191748,-0.210205 -0.05742,-0.138428 -0.05742,-0.377344 v -0.868506 h 0.198925 v 0.867481 q 0,0.195849 0.03589,0.28916 0.03691,0.09229 0.125098,0.142529 0.08921,0.05024 0.217383,0.05024 0.219433,0 0.312744,-0.09946 0.09331,-0.09946 0.09331,-0.38247 z m 0.528077,1.503223 v -1.503223 h 0.204052 l 0.789551,1.180225 v -1.180225 h 0.190723 v 1.503223 h -0.204053 l -0.789551,-1.18125 v 1.18125 z m 1.522704,0 v -1.503223 h 1.086914 v 0.177393 h -0.887988 v 0.4604 h 0.831592 v 0.176367 h -0.831592 v 0.51167 h 0.922852 v 0.177393 z"
     id="text13"
     class="tiny"
     style="font-size:2.1px;font-family:'DejaVu Sans', Arial, sans-serif;text-anchor:middle;fill:#9a9a9a"
     aria-label="TUNE" />
  <circle
     id="param_VOICES"
     cx="18.169239"
     cy="68.902634"
     r="5.1999998"
     class="knob-ring" />
  <path
     d="M 15.123902,77.825714 14.54148,76.322492 h 0.215332 l 0.390674,1.09204 q 0.04717,0.13125 0.07895,0.246094 0.03486,-0.123047 0.08101,-0.246094 l 0.406055,-1.09204 h 0.203027 l -0.588574,1.503222 z m 0.910546,-0.732129 q 0,-0.374267 0.200977,-0.585498 0.200976,-0.212256 0.518848,-0.212256 0.208154,0 0.375292,0.09946 0.167139,0.09946 0.254297,0.277881 0.08818,0.177393 0.08818,0.402979 0,0.228662 -0.09229,0.40913 -0.09228,0.180469 -0.261475,0.27378 -0.169189,0.09229 -0.365039,0.09229 -0.212256,0 -0.379394,-0.102539 -0.167139,-0.102539 -0.253272,-0.279932 -0.08613,-0.177392 -0.08613,-0.375293 z m 0.205078,0.0031 q 0,0.271729 0.145606,0.428614 0.146631,0.155859 0.36709,0.155859 0.22456,0 0.36914,-0.15791 0.145606,-0.15791 0.145606,-0.448096 0,-0.183545 -0.06255,-0.319922 -0.06152,-0.137402 -0.181494,-0.212256 -0.118945,-0.07588 -0.267627,-0.07588 -0.211231,0 -0.364014,0.145605 -0.151758,0.14458 -0.151758,0.483984 z m 1.522705,0.729053 v -1.503222 h 0.198926 v 1.503222 z m 1.622168,-0.527051 0.198926,0.05024 q -0.06255,0.245069 -0.225586,0.374268 -0.162011,0.128174 -0.396826,0.128174 -0.243017,0 -0.395801,-0.09844 -0.151757,-0.09946 -0.231738,-0.287109 -0.07896,-0.187646 -0.07896,-0.402978 0,-0.234815 0.08921,-0.409131 0.09023,-0.175342 0.255322,-0.265576 0.166114,-0.09126 0.365039,-0.09126 0.225586,0 0.379395,0.114844 0.153808,0.114843 0.214306,0.322998 l -0.195849,0.04614 q -0.05229,-0.164062 -0.151758,-0.238916 -0.09946,-0.07485 -0.250195,-0.07485 -0.173291,0 -0.290186,0.08306 -0.115869,0.08306 -0.163037,0.223535 -0.04717,0.139453 -0.04717,0.288135 0,0.191748 0.05537,0.335303 0.0564,0.142529 0.174317,0.213281 0.11792,0.07075 0.255322,0.07075 0.167139,0 0.283008,-0.09639 0.115869,-0.09639 0.156884,-0.286084 z m 0.448096,0.527051 v -1.503222 h 1.086914 v 0.177392 h -0.887988 v 0.4604 h 0.831591 v 0.176368 h -0.831591 v 0.51167 h 0.922851 v 0.177392 z m 1.328906,-0.482959 0.187646,-0.01641 q 0.01333,0.112793 0.06152,0.185596 0.04922,0.07178 0.151758,0.116894 0.102539,0.04409 0.230713,0.04409 0.113818,0 0.200976,-0.03384 0.08716,-0.03384 0.129199,-0.09229 0.04307,-0.05947 0.04307,-0.129199 0,-0.07075 -0.04102,-0.123047 -0.04102,-0.05332 -0.135351,-0.08921 -0.0605,-0.02358 -0.267627,-0.0728 -0.207129,-0.05024 -0.290186,-0.09434 -0.107666,-0.0564 -0.160986,-0.139453 -0.0523,-0.08408 -0.0523,-0.187646 0,-0.113819 0.0646,-0.212256 0.0646,-0.09946 0.188672,-0.150733 0.124073,-0.05127 0.27583,-0.05127 0.167139,0 0.294287,0.05434 0.128174,0.05332 0.196875,0.157911 0.0687,0.104589 0.07383,0.236865 l -0.190723,0.01436 q -0.01538,-0.142529 -0.10459,-0.215332 -0.08818,-0.0728 -0.261474,-0.0728 -0.180469,0 -0.263526,0.06665 -0.08203,0.06562 -0.08203,0.158935 0,0.08101 0.05845,0.133301 0.05742,0.0523 0.299414,0.107666 0.243018,0.05435 0.333252,0.09536 0.13125,0.0605 0.193799,0.153808 0.06255,0.09229 0.06255,0.213281 0,0.119971 -0.0687,0.226612 -0.0687,0.105615 -0.197901,0.165088 -0.128174,0.05845 -0.28916,0.05845 -0.204053,0 -0.34248,-0.05947 -0.137403,-0.05947 -0.216358,-0.178418 -0.07793,-0.11997 -0.08203,-0.270703 z"
     id="text14"
     class="tiny"
     style="font-size:2.1px;font-family:'DejaVu Sans', Arial, sans-serif;text-anchor:middle;fill:#9a9a9a"
     aria-label="VOICES" />
  <!-- right column -->
  <circle
     id="param_SPREAD"
     cx="42.334621"
     cy="54.42194"
     r="5.1999998"
     class="knob-ring" />
  <path
     d="m 38.111038,61.929227 0.187646,-0.01641 q 0.01333,0.112793 0.06152,0.185596 0.04922,0.07178 0.151757,0.116895 0.102539,0.04409 0.230713,0.04409 0.113819,0 0.200977,-0.03384 0.08716,-0.03384 0.129199,-0.09229 0.04307,-0.05947 0.04307,-0.129199 0,-0.07075 -0.04102,-0.123047 -0.04102,-0.05332 -0.135352,-0.08921 -0.0605,-0.02358 -0.267627,-0.0728 -0.207129,-0.05025 -0.290185,-0.09434 -0.107666,-0.0564 -0.160987,-0.139453 -0.05229,-0.08408 -0.05229,-0.187647 0,-0.113818 0.0646,-0.212256 0.0646,-0.09946 0.188672,-0.150732 0.124072,-0.05127 0.27583,-0.05127 0.167139,0 0.294287,0.05435 0.128174,0.05332 0.196875,0.15791 0.0687,0.10459 0.07383,0.236865 l -0.190722,0.01436 q -0.01538,-0.142529 -0.10459,-0.215332 -0.08818,-0.0728 -0.261475,-0.0728 -0.180469,0 -0.263525,0.06665 -0.08203,0.06562 -0.08203,0.158936 0,0.08101 0.05845,0.133301 0.05742,0.0523 0.299414,0.107666 0.243017,0.05435 0.333252,0.09536 0.13125,0.0605 0.193799,0.153809 0.06255,0.09228 0.06255,0.213281 0,0.119971 -0.0687,0.226611 -0.0687,0.105616 -0.1979,0.165088 -0.128174,0.05845 -0.28916,0.05845 -0.204053,0 -0.342481,-0.05947 -0.137402,-0.05947 -0.216357,-0.178418 -0.07793,-0.119971 -0.08203,-0.270703 z m 1.468359,0.482959 v -1.503223 h 0.567041 q 0.149707,0 0.228662,0.01436 0.110742,0.01846 0.185596,0.07075 0.07485,0.05127 0.11997,0.144581 0.04614,0.09331 0.04614,0.205078 0,0.191748 -0.122021,0.325048 -0.122022,0.132276 -0.440918,0.132276 h -0.385547 v 0.611133 z m 0.198926,-0.788526 h 0.388623 q 0.192773,0 0.273779,-0.07178 0.08101,-0.07178 0.08101,-0.202002 0,-0.09434 -0.04819,-0.160986 -0.04717,-0.06768 -0.125098,-0.08921 -0.05024,-0.01333 -0.185596,-0.01333 h -0.384521 z m 1.204834,0.788526 v -1.503223 h 0.666504 q 0.200976,0 0.305566,0.04102 0.10459,0.03999 0.167139,0.142529 0.06255,0.102539 0.06255,0.226611 0,0.159961 -0.103564,0.269678 -0.103565,0.109717 -0.319922,0.139453 0.07896,0.03794 0.119971,0.07485 0.08716,0.07998 0.165088,0.199951 l 0.261474,0.409131 H 42.057766 L 41.85884,62.099442 q -0.08716,-0.135352 -0.143554,-0.207129 -0.0564,-0.07178 -0.101514,-0.100489 -0.04409,-0.02871 -0.09023,-0.03999 -0.03384,-0.0072 -0.110742,-0.0072 h -0.230713 v 0.66753 z m 0.198925,-0.839795 h 0.427588 q 0.136377,0 0.213282,-0.02769 0.0769,-0.02871 0.116894,-0.09023 0.03999,-0.06255 0.03999,-0.135352 0,-0.10664 -0.07793,-0.175341 -0.07691,-0.0687 -0.244043,-0.0687 h -0.475782 z m 1.318653,0.839795 v -1.503223 h 1.086914 v 0.177393 H 42.69966 v 0.4604 h 0.831592 v 0.176367 H 42.69966 v 0.51167 h 0.922852 v 0.177393 z m 1.231494,0 0.577295,-1.503223 h 0.214306 l 0.615235,1.503223 h -0.226612 l -0.175342,-0.455274 h -0.628564 l -0.165088,0.455274 z m 0.43374,-0.617285 h 0.509619 l -0.156885,-0.416309 q -0.07178,-0.189697 -0.10664,-0.311719 -0.02871,0.14458 -0.08101,0.28711 z M 45.298,62.412186 v -1.503223 h 0.517822 q 0.175342,0 0.267627,0.02153 0.129199,0.02974 0.220459,0.107666 0.118945,0.100489 0.177393,0.257373 0.05947,0.15586 0.05947,0.356836 0,0.17124 -0.03999,0.303516 -0.03999,0.132275 -0.102539,0.219433 -0.06255,0.08613 -0.137402,0.136377 -0.07383,0.04922 -0.179444,0.07485 -0.104589,0.02564 -0.240966,0.02564 z m 0.198926,-0.177393 h 0.320947 q 0.148682,0 0.232764,-0.02769 0.08511,-0.02769 0.135351,-0.07793 0.07075,-0.07075 0.109717,-0.189697 0.03999,-0.119971 0.03999,-0.290186 0,-0.23584 -0.07793,-0.361963 -0.0769,-0.127148 -0.187647,-0.170215 -0.07998,-0.03076 -0.257373,-0.03076 h -0.31582 z"
     id="text15"
     class="tiny"
     style="font-size:2.1px;font-family:'DejaVu Sans', Arial, sans-serif;text-anchor:middle;fill:#9a9a9a"
     aria-label="SPREAD" />
  <circle
     id="param_DETUNE"
     cx="42.334999"
     cy="68.902328"
     r="5.1999998"
     class="knob-ring" />
  <path
     d="m 38.345117,77.495827 v -1.503223 h 0.517823 q 0.175341,0 0.267627,0.02153 0.129199,0.02974 0.220459,0.107666 0.118945,0.100489 0.177392,0.257373 0.05947,0.15586 0.05947,0.356836 0,0.171241 -0.03999,0.303516 -0.03999,0.132275 -0.10254,0.219433 -0.06255,0.08613 -0.137402,0.136377 -0.07383,0.04922 -0.179443,0.07485 -0.10459,0.02564 -0.240967,0.02564 z m 0.198926,-0.177393 h 0.320947 q 0.148682,0 0.232764,-0.02768 0.08511,-0.02769 0.135352,-0.07793 0.07075,-0.07075 0.109716,-0.189697 0.03999,-0.119971 0.03999,-0.290186 0,-0.23584 -0.07793,-0.361963 -0.0769,-0.127148 -0.187647,-0.170215 -0.07998,-0.03076 -0.257373,-0.03076 h -0.31582 z m 1.321729,0.177393 v -1.503223 h 1.086914 v 0.177393 h -0.887989 v 0.4604 h 0.831592 v 0.176367 h -0.831592 v 0.51167 h 0.922852 v 0.177393 z m 1.779052,0 v -1.32583 h -0.495263 v -0.177393 h 1.191504 v 0.177393 H 41.84375 v 1.32583 z m 1.886719,-1.503223 h 0.198926 v 0.868506 q 0,0.226611 -0.05127,0.359912 -0.05127,0.133301 -0.185596,0.217383 -0.1333,0.08306 -0.350683,0.08306 -0.211231,0 -0.345557,-0.0728 -0.134326,-0.0728 -0.191748,-0.210205 -0.05742,-0.138428 -0.05742,-0.377344 v -0.868506 h 0.198926 v 0.867481 q 0,0.195849 0.03589,0.28916 0.03691,0.09229 0.125097,0.142529 0.08921,0.05024 0.217383,0.05024 0.219434,0 0.312744,-0.09946 0.09331,-0.09946 0.09331,-0.38247 z m 0.528076,1.503223 v -1.503223 h 0.204053 l 0.789551,1.180225 v -1.180225 h 0.190722 v 1.503223 h -0.204052 l -0.789551,-1.18125 v 1.18125 z m 1.522705,0 v -1.503223 h 1.086914 v 0.177393 H 45.78125 v 0.4604 h 0.831592 v 0.176367 H 45.78125 v 0.51167 h 0.922851 v 0.177393 z"
     id="text16"
     class="tiny"
     style="font-size:2.1px;font-family:'DejaVu Sans', Arial, sans-serif;text-anchor:middle;fill:#9a9a9a"
     aria-label="DETUNE" />
  <!-- ===== MID-LOW: Motion / Filter / FX ===== -->
  <path
     d="m 15.905194,83.324997 v -1.717969 h 0.342188 l 0.406641,1.216406 q 0.05625,0.169922 0.08203,0.254297 0.0293,-0.09375 0.09141,-0.27539 l 0.411328,-1.195313 h 0.30586 v 1.717969 h -0.219141 v -1.437891 l -0.499219,1.437891 H 16.62121 l -0.496875,-1.4625 v 1.4625 z m 2.18711,-0.836719 q 0,-0.427734 0.229687,-0.66914 0.229688,-0.242579 0.592969,-0.242579 0.237891,0 0.428906,0.113672 0.191016,0.113672 0.290625,0.317578 0.100782,0.202735 0.100782,0.460547 0,0.261328 -0.105469,0.467578 -0.105469,0.20625 -0.298828,0.312891 -0.19336,0.105469 -0.417188,0.105469 -0.242578,0 -0.433593,-0.117188 -0.191016,-0.117187 -0.289454,-0.319922 -0.09844,-0.202734 -0.09844,-0.428906 z m 0.234375,0.0035 q 0,0.310547 0.166406,0.489844 0.167578,0.178125 0.419531,0.178125 0.256641,0 0.421875,-0.180469 0.166407,-0.180469 0.166407,-0.51211 0,-0.209765 -0.07148,-0.365625 -0.07031,-0.157031 -0.207422,-0.242578 -0.135937,-0.08672 -0.305859,-0.08672 -0.241406,0 -0.416016,0.166406 -0.173437,0.165234 -0.173437,0.553125 z m 2.388672,0.833203 v -1.515234 h -0.566016 v -0.202735 h 1.361719 v 0.202735 h -0.568359 v 1.515234 z m 1.317578,0 v -1.717969 h 0.227344 v 1.717969 z m 0.808984,-0.836719 q 0,-0.427734 0.229688,-0.66914 0.229687,-0.242579 0.592969,-0.242579 0.23789,0 0.428906,0.113672 0.191016,0.113672 0.290625,0.317578 0.100781,0.202735 0.100781,0.460547 0,0.261328 -0.105469,0.467578 -0.105468,0.20625 -0.298828,0.312891 -0.193359,0.105469 -0.417187,0.105469 -0.242578,0 -0.433594,-0.117188 -0.191016,-0.117187 -0.289453,-0.319922 -0.09844,-0.202734 -0.09844,-0.428906 z m 0.234375,0.0035 q 0,0.310547 0.166407,0.489844 0.167578,0.178125 0.419531,0.178125 0.256641,0 0.421875,-0.180469 0.166406,-0.180469 0.166406,-0.51211 0,-0.209765 -0.07148,-0.365625 -0.07031,-0.157031 -0.207422,-0.242578 -0.135938,-0.08672 -0.305859,-0.08672 -0.241407,0 -0.416016,0.166406 -0.173438,0.165234 -0.173438,0.553125 z m 1.949219,0.833203 v -1.717969 h 0.233203 l 0.902344,1.348828 v -1.348828 h 0.217969 v 1.717969 H 26.14582 l -0.902344,-1.35 v 1.35 z m 2.717187,0.0293 0.498047,-1.776563 h 0.16875 l -0.496875,1.776563 z m 2.03047,-0.0293 v -1.717969 h 1.158984 v 0.202735 h -0.931641 v 0.532031 h 0.80625 v 0.202734 h -0.80625 v 0.780469 z m 1.742969,0 v -1.717969 h 0.227343 v 1.717969 z m 0.86875,0 v -1.717969 h 0.227344 v 1.515235 h 0.846094 v 0.202734 z m 1.853124,0 v -1.515234 h -0.566016 v -0.202735 h 1.361719 v 0.202735 h -0.568359 v 1.515234 z m 1.283595,0 v -1.717969 h 1.242187 v 0.202735 h -1.014843 v 0.526171 h 0.95039 v 0.201563 h -0.95039 v 0.584766 h 1.054687 v 0.202734 z m 1.849608,0 v -1.717969 h 0.761719 q 0.229688,0 0.349219,0.04687 0.119531,0.0457 0.191016,0.162891 0.07148,0.117187 0.07148,0.258984 0,0.182813 -0.118359,0.308203 -0.11836,0.125391 -0.365625,0.159375 0.09023,0.04336 0.137109,0.08555 0.09961,0.09141 0.188672,0.228516 l 0.298828,0.467578 h -0.285938 l -0.227343,-0.357422 q -0.09961,-0.154687 -0.164063,-0.236719 -0.06445,-0.08203 -0.116015,-0.114843 -0.05039,-0.03281 -0.103125,-0.0457 -0.03867,-0.0082 -0.126563,-0.0082 h -0.263672 v 0.762891 z m 0.227344,-0.959766 h 0.488672 q 0.155859,0 0.24375,-0.03164 0.08789,-0.03281 0.133594,-0.103125 0.0457,-0.07149 0.0457,-0.154688 0,-0.121875 -0.08906,-0.20039 -0.08789,-0.07852 -0.278906,-0.07852 h -0.54375 z m 2.483984,0.989063 0.498047,-1.776563 h 0.16875 l -0.496875,1.776563 z m 2.03047,-0.0293 v -1.717969 h 1.158985 v 0.202735 h -0.931641 v 0.532031 h 0.80625 v 0.202734 h -0.80625 v 0.780469 z m 1.529687,0 0.664453,-0.895313 -0.585937,-0.822656 h 0.270703 l 0.311719,0.440625 q 0.09727,0.13711 0.138281,0.210938 0.05742,-0.09375 0.135937,-0.195703 l 0.345704,-0.45586 h 0.247265 l -0.603515,0.809766 0.65039,0.908203 h -0.28125 l -0.432422,-0.612891 q -0.03633,-0.05273 -0.075,-0.114843 -0.05742,0.09375 -0.08203,0.128906 l -0.43125,0.598828 z"
     id="text17"
     class="sublabel"
     style="font-size:2.4px;font-family:'DejaVu Sans', Arial, sans-serif;letter-spacing:0.25px;text-anchor:middle;fill:#bdbdbd"
     aria-label="MOTION / FILTER / FX" />
  <circle
     id="param_MOTION"
     cx="18.5"
     cy="89.708328"
     r="5.1999998"
     class="knob-ring" />
  <path
     d="m 14.456372,97.937508 v -1.503223 h 0.299414 l 0.355811,1.064355 q 0.04922,0.148682 0.07178,0.22251 0.02563,-0.08203 0.07998,-0.240967 l 0.359912,-1.045898 h 0.267627 v 1.503223 h -0.191748 v -1.258155 l -0.436817,1.258155 H 15.082886 L 14.64812,96.65782 v 1.279688 z m 1.694971,-0.732129 q 0,-0.374268 0.200976,-0.585498 0.200977,-0.212256 0.518848,-0.212256 0.208154,0 0.375293,0.09946 0.167139,0.09946 0.254297,0.277881 0.08818,0.177392 0.08818,0.402978 0,0.228662 -0.09229,0.409131 -0.09229,0.180469 -0.261474,0.273779 -0.16919,0.09229 -0.365039,0.09229 -0.212256,0 -0.379395,-0.102539 -0.167138,-0.102539 -0.253271,-0.279931 -0.08613,-0.177393 -0.08613,-0.375293 z m 0.205078,0.0031 q 0,0.271728 0.145605,0.428613 0.146631,0.15586 0.36709,0.15586 0.224561,0 0.369141,-0.157911 0.145605,-0.15791 0.145605,-0.448095 0,-0.183545 -0.06255,-0.319922 -0.06152,-0.137402 -0.181495,-0.212256 -0.118945,-0.07588 -0.267627,-0.07588 -0.21123,0 -0.364013,0.145606 -0.151758,0.14458 -0.151758,0.483984 z m 1.871338,0.729053 v -1.32583 h -0.495264 v -0.177393 h 1.191504 v 0.177393 h -0.497315 v 1.32583 z m 0.934131,0 v -1.503223 h 0.198926 v 1.503223 z m 0.489111,-0.732129 q 0,-0.374268 0.200976,-0.585498 0.200977,-0.212256 0.518848,-0.212256 0.208154,0 0.375293,0.09946 0.167139,0.09946 0.254297,0.277881 0.08818,0.177392 0.08818,0.402978 0,0.228662 -0.09229,0.409131 -0.09229,0.180469 -0.261474,0.273779 -0.16919,0.09229 -0.365039,0.09229 -0.212256,0 -0.379395,-0.102539 -0.167139,-0.102539 -0.253271,-0.279931 -0.08613,-0.177393 -0.08613,-0.375293 z m 0.205078,0.0031 q 0,0.271728 0.145605,0.428613 0.146631,0.15586 0.36709,0.15586 0.224561,0 0.369141,-0.157911 0.145605,-0.15791 0.145605,-0.448095 0,-0.183545 -0.06255,-0.319922 -0.06152,-0.137402 -0.181495,-0.212256 -0.118945,-0.07588 -0.267627,-0.07588 -0.21123,0 -0.364013,0.145606 -0.151758,0.14458 -0.151758,0.483984 z m 1.486816,0.729053 v -1.503223 h 0.204053 l 0.789551,1.180225 v -1.180225 h 0.190722 v 1.503223 h -0.204052 l -0.789551,-1.18125 v 1.18125 z"
     id="text18"
     class="tiny"
     style="font-size:2.1px;font-family:'DejaVu Sans', Arial, sans-serif;text-anchor:middle;fill:#9a9a9a"
     aria-label="MOTION" />
  <circle
     id="param_CUTOFF"
     cx="30.48"
     cy="89.708328"
     r="5.1999998"
     class="knob-ring" />
  <path
     d="m 27.476118,97.410457 0.198926,0.05024 q -0.06255,0.245068 -0.225586,0.374268 -0.162012,0.128173 -0.396826,0.128173 -0.243018,0 -0.395801,-0.09844 -0.151758,-0.09946 -0.231739,-0.287109 -0.07896,-0.187647 -0.07896,-0.402979 0,-0.234814 0.08921,-0.409131 0.09023,-0.175342 0.255323,-0.265576 0.166113,-0.09126 0.365039,-0.09126 0.225586,0 0.379394,0.114844 0.153809,0.114844 0.214307,0.322998 l -0.19585,0.04614 q -0.05229,-0.164063 -0.151758,-0.238916 -0.09946,-0.07485 -0.250195,-0.07485 -0.173291,0 -0.290185,0.08306 -0.11587,0.08306 -0.163037,0.223535 -0.04717,0.139453 -0.04717,0.288135 0,0.191748 0.05537,0.335302 0.0564,0.14253 0.174316,0.213282 0.11792,0.07075 0.255322,0.07075 0.167139,0 0.283008,-0.09639 0.115869,-0.09639 0.156885,-0.286084 z m 1.43042,-0.976172 h 0.198925 v 0.868506 q 0,0.226611 -0.05127,0.359912 -0.05127,0.133301 -0.185596,0.217383 -0.133301,0.08306 -0.350683,0.08306 -0.211231,0 -0.345557,-0.0728 -0.134326,-0.0728 -0.191748,-0.210205 -0.05742,-0.138428 -0.05742,-0.377344 v -0.868506 h 0.198926 v 0.86748 q 0,0.19585 0.03589,0.289161 0.03691,0.09229 0.125097,0.142529 0.08921,0.05024 0.217383,0.05024 0.219434,0 0.312744,-0.09946 0.09331,-0.09946 0.09331,-0.382471 z m 0.912597,1.503223 v -1.32583 h -0.495263 v -0.177393 h 1.191504 v 0.177393 h -0.497315 v 1.32583 z m 0.801856,-0.732129 q 0,-0.374268 0.200976,-0.585498 0.200977,-0.212256 0.518848,-0.212256 0.208154,0 0.375293,0.09946 0.167138,0.09946 0.254297,0.277881 0.08818,0.177392 0.08818,0.402978 0,0.228662 -0.09229,0.409131 -0.09229,0.180469 -0.261475,0.273779 -0.169189,0.09229 -0.365039,0.09229 -0.212255,0 -0.379394,-0.102539 -0.167139,-0.102539 -0.253272,-0.279931 -0.08613,-0.177393 -0.08613,-0.375293 z m 0.205078,0.0031 q 0,0.271728 0.145605,0.428613 0.146631,0.15586 0.36709,0.15586 0.224561,0 0.369141,-0.157911 0.145605,-0.15791 0.145605,-0.448095 0,-0.183545 -0.06255,-0.319922 -0.06152,-0.137402 -0.181494,-0.212256 -0.118945,-0.07588 -0.267627,-0.07588 -0.21123,0 -0.364014,0.145606 -0.151757,0.14458 -0.151757,0.483984 z m 1.499121,0.729053 v -1.503223 h 1.014111 v 0.177393 h -0.815185 v 0.465527 h 0.705469 v 0.177393 h -0.705469 v 0.68291 z m 1.282764,0 v -1.503223 h 1.014111 v 0.177393 h -0.815186 v 0.465527 h 0.705469 v 0.177393 h -0.705469 v 0.68291 z"
     id="text19"
     class="tiny"
     style="font-size:2.1px;font-family:'DejaVu Sans', Arial, sans-serif;text-anchor:middle;fill:#9a9a9a"
     aria-label="CUTOFF" />
  <circle
     id="param_FXMIX"
     cx="42.5"
     cy="89.708328"
     r="5.1999998"
     class="knob-ring" />
  <path
     d="m 39.172095,97.40834 v -1.503222 h 1.014111 v 0.177392 h -0.815185 v 0.465528 h 0.705468 v 0.177392 h -0.705468 v 0.68291 z m 1.119726,0 0.581397,-0.783398 -0.512695,-0.719824 h 0.236865 l 0.272754,0.385547 q 0.08511,0.11997 0.120996,0.18457 0.05024,-0.08203 0.118945,-0.17124 l 0.30249,-0.398877 h 0.216358 l -0.528076,0.708545 0.569091,0.794677 h -0.246093 l -0.37837,-0.536279 q -0.03179,-0.04614 -0.06562,-0.100488 -0.05024,0.08203 -0.07178,0.112793 l -0.377344,0.523974 z m 2.130762,0 v -1.503222 h 0.299414 l 0.355811,1.064355 q 0.04922,0.148682 0.07178,0.22251 0.02564,-0.08203 0.07998,-0.240967 l 0.359912,-1.045898 h 0.267627 V 97.40834 H 43.665356 V 96.150186 L 43.22854,97.40834 h -0.179443 l -0.434766,-1.279687 v 1.279687 z m 1.789306,0 v -1.503222 h 0.198926 v 1.503222 z m 0.396827,0 0.581396,-0.783398 -0.512695,-0.719824 h 0.236865 l 0.272754,0.385547 q 0.08511,0.11997 0.120996,0.18457 0.05024,-0.08203 0.118945,-0.17124 l 0.302491,-0.398877 h 0.216357 l -0.528076,0.708545 0.569092,0.794677 h -0.246094 l -0.378369,-0.536279 q -0.03179,-0.04614 -0.06562,-0.100488 -0.05024,0.08203 -0.07178,0.112793 l -0.377344,0.523974 z"
     id="text20"
     class="tiny"
     style="font-size:2.1px;font-family:'DejaVu Sans', Arial, sans-serif;text-anchor:middle;fill:#9a9a9a"
     aria-label="FX MIX" />
  <!-- ===== BOTTOM: I/O ports ===== -->
  <text
     x="30.810759"
     y="102.17704"
     text-anchor="middle"
     class="sublabel"
     id="text21">I/O</text>
  <!-- Ports (jack outer rings) -->
  <!-- Left: Pitch/Gate/CV -->
  <circle
     id="input_PITCH"
     cx="15.470834"
     cy="106.925"
     r="3.7"
     class="port-ring" />
  <path
     d="m 13.012012,113.30003 v -1.50322 h 0.567041 q 0.149707,0 0.228662,0.0144 0.110742,0.0185 0.185596,0.0707 0.07485,0.0513 0.11997,0.14458 0.04614,0.0933 0.04614,0.20508 0,0.19174 -0.122022,0.32505 -0.122021,0.13227 -0.440918,0.13227 h -0.385546 v 0.61113 z m 0.198926,-0.78852 h 0.388623 q 0.192773,0 0.273779,-0.0718 0.08101,-0.0718 0.08101,-0.202 0,-0.0943 -0.04819,-0.16099 -0.04717,-0.0677 -0.125097,-0.0892 -0.05024,-0.0133 -0.185596,-0.0133 h -0.384521 z m 1.235595,0.78852 v -1.50322 h 0.198926 v 1.50322 z m 0.93208,0 V 111.9742 H 14.88335 v -0.17739 h 1.191503 v 0.17739 h -0.497314 v 1.32583 z m 1.972852,-0.52705 0.198926,0.0502 q -0.06255,0.24507 -0.225586,0.37426 -0.162012,0.12818 -0.396827,0.12818 -0.243017,0 -0.3958,-0.0984 -0.151758,-0.0995 -0.231739,-0.28711 -0.07896,-0.18764 -0.07896,-0.40298 0,-0.23481 0.08921,-0.40913 0.09023,-0.17534 0.255323,-0.26557 0.166113,-0.0913 0.365039,-0.0913 0.225586,0 0.379394,0.11484 0.153809,0.11484 0.214307,0.323 l -0.19585,0.0461 q -0.0523,-0.16406 -0.151758,-0.23892 -0.09946,-0.0748 -0.250195,-0.0748 -0.173291,0 -0.290185,0.0831 -0.11587,0.0831 -0.163038,0.22353 -0.04717,0.13946 -0.04717,0.28814 0,0.19175 0.05537,0.3353 0.0564,0.14253 0.174316,0.21328 0.11792,0.0708 0.255322,0.0708 0.167139,0 0.283008,-0.0964 0.115869,-0.0964 0.156885,-0.28609 z m 0.450146,0.52705 v -1.50322 h 0.198926 v 0.61729 h 0.781348 v -0.61729 h 0.198926 v 1.50322 h -0.198926 v -0.70854 h -0.781348 v 0.70854 z"
     id="text22"
     class="tiny"
     style="font-size:2.1px;font-family:'DejaVu Sans', Arial, sans-serif;text-anchor:middle;fill:#9a9a9a"
     aria-label="PITCH" />
  <circle
     id="input_GATE"
     cx="28"
     cy="106.925"
     r="3.7"
     class="port-ring" />
  <path
     d="m 26.08457,112.71046 v -0.17637 l 0.636768,-0.001 v 0.55782 q -0.146631,0.11689 -0.30249,0.17636 -0.15586,0.0584 -0.319922,0.0584 -0.221484,0 -0.402979,-0.0943 -0.180468,-0.0954 -0.272754,-0.27481 -0.09229,-0.17944 -0.09229,-0.40093 0,-0.21943 0.09126,-0.40913 0.09229,-0.19072 0.264551,-0.28301 0.172265,-0.0923 0.396826,-0.0923 0.163037,0 0.294287,0.0533 0.132275,0.0523 0.207129,0.14663 0.07485,0.0943 0.113818,0.24609 l -0.179443,0.0492 q -0.03384,-0.11484 -0.08408,-0.18047 -0.05024,-0.0656 -0.143555,-0.10459 -0.09331,-0.04 -0.207129,-0.04 -0.136377,0 -0.235839,0.042 -0.09946,0.041 -0.160987,0.1087 -0.0605,0.0677 -0.09434,0.14868 -0.05742,0.13945 -0.05742,0.30249 0,0.20097 0.0687,0.33633 0.06973,0.13535 0.202002,0.20097 0.132275,0.0656 0.280957,0.0656 0.129199,0 0.252246,-0.0492 0.123047,-0.0503 0.186621,-0.10664 v -0.27993 z m 0.764942,0.5896 0.577295,-1.50323 h 0.214306 l 0.615235,1.50323 h -0.226612 l -0.175341,-0.45528 H 27.22583 l -0.165088,0.45528 z m 0.43374,-0.61729 h 0.509619 l -0.156885,-0.41631 q -0.07178,-0.18969 -0.10664,-0.31172 -0.02871,0.14458 -0.08101,0.28711 z m 1.358642,0.61729 v -1.32583 h -0.495263 v -0.1774 h 1.191504 v 0.1774 H 28.84082 v 1.32583 z m 0.904395,0 v -1.50323 h 1.086914 v 0.1774 h -0.887988 v 0.4604 h 0.831592 v 0.17636 h -0.831592 v 0.51167 h 0.922851 v 0.1774 z"
     id="text23"
     class="tiny"
     style="font-size:2.1px;font-family:'DejaVu Sans', Arial, sans-serif;text-anchor:middle;fill:#9a9a9a"
     aria-label="GATE" />
  <circle
     id="input_CHORD_CV"
     cx="27.999001"
     cy="118.70192"
     r="3.7"
     class="port-ring" />
  <path
     d="m 24.99671,124.51497 0.198926,0.0502 q -0.06255,0.24506 -0.225586,0.37426 -0.162012,0.12818 -0.396826,0.12818 -0.243018,0 -0.395801,-0.0984 -0.151758,-0.0995 -0.231738,-0.28711 -0.07896,-0.18765 -0.07896,-0.40298 0,-0.23481 0.08921,-0.40913 0.09023,-0.17534 0.255322,-0.26557 0.166113,-0.0913 0.365039,-0.0913 0.225586,0 0.379395,0.11484 0.153808,0.11484 0.214306,0.323 l -0.195849,0.0461 q -0.0523,-0.16406 -0.151758,-0.23892 -0.09946,-0.0748 -0.250195,-0.0748 -0.173291,0 -0.290186,0.0831 -0.115869,0.0831 -0.163037,0.22353 -0.04717,0.13946 -0.04717,0.28814 0,0.19174 0.05537,0.3353 0.0564,0.14253 0.174317,0.21328 0.117919,0.0708 0.255322,0.0708 0.167138,0 0.283008,-0.0964 0.115869,-0.0964 0.156884,-0.28609 z m 0.450147,0.52705 v -1.50322 h 0.198926 v 0.61729 h 0.781347 v -0.61729 h 0.198926 v 1.50322 H 26.42713 v -0.70854 h -0.781347 v 0.70854 z m 1.449902,-0.73213 q 0,-0.37426 0.200977,-0.58549 0.200976,-0.21226 0.518847,-0.21226 0.208155,0 0.375293,0.0995 0.167139,0.0995 0.254297,0.27788 0.08818,0.1774 0.08818,0.40298 0,0.22866 -0.09229,0.40913 -0.09229,0.18047 -0.261475,0.27378 -0.169189,0.0923 -0.365039,0.0923 -0.212256,0 -0.379395,-0.10254 -0.167138,-0.10254 -0.253271,-0.27993 -0.08613,-0.1774 -0.08613,-0.3753 z m 0.205078,0.003 q 0,0.27173 0.145606,0.42861 0.146631,0.15586 0.36709,0.15586 0.22456,0 0.36914,-0.15791 0.145606,-0.15791 0.145606,-0.44809 0,-0.18355 -0.06255,-0.31993 -0.06152,-0.1374 -0.181494,-0.21225 -0.118946,-0.0759 -0.267627,-0.0759 -0.211231,0 -0.364014,0.14561 -0.151758,0.14458 -0.151758,0.48398 z m 1.491943,0.72905 v -1.50322 h 0.666504 q 0.200977,0 0.305567,0.041 0.10459,0.04 0.167138,0.14253 0.06255,0.10253 0.06255,0.22661 0,0.15996 -0.103564,0.26967 -0.103565,0.10972 -0.319922,0.13946 0.07896,0.0379 0.119971,0.0748 0.08716,0.08 0.165088,0.19995 l 0.261474,0.40913 H 29.66839 l -0.198926,-0.31274 q -0.08716,-0.13535 -0.143555,-0.20713 -0.0564,-0.0718 -0.101513,-0.10049 -0.04409,-0.0287 -0.09023,-0.04 -0.03384,-0.007 -0.110742,-0.007 h -0.230713 v 0.66753 z m 0.198926,-0.83979 h 0.427588 q 0.136377,0 0.213281,-0.0277 0.07691,-0.0287 0.116895,-0.0902 0.03999,-0.0626 0.03999,-0.13535 0,-0.10664 -0.07793,-0.17535 -0.0769,-0.0687 -0.244043,-0.0687 h -0.475781 z m 1.314551,0.83979 v -1.50322 h 0.517822 q 0.175342,0 0.267627,0.0215 0.1292,0.0297 0.220459,0.10767 0.118946,0.10049 0.177393,0.25737 0.05947,0.15586 0.05947,0.35684 0,0.17124 -0.03999,0.30351 -0.03999,0.13228 -0.102539,0.21944 -0.06255,0.0861 -0.137402,0.13637 -0.07383,0.0492 -0.179443,0.0749 -0.10459,0.0256 -0.240967,0.0256 z m 0.198926,-0.17739 h 0.320947 q 0.148682,0 0.232764,-0.0277 0.08511,-0.0277 0.135351,-0.0779 0.07075,-0.0708 0.109717,-0.18969 0.03999,-0.11997 0.03999,-0.29019 0,-0.23584 -0.07793,-0.36196 -0.0769,-0.12715 -0.187647,-0.17022 -0.07998,-0.0308 -0.257373,-0.0308 h -0.31582 z"
     id="text23b"
     class="tiny"
     style="font-size:2.1px;font-family:'DejaVu Sans', Arial, sans-serif;text-anchor:middle;fill:#9a9a9a"
     aria-label="CHORD" />
  <circle
     id="input_CV"
     cx="15.658311"
     cy="118.79999"
     r="3.7"
     class="port-ring" />
  <path
     d="m 15.963429,124.41461 0.198926,0.0502 q -0.06255,0.24507 -0.225586,0.37427 -0.162012,0.12817 -0.396826,0.12817 -0.243018,0 -0.395801,-0.0984 -0.151758,-0.0995 -0.231738,-0.28711 -0.07896,-0.18765 -0.07896,-0.40298 0,-0.23482 0.08921,-0.40913 0.09023,-0.17535 0.255322,-0.26558 0.166113,-0.0913 0.365039,-0.0913 0.225586,0 0.379395,0.11484 0.153808,0.11485 0.214306,0.323 l -0.195849,0.0461 q -0.05229,-0.16407 -0.151758,-0.23892 -0.09946,-0.0748 -0.250195,-0.0748 -0.173291,0 -0.290186,0.0831 -0.115869,0.0831 -0.163037,0.22354 -0.04717,0.13945 -0.04717,0.28813 0,0.19175 0.05537,0.3353 0.0564,0.14253 0.174316,0.21329 0.11792,0.0707 0.255323,0.0707 0.167138,0 0.283008,-0.0964 0.115869,-0.0964 0.156884,-0.28608 z m 0.873633,0.52705 -0.582422,-1.50322 h 0.215332 l 0.390674,1.09204 q 0.04717,0.13125 0.07896,0.24609 0.03486,-0.12305 0.08101,-0.24609 l 0.406055,-1.09204 h 0.203027 l -0.588574,1.50322 z"
     id="text24"
     class="tiny"
     style="font-size:2.1px;font-family:'DejaVu Sans', Arial, sans-serif;text-anchor:middle;fill:#9a9a9a"
     aria-label="CV" />
  <!-- Right: Outputs -->
  <circle
     id="output_L"
     cx="47.766663"
     cy="104.53336"
     r="3.7"
     class="port-ring" />
  <path
     d="m 44.795081,110.47206 q 0,-0.37426 0.200976,-0.58549 0.200977,-0.21226 0.518848,-0.21226 0.208154,0 0.375293,0.0995 0.167139,0.0995 0.254297,0.27788 0.08818,0.1774 0.08818,0.40298 0,0.22866 -0.09228,0.40913 -0.09229,0.18047 -0.261474,0.27378 -0.16919,0.0923 -0.36504,0.0923 -0.212255,0 -0.379394,-0.10254 -0.167139,-0.10254 -0.253271,-0.27993 -0.08613,-0.1774 -0.08613,-0.3753 z m 0.205078,0.003 q 0,0.27173 0.145605,0.42861 0.146631,0.15586 0.36709,0.15586 0.224561,0 0.369141,-0.15791 0.145605,-0.15791 0.145605,-0.44809 0,-0.18355 -0.06255,-0.31992 -0.06152,-0.13741 -0.181494,-0.21226 -0.118945,-0.0759 -0.267627,-0.0759 -0.21123,0 -0.364013,0.14561 -0.151758,0.14458 -0.151758,0.48398 z m 2.475293,-0.77417 h 0.198925 v 0.86851 q 0,0.22661 -0.05127,0.35991 -0.05127,0.1333 -0.185596,0.21738 -0.133301,0.0831 -0.350683,0.0831 -0.211231,0 -0.345557,-0.0728 -0.134326,-0.0728 -0.191748,-0.21021 -0.05742,-0.13843 -0.05742,-0.37734 v -0.86851 h 0.198926 v 0.86748 q 0,0.19585 0.03589,0.28916 0.03691,0.0923 0.125097,0.14253 0.08921,0.0502 0.217383,0.0502 0.219434,0 0.312744,-0.0995 0.09331,-0.0995 0.09331,-0.38247 z m 0.912597,1.50322 v -1.32583 h -0.495263 v -0.17739 h 1.191503 v 0.17739 h -0.497314 v 1.32583 z m 1.437598,0 v -1.50322 h 0.198926 v 1.32583 h 0.740332 v 0.17739 z"
     id="text25"
     class="tiny"
     style="font-size:2.1px;font-family:'DejaVu Sans', Arial, sans-serif;text-anchor:middle;fill:#9a9a9a"
     aria-label="OUT L" />
  <circle
     id="output_R"
     cx="47.766663"
     cy="116.12086"
     r="3.7"
     class="port-ring" />
  <path
     d="m 45.149931,122.5054 q 0,-0.37426 0.200977,-0.58549 0.200977,-0.21226 0.518848,-0.21226 0.208154,0 0.375293,0.0995 0.167138,0.0995 0.254296,0.27788 0.08818,0.1774 0.08818,0.40298 0,0.22867 -0.09229,0.40913 -0.09228,0.18047 -0.261475,0.27378 -0.169189,0.0923 -0.365039,0.0923 -0.212256,0 -0.379394,-0.10254 -0.167139,-0.10254 -0.253272,-0.27993 -0.08613,-0.17739 -0.08613,-0.3753 z m 0.205079,0.003 q 0,0.27173 0.145605,0.42861 0.146631,0.15586 0.36709,0.15586 0.22456,0 0.36914,-0.15791 0.145606,-0.15791 0.145606,-0.44809 0,-0.18355 -0.06255,-0.31992 -0.06152,-0.13741 -0.181494,-0.21226 -0.118945,-0.0759 -0.267627,-0.0759 -0.21123,0 -0.364014,0.14561 -0.151757,0.14458 -0.151757,0.48398 z m 2.475292,-0.77417 h 0.198926 v 0.86851 q 0,0.22661 -0.05127,0.35991 -0.05127,0.1333 -0.185596,0.21738 -0.133301,0.0831 -0.350684,0.0831 -0.21123,0 -0.345556,-0.0728 -0.134326,-0.0728 -0.191748,-0.21021 -0.05742,-0.13843 -0.05742,-0.37734 v -0.86851 h 0.198926 v 0.86748 q 0,0.19585 0.03589,0.28916 0.03691,0.0923 0.125098,0.14253 0.08921,0.0502 0.217383,0.0502 0.219433,0 0.312744,-0.0995 0.09331,-0.0995 0.09331,-0.38247 z m 0.912598,1.50322 v -1.32583 h -0.495264 v -0.17739 h 1.191504 v 0.17739 h -0.497314 v 1.32583 z m 1.448877,0 v -1.50322 h 0.666504 q 0.200977,0 0.305566,0.041 0.10459,0.04 0.167139,0.14253 0.06255,0.10253 0.06255,0.22661 0,0.15996 -0.103565,0.26967 -0.103564,0.10972 -0.319921,0.13946 0.07895,0.0379 0.11997,0.0748 0.08716,0.08 0.165088,0.19995 l 0.261475,0.40913 h -0.250195 l -0.198926,-0.31274 q -0.08716,-0.13535 -0.143555,-0.20713 -0.0564,-0.0718 -0.101514,-0.10049 -0.04409,-0.0287 -0.09023,-0.04 -0.03384,-0.007 -0.110742,-0.007 h -0.230713 v 0.66753 z m 0.198926,-0.83979 h 0.427588 q 0.136377,0 0.213281,-0.0277 0.0769,-0.0287 0.116895,-0.0902 0.03999,-0.0626 0.03999,-0.13535 0,-0.10664 -0.07793,-0.17534 -0.0769,-0.0687 -0.244043,-0.0687 h -0.475781 z"
     id="text26"
     class="tiny"
     style="font-size:2.1px;font-family:'DejaVu Sans', Arial, sans-serif;text-anchor:middle;fill:#9a9a9a"
     aria-label="OUT R" />
  <!-- Optional light position -->
  <circle
     id="light_STATUS"
     cx="9.2"
     cy="19.5"
     r="1.2"
     class="cut"
     opacity="0.7" />
  <path
     d="m 12.153809,20.6 v -1.503222 h 0.198925 v 1.32583 h 0.740332 V 20.6 Z m 1.20996,0 v -1.503222 h 0.198926 V 20.6 Z m 0.979248,0 -0.582421,-1.503222 h 0.215332 l 0.390673,1.092041 q 0.04717,0.13125 0.07896,0.246093 0.03486,-0.123046 0.081,-0.246093 l 0.406055,-1.092041 h 0.203027 L 14.54707,20.6 Z m 0.975147,0 v -1.503222 h 1.086914 V 19.27417 H 15.51709 v 0.460401 h 0.831591 v 0.176367 H 15.51709 v 0.51167 h 0.922851 V 20.6 Z"
     id="text27"
     class="tiny"
     style="font-size:2.1px;font-family:'DejaVu Sans', Arial, sans-serif;fill:#9a9a9a"
     aria-label="LIVE" />
  <!-- Optional guides (safe to delete) -->
</svg>
