<?xml version="1.0" encoding="UTF-8" standalone="no"?>
<svg
   width="60.96mm"
   height="128.5mm"
   viewBox="0 0 60.96 128.5"
   version="1.1"
   id="svg1"
   sodipodi:docname="ChordPluckSynth.svg"
   inkscape:version="1.4.3 (0d15f75, 2025-12-25)"
   xmlns:inkscape="http://www.inkscape.org/namespaces/inkscape"
   xmlns:sodipodi="http://sodipodi.sourceforge.net/DTD/sodipodi-0.dtd"
   xmlns="http://www.w3.org/2000/svg"
   xmlns:svg="http://www.w3.org/2000/svg">
  <sodipodi:namedview
     id="namedview25"
     pagecolor="#ffffff"
     bordercolor="#000000"
     borderopacity="0.25"
     inkscape:showpageshadow="2"
     inkscape:pageopacity="0.0"
     inkscape:pagecheckerboard="0"
     inkscape:deskcolor="#d1d1d1"
     inkscape:document-units="mm"
     inkscape:zoom="1.5998541"
     inkscape:cx="115.01049"
     inkscape:cy="242.20959"
     inkscape:window-width="1920"
     inkscape:window-height="991"
     inkscape:window-x="-9"
     inkscape:window-y="-9"
     inkscape:window-maximized="1"
     inkscape:current-layer="svg1" />
  <defs
     id="defs2">
    <linearGradient
       id="bgGrad"
       x1="0"
       y1="0"
       x2="0"
       y2="1">
      <stop
         offset="0%"
         stop-color="#1a237e"
         id="stop1" />
      <stop
         offset="100%"
         stop-color="#1a237e"
         id="stop2" />
    </linearGradient>
  </defs>
  <!-- Panel background -->
  <path
     id="rect2"
     style="fill:#1a237e"
     d="M 0,0 H 60.959999 V 128.5 H 0 Z" />
  <!-- Title -->
  <g
     id="text2"
     style="font-weight:bold;font-size:4px;font-family:Arial, sans-serif;text-anchor:middle;fill:#ffffff"
     aria-label="CHORD PLUCK SYNTH">
    <path
       d="M 10.491718,10.947266 11.052265,11.125 q -0.128906,0.46875 -0.429687,0.697266 -0.298828,0.226562 -0.759766,0.226562 -0.5703125,0 -0.9375,-0.388672 -0.3671875,-0.390625 -0.3671875,-1.066406 0,-0.7148437 0.3691407,-1.109375 0.3691406,-0.3964844 0.9707031,-0.3964844 0.5253907,0 0.8535157,0.3105469 0.195312,0.1835938 0.292969,0.5273438 L 10.472187,10.0625 Q 10.421406,9.8398438 10.259296,9.7109375 10.09914,9.5820313 9.8686714,9.5820313 q -0.3183594,0 -0.5175781,0.2285156 -0.1972656,0.2285161 -0.1972656,0.7402341 0,0.542969 0.1953125,0.773438 0.1953125,0.230469 0.5078125,0.230469 0.2304683,0 0.3964843,-0.146485 0.166016,-0.146484 0.238281,-0.460937 z M 11.550312,12 V 9.1367188 h 0.578125 V 10.263672 H 13.26125 V 9.1367188 h 0.578125 V 12 H 13.26125 V 10.748047 H 12.128437 V 12 Z m 2.769531,-1.414062 q 0,-0.4375 0.13086,-0.7343755 0.09766,-0.21875 0.265625,-0.3925781 0.169922,-0.1738281 0.371093,-0.2578125 0.267579,-0.1132813 0.617188,-0.1132813 0.632812,0 1.011719,0.3925782 0.380859,0.3925781 0.380859,1.0917972 0,0.693359 -0.376953,1.085937 -0.376953,0.390625 -1.007813,0.390625 -0.638671,0 -1.015625,-0.388672 -0.376953,-0.390625 -0.376953,-1.074218 z m 0.595703,-0.01953 q 0,0.486328 0.22461,0.738282 0.224609,0.25 0.570312,0.25 0.345703,0 0.566407,-0.248047 0.222656,-0.25 0.222656,-0.748047 0,-0.492188 -0.216797,-0.7343752 -0.214844,-0.2421875 -0.572266,-0.2421875 -0.357422,0 -0.576172,0.2460937 -0.21875,0.244141 -0.21875,0.738281 z M 17.550312,12 V 9.1367188 h 1.216797 q 0.458984,0 0.666016,0.078125 0.208984,0.076172 0.333984,0.2734375 0.125,0.1972656 0.125,0.4511718 0,0.3222659 -0.189453,0.5332029 -0.189453,0.208985 -0.566406,0.263672 0.1875,0.109375 0.308593,0.240235 0.123047,0.130859 0.330078,0.464843 L 20.124531,12 h -0.691406 l -0.417969,-0.623047 q -0.222656,-0.333984 -0.304688,-0.419922 -0.08203,-0.08789 -0.173828,-0.11914 -0.0918,-0.0332 -0.291015,-0.0332 H 18.128437 V 12 Z m 0.578125,-1.652344 h 0.427734 q 0.416016,0 0.519532,-0.03516 0.103515,-0.03516 0.162109,-0.121094 0.05859,-0.08594 0.05859,-0.2148435 0,-0.1445312 -0.07813,-0.2324219 -0.07617,-0.089844 -0.216797,-0.1132812 -0.07031,-0.00977 -0.421875,-0.00977 h -0.451172 z m 2.306641,-1.2109372 h 1.05664 q 0.357422,0 0.544922,0.054687 0.251953,0.074219 0.431641,0.2636718 0.179687,0.1894532 0.273437,0.4648438 0.09375,0.2734371 0.09375,0.6757811 0,0.353516 -0.08789,0.609375 -0.107422,0.3125 -0.306641,0.50586 -0.150391,0.146484 -0.40625,0.228515 Q 21.843281,12 21.522968,12 h -1.08789 z m 0.578125,0.484375 v 1.8964842 h 0.43164 q 0.242188,0 0.34961,-0.02734 0.140625,-0.03516 0.232422,-0.11914 0.09375,-0.08399 0.152343,-0.275391 0.05859,-0.193359 0.05859,-0.52539 0,-0.332032 -0.05859,-0.509766 -0.05859,-0.1777345 -0.164062,-0.2773439 -0.105469,-0.099609 -0.267578,-0.1347656 -0.121094,-0.027344 -0.47461,-0.027344 z"
       id="path2" />
    <path
       style="fill:#df1d1d"
       d="M 24.437031,12 V 9.1367188 h 0.927734 q 0.527344,0 0.6875,0.042969 0.246094,0.064453 0.41211,0.28125 0.166015,0.2148438 0.166015,0.5566405 0,0.263672 -0.0957,0.44336 -0.0957,0.179687 -0.244141,0.283203 -0.146484,0.101562 -0.298828,0.134765 -0.207031,0.04102 -0.599609,0.04102 H 25.015156 V 12 Z m 0.578125,-2.3789062 v 0.8125002 h 0.316406 q 0.341797,0 0.457031,-0.04492 0.115235,-0.04492 0.179688,-0.140625 0.06641,-0.0957 0.06641,-0.222656 0,-0.1562504 -0.0918,-0.2578129 -0.0918,-0.1015625 -0.232422,-0.1269531 -0.103515,-0.019531 -0.416015,-0.019531 z M 27.120625,12 V 9.1601563 h 0.578125 v 2.3574217 h 1.4375 V 12 Z m 2.423828,-2.8632812 h 0.578125 V 10.6875 q 0,0.369141 0.02148,0.478516 0.03711,0.175781 0.175781,0.283203 0.140625,0.105469 0.382813,0.105469 0.246094,0 0.371094,-0.09961 0.125,-0.101562 0.15039,-0.248047 0.02539,-0.146484 0.02539,-0.486328 V 9.1367188 h 0.578125 v 1.5039062 q 0,0.515625 -0.04687,0.728516 -0.04687,0.21289 -0.173828,0.359375 -0.125,0.146484 -0.335938,0.234375 -0.210937,0.08594 -0.550781,0.08594 -0.410156,0 -0.623047,-0.09375 -0.210937,-0.0957 -0.333984,-0.246094 -0.123047,-0.152343 -0.16211,-0.318359 -0.05664,-0.246094 -0.05664,-0.726562 z m 4.724609,1.8105472 0.560547,0.177734 q -0.128906,0.46875 -0.429688,0.697266 -0.298828,0.226562 -0.759765,0.226562 -0.570313,0 -0.9375,-0.388672 -0.367188,-0.390625 -0.367188,-1.066406 0,-0.7148437 0.369141,-1.109375 0.369141,-0.3964844 0.970703,-0.3964844 0.525391,0 0.853516,0.3105469 0.195312,0.1835938 0.292968,0.5273438 L 34.249531,10.0625 Q 34.19875,9.8398438 34.03664,9.7109375 33.876484,9.5820313 33.646015,9.5820313 q -0.318359,0 -0.517578,0.2285156 -0.197266,0.2285161 -0.197266,0.7402341 0,0.542969 0.195313,0.773438 0.195312,0.230469 0.507812,0.230469 0.230469,0 0.396485,-0.146485 0.166015,-0.146484 0.238281,-0.460937 z M 35.333515,12 V 9.1367188 h 0.578125 v 1.2714842 l 1.167969,-1.2714842 h 0.777344 L 36.778828,10.251953 37.915546,12 H 37.1675 l -0.78711,-1.34375 -0.46875,0.478516 V 12 Z"
       id="path3" />
    <path
       d="m 39.179218,11.068359 0.5625,-0.05469 q 0.05078,0.283203 0.205078,0.416016 0.15625,0.132812 0.419922,0.132812 0.279297,0 0.419922,-0.117187 0.142578,-0.119141 0.142578,-0.277344 0,-0.101563 -0.06055,-0.171875 -0.05859,-0.07227 -0.207031,-0.125 -0.101562,-0.03516 -0.46289,-0.125 -0.464844,-0.115235 -0.652344,-0.283203 -0.263672,-0.236328 -0.263672,-0.5761722 0,-0.21875 0.123047,-0.4082032 0.125,-0.1914062 0.357422,-0.2910156 0.234375,-0.099609 0.564453,-0.099609 0.539062,0 0.810547,0.2363282 0.273437,0.2363281 0.287109,0.6308593 l -0.578125,0.025391 q -0.03711,-0.2207032 -0.160156,-0.3164063 -0.121094,-0.097656 -0.365235,-0.097656 -0.251953,0 -0.394531,0.1035156 -0.0918,0.066406 -0.0918,0.1777344 0,0.1015625 0.08594,0.1738277 0.109375,0.0918 0.53125,0.191407 0.421875,0.09961 0.623047,0.207031 0.203125,0.105469 0.316406,0.291016 0.115234,0.183593 0.115234,0.455078 0,0.246093 -0.136718,0.460937 -0.136719,0.214844 -0.386719,0.320313 -0.25,0.103515 -0.623047,0.103515 -0.542969,0 -0.833984,-0.25 -0.291016,-0.251953 -0.347657,-0.732422 z M 42.745625,12 V 10.794922 L 41.696796,9.1367188 h 0.677735 l 0.673828,1.1328122 0.660156,-1.1328122 h 0.666016 L 43.321796,10.798828 V 12 Z M 44.6675,12 V 9.1367188 H 45.23 l 1.171875,1.9121092 V 9.1367188 h 0.537109 V 12 H 46.358906 L 45.204609,10.132813 V 12 Z m 3.527343,0 V 9.6210938 h -0.849609 v -0.484375 h 2.275391 v 0.484375 H 48.772968 V 12 Z m 1.800782,0 V 9.1367188 h 0.578125 v 1.1269532 h 1.132812 V 9.1367188 h 0.578125 V 12 H 51.706562 V 10.748047 H 50.57375 V 12 Z"
       id="path4" />
  </g>
  <!-- Top row labels: Inputs on left, Pad and Octave on right -->
  <path
     d="m 6.3074219,18.048242 0.1705078,0.04307 q -0.053613,0.210058 -0.1933594,0.3208 -0.1388672,0.109864 -0.3401367,0.109864 -0.2083008,0 -0.3392578,-0.08437 -0.1300781,-0.08525 -0.1986328,-0.246094 -0.067676,-0.16084 -0.067676,-0.34541 0,-0.20127 0.076465,-0.350684 0.077344,-0.150293 0.2188476,-0.227637 0.1423828,-0.07822 0.3128906,-0.07822 0.1933594,0 0.3251953,0.09844 0.131836,0.09844 0.1836914,0.276856 l -0.167871,0.03955 q -0.044824,-0.140625 -0.1300782,-0.204786 -0.085254,-0.06416 -0.2144531,-0.06416 -0.1485351,0 -0.2487304,0.07119 -0.099316,0.07119 -0.1397461,0.191601 -0.04043,0.119531 -0.04043,0.246973 0,0.164355 0.047461,0.287402 0.04834,0.122168 0.1494141,0.182813 0.1010742,0.06064 0.2188476,0.06064 0.1432617,0 0.2425781,-0.08262 0.099316,-0.08262 0.1344727,-0.245215 z M 6.6809571,18.5 v -1.288477 h 0.1705078 v 1.136426 H 7.4860352 V 18.5 Z m 1.0010741,0 v -1.288477 h 0.1705079 v 0.638965 L 8.4923828,17.211523 H 8.7235351 L 8.1830078,17.733594 8.7472656,18.5 h -0.225 L 8.0634765,17.847852 7.8525391,18.053516 V 18.5 Z"
     id="text3"
     style="font-size:1.8px;font-family:Arial, sans-serif;text-anchor:middle;fill:#9a9a9a"
     aria-label="CLK" />
  <path
     d="m 14.341504,18.5 v -1.288477 h 0.571289 q 0.172266,0 0.261914,0.03516 0.08965,0.03428 0.143262,0.122168 0.05361,0.08789 0.05361,0.194238 0,0.137109 -0.08877,0.231152 -0.08877,0.09404 -0.274219,0.119532 0.06768,0.03252 0.102832,0.06416 0.07471,0.06855 0.141504,0.171386 L 15.477051,18.5 H 15.262598 L 15.09209,18.231934 q -0.07471,-0.116016 -0.123047,-0.177539 -0.04834,-0.06152 -0.08701,-0.08613 -0.03779,-0.02461 -0.07734,-0.03428 -0.029,-0.0062 -0.09492,-0.0062 H 14.512012 V 18.5 Z m 0.170508,-0.719824 h 0.366504 q 0.116894,0 0.182812,-0.02373 0.06592,-0.02461 0.100195,-0.07734 0.03428,-0.05361 0.03428,-0.116016 0,-0.09141 -0.0668,-0.150293 -0.06592,-0.05889 -0.20918,-0.05889 h -0.407812 z m 1.06875,0.305859 0.16084,-0.01406 q 0.01142,0.09668 0.05273,0.159082 0.04219,0.06152 0.130078,0.100195 0.08789,0.03779 0.197754,0.03779 0.09756,0 0.172266,-0.029 0.07471,-0.029 0.110742,-0.0791 0.03691,-0.05098 0.03691,-0.110743 0,-0.06064 -0.03516,-0.105468 -0.03516,-0.0457 -0.116016,-0.07647 -0.05185,-0.02022 -0.229395,-0.0624 -0.177539,-0.04307 -0.24873,-0.08086 -0.09228,-0.04834 -0.137988,-0.119531 -0.04482,-0.07207 -0.04482,-0.16084 0,-0.09756 0.05537,-0.181934 0.05537,-0.08525 0.161718,-0.129199 0.106348,-0.04394 0.236426,-0.04394 0.143262,0 0.252246,0.04658 0.109863,0.0457 0.16875,0.135351 0.05889,0.08965 0.06328,0.203028 l -0.163476,0.0123 q -0.01318,-0.122168 -0.08965,-0.18457 -0.07558,-0.0624 -0.224121,-0.0624 -0.154687,0 -0.225879,0.05713 -0.07031,0.05625 -0.07031,0.13623 0,0.06943 0.0501,0.114258 0.04922,0.04482 0.25664,0.09229 0.208301,0.04658 0.285645,0.08174 0.1125,0.05186 0.166113,0.131836 0.05361,0.0791 0.05361,0.182813 0,0.102832 -0.05889,0.194238 -0.05889,0.09053 -0.169629,0.141504 -0.109864,0.0501 -0.247852,0.0501 -0.174902,0 -0.293555,-0.05098 -0.117773,-0.05098 -0.185449,-0.15293 -0.0668,-0.102832 -0.07031,-0.232031 z M 17.167188,18.5 v -1.136426 h -0.424512 v -0.152051 h 1.021289 v 0.152051 h -0.42627 V 18.5 Z"
     id="text_reset"
     style="font-size:1.8px;font-family:Arial, sans-serif;text-anchor:middle;fill:#9a9a9a"
     aria-label="RST" />
  <path
     d="m 23.146826,18.5 0.494824,-1.288477 h 0.183692 L 24.352686,18.5 H 24.158447 L 24.008154,18.109766 H 23.469385 L 23.327881,18.5 Z m 0.371778,-0.529102 h 0.436816 l -0.134473,-0.356835 q -0.06152,-0.162598 -0.09141,-0.267188 -0.02461,0.123926 -0.06943,0.246094 z m 1.81582,-0.759375 h 0.170508 v 0.744434 q 0,0.194238 -0.04395,0.308496 -0.04394,0.114258 -0.159082,0.186328 -0.114257,0.07119 -0.300586,0.07119 -0.181054,0 -0.296191,-0.0624 -0.115137,-0.0624 -0.164355,-0.180175 -0.04922,-0.118653 -0.04922,-0.323438 v -0.744434 h 0.170508 v 0.743555 q 0,0.167871 0.03076,0.247852 0.03164,0.0791 0.107227,0.122168 0.07646,0.04307 0.186328,0.04307 0.188086,0 0.268066,-0.08525 0.07998,-0.08525 0.07998,-0.327832 z M 25.657861,18.5 l 0.49834,-0.671484 -0.439453,-0.616993 h 0.203027 l 0.233789,0.330469 q 0.07295,0.102832 0.103711,0.158203 0.04307,-0.07031 0.101954,-0.146777 l 0.259277,-0.341895 h 0.185449 L 26.351318,17.818848 26.839111,18.5 h -0.210937 l -0.324317,-0.459668 q -0.02725,-0.03955 -0.05625,-0.08613 -0.04307,0.07031 -0.06152,0.09668 L 25.862647,18.5 Z"
     id="text4"
     style="font-size:1.8px;font-family:Arial, sans-serif;text-anchor:middle;fill:#9a9a9a"
     aria-label="AUX" />
  <path
     d="m 30.995526,17.937711 0.196582,-0.01719 q 0.01396,0.118165 0.06445,0.194434 0.05156,0.07519 0.158984,0.122461 0.107422,0.04619 0.241699,0.04619 0.119238,0 0.210547,-0.03545 0.09131,-0.03545 0.135352,-0.09668 0.04512,-0.0623 0.04512,-0.135351 0,-0.07412 -0.04297,-0.128906 -0.04297,-0.05586 -0.141797,-0.09346 -0.06338,-0.02471 -0.280371,-0.07627 -0.216992,-0.05264 -0.304004,-0.09883 -0.112793,-0.05908 -0.168652,-0.146094 -0.05479,-0.08809 -0.05479,-0.196582 0,-0.119238 0.06768,-0.222363 0.06768,-0.104199 0.197657,-0.15791 0.12998,-0.05371 0.288964,-0.05371 0.175098,0 0.308301,0.05693 0.134278,0.05586 0.20625,0.16543 0.07197,0.10957 0.07734,0.248145 l -0.199805,0.01504 q -0.01611,-0.149317 -0.10957,-0.225586 -0.09238,-0.07627 -0.273926,-0.07627 -0.189062,0 -0.276074,0.06982 -0.08594,0.06875 -0.08594,0.166504 0,0.08486 0.06123,0.139649 0.06016,0.05478 0.313672,0.112793 0.25459,0.05693 0.349121,0.0999 0.1375,0.06338 0.203027,0.161133 0.06553,0.09668 0.06553,0.223437 0,0.125684 -0.07197,0.237403 -0.07197,0.110644 -0.207324,0.172949 -0.134278,0.06123 -0.30293,0.06123 -0.213769,0 -0.358789,-0.0623 -0.143945,-0.0623 -0.22666,-0.186914 -0.08164,-0.125684 -0.08594,-0.283594 z m 1.441602,-0.06445 q 0,-0.316895 0.176172,-0.469434 0.147168,-0.126758 0.358789,-0.126758 0.235254,0 0.38457,0.154688 0.149317,0.153613 0.149317,0.425391 0,0.220214 -0.0666,0.346972 -0.06553,0.125684 -0.192285,0.195508 -0.125684,0.06982 -0.275,0.06982 -0.239551,0 -0.387793,-0.153613 -0.147168,-0.153613 -0.147168,-0.442578 z m 0.19873,0 q 0,0.21914 0.09561,0.328711 0.0956,0.108496 0.240625,0.108496 0.143945,0 0.239551,-0.10957 0.0956,-0.109571 0.0956,-0.334082 0,-0.211622 -0.09668,-0.320118 -0.0956,-0.10957 -0.238476,-0.10957 -0.14502,0 -0.240625,0.108496 -0.09561,0.108496 -0.09561,0.327637 z m 1.844434,0.570407 V 18.27609 q -0.133203,0.193359 -0.362012,0.193359 -0.100976,0 -0.189062,-0.03867 -0.08701,-0.03867 -0.129981,-0.09668 -0.04189,-0.05908 -0.05908,-0.143946 -0.01182,-0.05693 -0.01182,-0.180468 v -0.706837 h 0.193359 v 0.632715 q 0,0.151464 0.01182,0.204101 0.01826,0.07627 0.07734,0.120313 0.05908,0.04297 0.146094,0.04297 0.08701,0 0.163281,-0.04404 0.07627,-0.04512 0.107422,-0.121386 0.03223,-0.07734 0.03223,-0.223438 v -0.61123 h 0.193359 v 1.140815 z m 0.475879,0 v -1.14082 h 0.174023 v 0.162207 q 0.125684,-0.187989 0.363086,-0.187989 0.103125,0 0.189063,0.0376 0.08701,0.03652 0.12998,0.09668 0.04297,0.06016 0.06016,0.142871 0.01074,0.05371 0.01074,0.187988 v 0.701463 h -0.19336 v -0.693945 q 0,-0.118164 -0.02256,-0.176172 -0.02256,-0.05908 -0.08057,-0.09346 -0.05693,-0.03545 -0.134277,-0.03545 -0.123535,0 -0.21377,0.07842 -0.08916,0.07842 -0.08916,0.297558 v 0.623049 z m 1.963672,0 v -0.143945 q -0.108497,0.169726 -0.319043,0.169726 -0.136426,0 -0.251368,-0.07519 -0.113867,-0.0752 -0.177246,-0.209473 -0.0623,-0.135351 -0.0623,-0.310449 0,-0.170801 0.05693,-0.309375 0.05693,-0.139648 0.170801,-0.213769 0.113867,-0.07412 0.25459,-0.07412 0.103125,0 0.183691,0.04404 0.08057,0.04297 0.131055,0.112793 v -0.565039 h 0.192285 v 1.574801 z m -0.611231,-0.569336 q 0,0.219141 0.09238,0.327637 0.09238,0.108496 0.218066,0.108496 0.126758,0 0.214844,-0.103125 0.08916,-0.104199 0.08916,-0.316895 0,-0.234179 -0.09023,-0.34375 -0.09023,-0.10957 -0.222363,-0.10957 -0.128907,0 -0.215918,0.105273 -0.08594,0.105274 -0.08594,0.331934 z"
     id="text5"
     style="font-size:2.2px;font-family:Arial, sans-serif;text-anchor:middle;fill:#bdbdbd"
     aria-label="Sound" />
  <path
     d="m 42.730225,18.086035 0.16084,-0.01406 q 0.01143,0.09668 0.05273,0.159082 0.04219,0.06152 0.130078,0.100195 0.08789,0.03779 0.197754,0.03779 0.09756,0 0.172266,-0.029 0.07471,-0.029 0.110742,-0.0791 0.03691,-0.05098 0.03691,-0.110743 0,-0.06064 -0.03516,-0.105468 -0.03516,-0.0457 -0.116016,-0.07647 -0.05186,-0.02022 -0.229395,-0.0624 -0.177539,-0.04307 -0.24873,-0.08086 -0.09228,-0.04834 -0.137988,-0.119531 -0.04482,-0.07207 -0.04482,-0.16084 0,-0.09756 0.05537,-0.181934 0.05537,-0.08525 0.161718,-0.129199 0.106348,-0.04394 0.236426,-0.04394 0.143262,0 0.252246,0.04658 0.109863,0.0457 0.16875,0.135351 0.05889,0.08965 0.06328,0.203028 l -0.163476,0.0123 q -0.01318,-0.122168 -0.08965,-0.18457 -0.07559,-0.0624 -0.224121,-0.0624 -0.154687,0 -0.225879,0.05713 -0.07031,0.05625 -0.07031,0.13623 0,0.06943 0.0501,0.114258 0.04922,0.04482 0.25664,0.09229 0.208301,0.04658 0.285645,0.08174 0.1125,0.05186 0.166113,0.131836 0.05361,0.0791 0.05361,0.182813 0,0.102832 -0.05889,0.194238 -0.05889,0.09053 -0.169629,0.141504 -0.109864,0.0501 -0.247852,0.0501 -0.174902,0 -0.293555,-0.05098 -0.117773,-0.05098 -0.185449,-0.15293 -0.0668,-0.102832 -0.07031,-0.232031 z M 44.31665,18.5 v -1.136426 h -0.424511 v -0.152051 h 1.021289 v 0.152051 h -0.42627 V 18.5 Z m 0.775196,0 v -1.288477 h 0.93164 v 0.152051 h -0.761132 v 0.394629 h 0.712793 v 0.151172 h -0.712793 v 0.438574 h 0.791015 V 18.5 Z m 1.19707,0 v -1.288477 h 0.486035 q 0.128321,0 0.195996,0.01231 0.09492,0.01582 0.159083,0.06064 0.06416,0.04395 0.102832,0.123925 0.03955,0.07998 0.03955,0.175782 0,0.164355 -0.10459,0.278613 -0.104589,0.113379 -0.377929,0.113379 H 46.459424 V 18.5 Z m 0.170508,-0.675879 h 0.333106 q 0.165234,0 0.234667,-0.06152 0.06943,-0.06152 0.06943,-0.173145 0,-0.08086 -0.04131,-0.137988 -0.04043,-0.05801 -0.107226,-0.07646 -0.04307,-0.01143 -0.159082,-0.01143 h -0.32959 z"
     id="text_step_rate"
     style="font-size:1.8px;font-family:Arial, sans-serif;text-anchor:middle;fill:#9a9a9a"
     aria-label="STEP" />
  <path
     d="m 54.095508,17.059174 q 0.09775,0.107422 0.149316,0.263183 0.05264,0.155762 0.05264,0.353418 0,0.197656 -0.05371,0.354492 -0.05264,0.155762 -0.148242,0.259961 -0.09883,0.108496 -0.23418,0.163282 -0.134277,0.05479 -0.307226,0.05479 -0.168653,0 -0.307227,-0.05586 -0.1375,-0.05586 -0.23418,-0.162207 -0.09668,-0.106347 -0.149316,-0.261035 -0.05156,-0.154687 -0.05156,-0.353418 0,-0.195508 0.05156,-0.350195 0.05156,-0.155762 0.15039,-0.266406 0.09453,-0.105274 0.23418,-0.161133 0.140723,-0.05586 0.306153,-0.05586 0.171875,0 0.3083,0.05693 0.1375,0.05586 0.233106,0.160059 z m -0.01934,0.616601 q 0,-0.311523 -0.139649,-0.480176 -0.139648,-0.169726 -0.381347,-0.169726 -0.243848,0 -0.383496,0.169726 -0.138575,0.168653 -0.138575,0.480176 0,0.314746 0.141797,0.482324 0.141797,0.166504 0.380274,0.166504 0.238476,0 0.379199,-0.166504 0.141797,-0.167578 0.141797,-0.482324 z m 1.793945,0.683203 q -0.05908,0.02578 -0.107422,0.04834 -0.04727,0.02256 -0.124609,0.04727 -0.06553,0.02041 -0.142871,0.03437 -0.07627,0.01504 -0.168652,0.01504 -0.174024,0 -0.316895,-0.04834 -0.141797,-0.04941 -0.24707,-0.153613 -0.103125,-0.102051 -0.161133,-0.258887 -0.05801,-0.15791 -0.05801,-0.366309 0,-0.197656 0.05586,-0.353418 0.05586,-0.155761 0.161133,-0.263183 0.102051,-0.104199 0.245996,-0.158985 0.14502,-0.05479 0.321192,-0.05479 0.128906,0 0.256738,0.03115 0.128906,0.03115 0.285742,0.10957 v 0.252441 h -0.01611 q -0.132129,-0.110644 -0.262109,-0.161132 -0.129981,-0.05049 -0.278223,-0.05049 -0.121387,0 -0.219141,0.03975 -0.09668,0.03867 -0.172949,0.121387 -0.07412,0.08057 -0.116016,0.204102 -0.04082,0.122461 -0.04082,0.283593 0,0.168653 0.04512,0.29004 0.04619,0.121386 0.118164,0.197656 0.0752,0.07949 0.175098,0.118164 0.100977,0.0376 0.212695,0.0376 0.153614,0 0.287891,-0.05264 0.134277,-0.05264 0.251367,-0.15791 h 0.01504 z m 1.441602,-1.294433 h -0.57148 v 1.410449 h -0.212696 v -1.410449 h -0.571484 v -0.189063 h 1.355664 z"
     id="text6"
     style="font-size:2.2px;text-anchor:middle;fill:#bdbdbd"
     aria-label="OCT" />
  <!-- Slot borders -->
  <!-- Slot 0 (top left) -->
  <rect
     x="5"
     y="33"
     width="20"
     height="40"
     fill="none"
     stroke="#ffffff"
     stroke-width="0.3"
     id="rect6" />
  <!-- Slot 1 (top right) -->
  <rect
     x="35.96"
     y="33"
     width="20"
     height="40"
     fill="none"
     stroke="#ffffff"
     stroke-width="0.3"
     id="rect7" />
  <!-- Slot 2 (bottom left) -->
  <rect
     x="5"
     y="73"
     width="20"
     height="40"
     fill="none"
     stroke="#ffffff"
     stroke-width="0.3"
     id="rect8" />
  <!-- Slot 3 (bottom right) -->
  <rect
     x="35.96"
     y="73"
     width="20"
     height="40"
     fill="none"
     stroke="#ffffff"
     stroke-width="0.3"
     id="rect9" />
  <!-- Slot labels -->
  <!-- Pitch labels -->
  <path
     d="m 13.268555,47.419236 q 0,0.08701 -0.03076,0.161719 -0.02988,0.07383 -0.08437,0.12832 -0.06768,0.06768 -0.159961,0.101954 -0.09228,0.0334 -0.23291,0.0334 h -0.17403 V 48.33242 H 12.4125 v -1.308691 h 0.355078 q 0.117774,0 0.199512,0.02021 0.08174,0.01934 0.145019,0.06152 0.07471,0.0501 0.115137,0.124805 0.04131,0.07471 0.04131,0.188964 z m -0.181055,0.0044 q 0,-0.06768 -0.02373,-0.117773 -0.02373,-0.0501 -0.07207,-0.08174 -0.04219,-0.02725 -0.09668,-0.03867 -0.05361,-0.0123 -0.136231,-0.0123 h -0.172265 v 0.522949 h 0.146777 q 0.105469,0 0.171387,-0.01846 0.06592,-0.01934 0.107226,-0.06065 0.04131,-0.04219 0.05801,-0.08877 0.01758,-0.04658 0.01758,-0.10459 z m 0.871875,0.908784 h -0.516797 v -0.133594 h 0.171387 v -1.041504 h -0.171387 v -0.133593 h 0.516797 v 0.133593 h -0.171387 v 1.041504 h 0.171387 z m 1.22959,-1.154004 h -0.467578 v 1.154004 h -0.174024 v -1.154004 h -0.467578 v -0.154687 h 1.10918 z m 1.151367,1.059082 q -0.04834,0.02109 -0.08789,0.03955 -0.03867,0.01846 -0.101953,0.03867 -0.05361,0.0167 -0.116894,0.02813 -0.0624,0.0123 -0.137989,0.0123 -0.142382,0 -0.259277,-0.03955 -0.116016,-0.04043 -0.202148,-0.125684 -0.08437,-0.0835 -0.131836,-0.211816 -0.04746,-0.1292 -0.04746,-0.299707 0,-0.161719 0.0457,-0.28916 0.0457,-0.127442 0.131836,-0.215333 0.0835,-0.08525 0.201269,-0.130078 Q 15.752343,47 15.896483,47 q 0.105469,0 0.210059,0.02549 0.105469,0.02549 0.233789,0.08965 v 0.206543 h -0.01318 q -0.108105,-0.09053 -0.214453,-0.131836 -0.106347,-0.04131 -0.227636,-0.04131 -0.09932,0 -0.179297,0.03252 -0.0791,0.03164 -0.141504,0.09932 -0.06065,0.06592 -0.09492,0.166992 -0.0334,0.100196 -0.0334,0.232032 0,0.137988 0.03691,0.237304 0.03779,0.09932 0.09668,0.161719 0.06152,0.06504 0.143262,0.09668 0.08262,0.03076 0.174023,0.03076 0.125684,0 0.235547,-0.04307 0.109863,-0.04307 0.205664,-0.129199 h 0.01231 z m 1.247168,0.09492 h -0.174023 v -0.640723 h -0.653028 v 0.640723 h -0.174023 v -1.308691 h 0.174023 v 0.513281 h 0.653028 V 47.023729 H 17.5875 Z"
     id="text13"
     style="font-size:1.8px;text-anchor:middle;fill:#9a9a9a"
     aria-label="PITCH" />
  <path
     d="m 44.228554,47.419236 q 0,0.08701 -0.03076,0.161719 -0.02988,0.07383 -0.08438,0.12832 -0.06768,0.06768 -0.159961,0.101954 -0.09229,0.0334 -0.23291,0.0334 h -0.17402 v 0.487791 h -0.174024 v -1.308691 h 0.355078 q 0.117774,0 0.199512,0.02021 0.08174,0.01934 0.14502,0.06152 0.07471,0.0501 0.115136,0.124805 0.04131,0.07471 0.04131,0.188964 z m -0.181055,0.0044 q 0,-0.06768 -0.02373,-0.117773 -0.02373,-0.0501 -0.07207,-0.08174 -0.04219,-0.02725 -0.09668,-0.03867 -0.05361,-0.0123 -0.136231,-0.0123 h -0.172265 v 0.522949 H 43.6933 q 0.105469,0 0.171387,-0.01846 0.06592,-0.01934 0.107226,-0.06065 0.04131,-0.04219 0.05801,-0.08877 0.01758,-0.04658 0.01758,-0.10459 z m 0.871875,0.908784 h -0.516797 v -0.133594 h 0.171387 v -1.041504 h -0.171387 v -0.133593 h 0.516797 v 0.133593 h -0.171387 v 1.041504 h 0.171387 z m 1.22959,-1.154004 h -0.467578 v 1.154004 h -0.174024 v -1.154004 h -0.467578 v -0.154687 h 1.10918 z m 1.151367,1.059082 q -0.04834,0.02109 -0.08789,0.03955 -0.03867,0.01846 -0.101953,0.03867 -0.05361,0.0167 -0.116894,0.02813 -0.0624,0.0123 -0.137989,0.0123 -0.142382,0 -0.259277,-0.03955 -0.116015,-0.04043 -0.202148,-0.125684 -0.08438,-0.0835 -0.131836,-0.211816 -0.04746,-0.1292 -0.04746,-0.299707 0,-0.161719 0.0457,-0.28916 0.0457,-0.127442 0.131836,-0.215333 0.0835,-0.08525 0.201269,-0.130078 Q 46.712342,47 46.856482,47 q 0.105469,0 0.210059,0.02549 0.105469,0.02549 0.233789,0.08965 v 0.206543 h -0.01318 q -0.108105,-0.09053 -0.214453,-0.131836 -0.106347,-0.04131 -0.227636,-0.04131 -0.09932,0 -0.179297,0.03252 -0.0791,0.03164 -0.141504,0.09932 -0.06065,0.06592 -0.09492,0.166992 -0.0334,0.100196 -0.0334,0.232032 0,0.137988 0.03691,0.237304 0.03779,0.09932 0.09668,0.161719 0.06152,0.06504 0.143262,0.09668 0.08262,0.03076 0.174023,0.03076 0.125684,0 0.235547,-0.04307 0.109864,-0.04307 0.205664,-0.129199 h 0.0123 z m 1.247168,0.09492 h -0.174023 v -0.640723 h -0.653028 v 0.640723 h -0.174023 v -1.308691 h 0.174023 v 0.513281 h 0.653028 v -0.513281 h 0.174023 z"
     id="text14"
     style="font-size:1.8px;text-anchor:middle;fill:#9a9a9a"
     aria-label="PITCH" />
  <path
     d="m 13.268555,86.419236 q 0,0.08701 -0.03076,0.161719 -0.02988,0.07383 -0.08437,0.12832 -0.06768,0.06768 -0.159961,0.101954 -0.09228,0.0334 -0.23291,0.0334 h -0.17403 V 87.33242 H 12.4125 v -1.308691 h 0.355078 q 0.117774,0 0.199512,0.02021 0.08174,0.01934 0.145019,0.06152 0.07471,0.0501 0.115137,0.124805 0.04131,0.07471 0.04131,0.188964 z m -0.181055,0.0044 q 0,-0.06768 -0.02373,-0.117773 -0.02373,-0.0501 -0.07207,-0.08174 -0.04219,-0.02725 -0.09668,-0.03867 -0.05361,-0.0123 -0.136231,-0.0123 h -0.172265 v 0.522949 h 0.146777 q 0.105469,0 0.171387,-0.01846 0.06592,-0.01934 0.107226,-0.06064 0.04131,-0.04219 0.05801,-0.08877 0.01758,-0.04658 0.01758,-0.10459 z m 0.871875,0.908784 h -0.516797 v -0.133594 h 0.171387 v -1.041504 h -0.171387 v -0.133593 h 0.516797 v 0.133593 h -0.171387 v 1.041504 h 0.171387 z m 1.22959,-1.154004 h -0.467578 v 1.154004 h -0.174024 v -1.154004 h -0.467578 v -0.154687 h 1.10918 z m 1.151367,1.059082 q -0.04834,0.02109 -0.08789,0.03955 -0.03867,0.01846 -0.101953,0.03867 -0.05361,0.0167 -0.116894,0.02813 -0.0624,0.0123 -0.137989,0.0123 -0.142382,0 -0.259277,-0.03955 -0.116016,-0.04043 -0.202148,-0.125684 -0.08437,-0.0835 -0.131836,-0.211816 -0.04746,-0.1292 -0.04746,-0.299707 0,-0.161719 0.0457,-0.28916 0.0457,-0.127442 0.131836,-0.215333 0.0835,-0.08525 0.201269,-0.130078 Q 15.752343,86 15.896483,86 q 0.105469,0 0.210059,0.02549 0.105469,0.02549 0.233789,0.08965 v 0.206543 h -0.01318 q -0.108105,-0.09053 -0.214453,-0.131836 -0.106347,-0.04131 -0.227636,-0.04131 -0.09932,0 -0.179297,0.03252 -0.0791,0.03164 -0.141504,0.09932 -0.06065,0.06592 -0.09492,0.166992 -0.0334,0.100196 -0.0334,0.232032 0,0.137988 0.03691,0.237304 0.03779,0.09932 0.09668,0.161719 0.06152,0.06504 0.143262,0.09668 0.08262,0.03076 0.174023,0.03076 0.125684,0 0.235547,-0.04307 0.109863,-0.04307 0.205664,-0.129199 h 0.01231 z m 1.247168,0.09492 h -0.174023 v -0.640723 h -0.653028 v 0.640723 h -0.174023 v -1.308691 h 0.174023 v 0.513281 h 0.653028 V 86.023729 H 17.5875 Z"
     id="text15"
     style="font-size:1.8px;text-anchor:middle;fill:#9a9a9a"
     aria-label="PITCH" />
  <path
     d="m 44.228554,86.419236 q 0,0.08701 -0.03076,0.161719 -0.02988,0.07383 -0.08438,0.12832 -0.06768,0.06768 -0.159961,0.101954 -0.09229,0.0334 -0.23291,0.0334 h -0.17402 v 0.487791 h -0.174024 v -1.308691 h 0.355078 q 0.117774,0 0.199512,0.02021 0.08174,0.01934 0.14502,0.06152 0.07471,0.0501 0.115136,0.124805 0.04131,0.07471 0.04131,0.188964 z m -0.181055,0.0044 q 0,-0.06768 -0.02373,-0.117773 -0.02373,-0.0501 -0.07207,-0.08174 -0.04219,-0.02725 -0.09668,-0.03867 -0.05361,-0.0123 -0.136231,-0.0123 h -0.172265 v 0.522949 H 43.6933 q 0.105469,0 0.171387,-0.01846 0.06592,-0.01934 0.107226,-0.06064 0.04131,-0.04219 0.05801,-0.08877 0.01758,-0.04658 0.01758,-0.10459 z m 0.871875,0.908784 h -0.516797 v -0.133594 h 0.171387 v -1.041504 h -0.171387 v -0.133593 h 0.516797 v 0.133593 h -0.171387 v 1.041504 h 0.171387 z m 1.22959,-1.154004 h -0.467578 v 1.154004 h -0.174024 v -1.154004 h -0.467578 v -0.154687 h 1.10918 z m 1.151367,1.059082 q -0.04834,0.02109 -0.08789,0.03955 -0.03867,0.01846 -0.101953,0.03867 -0.05361,0.0167 -0.116894,0.02813 -0.0624,0.0123 -0.137989,0.0123 -0.142382,0 -0.259277,-0.03955 -0.116015,-0.04043 -0.202148,-0.125684 -0.08438,-0.0835 -0.131836,-0.211816 -0.04746,-0.1292 -0.04746,-0.299707 0,-0.161719 0.0457,-0.28916 0.0457,-0.127442 0.131836,-0.215333 0.0835,-0.08525 0.201269,-0.130078 Q 46.712342,86 46.856482,86 q 0.105469,0 0.210059,0.02549 0.105469,0.02549 0.233789,0.08965 v 0.206543 h -0.01318 q -0.108105,-0.09053 -0.214453,-0.131836 -0.106347,-0.04131 -0.227636,-0.04131 -0.09932,0 -0.179297,0.03252 -0.0791,0.03164 -0.141504,0.09932 -0.06065,0.06592 -0.09492,0.166992 -0.0334,0.100196 -0.0334,0.232032 0,0.137988 0.03691,0.237304 0.03779,0.09932 0.09668,0.161719 0.06152,0.06504 0.143262,0.09668 0.08262,0.03076 0.174023,0.03076 0.125684,0 0.235547,-0.04307 0.109864,-0.04307 0.205664,-0.129199 h 0.0123 z m 1.247168,0.09492 h -0.174023 v -0.640723 h -0.653028 v 0.640723 h -0.174023 v -1.308691 h 0.174023 v 0.513281 h 0.653028 v -0.513281 h 0.174023 z"
     id="text16"
     style="font-size:1.8px;text-anchor:middle;fill:#9a9a9a"
     aria-label="PITCH" />
  <!-- Type labels -->
  <path
     d="m 13.889063,62.178416 h -0.467579 v 1.154004 h -0.174023 v -1.154004 h -0.467578 v -0.154687 h 1.10918 z m 1.102148,-0.154687 -0.460547,0.734765 v 0.573926 h -0.174023 v -0.555469 l -0.462305,-0.753222 h 0.19248 l 0.357715,0.585351 0.361231,-0.585351 z m 1.037109,0.395507 q 0,0.08701 -0.03076,0.161719 -0.02988,0.07383 -0.08437,0.12832 -0.06767,0.06768 -0.15996,0.101954 -0.09229,0.0334 -0.232911,0.0334 h -0.17403 v 0.487791 h -0.174024 v -1.308691 h 0.355079 q 0.117773,0 0.199511,0.02021 0.08174,0.01934 0.14502,0.06152 0.07471,0.0501 0.115137,0.124805 0.04131,0.07471 0.04131,0.188964 z m -0.181055,0.0044 q 0,-0.06768 -0.02373,-0.117773 -0.02373,-0.0501 -0.07207,-0.08174 -0.04219,-0.02725 -0.09668,-0.03867 -0.05361,-0.0123 -0.13623,-0.0123 h -0.172266 v 0.522949 h 0.146777 q 0.105469,0 0.171387,-0.01846 0.06592,-0.01934 0.107227,-0.06065 0.04131,-0.04219 0.05801,-0.08877 0.01758,-0.04658 0.01758,-0.10459 z m 1.272657,0.908784 h -0.862207 v -1.308691 h 0.862207 v 0.154687 h -0.688184 v 0.358594 h 0.688184 v 0.154687 h -0.688184 v 0.486036 h 0.688184 z"
     id="text17"
     style="font-size:1.8px;text-anchor:middle;fill:#9a9a9a"
     aria-label="TYPE" />
  <path
     d="M 44.849062,62.178416 H 44.381484 V 63.33242 H 44.20746 v -1.154004 h -0.467578 v -0.154687 h 1.10918 z m 1.102148,-0.154687 -0.460547,0.734765 V 63.33242 H 45.31664 v -0.555469 l -0.462305,-0.753222 h 0.19248 l 0.357715,0.585351 0.361231,-0.585351 z m 1.037109,0.395507 q 0,0.08701 -0.03076,0.161719 -0.02988,0.07383 -0.08438,0.12832 -0.06768,0.06768 -0.159961,0.101954 -0.09229,0.0334 -0.232911,0.0334 h -0.174019 v 0.487791 h -0.174023 v -1.308691 h 0.355078 q 0.117773,0 0.199511,0.02021 0.08174,0.01934 0.14502,0.06152 0.07471,0.0501 0.115137,0.124805 0.04131,0.07471 0.04131,0.188964 z m -0.181054,0.0044 q 0,-0.06768 -0.02373,-0.117773 -0.02373,-0.0501 -0.07207,-0.08174 -0.04219,-0.02725 -0.09668,-0.03867 -0.05361,-0.0123 -0.13623,-0.0123 h -0.172266 v 0.522949 h 0.146777 q 0.105469,0 0.171387,-0.01846 0.06592,-0.01934 0.107227,-0.06065 0.04131,-0.04219 0.05801,-0.08877 0.01758,-0.04658 0.01758,-0.10459 z m 1.272656,0.908784 h -0.862207 v -1.308691 h 0.862207 v 0.154687 h -0.688184 v 0.358594 h 0.688184 v 0.154687 h -0.688184 v 0.486036 h 0.688184 z"
     id="text18"
     style="font-size:1.8px;text-anchor:middle;fill:#9a9a9a"
     aria-label="TYPE" />
  <path
     d="m 13.889063,101.17842 h -0.467579 v 1.15401 h -0.174023 v -1.15401 h -0.467578 v -0.15469 h 1.10918 z m 1.102148,-0.15469 -0.460547,0.73477 v 0.57393 h -0.174023 v -0.55547 l -0.462305,-0.75323 h 0.19248 l 0.357715,0.58535 0.361231,-0.58535 z m 1.037109,0.39551 q 0,0.087 -0.03076,0.16172 -0.02988,0.0738 -0.08437,0.12832 -0.06767,0.0677 -0.15996,0.10195 -0.09229,0.0334 -0.232911,0.0334 h -0.17403 v 0.4878 h -0.174024 v -1.3087 h 0.355079 q 0.117773,0 0.199511,0.0202 0.08174,0.0193 0.14502,0.0615 0.07471,0.0501 0.115137,0.12481 0.04131,0.0747 0.04131,0.18896 z m -0.181055,0.004 q 0,-0.0677 -0.02373,-0.11778 -0.02373,-0.0501 -0.07207,-0.0817 -0.04219,-0.0272 -0.09668,-0.0387 -0.05361,-0.0123 -0.13623,-0.0123 h -0.172266 v 0.52296 h 0.146777 q 0.105469,0 0.171387,-0.0185 0.06592,-0.0193 0.107227,-0.0606 0.04131,-0.0422 0.05801,-0.0888 0.01758,-0.0466 0.01758,-0.10459 z m 1.272657,0.90879 h -0.862207 v -1.3087 h 0.862207 v 0.15509 h -0.688184 v 0.35859 h 0.688184 v 0.15469 h -0.688184 v 0.48604 h 0.688184 z"
     id="text19"
     style="font-size:1.8px;text-anchor:middle;fill:#9a9a9a"
     aria-label="TYPE" />
  <path
     d="m 44.849062,101.17842 h -0.467578 v 1.154 H 44.20746 v -1.154 h -0.467578 v -0.15469 h 1.10918 z m 1.102148,-0.15469 -0.460547,0.73476 v 0.57393 H 45.31664 v -0.55547 l -0.462305,-0.75322 h 0.19248 l 0.357715,0.58535 0.361231,-0.58535 z m 1.037109,0.39551 q 0,0.087 -0.03076,0.16171 -0.02988,0.0738 -0.08438,0.12832 -0.06768,0.0677 -0.159961,0.10196 -0.09229,0.0334 -0.232911,0.0334 h -0.174019 v 0.48779 h -0.174023 v -1.30869 h 0.355078 q 0.117773,0 0.199511,0.0202 0.08174,0.0193 0.14502,0.0615 0.07471,0.0501 0.115137,0.1248 0.04131,0.0747 0.04131,0.18897 z m -0.181054,0.004 q 0,-0.0677 -0.02373,-0.11778 -0.02373,-0.0501 -0.07207,-0.0817 -0.04219,-0.0272 -0.09668,-0.0387 -0.05361,-0.0123 -0.13623,-0.0123 h -0.172266 v 0.52295 h 0.146777 q 0.105469,0 0.171387,-0.0185 0.06592,-0.0193 0.107227,-0.0606 0.04131,-0.0422 0.05801,-0.0888 0.01758,-0.0466 0.01758,-0.10459 z m 1.272656,0.90878 h -0.862207 v -1.30869 h 0.862207 v 0.15469 h -0.688184 v 0.35859 h 0.688184 v 0.15469 h -0.688184 v 0.48603 h 0.688184 z"
     id="text20"
     style="font-size:1.8px;text-anchor:middle;fill:#9a9a9a"
     aria-label="TYPE" />
  <!-- ARP labels (vertical, center) -->
  <path
     d="m 27.677168,45.054173 0.494824,-1.288477 h 0.183691 l 0.527344,1.288477 h -0.194238 l -0.150293,-0.390234 h -0.53877 l -0.141504,0.390234 z m 0.371777,-0.529102 h 0.436816 l -0.134472,-0.356835 q -0.06152,-0.162598 -0.09141,-0.267188 -0.02461,0.123926 -0.06943,0.246094 z m 0.972949,0.529102 v -1.288477 h 0.571289 q 0.172266,0 0.261914,0.03516 0.08965,0.03428 0.143262,0.122168 0.05361,0.08789 0.05361,0.194238 0,0.137109 -0.08877,0.231152 -0.08877,0.09404 -0.274219,0.119532 0.06768,0.03252 0.102832,0.06416 0.07471,0.06855 0.141504,0.171386 l 0.224125,0.350681 H 29.942988 L 29.77248,44.786107 q -0.07471,-0.116016 -0.123047,-0.177539 -0.04834,-0.06152 -0.08701,-0.08613 -0.03779,-0.02461 -0.07734,-0.03428 -0.029,-0.0062 -0.09492,-0.0062 h -0.197761 v 0.572215 z m 0.170508,-0.719824 h 0.366504 q 0.116894,0 0.182812,-0.02373 0.06592,-0.02461 0.100196,-0.07734 0.03428,-0.05361 0.03428,-0.116016 0,-0.09141 -0.0668,-0.150293 -0.06592,-0.05889 -0.20918,-0.05889 h -0.407812 z m 1.126758,0.719824 v -1.288477 h 0.486035 q 0.12832,0 0.195996,0.0123 0.09492,0.01582 0.159082,0.06065 0.06416,0.04395 0.102832,0.123925 0.03955,0.07998 0.03955,0.175782 0,0.164355 -0.10459,0.278613 -0.10459,0.113379 -0.37793,0.113379 h -0.330467 v 0.523828 z m 0.170508,-0.675879 h 0.333105 q 0.165234,0 0.234668,-0.06152 0.06943,-0.06152 0.06943,-0.173145 0,-0.08086 -0.04131,-0.137988 -0.04043,-0.05801 -0.107227,-0.07646 -0.04307,-0.01143 -0.159082,-0.01143 h -0.329589 z m 0.948339,0.28916 v -0.159082 h 0.486035 v 0.159082 z m 0.68379,0.386719 v -1.288477 h 0.571289 q 0.172265,0 0.261914,0.03516 0.08965,0.03428 0.143261,0.122168 0.05361,0.08789 0.05361,0.194238 0,0.137109 -0.08877,0.231152 -0.08877,0.09404 -0.274218,0.119532 0.06767,0.03252 0.102832,0.06416 0.07471,0.06855 0.141503,0.171386 l 0.224126,0.350681 H 33.04289 l -0.170507,-0.268066 q -0.07471,-0.116016 -0.123047,-0.177539 -0.04834,-0.06152 -0.08701,-0.08613 -0.03779,-0.02461 -0.07734,-0.03428 -0.029,-0.0062 -0.09492,-0.0062 h -0.197762 v 0.572215 z m 0.170507,-0.719824 h 0.366504 q 0.116895,0 0.182813,-0.02373 0.06592,-0.02461 0.100195,-0.07734 0.03428,-0.05361 0.03428,-0.116016 0,-0.09141 -0.0668,-0.150293 -0.06592,-0.05889 -0.20918,-0.05889 h -0.407813 z"
     id="text_arp_r"
     style="font-size:1.8px;font-family:Arial, sans-serif;text-anchor:middle;fill:#9a9a9a"
     aria-label="ARP-R" />
  <path
     d="m 27.777363,60.054173 0.494824,-1.288477 h 0.183692 l 0.527343,1.288477 h -0.194238 l -0.150293,-0.390234 h -0.53877 l -0.141503,0.390234 z m 0.371777,-0.529102 h 0.436817 l -0.134473,-0.356835 q -0.06152,-0.162598 -0.09141,-0.267188 -0.02461,0.123926 -0.06943,0.246094 z m 0.972949,0.529102 v -1.288477 h 0.57129 q 0.172265,0 0.261914,0.03516 0.08965,0.03428 0.143261,0.122168 0.05361,0.08789 0.05361,0.194238 0,0.137109 -0.08877,0.231152 -0.08877,0.09404 -0.274219,0.119532 0.06768,0.03252 0.102832,0.06416 0.07471,0.06855 0.141504,0.171386 l 0.224125,0.350681 h -0.214453 l -0.170508,-0.268066 q -0.07471,-0.116016 -0.123046,-0.177539 -0.04834,-0.06152 -0.08701,-0.08613 -0.03779,-0.02461 -0.07734,-0.03428 -0.029,-0.0062 -0.09492,-0.0062 h -0.197762 v 0.572215 z m 0.170508,-0.719824 h 0.366504 q 0.116895,0 0.182813,-0.02373 0.06592,-0.02461 0.100195,-0.07734 0.03428,-0.05361 0.03428,-0.116016 0,-0.09141 -0.0668,-0.150293 -0.06592,-0.05889 -0.209179,-0.05889 h -0.407813 z m 1.126758,0.719824 v -1.288477 h 0.486035 q 0.128321,0 0.195996,0.0123 0.09492,0.01582 0.159082,0.06065 0.06416,0.04395 0.102832,0.123925 0.03955,0.07998 0.03955,0.175782 0,0.164355 -0.10459,0.278613 -0.10459,0.113379 -0.377929,0.113379 h -0.330468 v 0.523828 z m 0.170508,-0.675879 h 0.333105 q 0.165235,0 0.234668,-0.06152 0.06943,-0.06152 0.06943,-0.173145 0,-0.08086 -0.04131,-0.137988 -0.04043,-0.05801 -0.107226,-0.07646 -0.04307,-0.01143 -0.159082,-0.01143 h -0.32959 z m 0.94834,0.28916 v -0.159082 h 0.486035 v 0.159082 z m 1.008984,0.386719 v -1.136426 h -0.424511 v -0.152051 h 1.021289 v 0.152051 h -0.42627 v 1.136426 z"
     id="text_arp_t"
     style="font-size:1.8px;font-family:Arial, sans-serif;text-anchor:middle;fill:#9a9a9a"
     aria-label="ARP-T" />
  <path
     d="m 27.726826,75.054173 0.494824,-1.288477 h 0.183691 l 0.527344,1.288477 h -0.194238 l -0.150293,-0.390234 h -0.53877 l -0.141504,0.390234 z m 0.371777,-0.529102 h 0.436817 l -0.134473,-0.356835 q -0.06152,-0.162598 -0.09141,-0.267188 -0.02461,0.123926 -0.06943,0.246094 z m 0.972949,0.529102 v -1.288477 h 0.571289 q 0.172266,0 0.261914,0.03516 0.08965,0.03428 0.143262,0.122168 0.05361,0.08789 0.05361,0.194238 0,0.137109 -0.08877,0.231152 -0.08877,0.09404 -0.274219,0.119532 0.06768,0.03252 0.102832,0.06416 0.07471,0.06855 0.141504,0.171386 l 0.224125,0.350681 h -0.214453 l -0.170508,-0.268066 q -0.07471,-0.116016 -0.123047,-0.177539 -0.04834,-0.06152 -0.08701,-0.08613 -0.03779,-0.02461 -0.07734,-0.03428 -0.029,-0.0062 -0.09492,-0.0062 H 29.24206 v 0.572215 z m 0.170508,-0.719824 h 0.366504 q 0.116895,0 0.182813,-0.02373 0.06592,-0.02461 0.100195,-0.07734 0.03428,-0.05361 0.03428,-0.116016 0,-0.09141 -0.0668,-0.150293 -0.06592,-0.05889 -0.209179,-0.05889 H 29.24206 Z m 1.126758,0.719824 v -1.288477 h 0.486035 q 0.12832,0 0.195996,0.0123 0.09492,0.01582 0.159082,0.06065 0.06416,0.04395 0.102832,0.123925 0.03955,0.07998 0.03955,0.175782 0,0.164355 -0.10459,0.278613 -0.10459,0.113379 -0.377929,0.113379 h -0.330468 v 0.523828 z m 0.170508,-0.675879 h 0.333105 q 0.165235,0 0.234668,-0.06152 0.06943,-0.06152 0.06943,-0.173145 0,-0.08086 -0.04131,-0.137988 -0.04043,-0.05801 -0.107226,-0.07646 -0.04307,-0.01143 -0.159082,-0.01143 h -0.32959 z m 0.94834,0.28916 v -0.159082 h 0.486035 v 0.159082 z m 1.049414,0.386719 -0.499219,-1.288477 h 0.18457 l 0.334864,0.936036 q 0.04043,0.1125 0.06767,0.210937 0.02988,-0.105469 0.06943,-0.210937 l 0.348047,-0.936036 h 0.174023 l -0.504483,1.288477 z"
     id="text_arp_v"
     style="font-size:1.8px;font-family:Arial, sans-serif;text-anchor:middle;fill:#9a9a9a"
     aria-label="ARP-V" />
  <!-- EG labels (vertical, center) -->
  <path
     d="M 31.138203,91.337521 H 30.932148 L 30.78957,90.932248 h -0.628906 l -0.142579,0.405273 h -0.196289 l 0.529297,-1.454102 h 0.257813 z M 30.73,90.766232 l -0.254883,-0.713867 -0.25586,0.713867 z"
     id="text21"
     style="font-size:2px;text-anchor:middle;fill:#bdbdbd"
     aria-label="A" />
  <path
     d="m 29.983906,105.61196 q 0,0.19825 -0.08691,0.35938 -0.08594,0.16114 -0.229492,0.25 -0.09961,0.0615 -0.222657,0.0889 -0.122074,0.0273 -0.322269,0.0273 H 28.75539 v -1.45411 h 0.363281 q 0.212891,0 0.337891,0.0312 0.125977,0.0303 0.212891,0.084 0.148437,0.0928 0.231445,0.24707 0.08301,0.1543 0.08301,0.36622 z m -0.202149,-0.003 q 0,-0.17089 -0.05957,-0.28808 -0.05957,-0.11719 -0.177734,-0.18457 -0.08594,-0.0488 -0.182618,-0.0674 -0.09668,-0.0195 -0.231445,-0.0195 h -0.18164 v 1.12207 h 0.18164 q 0.139649,0 0.243164,-0.0205 0.104492,-0.0205 0.191406,-0.0762 0.108399,-0.0693 0.16211,-0.18262 0.05469,-0.11328 0.05469,-0.2832 z m 1.15918,-0.79101 -0.700195,1.81641 h -0.168946 l 0.697266,-1.81641 z m 1.466797,1.5195 h -0.250977 l -0.486328,-0.57812 h -0.272461 v 0.57812 h -0.193359 v -1.4541 h 0.407226 q 0.131836,0 0.219727,0.0176 0.08789,0.0166 0.158203,0.0605 0.0791,0.0498 0.123047,0.12597 0.04492,0.0752 0.04492,0.19141 0,0.15723 -0.0791,0.26367 -0.0791,0.10547 -0.217773,0.15918 z m -0.452149,-1.04492 q 0,-0.0625 -0.02246,-0.11036 -0.02149,-0.0488 -0.07227,-0.082 -0.04199,-0.0283 -0.09961,-0.0391 -0.05762,-0.0117 -0.135743,-0.0117 h -0.227539 v 0.54884 h 0.195313 q 0.0918,0 0.160156,-0.0156 0.06836,-0.0166 0.116211,-0.0606 0.04394,-0.041 0.06445,-0.0937 0.02148,-0.0537 0.02148,-0.13575 z"
     id="text22"
     style="font-size:2px;text-anchor:middle;fill:#bdbdbd"
     aria-label="D/R" />
  <path
     d="m 31.048359,120.9226 q 0,0.085 -0.04004,0.16797 -0.03906,0.083 -0.110352,0.14063 -0.07813,0.0625 -0.182617,0.0977 -0.103516,0.0352 -0.25,0.0352 -0.157226,0 -0.283203,-0.0293 -0.125,-0.0293 -0.254883,-0.0869 v -0.24219 h 0.01367 q 0.110352,0.0918 0.254883,0.1416 0.144531,0.0498 0.271484,0.0498 0.179688,0 0.279297,-0.0674 0.100586,-0.0674 0.100586,-0.17969 0,-0.0967 -0.04785,-0.14258 -0.04687,-0.0459 -0.143554,-0.0713 -0.07324,-0.0195 -0.15918,-0.0322 -0.08496,-0.0127 -0.180664,-0.0322 -0.193359,-0.041 -0.287109,-0.13965 -0.09277,-0.0996 -0.09277,-0.25879 0,-0.18262 0.154297,-0.29883 0.154297,-0.11719 0.391602,-0.11719 0.15332,0 0.28125,0.0293 0.127929,0.0293 0.226562,0.0723 v 0.22852 h -0.01367 q -0.08301,-0.0703 -0.21875,-0.11621 -0.134765,-0.0469 -0.276367,-0.0469 -0.155273,0 -0.25,0.0645 -0.09375,0.0644 -0.09375,0.16601 0,0.0908 0.04687,0.14258 0.04687,0.0518 0.165039,0.0791 0.0625,0.0137 0.177735,0.0332 0.115234,0.0195 0.195312,0.04 0.162109,0.043 0.244141,0.12989 0.08203,0.0869 0.08203,0.24316 z"
     id="text23"
     style="font-size:2px;text-anchor:middle;fill:#bdbdbd"
     aria-label="S" />
  <!-- Output label -->
  <!-- Brand -->
  <path
     d="m 2.3919139,8.6425505 q 0,0.6083984 -0.3486328,0.9672851 -0.3486328,0.3571778 -0.9638672,0.3571778 -0.6135254,0 -0.96215821,-0.3571778 -0.34863281,-0.3588867 -0.34863281,-0.9672851 0,-0.6135254 0.34863281,-0.9689942 0.34863281,-0.3571777 0.96215821,-0.3571777 0.6118164,0 0.9621582,0.3571777 0.3503418,0.3554688 0.3503418,0.9689942 z M 1.5220408,9.2868376 q 0.095703,-0.116211 0.1418457,-0.2734375 0.046143,-0.1589356 0.046143,-0.3725586 0,-0.2290039 -0.052979,-0.3896485 Q 1.6040721,8.0905485 1.5186229,7.9914274 1.4314647,7.8888884 1.3169627,7.8427458 1.2041698,7.7966032 1.0811229,7.7966032 q -0.12475588,0 -0.23583987,0.044434 -0.109375,0.044434 -0.20166015,0.1469727 -0.0854492,0.095703 -0.14013672,0.2648925 -0.0529785,0.1674805 -0.0529785,0.3896485 0,0.2272949 0.0512695,0.3879394 0.0529785,0.1589356 0.13842774,0.2597656 0.0854492,0.1008301 0.19995117,0.1486817 0.11450195,0.047852 0.24096682,0.047852 0.1264648,0 0.2409668,-0.047852 0.1145019,-0.049561 0.1999511,-0.1520996 z M 5.5603709,9.9140348 H 4.9075389 V 8.2101774 L 4.4358592,9.3158903 H 3.9829783 L 3.5112987,8.2101774 V 9.9140348 H 2.8926463 V 7.3693571 h 0.762207 L 4.2273631,8.6459684 4.7981639,7.3693571 h 0.762207 z m 2.9633789,0 H 7.8914256 L 6.8113475,8.1674528 v 1.746582 H 6.209785 V 7.3693571 H 6.9942088 L 7.9221873,8.8271208 V 7.3693571 h 0.6015625 z m 2.0251462,0 H 9.0586619 V 9.462863 H 9.4756541 V 7.820529 H 9.0586619 V 7.3693571 H 10.548896 V 7.820529 h -0.416992 v 1.642334 h 0.416992 z m 2.886475,0 H 12.756904 L 12.580879,9.3996305 h -0.94336 L 11.461494,9.9140348 H 10.800117 L 11.740058,7.3693571 H 12.49543 Z M 12.421943,8.9330778 12.109199,8.0204802 11.796455,8.9330778 Z"
     id="text25"
     style="font-weight:bold;font-size:3.5px;text-anchor:middle;fill:#fafafa"
     transform="rotate(-20.532072)"
     aria-label="OMNIA" />
</svg>
