<?xml version="1.0" encoding="UTF-8" standalone="no"?>
<svg
   width="60.96mm"
   height="128.5mm"
   viewBox="0 0 60.96 128.5"
   version="1.1"
   id="svg1"
   sodipodi:docname="ChordPadSynth.svg"
   inkscape:version="1.4.3 (0d15f75, 2025-12-25)"
   xmlns:inkscape="http://www.inkscape.org/namespaces/inkscape"
   xmlns:sodipodi="http://sodipodi.sourceforge.net/DTD/sodipodi-0.dtd"
   xmlns="http://www.w3.org/2000/svg"
   xmlns:svg="http://www.w3.org/2000/svg">
  <sodipodi:namedview
     id="namedview25"
     pagecolor="#ffffff"
     bordercolor="#000000"
     borderopacity="0.25"
     inkscape:showpageshadow="2"
     inkscape:pageopacity="0.0"
     inkscape:pagecheckerboard="0"
     inkscape:deskcolor="#d1d1d1"
     inkscape:document-units="mm"
     inkscape:zoom="1.5998541"
     inkscape:cx="115.01049"
     inkscape:cy="242.83465"
     inkscape:window-width="1920"
     inkscape:window-height="991"
     inkscape:window-x="-9"
     inkscape:window-y="-9"
     inkscape:window-maximized="1"
     inkscape:current-layer="svg1" />
  <defs
     id="defs2">
    <linearGradient
       id="bgGrad"
       x1="0"
       y1="0"
       x2="0"
       y2="1">
      <stop
         offset="0%"
         stop-color="#1a237e"
         id="stop1" />
      <stop
         offset="100%"
         stop-color="#1a237e"
         id="stop2" />
    </linearGradient>
  </defs>
  <!-- Panel background -->
  <path
     id="rect2"
     style="fill:#1a237e"
     d="M 0,0 H 60.959999 V 128.5 H 0 Z" />
  <!-- Title -->
  <path
     d="m 10.446796,12.056641 q -0.324218,0 -0.599609,-0.0957 -0.2734375,-0.0957 -0.4707031,-0.285157 -0.1972656,-0.189453 -0.3066406,-0.472656 -0.1074219,-0.283203 -0.1074219,-0.654297 0,-0.345703 0.1035156,-0.626953 Q 9.1694527,9.640625 9.3667183,9.4394531 9.5561714,9.2460938 9.8354683,9.140625 10.116718,9.0351563 10.44875,9.0351563 q 0.183593,0 0.330078,0.021484 0.148437,0.019531 0.273437,0.052734 0.13086,0.037109 0.236328,0.083984 0.107422,0.044922 0.1875,0.083984 v 0.7050781 h -0.08594 q -0.05469,-0.046875 -0.138672,-0.1113281 -0.08203,-0.064453 -0.1875,-0.1269532 -0.107422,-0.0625 -0.232422,-0.1054687 -0.125,-0.042969 -0.267578,-0.042969 -0.158203,0 -0.300781,0.050781 -0.142578,0.048828 -0.2636722,0.1640625 -0.1152344,0.1113281 -0.1875,0.2949221 -0.070312,0.183594 -0.070312,0.445312 0,0.273438 0.076172,0.457032 0.078125,0.183593 0.1953128,0.289062 0.11914,0.107422 0.265625,0.154297 0.146484,0.04492 0.289062,0.04492 0.136719,0 0.269531,-0.04102 0.134766,-0.04101 0.248047,-0.111328 0.0957,-0.05664 0.177735,-0.121094 0.08203,-0.06445 0.134765,-0.111328 h 0.07813 v 0.695313 q -0.109375,0.04883 -0.208984,0.0918 -0.09961,0.04297 -0.208984,0.07422 -0.142579,0.04102 -0.267579,0.0625 -0.125,0.02149 -0.34375,0.02149 z M 14.634296,12 h -0.75 V 10.71875 H 12.776875 V 12 h -0.75 V 9.0917969 h 0.75 V 10.15625 h 1.107421 V 9.0917969 h 0.75 z m 3.570313,-1.453125 q 0,0.695313 -0.398438,1.105469 -0.398437,0.408203 -1.101562,0.408203 -0.701172,0 -1.099609,-0.408203 -0.398438,-0.410156 -0.398438,-1.105469 0,-0.7011719 0.398438,-1.1074219 0.398437,-0.4082031 1.099609,-0.4082031 0.699219,0 1.099609,0.4082031 0.400391,0.40625 0.400391,1.1074219 z m -0.994141,0.736328 q 0.109375,-0.132812 0.16211,-0.3125 0.05273,-0.18164 0.05273,-0.425781 0,-0.261719 -0.06055,-0.445313 -0.06055,-0.1835934 -0.158203,-0.2968746 -0.09961,-0.1171875 -0.230469,-0.1699219 -0.128906,-0.052734 -0.269531,-0.052734 -0.142578,0 -0.269531,0.050781 -0.125,0.050781 -0.230469,0.1679687 -0.09766,0.109375 -0.160156,0.3027349 -0.06055,0.191406 -0.06055,0.445312 0,0.259766 0.05859,0.443359 0.06055,0.181641 0.158203,0.296875 0.09766,0.115235 0.228515,0.169922 0.13086,0.05469 0.275391,0.05469 0.144531,0 0.275391,-0.05469 0.130859,-0.05664 0.228515,-0.173828 z m 3.197266,-1.3007811 q 0,-0.109375 -0.04492,-0.1875 -0.04492,-0.078125 -0.154297,-0.1230469 -0.07617,-0.03125 -0.177734,-0.037109 -0.101563,-0.00781 -0.236328,-0.00781 h -0.271485 v 0.7832029 h 0.230469 q 0.179688,0 0.300781,-0.01758 0.121094,-0.01758 0.203125,-0.08008 0.07813,-0.06055 0.113282,-0.132812 0.03711,-0.07422 0.03711,-0.1972661 z M 21.577656,12 H 20.66164 L 19.868671,10.933594 H 19.522968 V 12 H 18.776875 V 9.0917969 h 1.257812 q 0.257813,0 0.443359,0.029297 0.185547,0.029297 0.347657,0.1269531 0.164062,0.097656 0.259765,0.2539062 0.09766,0.1542969 0.09766,0.3886719 0,0.322266 -0.150391,0.525391 -0.148438,0.203125 -0.425781,0.33789 z m 3.076172,-1.451172 q 0,0.40625 -0.185547,0.728516 -0.185547,0.320312 -0.46875,0.492187 -0.212891,0.128907 -0.466797,0.179688 Q 23.278828,12 22.931171,12 h -1.02539 V 9.0917969 h 1.054687 q 0.355469,0 0.613282,0.060547 0.257812,0.058594 0.433593,0.1679687 0.300782,0.1835938 0.472657,0.4960938 0.173828,0.3105467 0.173828,0.7324217 z m -0.775391,-0.0059 q 0,-0.28711 -0.105469,-0.490235 Q 23.669453,9.8476563 23.44289,9.7324219 23.327656,9.6757813 23.206562,9.65625 23.087421,9.6347656 22.845234,9.6347656 h -0.189453 v 1.8203124 h 0.189453 q 0.267578,0 0.392578,-0.02344 0.125,-0.02539 0.244141,-0.08984 0.205078,-0.117188 0.300781,-0.3125 0.0957,-0.197266 0.0957,-0.486328 z m 5.115234,-0.533203 q 0,0.195312 -0.06836,0.382812 -0.06836,0.185547 -0.195312,0.3125 -0.173829,0.171875 -0.388672,0.259766 -0.212891,0.08789 -0.53125,0.08789 H 27.343281 V 12 h -0.75 V 9.0917969 h 1.234375 q 0.277344,0 0.466797,0.048828 0.191406,0.046875 0.33789,0.1425781 0.175782,0.1152344 0.267578,0.2949219 0.09375,0.1796875 0.09375,0.431641 z m -0.77539,0.01758 q 0,-0.1230471 -0.06641,-0.2109377 -0.06641,-0.089844 -0.154297,-0.125 -0.117188,-0.046875 -0.228516,-0.050781 -0.111328,-0.00586 -0.296875,-0.00586 h -0.128906 v 0.8710934 h 0.214844 q 0.191406,0 0.314453,-0.02344 0.125,-0.02344 0.208984,-0.09375 0.07227,-0.0625 0.103516,-0.148438 0.0332,-0.08789 0.0332,-0.21289 z M 32.212421,12 h -0.77539 L 31.235859,11.412109 H 30.157734 L 29.956562,12 h -0.755859 l 1.074218,-2.9082031 h 0.863282 z M 31.054218,10.878906 30.696796,9.8359375 30.339375,10.878906 Z m 4.324219,-0.330078 q 0,0.40625 -0.185547,0.728516 -0.185547,0.320312 -0.46875,0.492187 -0.21289,0.128907 -0.466797,0.179688 Q 34.003437,12 33.655781,12 H 32.63039 V 9.0917969 h 1.054688 q 0.355468,0 0.613281,0.060547 0.257812,0.058594 0.433594,0.1679687 0.300781,0.1835938 0.472656,0.4960938 0.173828,0.3105467 0.173828,0.7324217 z m -0.775391,-0.0059 q 0,-0.28711 -0.105468,-0.490235 Q 34.394062,9.8476563 34.1675,9.7324219 34.052265,9.6757813 33.931171,9.65625 33.812031,9.6347656 33.569843,9.6347656 H 33.38039 v 1.8203124 h 0.189453 q 0.267578,0 0.392578,-0.02344 0.125,-0.02539 0.244141,-0.08984 0.205078,-0.117188 0.300781,-0.3125 0.0957,-0.197266 0.0957,-0.486328 z m 5.042969,0.542969 q 0,0.429687 -0.365234,0.699218 -0.363281,0.267578 -0.988281,0.267578 -0.361329,0 -0.63086,-0.0625 -0.267578,-0.06445 -0.501953,-0.162109 v -0.697266 h 0.08203 q 0.232422,0.185547 0.519532,0.285157 0.289062,0.09961 0.554687,0.09961 0.06836,0 0.179688,-0.01172 0.111328,-0.01172 0.18164,-0.03906 0.08594,-0.03516 0.140625,-0.08789 0.05664,-0.05273 0.05664,-0.15625 0,-0.0957 -0.08203,-0.164062 -0.08008,-0.07031 -0.236329,-0.107422 -0.164062,-0.03906 -0.347656,-0.07227 -0.18164,-0.03516 -0.341797,-0.08789 -0.367187,-0.119141 -0.529297,-0.322266 -0.160156,-0.205078 -0.160156,-0.5078126 0,-0.40625 0.363281,-0.6621094 0.365235,-0.2578125 0.9375,-0.2578125 0.28711,0 0.566407,0.056641 0.28125,0.054687 0.486328,0.1386719 v 0.6699219 h -0.08008 q -0.175782,-0.140625 -0.431641,-0.234375 -0.253906,-0.095703 -0.519531,-0.095703 -0.09375,0 -0.1875,0.013672 -0.0918,0.011719 -0.177735,0.046875 -0.07617,0.029297 -0.130859,0.089844 -0.05469,0.058594 -0.05469,0.1347656 0,0.1152344 0.08789,0.177734 0.08789,0.06055 0.332031,0.111329 0.160157,0.0332 0.306641,0.06445 0.148438,0.03125 0.318359,0.08594 0.333985,0.109375 0.492188,0.298828 0.160156,0.1875 0.160156,0.488282 z M 42.718281,9.0917969 41.646015,10.875 V 12 h -0.75 V 10.910156 L 39.806171,9.0917969 h 0.851563 L 41.28664,10.216797 41.894062,9.0917969 Z M 45.751484,12 H 45.028828 L 43.794453,10.003906 V 12 h -0.6875 V 9.0917969 h 0.896484 l 1.060547,1.6660161 V 9.0917969 h 0.6875 z M 48.769062,9.6542969 H 47.860859 V 12 h -0.75 V 9.6542969 h -0.908203 v -0.5625 h 2.566406 z M 51.827656,12 h -0.75 V 10.71875 H 49.970234 V 12 h -0.75 V 9.0917969 h 0.75 V 10.15625 h 1.107422 V 9.0917969 h 0.75 z"
     id="text2"
     style="font-weight:bold;font-size:4px;text-anchor:middle;fill:#ffffff"
     aria-label="CHORD PAD SYNTH" />
  <!-- Top row labels: Inputs on left, Pad and Octave on right -->
  <path
     d="m 6.3074219,18.048242 0.1705078,0.04307 q -0.053613,0.210058 -0.1933594,0.3208 -0.1388672,0.109864 -0.3401367,0.109864 -0.2083008,0 -0.3392578,-0.08437 -0.1300781,-0.08525 -0.1986328,-0.246094 -0.067676,-0.16084 -0.067676,-0.34541 0,-0.20127 0.076465,-0.350684 0.077344,-0.150293 0.2188476,-0.227637 0.1423828,-0.07822 0.3128906,-0.07822 0.1933594,0 0.3251953,0.09844 0.131836,0.09844 0.1836914,0.276856 l -0.167871,0.03955 q -0.044824,-0.140625 -0.1300782,-0.204786 -0.085254,-0.06416 -0.2144531,-0.06416 -0.1485351,0 -0.2487304,0.07119 -0.099316,0.07119 -0.1397461,0.191601 -0.04043,0.119531 -0.04043,0.246973 0,0.164355 0.047461,0.287402 0.04834,0.122168 0.1494141,0.182813 0.1010742,0.06064 0.2188476,0.06064 0.1432617,0 0.2425781,-0.08262 0.099316,-0.08262 0.1344727,-0.245215 z M 6.6809571,18.5 v -1.288477 h 0.1705078 v 1.136426 H 7.4860352 V 18.5 Z m 1.0010741,0 v -1.288477 h 0.1705079 v 0.638965 L 8.4923828,17.211523 H 8.7235351 L 8.1830078,17.733594 8.7472656,18.5 h -0.225 L 8.0634765,17.847852 7.8525391,18.053516 V 18.5 Z"
     id="text3"
     style="font-size:1.8px;font-family:Arial, sans-serif;text-anchor:middle;fill:#9a9a9a"
     aria-label="CLK" />
  <path
     d="m 14.341504,18.5 v -1.288477 h 0.571289 q 0.172266,0 0.261914,0.03516 0.08965,0.03428 0.143262,0.122168 0.05361,0.08789 0.05361,0.194238 0,0.137109 -0.08877,0.231152 -0.08877,0.09404 -0.274219,0.119532 0.06768,0.03252 0.102832,0.06416 0.07471,0.06855 0.141504,0.171386 L 15.477051,18.5 H 15.262598 L 15.09209,18.231934 q -0.07471,-0.116016 -0.123047,-0.177539 -0.04834,-0.06152 -0.08701,-0.08613 -0.03779,-0.02461 -0.07734,-0.03428 -0.029,-0.0062 -0.09492,-0.0062 H 14.512012 V 18.5 Z m 0.170508,-0.719824 h 0.366504 q 0.116894,0 0.182812,-0.02373 0.06592,-0.02461 0.100195,-0.07734 0.03428,-0.05361 0.03428,-0.116016 0,-0.09141 -0.0668,-0.150293 -0.06592,-0.05889 -0.20918,-0.05889 h -0.407812 z m 1.06875,0.305859 0.16084,-0.01406 q 0.01142,0.09668 0.05273,0.159082 0.04219,0.06152 0.130078,0.100195 0.08789,0.03779 0.197754,0.03779 0.09756,0 0.172266,-0.029 0.07471,-0.029 0.110742,-0.0791 0.03691,-0.05098 0.03691,-0.110743 0,-0.06064 -0.03516,-0.105468 -0.03516,-0.0457 -0.116016,-0.07647 -0.05185,-0.02022 -0.229395,-0.0624 -0.177539,-0.04307 -0.24873,-0.08086 -0.09228,-0.04834 -0.137988,-0.119531 -0.04482,-0.07207 -0.04482,-0.16084 0,-0.09756 0.05537,-0.181934 0.05537,-0.08525 0.161718,-0.129199 0.106348,-0.04394 0.236426,-0.04394 0.143262,0 0.252246,0.04658 0.109863,0.0457 0.16875,0.135351 0.05889,0.08965 0.06328,0.203028 l -0.163476,0.0123 q -0.01318,-0.122168 -0.08965,-0.18457 -0.07558,-0.0624 -0.224121,-0.0624 -0.154687,0 -0.225879,0.05713 -0.07031,0.05625 -0.07031,0.13623 0,0.06943 0.0501,0.114258 0.04922,0.04482 0.25664,0.09229 0.208301,0.04658 0.285645,0.08174 0.1125,0.05186 0.166113,0.131836 0.05361,0.0791 0.05361,0.182813 0,0.102832 -0.05889,0.194238 -0.05889,0.09053 -0.169629,0.141504 -0.109864,0.0501 -0.247852,0.0501 -0.174902,0 -0.293555,-0.05098 -0.117773,-0.05098 -0.185449,-0.15293 -0.0668,-0.102832 -0.07031,-0.232031 z M 17.167188,18.5 v -1.136426 h -0.424512 v -0.152051 h 1.021289 v 0.152051 h -0.42627 V 18.5 Z"
     id="text_reset"
     style="font-size:1.8px;font-family:Arial, sans-serif;text-anchor:middle;fill:#9a9a9a"
     aria-label="RST" />
  <path
     d="m 23.146826,18.5 0.494824,-1.288477 h 0.183692 L 24.352686,18.5 H 24.158447 L 24.008154,18.109766 H 23.469385 L 23.327881,18.5 Z m 0.371778,-0.529102 h 0.436816 l -0.134473,-0.356835 q -0.06152,-0.162598 -0.09141,-0.267188 -0.02461,0.123926 -0.06943,0.246094 z m 1.81582,-0.759375 h 0.170508 v 0.744434 q 0,0.194238 -0.04395,0.308496 -0.04394,0.114258 -0.159082,0.186328 -0.114257,0.07119 -0.300586,0.07119 -0.181054,0 -0.296191,-0.0624 -0.115137,-0.0624 -0.164355,-0.180175 -0.04922,-0.118653 -0.04922,-0.323438 v -0.744434 h 0.170508 v 0.743555 q 0,0.167871 0.03076,0.247852 0.03164,0.0791 0.107227,0.122168 0.07646,0.04307 0.186328,0.04307 0.188086,0 0.268066,-0.08525 0.07998,-0.08525 0.07998,-0.327832 z M 25.657861,18.5 l 0.49834,-0.671484 -0.439453,-0.616993 h 0.203027 l 0.233789,0.330469 q 0.07295,0.102832 0.103711,0.158203 0.04307,-0.07031 0.101954,-0.146777 l 0.259277,-0.341895 h 0.185449 L 26.351318,17.818848 26.839111,18.5 h -0.210937 l -0.324317,-0.459668 q -0.02725,-0.03955 -0.05625,-0.08613 -0.04307,0.07031 -0.06152,0.09668 L 25.862647,18.5 Z"
     id="text4"
     style="font-size:1.8px;font-family:Arial, sans-serif;text-anchor:middle;fill:#9a9a9a"
     aria-label="AUX" />
  <path
     d="m 44.025146,17.358881 q 0,0.106347 -0.0376,0.197656 -0.03652,0.09023 -0.103125,0.156836 -0.08272,0.08272 -0.195508,0.124609 -0.112793,0.04082 -0.284668,0.04082 h -0.212692 v 0.596192 h -0.212696 v -1.599512 h 0.433985 q 0.143945,0 0.243847,0.02471 0.0999,0.02363 0.177247,0.0752 0.09131,0.06123 0.140722,0.152539 0.05049,0.09131 0.05049,0.230957 z m -0.221289,0.0054 q 0,-0.08272 -0.029,-0.143946 -0.029,-0.06123 -0.08808,-0.0999 -0.05156,-0.0333 -0.118165,-0.04726 -0.06553,-0.01504 -0.166503,-0.01504 h -0.210547 v 0.639161 h 0.179394 q 0.128906,0 0.209473,-0.02256 0.08057,-0.02363 0.131055,-0.07412 0.05049,-0.05156 0.0709,-0.108496 0.02148,-0.05693 0.02148,-0.127832 z m 1.709082,1.110713 h -0.22666 l -0.156836,-0.445801 h -0.691797 l -0.156835,0.445801 h -0.215918 l 0.582226,-1.599512 h 0.283594 z M 45.063916,17.846576 44.783545,17.061322 44.5021,17.846576 Z m 2.043164,-0.169727 q 0,0.218067 -0.09561,0.395313 -0.09453,0.177246 -0.252442,0.275 -0.10957,0.06768 -0.244922,0.09775 -0.134272,0.03008 -0.354487,0.03008 H 45.755713 V 16.87548 h 0.399609 q 0.23418,0 0.37168,0.03438 0.138574,0.0333 0.23418,0.09238 0.163281,0.102051 0.254589,0.271777 0.09131,0.169727 0.09131,0.402832 z m -0.222363,-0.0032 q 0,-0.187988 -0.06553,-0.316895 -0.06553,-0.128906 -0.195507,-0.203027 -0.09453,-0.05371 -0.200879,-0.07412 -0.106348,-0.02149 -0.25459,-0.02149 h -0.199805 v 1.234278 h 0.199805 q 0.153613,0 0.26748,-0.02256 0.114942,-0.02256 0.210547,-0.08379 0.119238,-0.07627 0.178321,-0.200879 0.06016,-0.124609 0.06016,-0.311523 z"
     id="text5"
     style="font-size:2.2px;text-anchor:middle;fill:#bdbdbd"
     aria-label="PAD" />
  <path
     d="m 54.095508,17.059174 q 0.09775,0.107422 0.149316,0.263183 0.05264,0.155762 0.05264,0.353418 0,0.197656 -0.05371,0.354492 -0.05264,0.155762 -0.148242,0.259961 -0.09883,0.108496 -0.23418,0.163282 -0.134277,0.05479 -0.307226,0.05479 -0.168653,0 -0.307227,-0.05586 -0.1375,-0.05586 -0.23418,-0.162207 -0.09668,-0.106347 -0.149316,-0.261035 -0.05156,-0.154687 -0.05156,-0.353418 0,-0.195508 0.05156,-0.350195 0.05156,-0.155762 0.15039,-0.266406 0.09453,-0.105274 0.23418,-0.161133 0.140723,-0.05586 0.306153,-0.05586 0.171875,0 0.3083,0.05693 0.1375,0.05586 0.233106,0.160059 z m -0.01934,0.616601 q 0,-0.311523 -0.139649,-0.480176 -0.139648,-0.169726 -0.381347,-0.169726 -0.243848,0 -0.383496,0.169726 -0.138575,0.168653 -0.138575,0.480176 0,0.314746 0.141797,0.482324 0.141797,0.166504 0.380274,0.166504 0.238476,0 0.379199,-0.166504 0.141797,-0.167578 0.141797,-0.482324 z m 1.793945,0.683203 q -0.05908,0.02578 -0.107422,0.04834 -0.04727,0.02256 -0.124609,0.04727 -0.06553,0.02041 -0.142871,0.03437 -0.07627,0.01504 -0.168652,0.01504 -0.174024,0 -0.316895,-0.04834 -0.141797,-0.04941 -0.24707,-0.153613 -0.103125,-0.102051 -0.161133,-0.258887 -0.05801,-0.15791 -0.05801,-0.366309 0,-0.197656 0.05586,-0.353418 0.05586,-0.155761 0.161133,-0.263183 0.102051,-0.104199 0.245996,-0.158985 0.14502,-0.05479 0.321192,-0.05479 0.128906,0 0.256738,0.03115 0.128906,0.03115 0.285742,0.10957 v 0.252441 h -0.01611 q -0.132129,-0.110644 -0.262109,-0.161132 -0.129981,-0.05049 -0.278223,-0.05049 -0.121387,0 -0.219141,0.03975 -0.09668,0.03867 -0.172949,0.121387 -0.07412,0.08057 -0.116016,0.204102 -0.04082,0.122461 -0.04082,0.283593 0,0.168653 0.04512,0.29004 0.04619,0.121386 0.118164,0.197656 0.0752,0.07949 0.175098,0.118164 0.100977,0.0376 0.212695,0.0376 0.153614,0 0.287891,-0.05264 0.134277,-0.05264 0.251367,-0.15791 h 0.01504 z m 1.441602,-1.294433 h -0.57148 v 1.410449 h -0.212696 v -1.410449 h -0.571484 v -0.189063 h 1.355664 z"
     id="text6"
     style="font-size:2.2px;text-anchor:middle;fill:#bdbdbd"
     aria-label="OCT" />
  <!-- Slot borders -->
  <!-- Slot 0 (top left) -->
  <rect
     x="5"
     y="33"
     width="20"
     height="40"
     fill="none"
     stroke="#ffffff"
     stroke-width="0.3"
     id="rect6" />
  <!-- Slot 1 (top right) -->
  <rect
     x="35.96"
     y="33"
     width="20"
     height="40"
     fill="none"
     stroke="#ffffff"
     stroke-width="0.3"
     id="rect7" />
  <!-- Slot 2 (bottom left) -->
  <rect
     x="5"
     y="73"
     width="20"
     height="40"
     fill="none"
     stroke="#ffffff"
     stroke-width="0.3"
     id="rect8" />
  <!-- Slot 3 (bottom right) -->
  <rect
     x="35.96"
     y="73"
     width="20"
     height="40"
     fill="none"
     stroke="#ffffff"
     stroke-width="0.3"
     id="rect9" />
  <!-- Slot labels -->
  <!-- Pitch labels -->
  <path
     d="m 13.268555,47.419236 q 0,0.08701 -0.03076,0.161719 -0.02988,0.07383 -0.08437,0.12832 -0.06768,0.06768 -0.159961,0.101954 -0.09228,0.0334 -0.23291,0.0334 h -0.17403 V 48.33242 H 12.4125 v -1.308691 h 0.355078 q 0.117774,0 0.199512,0.02021 0.08174,0.01934 0.145019,0.06152 0.07471,0.0501 0.115137,0.124805 0.04131,0.07471 0.04131,0.188964 z m -0.181055,0.0044 q 0,-0.06768 -0.02373,-0.117773 -0.02373,-0.0501 -0.07207,-0.08174 -0.04219,-0.02725 -0.09668,-0.03867 -0.05361,-0.0123 -0.136231,-0.0123 h -0.172265 v 0.522949 h 0.146777 q 0.105469,0 0.171387,-0.01846 0.06592,-0.01934 0.107226,-0.06065 0.04131,-0.04219 0.05801,-0.08877 0.01758,-0.04658 0.01758,-0.10459 z m 0.871875,0.908784 h -0.516797 v -0.133594 h 0.171387 v -1.041504 h -0.171387 v -0.133593 h 0.516797 v 0.133593 h -0.171387 v 1.041504 h 0.171387 z m 1.22959,-1.154004 h -0.467578 v 1.154004 h -0.174024 v -1.154004 h -0.467578 v -0.154687 h 1.10918 z m 1.151367,1.059082 q -0.04834,0.02109 -0.08789,0.03955 -0.03867,0.01846 -0.101953,0.03867 -0.05361,0.0167 -0.116894,0.02813 -0.0624,0.0123 -0.137989,0.0123 -0.142382,0 -0.259277,-0.03955 -0.116016,-0.04043 -0.202148,-0.125684 -0.08437,-0.0835 -0.131836,-0.211816 -0.04746,-0.1292 -0.04746,-0.299707 0,-0.161719 0.0457,-0.28916 0.0457,-0.127442 0.131836,-0.215333 0.0835,-0.08525 0.201269,-0.130078 Q 15.752343,47 15.896483,47 q 0.105469,0 0.210059,0.02549 0.105469,0.02549 0.233789,0.08965 v 0.206543 h -0.01318 q -0.108105,-0.09053 -0.214453,-0.131836 -0.106347,-0.04131 -0.227636,-0.04131 -0.09932,0 -0.179297,0.03252 -0.0791,0.03164 -0.141504,0.09932 -0.06065,0.06592 -0.09492,0.166992 -0.0334,0.100196 -0.0334,0.232032 0,0.137988 0.03691,0.237304 0.03779,0.09932 0.09668,0.161719 0.06152,0.06504 0.143262,0.09668 0.08262,0.03076 0.174023,0.03076 0.125684,0 0.235547,-0.04307 0.109863,-0.04307 0.205664,-0.129199 h 0.01231 z m 1.247168,0.09492 h -0.174023 v -0.640723 h -0.653028 v 0.640723 h -0.174023 v -1.308691 h 0.174023 v 0.513281 h 0.653028 V 47.023729 H 17.5875 Z"
     id="text13"
     style="font-size:1.8px;text-anchor:middle;fill:#9a9a9a"
     aria-label="PITCH" />
  <path
     d="m 44.228554,47.419236 q 0,0.08701 -0.03076,0.161719 -0.02988,0.07383 -0.08438,0.12832 -0.06768,0.06768 -0.159961,0.101954 -0.09229,0.0334 -0.23291,0.0334 h -0.17402 v 0.487791 h -0.174024 v -1.308691 h 0.355078 q 0.117774,0 0.199512,0.02021 0.08174,0.01934 0.14502,0.06152 0.07471,0.0501 0.115136,0.124805 0.04131,0.07471 0.04131,0.188964 z m -0.181055,0.0044 q 0,-0.06768 -0.02373,-0.117773 -0.02373,-0.0501 -0.07207,-0.08174 -0.04219,-0.02725 -0.09668,-0.03867 -0.05361,-0.0123 -0.136231,-0.0123 h -0.172265 v 0.522949 H 43.6933 q 0.105469,0 0.171387,-0.01846 0.06592,-0.01934 0.107226,-0.06065 0.04131,-0.04219 0.05801,-0.08877 0.01758,-0.04658 0.01758,-0.10459 z m 0.871875,0.908784 h -0.516797 v -0.133594 h 0.171387 v -1.041504 h -0.171387 v -0.133593 h 0.516797 v 0.133593 h -0.171387 v 1.041504 h 0.171387 z m 1.22959,-1.154004 h -0.467578 v 1.154004 h -0.174024 v -1.154004 h -0.467578 v -0.154687 h 1.10918 z m 1.151367,1.059082 q -0.04834,0.02109 -0.08789,0.03955 -0.03867,0.01846 -0.101953,0.03867 -0.05361,0.0167 -0.116894,0.02813 -0.0624,0.0123 -0.137989,0.0123 -0.142382,0 -0.259277,-0.03955 -0.116015,-0.04043 -0.202148,-0.125684 -0.08438,-0.0835 -0.131836,-0.211816 -0.04746,-0.1292 -0.04746,-0.299707 0,-0.161719 0.0457,-0.28916 0.0457,-0.127442 0.131836,-0.215333 0.0835,-0.08525 0.201269,-0.130078 Q 46.712342,47 46.856482,47 q 0.105469,0 0.210059,0.02549 0.105469,0.02549 0.233789,0.08965 v 0.206543 h -0.01318 q -0.108105,-0.09053 -0.214453,-0.131836 -0.106347,-0.04131 -0.227636,-0.04131 -0.09932,0 -0.179297,0.03252 -0.0791,0.03164 -0.141504,0.09932 -0.06065,0.06592 -0.09492,0.166992 -0.0334,0.100196 -0.0334,0.232032 0,0.137988 0.03691,0.237304 0.03779,0.09932 0.09668,0.161719 0.06152,0.06504 0.143262,0.09668 0.08262,0.03076 0.174023,0.03076 0.125684,0 0.235547,-0.04307 0.109864,-0.04307 0.205664,-0.129199 h 0.0123 z m 1.247168,0.09492 h -0.174023 v -0.640723 h -0.653028 v 0.640723 h -0.174023 v -1.308691 h 0.174023 v 0.513281 h 0.653028 v -0.513281 h 0.174023 z"
     id="text14"
     style="font-size:1.8px;text-anchor:middle;fill:#9a9a9a"
     aria-label="PITCH" />
  <path
     d="m 13.268555,86.419236 q 0,0.08701 -0.03076,0.161719 -0.02988,0.07383 -0.08437,0.12832 -0.06768,0.06768 -0.159961,0.101954 -0.09228,0.0334 -0.23291,0.0334 h -0.17403 V 87.33242 H 12.4125 v -1.308691 h 0.355078 q 0.117774,0 0.199512,0.02021 0.08174,0.01934 0.145019,0.06152 0.07471,0.0501 0.115137,0.124805 0.04131,0.07471 0.04131,0.188964 z m -0.181055,0.0044 q 0,-0.06768 -0.02373,-0.117773 -0.02373,-0.0501 -0.07207,-0.08174 -0.04219,-0.02725 -0.09668,-0.03867 -0.05361,-0.0123 -0.136231,-0.0123 h -0.172265 v 0.522949 h 0.146777 q 0.105469,0 0.171387,-0.01846 0.06592,-0.01934 0.107226,-0.06064 0.04131,-0.04219 0.05801,-0.08877 0.01758,-0.04658 0.01758,-0.10459 z m 0.871875,0.908784 h -0.516797 v -0.133594 h 0.171387 v -1.041504 h -0.171387 v -0.133593 h 0.516797 v 0.133593 h -0.171387 v 1.041504 h 0.171387 z m 1.22959,-1.154004 h -0.467578 v 1.154004 h -0.174024 v -1.154004 h -0.467578 v -0.154687 h 1.10918 z m 1.151367,1.059082 q -0.04834,0.02109 -0.08789,0.03955 -0.03867,0.01846 -0.101953,0.03867 -0.05361,0.0167 -0.116894,0.02813 -0.0624,0.0123 -0.137989,0.0123 -0.142382,0 -0.259277,-0.03955 -0.116016,-0.04043 -0.202148,-0.125684 -0.08437,-0.0835 -0.131836,-0.211816 -0.04746,-0.1292 -0.04746,-0.299707 0,-0.161719 0.0457,-0.28916 0.0457,-0.127442 0.131836,-0.215333 0.0835,-0.08525 0.201269,-0.130078 Q 15.752343,86 15.896483,86 q 0.105469,0 0.210059,0.02549 0.105469,0.02549 0.233789,0.08965 v 0.206543 h -0.01318 q -0.108105,-0.09053 -0.214453,-0.131836 -0.106347,-0.04131 -0.227636,-0.04131 -0.09932,0 -0.179297,0.03252 -0.0791,0.03164 -0.141504,0.09932 -0.06065,0.06592 -0.09492,0.166992 -0.0334,0.100196 -0.0334,0.232032 0,0.137988 0.03691,0.237304 0.03779,0.09932 0.09668,0.161719 0.06152,0.06504 0.143262,0.09668 0.08262,0.03076 0.174023,0.03076 0.125684,0 0.235547,-0.04307 0.109863,-0.04307 0.205664,-0.129199 h 0.01231 z m 1.247168,0.09492 h -0.174023 v -0.640723 h -0.653028 v 0.640723 h -0.174023 v -1.308691 h 0.174023 v 0.513281 h 0.653028 V 86.023729 H 17.5875 Z"
     id="text15"
     style="font-size:1.8px;text-anchor:middle;fill:#9a9a9a"
     aria-label="PITCH" />
  <path
     d="m 44.228554,86.419236 q 0,0.08701 -0.03076,0.161719 -0.02988,0.07383 -0.08438,0.12832 -0.06768,0.06768 -0.159961,0.101954 -0.09229,0.0334 -0.23291,0.0334 h -0.17402 v 0.487791 h -0.174024 v -1.308691 h 0.355078 q 0.117774,0 0.199512,0.02021 0.08174,0.01934 0.14502,0.06152 0.07471,0.0501 0.115136,0.124805 0.04131,0.07471 0.04131,0.188964 z m -0.181055,0.0044 q 0,-0.06768 -0.02373,-0.117773 -0.02373,-0.0501 -0.07207,-0.08174 -0.04219,-0.02725 -0.09668,-0.03867 -0.05361,-0.0123 -0.136231,-0.0123 h -0.172265 v 0.522949 H 43.6933 q 0.105469,0 0.171387,-0.01846 0.06592,-0.01934 0.107226,-0.06064 0.04131,-0.04219 0.05801,-0.08877 0.01758,-0.04658 0.01758,-0.10459 z m 0.871875,0.908784 h -0.516797 v -0.133594 h 0.171387 v -1.041504 h -0.171387 v -0.133593 h 0.516797 v 0.133593 h -0.171387 v 1.041504 h 0.171387 z m 1.22959,-1.154004 h -0.467578 v 1.154004 h -0.174024 v -1.154004 h -0.467578 v -0.154687 h 1.10918 z m 1.151367,1.059082 q -0.04834,0.02109 -0.08789,0.03955 -0.03867,0.01846 -0.101953,0.03867 -0.05361,0.0167 -0.116894,0.02813 -0.0624,0.0123 -0.137989,0.0123 -0.142382,0 -0.259277,-0.03955 -0.116015,-0.04043 -0.202148,-0.125684 -0.08438,-0.0835 -0.131836,-0.211816 -0.04746,-0.1292 -0.04746,-0.299707 0,-0.161719 0.0457,-0.28916 0.0457,-0.127442 0.131836,-0.215333 0.0835,-0.08525 0.201269,-0.130078 Q 46.712342,86 46.856482,86 q 0.105469,0 0.210059,0.02549 0.105469,0.02549 0.233789,0.08965 v 0.206543 h -0.01318 q -0.108105,-0.09053 -0.214453,-0.131836 -0.106347,-0.04131 -0.227636,-0.04131 -0.09932,0 -0.179297,0.03252 -0.0791,0.03164 -0.141504,0.09932 -0.06065,0.06592 -0.09492,0.166992 -0.0334,0.100196 -0.0334,0.232032 0,0.137988 0.03691,0.237304 0.03779,0.09932 0.09668,0.161719 0.06152,0.06504 0.143262,0.09668 0.08262,0.03076 0.174023,0.03076 0.125684,0 0.235547,-0.04307 0.109864,-0.04307 0.205664,-0.129199 h 0.0123 z m 1.247168,0.09492 h -0.174023 v -0.640723 h -0.653028 v 0.640723 h -0.174023 v -1.308691 h 0.174023 v 0.513281 h 0.653028 v -0.513281 h 0.174023 z"
     id="text16"
     style="font-size:1.8px;text-anchor:middle;fill:#9a9a9a"
     aria-label="PITCH" />
  <!-- Type labels -->
  <path
     d="m 13.889063,62.178416 h -0.467579 v 1.154004 h -0.174023 v -1.154004 h -0.467578 v -0.154687 h 1.10918 z m 1.102148,-0.154687 -0.460547,0.734765 v 0.573926 h -0.174023 v -0.555469 l -0.462305,-0.753222 h 0.19248 l 0.357715,0.585351 0.361231,-0.585351 z m 1.037109,0.395507 q 0,0.08701 -0.03076,0.161719 -0.02988,0.07383 -0.08437,0.12832 -0.06767,0.06768 -0.15996,0.101954 -0.09229,0.0334 -0.232911,0.0334 h -0.17403 v 0.487791 h -0.174024 v -1.308691 h 0.355079 q 0.117773,0 0.199511,0.02021 0.08174,0.01934 0.14502,0.06152 0.07471,0.0501 0.115137,0.124805 0.04131,0.07471 0.04131,0.188964 z m -0.181055,0.0044 q 0,-0.06768 -0.02373,-0.117773 -0.02373,-0.0501 -0.07207,-0.08174 -0.04219,-0.02725 -0.09668,-0.03867 -0.05361,-0.0123 -0.13623,-0.0123 h -0.172266 v 0.522949 h 0.146777 q 0.105469,0 0.171387,-0.01846 0.06592,-0.01934 0.107227,-0.06065 0.04131,-0.04219 0.05801,-0.08877 0.01758,-0.04658 0.01758,-0.10459 z m 1.272657,0.908784 h -0.862207 v -1.308691 h 0.862207 v 0.154687 h -0.688184 v 0.358594 h 0.688184 v 0.154687 h -0.688184 v 0.486036 h 0.688184 z"
     id="text17"
     style="font-size:1.8px;text-anchor:middle;fill:#9a9a9a"
     aria-label="TYPE" />
  <path
     d="M 44.849062,62.178416 H 44.381484 V 63.33242 H 44.20746 v -1.154004 h -0.467578 v -0.154687 h 1.10918 z m 1.102148,-0.154687 -0.460547,0.734765 V 63.33242 H 45.31664 v -0.555469 l -0.462305,-0.753222 h 0.19248 l 0.357715,0.585351 0.361231,-0.585351 z m 1.037109,0.395507 q 0,0.08701 -0.03076,0.161719 -0.02988,0.07383 -0.08438,0.12832 -0.06768,0.06768 -0.159961,0.101954 -0.09229,0.0334 -0.232911,0.0334 h -0.174019 v 0.487791 h -0.174023 v -1.308691 h 0.355078 q 0.117773,0 0.199511,0.02021 0.08174,0.01934 0.14502,0.06152 0.07471,0.0501 0.115137,0.124805 0.04131,0.07471 0.04131,0.188964 z m -0.181054,0.0044 q 0,-0.06768 -0.02373,-0.117773 -0.02373,-0.0501 -0.07207,-0.08174 -0.04219,-0.02725 -0.09668,-0.03867 -0.05361,-0.0123 -0.13623,-0.0123 h -0.172266 v 0.522949 h 0.146777 q 0.105469,0 0.171387,-0.01846 0.06592,-0.01934 0.107227,-0.06065 0.04131,-0.04219 0.05801,-0.08877 0.01758,-0.04658 0.01758,-0.10459 z m 1.272656,0.908784 h -0.862207 v -1.308691 h 0.862207 v 0.154687 h -0.688184 v 0.358594 h 0.688184 v 0.154687 h -0.688184 v 0.486036 h 0.688184 z"
     id="text18"
     style="font-size:1.8px;text-anchor:middle;fill:#9a9a9a"
     aria-label="TYPE" />
  <path
     d="m 13.889063,101.17842 h -0.467579 v 1.15401 h -0.174023 v -1.15401 h -0.467578 v -0.15469 h 1.10918 z m 1.102148,-0.15469 -0.460547,0.73477 v 0.57393 h -0.174023 v -0.55547 l -0.462305,-0.75323 h 0.19248 l 0.357715,0.58535 0.361231,-0.58535 z m 1.037109,0.39551 q 0,0.087 -0.03076,0.16172 -0.02988,0.0738 -0.08437,0.12832 -0.06767,0.0677 -0.15996,0.10195 -0.09229,0.0334 -0.232911,0.0334 h -0.17403 v 0.4878 h -0.174024 v -1.3087 h 0.355079 q 0.117773,0 0.199511,0.0202 0.08174,0.0193 0.14502,0.0615 0.07471,0.0501 0.115137,0.12481 0.04131,0.0747 0.04131,0.18896 z m -0.181055,0.004 q 0,-0.0677 -0.02373,-0.11778 -0.02373,-0.0501 -0.07207,-0.0817 -0.04219,-0.0272 -0.09668,-0.0387 -0.05361,-0.0123 -0.13623,-0.0123 h -0.172266 v 0.52296 h 0.146777 q 0.105469,0 0.171387,-0.0185 0.06592,-0.0193 0.107227,-0.0606 0.04131,-0.0422 0.05801,-0.0888 0.01758,-0.0466 0.01758,-0.10459 z m 1.272657,0.90879 h -0.862207 v -1.3087 h 0.862207 v 0.15509 h -0.688184 v 0.35859 h 0.688184 v 0.15469 h -0.688184 v 0.48604 h 0.688184 z"
     id="text19"
     style="font-size:1.8px;text-anchor:middle;fill:#9a9a9a"
     aria-label="TYPE" />
  <path
     d="m 44.849062,101.17842 h -0.467578 v 1.154 H 44.20746 v -1.154 h -0.467578 v -0.15469 h 1.10918 z m 1.102148,-0.15469 -0.460547,0.73476 v 0.57393 H 45.31664 v -0.55547 l -0.462305,-0.75322 h 0.19248 l 0.357715,0.58535 0.361231,-0.58535 z m 1.037109,0.39551 q 0,0.087 -0.03076,0.16171 -0.02988,0.0738 -0.08438,0.12832 -0.06768,0.0677 -0.159961,0.10196 -0.09229,0.0334 -0.232911,0.0334 h -0.174019 v 0.48779 h -0.174023 v -1.30869 h 0.355078 q 0.117773,0 0.199511,0.0202 0.08174,0.0193 0.14502,0.0615 0.07471,0.0501 0.115137,0.1248 0.04131,0.0747 0.04131,0.18897 z m -0.181054,0.004 q 0,-0.0677 -0.02373,-0.11778 -0.02373,-0.0501 -0.07207,-0.0817 -0.04219,-0.0272 -0.09668,-0.0387 -0.05361,-0.0123 -0.13623,-0.0123 h -0.172266 v 0.52295 h 0.146777 q 0.105469,0 0.171387,-0.0185 0.06592,-0.0193 0.107227,-0.0606 0.04131,-0.0422 0.05801,-0.0888 0.01758,-0.0466 0.01758,-0.10459 z m 1.272656,0.90878 h -0.862207 v -1.30869 h 0.862207 v 0.15469 h -0.688184 v 0.35859 h 0.688184 v 0.15469 h -0.688184 v 0.48603 h 0.688184 z"
     id="text20"
     style="font-size:1.8px;text-anchor:middle;fill:#9a9a9a"
     aria-label="TYPE" />
  <!-- EG labels (vertical, center) -->
  <path
     d="M 31.138203,63.29167 H 30.932148 L 30.78957,62.886397 h -0.628906 l -0.142579,0.405273 h -0.196289 l 0.529297,-1.454102 h 0.257813 z M 30.73,62.720381 l -0.254883,-0.713867 -0.25586,0.713867 z"
     id="text21"
     style="font-size:2px;text-anchor:middle;fill:#bdbdbd"
     aria-label="A" />
  <path
     d="m 29.983906,77.566084 q 0,0.198242 -0.08691,0.359375 -0.08594,0.161133 -0.229492,0.25 -0.09961,0.06152 -0.222657,0.08887 -0.122074,0.02734 -0.322269,0.02734 H 28.75539 v -1.454102 h 0.363281 q 0.212891,0 0.337891,0.03125 0.125977,0.03027 0.212891,0.08399 0.148437,0.09277 0.231445,0.24707 0.08301,0.154297 0.08301,0.366211 z m -0.202149,-0.0029 q 0,-0.170898 -0.05957,-0.288086 -0.05957,-0.117187 -0.177734,-0.18457 -0.08594,-0.04883 -0.182618,-0.06738 -0.09668,-0.01953 -0.231445,-0.01953 h -0.18164 v 1.12207 h 0.18164 q 0.139649,0 0.243164,-0.02051 0.104492,-0.02051 0.191406,-0.07617 0.108399,-0.06934 0.16211,-0.182618 0.05469,-0.113281 0.05469,-0.283203 z m 1.15918,-0.791015 -0.700195,1.816406 h -0.168946 l 0.697266,-1.816406 z m 1.466797,1.519501 h -0.250977 l -0.486328,-0.578125 h -0.272461 v 0.578125 h -0.193359 v -1.454102 h 0.407226 q 0.131836,0 0.219727,0.01758 0.08789,0.0166 0.158203,0.06055 0.0791,0.04981 0.123047,0.125977 0.04492,0.07519 0.04492,0.191406 0,0.157227 -0.0791,0.263672 -0.0791,0.105469 -0.217773,0.15918 z m -0.452149,-1.044922 q 0,-0.0625 -0.02246,-0.110351 -0.02149,-0.04883 -0.07227,-0.08203 -0.04199,-0.02832 -0.09961,-0.03906 -0.05762,-0.01172 -0.135743,-0.01172 h -0.227539 v 0.548828 h 0.195313 q 0.0918,0 0.160156,-0.01563 0.06836,-0.0166 0.116211,-0.06055 0.04394,-0.04101 0.06445,-0.09375 0.02148,-0.05371 0.02148,-0.135742 z"
     id="text22"
     style="font-size:2px;text-anchor:middle;fill:#bdbdbd"
     aria-label="D/R" />
  <path
     d="m 31.048359,92.876631 q 0,0.08496 -0.04004,0.167969 -0.03906,0.08301 -0.110352,0.140625 -0.07813,0.0625 -0.182617,0.09766 -0.103516,0.03516 -0.25,0.03516 -0.157226,0 -0.283203,-0.0293 -0.125,-0.0293 -0.254883,-0.08691 v -0.242187 h 0.01367 q 0.110352,0.0918 0.254883,0.141601 0.144531,0.04981 0.271484,0.04981 0.179688,0 0.279297,-0.06738 0.100586,-0.06738 0.100586,-0.179687 0,-0.09668 -0.04785,-0.142578 -0.04687,-0.0459 -0.143554,-0.07129 -0.07324,-0.01953 -0.15918,-0.03223 -0.08496,-0.0127 -0.180664,-0.03223 -0.193359,-0.04102 -0.287109,-0.139648 -0.09277,-0.09961 -0.09277,-0.258789 0,-0.182617 0.154297,-0.298828 0.154297,-0.117188 0.391602,-0.117188 0.15332,0 0.28125,0.0293 0.127929,0.0293 0.226562,0.07227 v 0.228515 h -0.01367 q -0.08301,-0.07031 -0.21875,-0.116211 -0.134765,-0.04687 -0.276367,-0.04687 -0.155273,0 -0.25,0.06445 -0.09375,0.06445 -0.09375,0.166015 0,0.09082 0.04687,0.142578 0.04687,0.05176 0.165039,0.0791 0.0625,0.01367 0.177735,0.0332 0.115234,0.01953 0.195312,0.04004 0.162109,0.04297 0.244141,0.129883 0.08203,0.08691 0.08203,0.243164 z"
     id="text23"
     style="font-size:2px;text-anchor:middle;fill:#bdbdbd"
     aria-label="S" />
  <!-- Output label -->
  <!-- Brand -->
  <path
     d="m 2.3919139,8.6425505 q 0,0.6083984 -0.3486328,0.9672851 -0.3486328,0.3571778 -0.9638672,0.3571778 -0.6135254,0 -0.96215821,-0.3571778 -0.34863281,-0.3588867 -0.34863281,-0.9672851 0,-0.6135254 0.34863281,-0.9689942 0.34863281,-0.3571777 0.96215821,-0.3571777 0.6118164,0 0.9621582,0.3571777 0.3503418,0.3554688 0.3503418,0.9689942 z M 1.5220408,9.2868376 q 0.095703,-0.116211 0.1418457,-0.2734375 0.046143,-0.1589356 0.046143,-0.3725586 0,-0.2290039 -0.052979,-0.3896485 Q 1.6040721,8.0905485 1.5186229,7.9914274 1.4314647,7.8888884 1.3169627,7.8427458 1.2041698,7.7966032 1.0811229,7.7966032 q -0.12475588,0 -0.23583987,0.044434 -0.109375,0.044434 -0.20166015,0.1469727 -0.0854492,0.095703 -0.14013672,0.2648925 -0.0529785,0.1674805 -0.0529785,0.3896485 0,0.2272949 0.0512695,0.3879394 0.0529785,0.1589356 0.13842774,0.2597656 0.0854492,0.1008301 0.19995117,0.1486817 0.11450195,0.047852 0.24096682,0.047852 0.1264648,0 0.2409668,-0.047852 0.1145019,-0.049561 0.1999511,-0.1520996 z M 5.5603709,9.9140348 H 4.9075389 V 8.2101774 L 4.4358592,9.3158903 H 3.9829783 L 3.5112987,8.2101774 V 9.9140348 H 2.8926463 V 7.3693571 h 0.762207 L 4.2273631,8.6459684 4.7981639,7.3693571 h 0.762207 z m 2.9633789,0 H 7.8914256 L 6.8113475,8.1674528 v 1.746582 H 6.209785 V 7.3693571 H 6.9942088 L 7.9221873,8.8271208 V 7.3693571 h 0.6015625 z m 2.0251462,0 H 9.0586619 V 9.462863 H 9.4756541 V 7.820529 H 9.0586619 V 7.3693571 H 10.548896 V 7.820529 h -0.416992 v 1.642334 h 0.416992 z m 2.886475,0 H 12.756904 L 12.580879,9.3996305 h -0.94336 L 11.461494,9.9140348 H 10.800117 L 11.740058,7.3693571 H 12.49543 Z M 12.421943,8.9330778 12.109199,8.0204802 11.796455,8.9330778 Z"
     id="text25"
     style="font-weight:bold;font-size:3.5px;text-anchor:middle;fill:#fafafa"
     transform="rotate(-20.532072)"
     aria-label="OMNIA" />
</svg>
