<?xml version="1.0" encoding="UTF-8" standalone="no"?>
<svg
   width="30.48mm"
   height="128.5mm"
   viewBox="0 0 30.48 128.5"
   version="1.1"
   id="svg1"
   sodipodi:docname="MidiClockSync.svg"
   inkscape:version="1.4.3 (0d15f75, 2025-12-25)"
   xmlns:inkscape="http://www.inkscape.org/namespaces/inkscape"
   xmlns:sodipodi="http://sodipodi.sourceforge.net/DTD/sodipodi-0.dtd"
   xmlns="http://www.w3.org/2000/svg"
   xmlns:svg="http://www.w3.org/2000/svg">
  <sodipodi:namedview
     id="namedview1"
     pagecolor="#ffffff"
     bordercolor="#000000"
     borderopacity="0.25"
     inkscape:showpageshadow="2"
     inkscape:pageopacity="0.0"
     inkscape:pagecheckerboard="0"
     inkscape:deskcolor="#d1d1d1"
     inkscape:document-units="mm"
     inkscape:zoom="1.5998541"
     inkscape:cx="57.505244"
     inkscape:cy="242.83464"
     inkscape:window-width="1920"
     inkscape:window-height="991"
     inkscape:window-x="-9"
     inkscape:window-y="-9"
     inkscape:window-maximized="1"
     inkscape:current-layer="svg1" />
  <defs
     id="defs1" />
  <!-- Panel background -->
  <rect
     width="30.48"
     height="128.5"
     fill="#1a237e"
     id="rect1" />
  <!-- Title: MIDI Clock Sync -->
  <path
     d="m 5.5790845,11.193847 q 0,0.378961 -0.3221166,0.616673 -0.3203941,0.235989 -0.8716097,0.235989 -0.3186716,0 -0.5563833,-0.05512 -0.2359892,-0.05684 -0.4426951,-0.142971 v -0.61495 h 0.072347 q 0.2049833,0.163642 0.458198,0.251492 0.2549372,0.08785 0.4892038,0.08785 0.060289,0 0.1584745,-0.01033 0.098185,-0.01034 0.1601971,-0.03445 0.075792,-0.03101 0.1240235,-0.07752 0.049954,-0.04651 0.049954,-0.137804 0,-0.08441 -0.072347,-0.144694 -0.070625,-0.06201 -0.2084284,-0.09474 -0.1446941,-0.03445 -0.3066137,-0.06373 -0.1601971,-0.03101 -0.3014461,-0.07751 -0.3238392,-0.105076 -0.4668107,-0.284221 -0.141249,-0.180867 -0.141249,-0.447863 0,-0.3582897 0.320394,-0.5839436 0.3221167,-0.2273765 0.8268235,-0.2273765 0.2532147,0 0.4995392,0.049954 0.248047,0.048231 0.4289146,0.1223009 V 10.151705 H 5.4068296 Q 5.2518002,10.027682 5.0261463,9.9449992 4.802215,9.8605943 4.5679483,9.8605943 q -0.082682,0 -0.1653647,0.012058 -0.08096,0.010335 -0.1567519,0.041341 -0.067179,0.025838 -0.1154108,0.079237 -0.048231,0.051676 -0.048231,0.1188554 0,0.101631 0.077515,0.156752 0.077515,0.0534 0.2928333,0.09819 0.141249,0.02928 0.2704401,0.05684 0.1309137,0.02756 0.2807755,0.07579 0.2945559,0.09646 0.4340823,0.26355 0.141249,0.165365 0.141249,0.430637 z M 6.6177814,12 H 5.9976639 V 10.065578 H 6.6177814 Z M 6.6350069,9.7899698 H 5.9804384 V 9.319714 H 6.6350069 Z M 9.0948068,10.628851 V 12 H 8.4712441 v -0.96635 q 0,-0.141249 -0.00689,-0.239434 -0.00689,-0.09991 -0.037896,-0.16192 -0.031006,-0.06201 -0.09474,-0.08957 -0.062012,-0.02928 -0.1757,-0.02928 -0.091295,0 -0.1774225,0.0379 -0.086127,0.03617 -0.1550294,0.07752 V 12 H 7.2034482 v -1.934422 h 0.6201176 v 0.213596 q 0.160197,-0.125746 0.3066137,-0.196371 0.1464166,-0.07062 0.3238391,-0.07062 0.191203,0 0.3376196,0.08613 0.1464167,0.08441 0.229099,0.24977 0.1860353,-0.156752 0.3617353,-0.246325 0.1757,-0.08957 0.3445098,-0.08957 0.3135037,0 0.4754237,0.187757 0.163642,0.187758 0.163642,0.540881 V 12 H 9.7424852 v -0.96635 q 0,-0.142971 -0.00689,-0.241157 -0.00517,-0.09819 -0.036174,-0.160197 -0.029283,-0.06201 -0.093018,-0.08957 -0.063734,-0.02928 -0.179145,-0.02928 -0.077515,0 -0.1515843,0.02756 -0.07407,0.02584 -0.1808677,0.08785 z m 3.8602322,0.377238 q 0,0.239435 -0.07407,0.435805 -0.07235,0.196371 -0.191203,0.323839 -0.124023,0.134359 -0.280775,0.203261 -0.156752,0.0689 -0.335897,0.0689 -0.165365,0 -0.280776,-0.03617 -0.115411,-0.03445 -0.235989,-0.09819 v 0.806153 h -0.620118 v -2.644112 h 0.620118 v 0.201538 q 0.142972,-0.113688 0.291111,-0.184313 0.149862,-0.07062 0.34451,-0.07062 0.361735,0 0.561551,0.265272 0.201538,0.265273 0.201538,0.728638 z m -0.639066,0.01206 q 0,-0.282498 -0.09646,-0.409966 -0.09646,-0.127469 -0.304891,-0.127469 -0.08785,0 -0.180867,0.02756 -0.09302,0.02584 -0.177423,0.07579 v 0.97324 q 0.06201,0.02412 0.132636,0.03101 0.07062,0.0069 0.139527,0.0069 0.246324,0 0.366903,-0.142972 0.120578,-0.144694 0.120578,-0.434082 z M 14.023019,12 H 13.402901 V 9.319714 h 0.620118 z m 2.490806,-0.852662 h -1.41938 q 0.01378,0.227377 0.172255,0.347955 0.160197,0.120579 0.470255,0.120579 0.196371,0 0.380684,-0.07062 0.184312,-0.07062 0.29111,-0.151584 h 0.0689 v 0.497816 q -0.210151,0.08441 -0.396186,0.122301 -0.186035,0.0379 -0.411689,0.0379 -0.582222,0 -0.89228,-0.261827 -0.310059,-0.261827 -0.310059,-0.745864 0,-0.478868 0.292833,-0.757921 0.294556,-0.280776 0.806153,-0.280776 0.471978,0 0.70969,0.239435 0.237712,0.237711 0.237712,0.685574 z m -0.616673,-0.363457 q -0.0052,-0.194649 -0.09646,-0.292834 -0.09129,-0.09819 -0.284221,-0.09819 -0.179145,0 -0.294556,0.09302 -0.115411,0.09302 -0.129191,0.298001 z m 2.247927,1.266073 q -0.285943,0 -0.528823,-0.08441 -0.241157,-0.0844 -0.415134,-0.251492 -0.173977,-0.167087 -0.27044,-0.416857 -0.09474,-0.24977 -0.09474,-0.577054 0,-0.304891 0.0913,-0.552938 0.09129,-0.248047 0.265272,-0.4254695 0.167088,-0.1705324 0.413412,-0.26355 0.248047,-0.093018 0.54088,-0.093018 0.16192,0 0.291111,0.018948 0.130914,0.017226 0.241157,0.046509 0.115411,0.032728 0.208428,0.07407 0.09474,0.039619 0.165365,0.07407 v 0.6218401 h -0.07579 q -0.04823,-0.04134 -0.122301,-0.09818 -0.07235,-0.05684 -0.165365,-0.111966 -0.09474,-0.055122 -0.204983,-0.093018 -0.110243,-0.037896 -0.235989,-0.037896 -0.139527,0 -0.265273,0.044786 -0.125746,0.043064 -0.232544,0.1446944 -0.10163,0.09819 -0.165365,0.260105 -0.06201,0.161919 -0.06201,0.392741 0,0.241157 0.06718,0.403076 0.0689,0.16192 0.172255,0.254937 0.105075,0.09474 0.234267,0.136082 0.129191,0.03962 0.254937,0.03962 0.120578,0 0.237712,-0.03617 0.118855,-0.03617 0.218763,-0.09818 0.08441,-0.04995 0.156752,-0.106798 0.07235,-0.05684 0.118856,-0.09819 h 0.0689 v 0.613228 q -0.09646,0.04306 -0.184313,0.08096 -0.08785,0.0379 -0.184312,0.06546 -0.125746,0.03617 -0.23599,0.05512 -0.110243,0.01895 -0.303168,0.01895 z M 20.124286,12 H 19.504169 V 9.319714 h 0.620117 z m 2.563153,-0.96635 q 0,0.477146 -0.279053,0.752754 -0.27733,0.273885 -0.780315,0.273885 -0.502984,0 -0.782037,-0.273885 -0.27733,-0.275608 -0.27733,-0.752754 0,-0.480591 0.279053,-0.754476 0.280775,-0.273886 0.780314,-0.273886 0.50643,0 0.782037,0.275608 0.277331,0.275608 0.277331,0.752754 z m -0.763089,0.470256 q 0.06029,-0.07407 0.08957,-0.177423 0.03101,-0.105075 0.03101,-0.289388 0,-0.170532 -0.03101,-0.285943 -0.03101,-0.115411 -0.08613,-0.184313 -0.05512,-0.07062 -0.132637,-0.09991 -0.07751,-0.02928 -0.167087,-0.02928 -0.08957,0 -0.160197,0.02412 -0.0689,0.02412 -0.132636,0.09646 -0.05684,0.06718 -0.09129,0.184312 -0.03273,0.117134 -0.03273,0.294556 0,0.158475 0.02928,0.275608 0.02928,0.115411 0.08613,0.186035 0.05512,0.06718 0.130914,0.09819 0.07751,0.03101 0.1757,0.03101 0.08441,0 0.160197,-0.02756 0.07752,-0.02928 0.130914,-0.09646 z m 2.215197,0.54777 q -0.253214,0 -0.463365,-0.06029 -0.208429,-0.06029 -0.363458,-0.186035 -0.153307,-0.125746 -0.237712,-0.316949 -0.08441,-0.191203 -0.08441,-0.447863 0,-0.27044 0.08957,-0.46681 0.0913,-0.196371 0.253215,-0.325562 0.156751,-0.122301 0.361735,-0.179145 0.204983,-0.05684 0.425469,-0.05684 0.198093,0 0.365181,0.04306 0.167087,0.04306 0.311781,0.111966 v 0.528823 h -0.08785 q -0.03617,-0.03101 -0.08785,-0.07235 -0.04995,-0.04134 -0.124023,-0.08096 -0.07063,-0.0379 -0.15503,-0.06201 -0.08441,-0.02584 -0.19637,-0.02584 -0.248047,0 -0.382406,0.158474 -0.132637,0.156752 -0.132637,0.427192 0,0.279053 0.136082,0.423747 0.137804,0.144694 0.389296,0.144694 0.117133,0 0.210151,-0.02584 0.09474,-0.02756 0.156752,-0.06373 0.05857,-0.03445 0.103353,-0.07235 0.04479,-0.0379 0.08268,-0.07407 h 0.08785 v 0.528823 q -0.146417,0.0689 -0.306614,0.10852 -0.158474,0.04134 -0.3514,0.04134 z M 27.260807,12 h -0.721748 l -0.542603,-0.842326 -0.16881,0.204983 V 12 H 25.207528 V 9.319714 h 0.620118 v 1.600248 l 0.668349,-0.854384 h 0.714858 l -0.69591,0.833713 z"
     id="text-title"
     style="font-weight:bold;font-size:3.52778px;text-anchor:middle;fill:#ffffff"
     aria-label="SimpleClock" />
  <!-- Sync In label (left side) -->
  <path
     d="m 6.2329102,26.747118 q 0,0.106201 -0.050049,0.209961 -0.048828,0.10376 -0.1379394,0.175781 -0.097656,0.07813 -0.2282715,0.12207 -0.1293945,0.04395 -0.3125,0.04395 -0.1965332,0 -0.3540039,-0.03662 -0.15625,-0.03662 -0.3186035,-0.108643 v -0.302734 h 0.01709 q 0.1379395,0.114746 0.3186035,0.177002 0.1806641,0.06226 0.3393555,0.06226 0.2246094,0 0.3491211,-0.08423 0.1257324,-0.08423 0.1257324,-0.224609 0,-0.12085 -0.059814,-0.178223 -0.058594,-0.05737 -0.1794434,-0.08911 -0.091553,-0.02441 -0.1989746,-0.04028 -0.1062012,-0.01587 -0.2258301,-0.04028 -0.2416992,-0.05127 -0.3588867,-0.17456 -0.1159668,-0.124512 -0.1159668,-0.323487 0,-0.228271 0.1928711,-0.373535 0.1928711,-0.146484 0.4895019,-0.146484 0.1916504,0 0.3515625,0.03662 0.1599122,0.03662 0.2832032,0.09033 v 0.285645 h -0.01709 q -0.1037597,-0.08789 -0.2734375,-0.145264 -0.168457,-0.05859 -0.345459,-0.05859 -0.1940918,0 -0.3125,0.08057 -0.1171875,0.08057 -0.1171875,0.207519 0,0.113525 0.058594,0.178223 0.058594,0.0647 0.2062988,0.09888 0.078125,0.01709 0.222168,0.0415 0.144043,0.02441 0.2441406,0.05005 0.2026367,0.05371 0.3051758,0.162354 0.1025391,0.108642 0.1025391,0.303955 z M 7.9077148,25.44829 7.2680664,26.468798 v 0.797119 H 7.0263672 V 26.494432 L 6.3842773,25.44829 h 0.267334 l 0.4968262,0.812988 0.501709,-0.812988 z m 1.6381836,1.817627 H 9.2468262 L 8.3850098,25.63994 v 1.625977 H 8.1591797 V 25.44829 h 0.3747558 l 0.7861329,1.484375 V 25.44829 h 0.22583 z m 1.8872066,-0.131836 q -0.06714,0.0293 -0.12207,0.05493 -0.05371,0.02563 -0.141601,0.05371 -0.07446,0.02319 -0.162354,0.03906 -0.08667,0.01709 -0.19165,0.01709 -0.197754,0 -0.360108,-0.05493 -0.161133,-0.05615 -0.280761,-0.17456 -0.117188,-0.115967 -0.1831059,-0.29419 -0.065918,-0.179443 -0.065918,-0.41626 0,-0.224609 0.063477,-0.401611 0.063476,-0.177002 0.1831053,-0.299072 0.115967,-0.118408 0.279541,-0.180664 0.164795,-0.06226 0.36499,-0.06226 0.146485,0 0.291748,0.0354 0.146485,0.0354 0.324707,0.124512 v 0.286865 h -0.01831 q -0.150147,-0.125732 -0.297852,-0.183105 -0.147705,-0.05737 -0.316162,-0.05737 -0.137939,0 -0.249023,0.04517 -0.109863,0.04394 -0.196533,0.137939 -0.08423,0.09155 -0.131836,0.231934 -0.04639,0.13916 -0.04639,0.322265 0,0.191651 0.05127,0.32959 0.05249,0.13794 0.134278,0.22461 0.08545,0.09033 0.198974,0.134277 0.114747,0.04273 0.2417,0.04273 0.17456,0 0.327148,-0.05982 0.152588,-0.05981 0.285645,-0.179443 h 0.01709 z m 1.861573,0.131836 H 12.576904 V 27.08037 h 0.238037 V 25.633837 H 12.576904 V 25.44829 h 0.717774 v 0.185547 h -0.238037 v 1.446533 h 0.238037 z m 1.798095,0 H 14.793701 L 13.931885,25.63994 v 1.625977 h -0.22583 V 25.44829 h 0.374756 l 0.786132,1.484375 V 25.44829 h 0.22583 z"
     id="text1"
     style="font-size:2.5px;text-anchor:middle;fill:#ffffff"
     aria-label="SYNC IN" />
  <!-- BPM label (right side) -->
  <path
     d="m 20.050805,27.265916 q 0,0.135498 -0.05127,0.239258 -0.05127,0.10376 -0.13794,0.170898 -0.102539,0.08057 -0.22583,0.114746 -0.122069,0.03418 -0.311278,0.03418 h -0.644531 v -1.817627 h 0.53833 q 0.198975,0 0.297851,0.01465 0.09888,0.01465 0.189209,0.06104 0.100098,0.05249 0.145264,0.135498 0.04517,0.08179 0.04517,0.196533 0,0.129394 -0.06592,0.220947 -0.06592,0.09033 -0.175781,0.145264 v 0.0098 q 0.184326,0.03784 0.290527,0.162354 0.106201,0.123291 0.106201,0.3125 z m -0.406494,-0.819092 q 0,-0.06592 -0.02197,-0.111084 -0.02197,-0.04517 -0.0708,-0.07324 -0.05737,-0.03296 -0.13916,-0.04028 -0.08179,-0.0085 -0.202637,-0.0085 h -0.288086 v 0.524902 h 0.3125 q 0.113525,0 0.180664,-0.01099 0.06714,-0.01221 0.124512,-0.04883 0.05737,-0.03662 0.08057,-0.09399 0.02441,-0.05859 0.02441,-0.13794 z m 0.15503,0.828858 q 0,-0.109864 -0.03296,-0.174561 -0.03296,-0.0647 -0.119629,-0.109863 -0.05859,-0.03052 -0.142823,-0.03906 -0.08301,-0.0098 -0.202636,-0.0098 h -0.379639 v 0.676269 h 0.319824 q 0.158692,0 0.26001,-0.01587 0.101318,-0.01709 0.166016,-0.06104 0.06836,-0.04761 0.100097,-0.108643 0.03174,-0.06104 0.03174,-0.15747 z m 1.783447,-0.718995 q 0,0.12085 -0.04272,0.22461 -0.0415,0.102539 -0.117187,0.178222 -0.09399,0.09399 -0.222168,0.141602 -0.128174,0.04639 -0.323487,0.04639 h -0.241704 v 0.677487 h -0.241699 v -1.817627 h 0.493164 q 0.163574,0 0.2771,0.02808 0.113525,0.02686 0.201416,0.08545 0.103759,0.06958 0.159912,0.17334 0.05737,0.10376 0.05737,0.262451 z m -0.251465,0.0061 q 0,-0.09399 -0.03296,-0.163574 -0.03296,-0.06958 -0.100098,-0.113526 -0.05859,-0.03784 -0.134277,-0.05371 -0.07446,-0.01709 -0.189209,-0.01709 h -0.239258 v 0.726318 h 0.203858 q 0.146484,0 0.238037,-0.02564 0.09155,-0.02685 0.148926,-0.08423 0.05737,-0.05859 0.08057,-0.123291 0.02441,-0.0647 0.02441,-0.145264 z m 2.188721,1.262211 h -0.2417 V 26.258836 L 22.772973,27.32451 H 22.62893 l -0.501709,-1.065674 v 1.566162 h -0.22583 v -1.817627 h 0.32959 l 0.484619,1.011963 0.46875,-1.011963 h 0.335694 z"
     id="text-bpm"
     style="font-size:2.5px;font-family:sans-serif;text-anchor:middle;fill:#ffffff"
     aria-label="BPM" />
  <!-- Trigger Division label -->
  <path
     d="m 12.086924,47.447183 q 0,0.247802 -0.108643,0.449218 -0.107422,0.201416 -0.286865,0.3125 -0.124512,0.0769 -0.278321,0.111084 -0.152587,0.03418 -0.402832,0.03418 h -0.458984 v -1.817627 h 0.454102 q 0.266113,0 0.422363,0.03906 0.157471,0.03784 0.266113,0.10498 0.185547,0.115967 0.289307,0.308838 0.10376,0.192871 0.10376,0.457764 z m -0.252686,-0.0037 q 0,-0.213623 -0.07446,-0.360107 -0.07446,-0.146484 -0.222168,-0.230713 -0.107422,-0.06103 -0.228271,-0.08423 -0.12085,-0.02441 -0.289307,-0.02441 h -0.227051 v 1.402587 h 0.227051 q 0.174561,0 0.303955,-0.02563 0.130615,-0.02564 0.239258,-0.09522 0.135498,-0.08667 0.202637,-0.228272 0.06836,-0.141601 0.06836,-0.354004 z m 0.871582,-0.681115 h -0.258789 v -0.238037 h 0.258789 z m -0.01465,1.591797 H 12.461677 V 46.99064 h 0.229493 z m 1.6333,-1.363525 -0.551757,1.363525 H 13.542 L 12.993904,46.99064 h 0.249023 l 0.422364,1.085205 0.418701,-1.085205 z m 0.546875,-0.228272 h -0.258789 v -0.238037 h 0.258789 z m -0.01465,1.591797 H 14.627203 V 46.99064 h 0.229492 z m 1.428223,-0.393066 q 0,0.186767 -0.15503,0.306396 -0.153808,0.119629 -0.421142,0.119629 -0.151367,0 -0.278321,-0.0354 -0.125732,-0.03662 -0.211181,-0.07935 v -0.257568 h 0.01221 q 0.108642,0.08179 0.241699,0.130615 0.133057,0.04761 0.255127,0.04761 0.151367,0 0.236816,-0.04883 0.08545,-0.04883 0.08545,-0.153809 0,-0.08057 -0.04639,-0.12207 -0.04639,-0.0415 -0.178223,-0.0708 -0.04883,-0.01099 -0.128174,-0.02563 -0.07813,-0.01465 -0.142822,-0.03174 -0.179443,-0.04761 -0.255127,-0.13916 -0.07446,-0.09277 -0.07446,-0.227051 0,-0.08423 0.03418,-0.158691 0.0354,-0.07446 0.106201,-0.133057 0.06836,-0.05737 0.17334,-0.09033 0.106201,-0.03418 0.236816,-0.03418 0.122071,0 0.246582,0.03052 0.125733,0.0293 0.208741,0.07202 v 0.245361 H 16.219 q -0.08789,-0.0647 -0.213623,-0.108643 -0.125733,-0.04517 -0.246582,-0.04517 -0.125733,0 -0.212403,0.04883 -0.08667,0.04761 -0.08667,0.142822 0,0.08423 0.05249,0.126953 0.05127,0.04272 0.166015,0.06958 0.06348,0.01465 0.141602,0.0293 0.07935,0.01465 0.131836,0.02685 0.159912,0.03662 0.246582,0.125733 0.08667,0.09033 0.08667,0.239258 z m 0.574951,-1.198731 H 16.60108 v -0.238037 h 0.258789 z m -0.01465,1.591797 H 16.615727 V 46.99064 h 0.229492 z m 1.616211,-0.681152 q 0,0.333252 -0.170898,0.526123 -0.170899,0.192871 -0.457764,0.192871 -0.289306,0 -0.460205,-0.192871 -0.169678,-0.192871 -0.169678,-0.526123 0,-0.333252 0.169678,-0.526123 0.170899,-0.194092 0.460205,-0.194092 0.286865,0 0.457764,0.194092 0.170898,0.192871 0.170898,0.526123 z m -0.236816,0 q 0,-0.264893 -0.10376,-0.393067 -0.10376,-0.129394 -0.288086,-0.129394 -0.186767,0 -0.290527,0.129394 -0.102539,0.128174 -0.102539,0.393067 0,0.256347 0.10376,0.389404 0.103759,0.131836 0.289306,0.131836 0.183106,0 0.286865,-0.130615 0.104981,-0.131836 0.104981,-0.390625 z m 1.732178,0.681152 h -0.229493 v -0.776367 q 0,-0.09399 -0.01099,-0.175781 -0.01099,-0.08301 -0.04028,-0.129395 -0.03052,-0.05127 -0.08789,-0.07568 -0.05737,-0.02563 -0.148925,-0.02563 -0.09399,0 -0.196534,0.04639 -0.102539,0.04639 -0.196533,0.118409 v 1.018054 H 18.81666 V 46.99064 h 0.229492 v 0.151367 q 0.107422,-0.08911 0.222168,-0.13916 0.114746,-0.05005 0.235596,-0.05005 0.220947,0 0.336914,0.133056 0.115967,0.133057 0.115967,0.383301 z"
     id="text-division"
     style="font-size:2.5px;font-family:sans-serif;text-anchor:middle;fill:#ffffff"
     aria-label="Division" />
  <!-- Triplet label -->
  <path
     d="M 12.89686,62.397217 H 12.247446 V 64 h -0.241699 v -1.602783 h -0.649414 v -0.214844 h 1.540527 z m 0.83252,0.489502 h -0.01221 q -0.05127,-0.01221 -0.100098,-0.01709 -0.04761,-0.0061 -0.113525,-0.0061 -0.106202,0 -0.205079,0.04761 -0.09888,0.04639 -0.190429,0.120849 V 64 H 12.87855 v -1.363525 h 0.229492 v 0.201416 q 0.136719,-0.109864 0.240478,-0.15503 0.104981,-0.04639 0.213623,-0.04639 0.05981,0 0.08667,0.0037 0.02686,0.0024 0.08057,0.01099 z m 0.462646,-0.478516 h -0.258789 v -0.238037 h 0.258789 z M 14.177378,64 h -0.229492 v -1.363525 h 0.229492 z m 1.654052,-0.698242 q 0,0.166015 -0.04761,0.303955 -0.04761,0.136719 -0.134277,0.231933 -0.08057,0.09033 -0.19043,0.140381 -0.108643,0.04883 -0.230713,0.04883 -0.106201,0 -0.192871,-0.02319 -0.08545,-0.02319 -0.174561,-0.07202 v 0.571289 h -0.229492 v -1.866455 h 0.229492 v 0.142822 q 0.09155,-0.0769 0.205079,-0.128174 0.114746,-0.05249 0.24414,-0.05249 0.246582,0 0.383301,0.186767 0.137939,0.185547 0.137939,0.516358 z m -0.236816,0.0061 q 0,-0.246582 -0.08423,-0.368652 -0.08423,-0.12207 -0.25879,-0.12207 -0.09888,0 -0.198974,0.04272 -0.100098,0.04273 -0.191651,0.112305 v 0.772705 q 0.09766,0.04395 0.167237,0.05981 0.0708,0.01587 0.159912,0.01587 0.19165,0 0.299072,-0.129395 0.107422,-0.129394 0.107422,-0.383301 z M 16.42103,64 h -0.229492 v -1.899414 h 0.229492 z m 1.595459,-0.657959 H 17.01185 q 0,0.125732 0.03784,0.219727 0.03784,0.09277 0.10376,0.152587 0.06348,0.05859 0.150146,0.08789 0.08789,0.0293 0.192871,0.0293 0.139161,0 0.279542,-0.05493 0.141601,-0.05615 0.201416,-0.109863 h 0.01221 v 0.250244 q -0.115967,0.04883 -0.236817,0.08179 -0.120849,0.03296 -0.253906,0.03296 -0.339356,0 -0.529785,-0.183105 -0.19043,-0.184326 -0.19043,-0.522461 0,-0.334473 0.181885,-0.531006 0.183105,-0.196533 0.480957,-0.196533 0.275879,0 0.424805,0.161133 0.150146,0.161132 0.150146,0.457763 z M 17.7931,63.16626 q -0.0012,-0.180664 -0.09155,-0.279541 -0.08911,-0.09888 -0.272217,-0.09888 -0.184326,0 -0.29419,0.108642 -0.108642,0.108643 -0.123291,0.269776 z m 1.279297,0.821533 q -0.0647,0.01709 -0.141601,0.02808 -0.07568,0.01099 -0.135498,0.01099 -0.208741,0 -0.317383,-0.112304 -0.108643,-0.112305 -0.108643,-0.360108 v -0.725097 h -0.155029 v -0.192871 h 0.155029 v -0.391846 h 0.229492 v 0.391846 h 0.473633 v 0.192871 h -0.473633 v 0.621338 q 0,0.107421 0.0049,0.168457 0.0049,0.05981 0.03418,0.112304 0.02685,0.04883 0.07324,0.07202 0.04761,0.02197 0.144043,0.02197 0.05615,0 0.117188,-0.01587 0.06104,-0.01709 0.08789,-0.02808 h 0.01221 z"
     id="text-triplet"
     style="font-size:2.5px;font-family:sans-serif;text-anchor:middle;fill:#ffffff"
     aria-label="Triplet" />
  <!-- Reset label -->
  <path
     d="m 13.516367,73.470833 h -0.313721 l -0.60791,-0.722656 H 12.25416 v 0.722656 h -0.241699 v -1.817627 h 0.509033 q 0.164795,0 0.274658,0.02197 0.109863,0.02075 0.197754,0.07568 0.09888,0.06226 0.153809,0.157471 0.05615,0.09399 0.05615,0.239258 0,0.196533 -0.09888,0.32959 -0.09888,0.131836 -0.272217,0.198974 z m -0.565186,-1.306152 q 0,-0.07813 -0.02808,-0.13794 -0.02685,-0.06104 -0.09033,-0.102539 -0.05249,-0.0354 -0.124512,-0.04883 -0.07202,-0.01465 -0.169677,-0.01465 H 12.25416 v 0.686035 h 0.244141 q 0.114746,0 0.200195,-0.01953 0.08545,-0.02075 0.145264,-0.07568 0.05493,-0.05127 0.08057,-0.117188 0.02685,-0.06714 0.02685,-0.169677 z m 1.861573,0.648193 h -1.004639 q 0,0.125732 0.03784,0.219727 0.03784,0.09277 0.10376,0.152587 0.06348,0.05859 0.150146,0.08789 0.08789,0.0293 0.192871,0.0293 0.13916,0 0.279541,-0.05493 0.141602,-0.05615 0.201416,-0.109863 h 0.01221 v 0.250244 q -0.115967,0.04883 -0.236816,0.08179 -0.12085,0.03296 -0.253906,0.03296 -0.339356,0 -0.529786,-0.183105 -0.190429,-0.184326 -0.190429,-0.522461 0,-0.334473 0.181884,-0.531006 0.183106,-0.196533 0.480958,-0.196533 0.275878,0 0.424804,0.161133 0.150147,0.161132 0.150147,0.457763 z m -0.223389,-0.175781 q -0.0012,-0.180664 -0.09155,-0.279541 -0.08911,-0.09888 -0.272217,-0.09888 -0.184326,0 -0.294189,0.108642 -0.108643,0.108643 -0.123291,0.269776 z m 1.54541,0.440674 q 0,0.186767 -0.155029,0.306396 -0.153809,0.119629 -0.421143,0.119629 -0.151367,0 -0.27832,-0.0354 -0.125732,-0.03662 -0.211182,-0.07935 v -0.257568 h 0.01221 q 0.108643,0.08179 0.2417,0.130615 0.133056,0.04761 0.255127,0.04761 0.151367,0 0.236816,-0.04883 0.08545,-0.04883 0.08545,-0.153809 0,-0.08057 -0.04639,-0.12207 -0.04639,-0.0415 -0.178222,-0.0708 -0.04883,-0.01099 -0.128174,-0.02563 -0.07813,-0.01465 -0.142822,-0.03174 -0.179444,-0.04761 -0.255127,-0.13916 -0.07446,-0.09277 -0.07446,-0.227051 0,-0.08423 0.03418,-0.158691 0.0354,-0.07446 0.106201,-0.133057 0.06836,-0.05737 0.17334,-0.09033 0.106201,-0.03418 0.236816,-0.03418 0.12207,0 0.246582,0.03052 0.125732,0.0293 0.20874,0.07202 v 0.245361 h -0.01221 q -0.08789,-0.0647 -0.213623,-0.108643 -0.125732,-0.04517 -0.246582,-0.04517 -0.125732,0 -0.212402,0.04883 -0.08667,0.04761 -0.08667,0.142822 0,0.08423 0.05249,0.126953 0.05127,0.04272 0.166016,0.06958 0.06348,0.01465 0.141601,0.0293 0.07935,0.01465 0.131836,0.02686 0.159912,0.03662 0.246582,0.125733 0.08667,0.09033 0.08667,0.239258 z m 1.469727,-0.264893 h -1.004639 q 0,0.125732 0.03784,0.219727 0.03784,0.09277 0.10376,0.152587 0.06348,0.05859 0.150146,0.08789 0.08789,0.0293 0.192871,0.0293 0.13916,0 0.279541,-0.05493 0.141602,-0.05615 0.201416,-0.109863 h 0.01221 v 0.250244 q -0.115967,0.04883 -0.236816,0.08179 -0.12085,0.03296 -0.253906,0.03296 -0.339356,0 -0.529786,-0.183105 -0.190429,-0.184326 -0.190429,-0.522461 0,-0.334473 0.181885,-0.531006 0.183105,-0.196533 0.480957,-0.196533 0.275878,0 0.424804,0.161133 0.150147,0.161132 0.150147,0.457763 z m -0.223389,-0.175781 q -0.0012,-0.180664 -0.09155,-0.279541 -0.08911,-0.09888 -0.272216,-0.09888 -0.184327,0 -0.29419,0.108642 -0.108643,0.108643 -0.123291,0.269776 z m 1.279297,0.821533 q -0.0647,0.01709 -0.141602,0.02808 -0.07568,0.01099 -0.135498,0.01099 -0.20874,0 -0.317382,-0.112304 -0.108643,-0.112305 -0.108643,-0.360108 v -0.725097 h -0.155029 v -0.192871 h 0.155029 V 71.71547 h 0.229492 v 0.391846 h 0.473633 v 0.192871 h -0.473633 v 0.621338 q 0,0.107421 0.0049,0.168457 0.0049,0.05981 0.03418,0.112304 0.02685,0.04883 0.07324,0.07202 0.04761,0.02197 0.144043,0.02197 0.05615,0 0.117187,-0.01587 0.06104,-0.01709 0.08789,-0.02808 h 0.01221 z"
     id="text-reset"
     style="font-size:2.5px;font-family:sans-serif;text-anchor:middle;fill:#ffffff"
     aria-label="Reset" />
  <!-- Clock Out label -->
  <path
     d="m 10.815561,86.280663 q -0.06714,0.0293 -0.12207,0.05493 -0.05371,0.02563 -0.141602,0.05371 -0.07446,0.02319 -0.162353,0.03906 -0.08667,0.01709 -0.19165,0.01709 -0.197754,0 -0.3601079,-0.05493 -0.1611328,-0.05615 -0.2807617,-0.17456 -0.1171875,-0.115967 -0.1831055,-0.29419 -0.065918,-0.179443 -0.065918,-0.416259 0,-0.22461 0.063477,-0.401612 0.063477,-0.177002 0.1831055,-0.299072 0.1159668,-0.118408 0.279541,-0.180664 0.1647949,-0.06226 0.3649896,-0.06226 0.146485,0 0.291748,0.0354 0.146485,0.0354 0.324707,0.124512 v 0.286865 h -0.01831 q -0.150147,-0.125732 -0.297852,-0.183105 -0.147705,-0.05737 -0.316162,-0.05737 -0.137939,0 -0.249023,0.04517 -0.1098632,0.04394 -0.1965332,0.137939 -0.084229,0.09155 -0.1318359,0.231934 -0.046387,0.13916 -0.046387,0.322266 0,0.19165 0.05127,0.329589 0.05249,0.13794 0.1342774,0.22461 0.085449,0.09033 0.1989746,0.134277 0.1147461,0.04273 0.2416991,0.04273 0.174561,0 0.327149,-0.05982 0.152588,-0.05981 0.285644,-0.179443 h 0.01709 z m 0.55542,0.131836 h -0.229492 v -1.899414 h 0.229492 z m 1.616211,-0.681152 q 0,0.333252 -0.170898,0.526123 -0.170899,0.192871 -0.457764,0.192871 -0.289307,0 -0.460205,-0.192871 -0.169678,-0.192871 -0.169678,-0.526123 0,-0.333252 0.169678,-0.526123 0.170898,-0.194092 0.460205,-0.194092 0.286865,0 0.457764,0.194092 0.170898,0.192871 0.170898,0.526123 z m -0.236816,0 q 0,-0.264893 -0.10376,-0.393067 -0.10376,-0.129394 -0.288086,-0.129394 -0.186768,0 -0.290527,0.129394 -0.102539,0.128174 -0.102539,0.393067 0,0.256347 0.103759,0.389404 0.10376,0.131836 0.289307,0.131836 0.183106,0 0.286865,-0.130615 0.104981,-0.131836 0.104981,-0.390625 z m 1.600342,0.595703 q -0.114747,0.05493 -0.218506,0.08545 -0.102539,0.03052 -0.218506,0.03052 -0.147705,0 -0.270996,-0.04273 -0.123291,-0.04394 -0.211182,-0.131836 -0.08911,-0.08789 -0.137939,-0.222168 -0.04883,-0.134277 -0.04883,-0.313721 0,-0.334472 0.183105,-0.524902 0.184326,-0.19043 0.48584,-0.19043 0.117187,0 0.229492,0.03296 0.113525,0.03296 0.20752,0.08057 v 0.255127 h -0.01221 q -0.104981,-0.08179 -0.217286,-0.125733 -0.111084,-0.04394 -0.217285,-0.04394 -0.195312,0 -0.308838,0.131836 -0.112304,0.130615 -0.112304,0.384521 0,0.246582 0.109863,0.379639 0.111084,0.131836 0.311279,0.131836 0.06958,0 0.141602,-0.01831 0.07202,-0.01831 0.129394,-0.04761 0.05005,-0.02563 0.09399,-0.05371 0.04395,-0.0293 0.06958,-0.05005 h 0.01221 z M 15.8827,86.4125 h -0.302734 l -0.546875,-0.596924 -0.148926,0.141602 V 86.4125 h -0.229492 v -1.899414 h 0.229492 v 1.218262 l 0.662842,-0.682373 h 0.289306 l -0.633545,0.629882 z m 2.493896,-1.608887 q 0.111084,0.122071 0.169678,0.299073 0.05982,0.177001 0.05982,0.401611 0,0.224609 -0.06104,0.402832 -0.05981,0.177002 -0.168457,0.29541 -0.112304,0.123291 -0.266113,0.185547 -0.152588,0.06226 -0.349121,0.06226 -0.19165,0 -0.349121,-0.06348 -0.15625,-0.06348 -0.266113,-0.184326 -0.109864,-0.12085 -0.169678,-0.296631 -0.05859,-0.175781 -0.05859,-0.401611 0,-0.222168 0.05859,-0.397949 0.05859,-0.177002 0.170898,-0.302735 0.107422,-0.119629 0.266114,-0.183105 0.159912,-0.06348 0.3479,-0.06348 0.195313,0 0.350342,0.0647 0.15625,0.06348 0.264892,0.181884 z m -0.02197,0.700684 q 0,-0.354004 -0.158692,-0.545654 -0.158691,-0.192872 -0.433349,-0.192872 -0.2771,0 -0.435791,0.192872 -0.157471,0.19165 -0.157471,0.545654 0,0.357666 0.161133,0.548096 0.161133,0.189209 0.432129,0.189209 0.270996,0 0.430908,-0.189209 0.161133,-0.19043 0.161133,-0.548096 z M 20.10145,86.4125 h -0.229492 v -0.151367 q -0.115967,0.09155 -0.222168,0.140381 -0.106201,0.04883 -0.234375,0.04883 -0.214844,0 -0.334473,-0.130615 -0.119629,-0.131836 -0.119629,-0.385743 v -0.88501 h 0.229492 v 0.776367 q 0,0.10376 0.0098,0.178222 0.0098,0.07324 0.0415,0.125733 0.03296,0.05371 0.08545,0.07813 0.05249,0.02441 0.152588,0.02441 0.08911,0 0.194092,-0.04639 0.106201,-0.04639 0.197754,-0.118408 v -1.018066 h 0.229492 z m 1.159668,-0.01221 q -0.0647,0.01709 -0.141602,0.02808 -0.07568,0.01099 -0.135498,0.01099 -0.20874,0 -0.317382,-0.112304 -0.108643,-0.112305 -0.108643,-0.360108 V 85.241851 H 20.402964 V 85.04898 h 0.155029 v -0.391846 h 0.229492 v 0.391846 h 0.473633 v 0.192871 h -0.473633 v 0.621338 q 0,0.107421 0.0049,0.168457 0.0049,0.05981 0.03418,0.112304 0.02686,0.04883 0.07324,0.07202 0.04761,0.02197 0.144043,0.02197 0.05615,0 0.117187,-0.01587 0.06104,-0.01709 0.08789,-0.02808 h 0.01221 z"
     id="text-clock"
     style="font-size:2.5px;font-family:sans-serif;text-anchor:middle;fill:#ffffff"
     aria-label="Clock Out" />
  <!-- Reset Out label -->
  <path
     d="M 10.809458,98.412499 H 10.495737 L 9.8878269,97.689843 H 9.5472507 v 0.722656 H 9.3055515 v -1.817627 h 0.5090332 q 0.164795,0 0.2746583,0.02197 0.109863,0.02075 0.197754,0.07568 0.09888,0.06226 0.153808,0.157471 0.05615,0.09399 0.05615,0.239258 0,0.196533 -0.09888,0.32959 -0.09888,0.131836 -0.272217,0.198974 z m -0.565186,-1.306152 q 0,-0.07813 -0.02808,-0.13794 -0.02685,-0.06104 -0.09033,-0.102539 -0.05249,-0.0354 -0.124512,-0.04883 -0.072021,-0.01465 -0.1696774,-0.01465 H 9.5472507 v 0.686035 h 0.2441407 q 0.1147461,0 0.2001953,-0.01953 0.085449,-0.02075 0.1452633,-0.07568 0.05493,-0.05127 0.08057,-0.117188 0.02686,-0.06714 0.02686,-0.169677 z m 1.861572,0.648193 h -1.004638 q 0,0.125732 0.03784,0.219727 0.03784,0.09277 0.103759,0.152587 0.06348,0.05859 0.150147,0.08789 0.08789,0.0293 0.192871,0.0293 0.13916,0 0.279541,-0.05493 0.141602,-0.05615 0.201416,-0.109863 h 0.01221 v 0.250244 q -0.115967,0.04883 -0.236816,0.08179 -0.12085,0.03296 -0.253907,0.03296 -0.339355,0 -0.529785,-0.183107 -0.190429,-0.184326 -0.190429,-0.522461 0,-0.334473 0.181884,-0.531006 0.183106,-0.196533 0.480957,-0.196533 0.275879,0 0.424805,0.161133 0.150146,0.161132 0.150146,0.457763 z m -0.223388,-0.175781 q -0.0012,-0.180664 -0.09155,-0.279541 -0.08911,-0.09888 -0.272217,-0.09888 -0.184326,0 -0.294189,0.108642 -0.108643,0.108643 -0.123291,0.269776 z m 1.54541,0.440674 q 0,0.186767 -0.155029,0.306396 -0.153809,0.11963 -0.421143,0.11963 -0.151367,0 -0.27832,-0.0354 -0.125733,-0.03662 -0.211182,-0.07935 v -0.257568 h 0.01221 q 0.108643,0.08179 0.241699,0.130615 0.133057,0.04761 0.255127,0.04761 0.151368,0 0.236817,-0.04883 0.08545,-0.04883 0.08545,-0.153809 0,-0.08057 -0.04639,-0.12207 -0.04639,-0.0415 -0.178222,-0.0708 -0.04883,-0.01099 -0.128174,-0.02563 -0.07813,-0.01465 -0.142822,-0.03174 -0.179444,-0.04761 -0.255127,-0.13916 -0.07446,-0.09277 -0.07446,-0.227051 0,-0.08423 0.03418,-0.158691 0.0354,-0.07446 0.106202,-0.133057 0.06836,-0.05737 0.173339,-0.09033 0.106202,-0.03418 0.236817,-0.03418 0.12207,0 0.246582,0.03052 0.125732,0.0293 0.20874,0.07202 v 0.245361 h -0.01221 q -0.08789,-0.0647 -0.213623,-0.108643 -0.125732,-0.04517 -0.246582,-0.04517 -0.125732,0 -0.212402,0.04883 -0.08667,0.04761 -0.08667,0.142822 0,0.08423 0.05249,0.126953 0.05127,0.04272 0.166016,0.06958 0.06348,0.01465 0.141601,0.0293 0.07935,0.01465 0.131836,0.02686 0.159912,0.03662 0.246582,0.125733 0.08667,0.09033 0.08667,0.239258 z m 1.469727,-0.264893 h -1.004639 q 0,0.125732 0.03784,0.219727 0.03784,0.09277 0.103759,0.152587 0.06348,0.05859 0.150147,0.08789 0.08789,0.0293 0.192871,0.0293 0.13916,0 0.279541,-0.05493 0.141602,-0.05615 0.201416,-0.109863 h 0.01221 v 0.250244 q -0.115967,0.04883 -0.236816,0.08179 -0.12085,0.03296 -0.253907,0.03296 -0.339355,0 -0.529785,-0.183107 -0.190429,-0.184326 -0.190429,-0.522461 0,-0.334473 0.181884,-0.531006 0.183106,-0.196533 0.480957,-0.196533 0.275879,0 0.424805,0.161133 0.150147,0.161132 0.150147,0.457763 z m -0.223389,-0.175781 q -0.0012,-0.180664 -0.09155,-0.279541 -0.08911,-0.09888 -0.272217,-0.09888 -0.184326,0 -0.294189,0.108642 -0.108643,0.108643 -0.123291,0.269776 z m 1.279297,0.821533 q -0.0647,0.01709 -0.141602,0.02808 -0.07568,0.011 -0.135498,0.011 -0.20874,0 -0.317383,-0.112309 -0.108642,-0.112305 -0.108642,-0.360108 v -0.725097 h -0.15503 v -0.192871 h 0.15503 v -0.391846 h 0.229492 v 0.391846 h 0.473633 v 0.192871 h -0.473633 v 0.621338 q 0,0.107421 0.0049,0.168457 0.0049,0.05981 0.03418,0.112304 0.02686,0.04883 0.07324,0.07202 0.04761,0.02197 0.144043,0.02197 0.05615,0 0.117187,-0.01587 0.06104,-0.01709 0.08789,-0.02808 h 0.01221 z m 2.529297,-1.59668 q 0.111084,0.122071 0.169677,0.299073 0.05982,0.177001 0.05982,0.401611 0,0.224609 -0.06104,0.402832 -0.05982,0.177002 -0.168457,0.29541 -0.112305,0.123291 -0.266114,0.185547 -0.152588,0.06225 -0.349121,0.06225 -0.19165,0 -0.349121,-0.06347 -0.15625,-0.06348 -0.266113,-0.184326 -0.109863,-0.12085 -0.169678,-0.296631 -0.05859,-0.175781 -0.05859,-0.401611 0,-0.222168 0.05859,-0.397949 0.05859,-0.177002 0.170899,-0.302735 0.107421,-0.119629 0.266113,-0.183105 0.159912,-0.06348 0.3479,-0.06348 0.195313,0 0.350342,0.0647 0.15625,0.06348 0.264893,0.181884 z m -0.02197,0.700684 q 0,-0.354004 -0.158691,-0.545654 -0.158692,-0.192872 -0.43335,-0.192872 -0.2771,0 -0.435791,0.192872 -0.157471,0.19165 -0.157471,0.545654 0,0.357666 0.161133,0.548096 0.161133,0.189209 0.432129,0.189209 0.270996,0 0.430908,-0.189209 0.161133,-0.19043 0.161133,-0.548096 z m 1.746823,0.908203 h -0.229492 v -0.151367 q -0.115967,0.09155 -0.222168,0.140381 -0.106201,0.04883 -0.234375,0.04883 -0.214844,0 -0.334473,-0.130613 -0.119629,-0.131836 -0.119629,-0.385743 v -0.885009 h 0.229493 v 0.776367 q 0,0.10376 0.0098,0.178222 0.0098,0.07324 0.0415,0.125733 0.03296,0.05371 0.08545,0.07813 0.05249,0.02441 0.152588,0.02441 0.08911,0 0.194092,-0.04639 0.106201,-0.04639 0.197754,-0.118408 v -1.018066 h 0.229492 z m 1.159668,-0.01221 q -0.0647,0.01709 -0.141601,0.02808 -0.07568,0.011 -0.135499,0.011 -0.20874,0 -0.317382,-0.112309 -0.108643,-0.112305 -0.108643,-0.360108 v -0.725097 h -0.155029 v -0.192871 h 0.155029 v -0.391846 h 0.229492 v 0.391846 h 0.473633 v 0.192871 h -0.473633 v 0.621338 q 0,0.107421 0.0049,0.168457 0.0049,0.05981 0.03418,0.112304 0.02685,0.04883 0.07324,0.07202 0.04761,0.02197 0.144043,0.02197 0.05615,0 0.117187,-0.01587 0.06104,-0.01709 0.08789,-0.02808 h 0.01221 z"
     id="text-reset-out"
     style="font-size:2.5px;font-family:sans-serif;text-anchor:middle;fill:#ffffff"
     aria-label="Reset Out" />
  <!-- Trigger Out label -->
  <path
     d="M 9.7132664,108.64432 H 9.0638523 v 1.60279 H 8.8221531 v -1.60279 H 8.172739 v -0.21484 h 1.5405274 z m 0.8325196,0.48951 h -0.01221 q -0.05127,-0.0122 -0.100098,-0.0171 -0.04761,-0.006 -0.113525,-0.006 -0.106201,0 -0.205078,0.0476 -0.09888,0.0464 -0.19043,0.12085 v 0.96802 H 9.6949558 v -1.36353 H 9.924448 v 0.20142 q 0.136719,-0.10987 0.240479,-0.15503 0.10498,-0.0464 0.213623,-0.0464 0.05981,0 0.08667,0.004 0.02686,0.002 0.08057,0.011 z m 0.462646,-0.47852 h -0.258789 v -0.23804 h 0.258789 z m -0.01465,1.5918 H 10.76429 v -1.36353 h 0.229492 z m 1.560059,-0.15503 q 0,0.34668 -0.157471,0.50903 -0.157471,0.16236 -0.484619,0.16236 -0.108643,0 -0.212403,-0.0159 -0.102539,-0.0147 -0.202636,-0.0427 v -0.23437 h 0.01221 q 0.05615,0.022 0.178222,0.0537 0.122071,0.033 0.244141,0.033 0.117187,0 0.194092,-0.0281 0.0769,-0.0281 0.119629,-0.0781 0.04272,-0.0476 0.06103,-0.11475 0.01831,-0.0671 0.01831,-0.15015 v -0.12451 q -0.103759,0.083 -0.198974,0.12451 -0.09399,0.0403 -0.240479,0.0403 -0.24414,0 -0.388183,-0.17579 -0.142823,-0.177 -0.142823,-0.49804 0,-0.17578 0.04883,-0.30274 0.05005,-0.12817 0.135499,-0.22094 0.07935,-0.0867 0.192871,-0.13428 0.113525,-0.0488 0.22583,-0.0488 0.118408,0 0.197754,0.0244 0.08057,0.0232 0.169677,0.072 l 0.01465,-0.0586 h 0.214844 z m -0.229493,-0.21973 v -0.74341 q -0.09155,-0.0415 -0.170898,-0.0586 -0.07813,-0.0183 -0.15625,-0.0183 -0.189209,0 -0.297852,0.12695 -0.108642,0.12696 -0.108642,0.36865 0,0.2295 0.08057,0.34791 0.08057,0.1184 0.267334,0.1184 0.100098,0 0.200195,-0.0378 0.101319,-0.0391 0.185547,-0.10376 z m 1.78711,0.21973 q 0,0.34668 -0.157471,0.50903 -0.157471,0.16236 -0.484619,0.16236 -0.108643,0 -0.212402,-0.0159 -0.10254,-0.0147 -0.202637,-0.0427 v -0.23437 h 0.01221 q 0.05615,0.022 0.178223,0.0537 0.12207,0.033 0.24414,0.033 0.117188,0 0.194092,-0.0281 0.0769,-0.0281 0.119629,-0.0781 0.04272,-0.0476 0.06104,-0.11475 0.01831,-0.0671 0.01831,-0.15015 v -0.12451 q -0.10376,0.083 -0.198975,0.12451 -0.09399,0.0403 -0.240479,0.0403 -0.24414,0 -0.388183,-0.17579 -0.142822,-0.177 -0.142822,-0.49804 0,-0.17578 0.04883,-0.30274 0.05005,-0.12817 0.135498,-0.22094 0.07935,-0.0867 0.192871,-0.13428 0.113525,-0.0488 0.22583,-0.0488 0.118408,0 0.197754,0.0244 0.08057,0.0232 0.169678,0.072 l 0.01465,-0.0586 h 0.214844 z m -0.229492,-0.21973 v -0.74341 q -0.09155,-0.0415 -0.170899,-0.0586 -0.07813,-0.0183 -0.15625,-0.0183 -0.189209,0 -0.297851,0.12695 -0.108643,0.12696 -0.108643,0.36865 0,0.2295 0.08057,0.34791 0.08057,0.1184 0.267334,0.1184 0.100098,0 0.200196,-0.0378 0.101318,-0.0391 0.185547,-0.10376 z m 1.822509,-0.2832 h -1.004638 q 0,0.12573 0.03784,0.21973 0.03784,0.0928 0.10376,0.15258 0.06348,0.0586 0.150147,0.0879 0.08789,0.0293 0.192871,0.0293 0.13916,0 0.279541,-0.0549 0.141601,-0.0562 0.201416,-0.10986 h 0.01221 v 0.25024 q -0.115967,0.0488 -0.236817,0.0818 -0.120849,0.033 -0.253906,0.033 -0.339355,0 -0.529785,-0.18311 -0.19043,-0.18433 -0.19043,-0.52246 0,-0.33447 0.181885,-0.53101 0.183106,-0.19653 0.480957,-0.19653 0.275879,0 0.424805,0.16113 0.150146,0.16114 0.150146,0.45777 z m -0.223388,-0.17578 q -0.0012,-0.18067 -0.09155,-0.27954 -0.08911,-0.0989 -0.272217,-0.0989 -0.184326,0 -0.294189,0.10864 -0.108643,0.10864 -0.123291,0.26978 z m 1.422119,-0.27954 h -0.01221 q -0.05127,-0.0122 -0.100098,-0.0171 -0.04761,-0.006 -0.113525,-0.006 -0.106201,0 -0.205078,0.0476 -0.09888,0.0464 -0.19043,0.12085 v 0.96802 h -0.229492 v -1.36353 h 0.229492 v 0.20142 q 0.136719,-0.10987 0.240478,-0.15503 0.104981,-0.0464 0.213623,-0.0464 0.05982,0 0.08667,0.004 0.02686,0.002 0.08057,0.011 z m 2.468261,-0.49561 q 0.111084,0.12207 0.169678,0.29907 0.05982,0.17701 0.05982,0.40161 0,0.22461 -0.06104,0.40284 -0.05982,0.177 -0.168458,0.29541 -0.112304,0.12329 -0.266113,0.18554 -0.152588,0.0623 -0.349121,0.0623 -0.19165,0 -0.349121,-0.0635 -0.15625,-0.0635 -0.266113,-0.18432 -0.109864,-0.12085 -0.169678,-0.29663 -0.05859,-0.17579 -0.05859,-0.40162 0,-0.22216 0.05859,-0.39794 0.05859,-0.17701 0.170898,-0.30274 0.107422,-0.11963 0.266114,-0.1831 0.159912,-0.0635 0.3479,-0.0635 0.195313,0 0.350342,0.0647 0.15625,0.0635 0.264892,0.18188 z m -0.02197,0.70068 q 0,-0.354 -0.158692,-0.54565 -0.158691,-0.19287 -0.433349,-0.19287 -0.2771,0 -0.435791,0.19287 -0.157471,0.19165 -0.157471,0.54565 0,0.35767 0.161133,0.5481 0.161133,0.18921 0.432129,0.18921 0.270996,0 0.430908,-0.18921 0.161133,-0.19043 0.161133,-0.5481 z m 1.746826,0.90821 h -0.229492 v -0.15137 q -0.115967,0.0915 -0.222168,0.14038 -0.106201,0.0488 -0.234375,0.0488 -0.214844,0 -0.334473,-0.13062 -0.119629,-0.13183 -0.119629,-0.38574 v -0.88501 h 0.229492 v 0.77637 q 0,0.10376 0.0098,0.17822 0.0098,0.0732 0.0415,0.12573 0.03296,0.0537 0.08545,0.0781 0.05249,0.0244 0.152588,0.0244 0.08911,0 0.194092,-0.0464 0.106201,-0.0464 0.197754,-0.11841 v -1.01807 h 0.229492 z m 1.159668,-0.0122 q -0.0647,0.0171 -0.141602,0.0281 -0.07568,0.011 -0.135498,0.011 -0.20874,0 -0.317382,-0.1123 -0.108643,-0.11231 -0.108643,-0.36011 v -0.7251 h -0.155029 v -0.19287 h 0.155029 v -0.39184 h 0.229492 v 0.39184 h 0.473633 v 0.19287 h -0.473633 v 0.62134 q 0,0.10742 0.0049,0.16846 0.0049,0.0598 0.03418,0.1123 0.02685,0.0488 0.07324,0.072 0.04761,0.022 0.144043,0.022 0.05615,0 0.117187,-0.0159 0.06104,-0.0171 0.08789,-0.0281 h 0.01221 z"
     id="text-trigger"
     style="font-size:2.5px;text-anchor:middle;fill:#ffffff"
     aria-label="Trigger Out" />
  <!-- Brand label -->
  <path
     d="m 13.496617,125.65632 q 0,0.38547 -0.191087,0.61286 -0.191087,0.2263 -0.528299,0.2263 -0.336276,0 -0.527363,-0.2263 -0.191086,-0.22739 -0.191086,-0.61286 0,-0.38871 0.191086,-0.61393 0.191087,-0.2263 0.527363,-0.2263 0.335339,0 0.527363,0.2263 0.192023,0.22522 0.192023,0.61393 z m -0.476781,0.40821 q 0.05245,-0.0736 0.07775,-0.17324 0.02529,-0.1007 0.02529,-0.23605 0,-0.14509 -0.02904,-0.24687 -0.02904,-0.10178 -0.07587,-0.16459 -0.04777,-0.065 -0.110531,-0.0942 -0.06182,-0.0292 -0.129265,-0.0292 -0.06838,0 -0.129264,0.0282 -0.05995,0.0282 -0.110531,0.0931 -0.04683,0.0607 -0.07681,0.16783 -0.02904,0.10611 -0.02904,0.24688 0,0.14401 0.0281,0.24579 0.02904,0.1007 0.07587,0.16458 0.04683,0.0639 0.109594,0.0942 0.06276,0.0303 0.132075,0.0303 0.06932,0 0.132075,-0.0303 0.06276,-0.0314 0.109594,-0.0964 z m 2.213424,0.39738 h -0.357819 v -1.07953 l -0.25853,0.70056 h -0.248226 l -0.258529,-0.70056 v 1.07953 H 13.77107 v -1.61226 h 0.417769 l 0.313795,0.80884 0.312858,-0.80884 h 0.417768 z m 1.62424,0 h -0.34658 l -0.591995,-1.1066 v 1.1066 h -0.329719 v -1.61226 h 0.429946 l 0.508629,0.92362 v -0.92362 H 16.8575 Z m 1.10999,0 h -0.816803 v -0.28585 h 0.228555 v -1.04055 h -0.228555 v -0.28586 h 0.816803 v 0.28586 h -0.228555 v 1.04055 h 0.228555 z m 1.582087,0 h -0.371869 l -0.09648,-0.32591 h -0.517059 l -0.09648,0.32591 h -0.362503 l 0.515185,-1.61226 h 0.414022 z m -0.555463,-0.62151 -0.171416,-0.57821 -0.171416,0.57821 z"
     id="text-brand"
     style="font-weight:bold;font-size:3.52778px;font-family:sans-serif;text-anchor:middle;fill:#fafafa;stroke-width:0.584655"
     aria-label="OMNIA" />
</svg>
