<?xml version="1.0" encoding="UTF-8" standalone="no"?>
<svg
   width="40.64mm"
   height="128.5mm"
   viewBox="0 0 40.64 128.5"
   version="1.1"
   id="svg1"
   sodipodi:docname="OrganicParticleSynth.svg"
   inkscape:version="1.4.2 (f4327f4, 2025-05-13)"
   xmlns:inkscape="http://www.inkscape.org/namespaces/inkscape"
   xmlns:sodipodi="http://sodipodi.sourceforge.net/DTD/sodipodi-0.dtd"
   xmlns="http://www.w3.org/2000/svg"
   xmlns:svg="http://www.w3.org/2000/svg">
  <defs
     id="defs16" />
  <sodipodi:namedview
     id="namedview16"
     pagecolor="#ffffff"
     bordercolor="#000000"
     borderopacity="0.25"
     inkscape:showpageshadow="2"
     inkscape:pageopacity="0.0"
     inkscape:pagecheckerboard="0"
     inkscape:deskcolor="#d1d1d1"
     inkscape:document-units="mm"
     showgrid="false"
     inkscape:zoom="2.5058204"
     inkscape:cx="76.821149"
     inkscape:cy="242.83465"
     inkscape:window-width="2560"
     inkscape:window-height="1494"
     inkscape:window-x="-11"
     inkscape:window-y="-11"
     inkscape:window-maximized="1"
     inkscape:current-layer="svg1">
    <inkscape:grid
       id="grid16"
       units="mm"
       originx="0"
       originy="0"
       spacingx="1.0000001"
       spacingy="1"
       empcolor="#0099e5"
       empopacity="0.30196078"
       color="#0099e5"
       opacity="0.14901961"
       empspacing="5"
       enabled="true"
       visible="false" />
  </sodipodi:namedview>
  <!-- Panel background -->
  <rect
     width="40.64"
     height="128.5"
     fill="#0F172A"
     rx="2"
     ry="2"
     id="rect1" />
  <!-- Title -->
  <path
     d="m 9.1110153,9.8203125 q 0,1.0429685 -0.5976562,1.6582035 -0.5976563,0.612304 -1.6523438,0.612304 -1.0517578,0 -1.649414,-0.612304 Q 4.613945,10.863281 4.613945,9.8203125 q 0,-1.0517578 0.5976563,-1.6611328 0.5976562,-0.6123047 1.649414,-0.6123047 1.0488281,0 1.6494141,0.6123047 0.6005859,0.609375 0.6005859,1.6611328 z M 7.6198044,10.924805 q 0.1640625,-0.199219 0.243164,-0.46875 0.079102,-0.272461 0.079102,-0.6386722 0,-0.3925781 -0.09082,-0.6679687 Q 7.7604294,8.8740234 7.613945,8.7041016 7.4645309,8.5283203 7.2682419,8.4492188 7.0748825,8.3701172 6.863945,8.3701172 q -0.2138672,0 -0.4042969,0.076172 -0.1875,0.076172 -0.3457031,0.2519531 -0.1464844,0.1640625 -0.2402344,0.4541016 -0.09082,0.2871093 -0.09082,0.6679687 0,0.3896485 0.087891,0.6650395 0.09082,0.272461 0.2373047,0.445312 0.1464844,0.172852 0.3427735,0.254883 0.196289,0.08203 0.4130859,0.08203 0.2167969,0 0.4130859,-0.08203 0.1962891,-0.08496 0.3427735,-0.260742 z M 12.415703,8.9736328 q 0,-0.1640625 -0.06738,-0.28125 -0.06738,-0.1171875 -0.231445,-0.1845703 -0.114258,-0.046875 -0.266602,-0.055664 -0.152344,-0.011719 -0.354492,-0.011719 h -0.407227 v 1.1748047 h 0.345704 q 0.269531,0 0.451171,-0.026367 Q 12.06707,9.5625 12.190117,9.46875 q 0.117187,-0.09082 0.169922,-0.1992187 0.05566,-0.1113282 0.05566,-0.2958985 z M 14.170586,12 H 12.796562 L 11.607109,10.400391 H 11.088554 V 12 H 9.9694138 V 7.6376953 h 1.8867192 q 0.386718,0 0.665039,0.043945 0.27832,0.043945 0.521484,0.1904297 0.246094,0.1464844 0.389648,0.3808594 0.146485,0.2314453 0.146485,0.5830078 0,0.4833984 -0.225586,0.7880859 -0.222656,0.3046875 -0.638672,0.5068356 z m 4.350586,-0.249023 q -0.292969,0.114257 -0.776368,0.228515 -0.483398,0.111328 -0.963867,0.111328 -1.113281,0 -1.743164,-0.603515 -0.629883,-0.606446 -0.629883,-1.6728519 0,-1.0166015 0.635743,-1.6376953 0.635742,-0.6240234 1.77246,-0.6240234 0.430665,0 0.820313,0.079101 0.389648,0.076172 0.867187,0.3076172 v 1.022461 h -0.125976 q -0.08203,-0.061523 -0.240234,-0.1728516 -0.158204,-0.1142578 -0.304688,-0.1933594 -0.169922,-0.09375 -0.398437,-0.1611328 -0.225586,-0.067383 -0.480469,-0.067383 -0.298828,0 -0.541992,0.087891 -0.243164,0.087891 -0.436524,0.2695313 -0.18457,0.1757812 -0.292969,0.4482422 -0.105468,0.2695312 -0.105468,0.6240234 0,0.723633 0.383789,1.107422 0.383789,0.383789 1.133789,0.383789 0.06445,0 0.140625,-0.0029 0.0791,-0.0029 0.143554,-0.0088 V 10.420898 H 16.508476 V 9.5976563 h 2.012696 z M 23.560234,12 H 22.397148 L 22.09539,11.118164 H 20.478203 L 20.176445,12 h -1.133789 l 1.611328,-4.3623047 h 1.294922 z M 21.822929,10.318359 21.286797,8.7539063 20.750664,10.318359 Z M 28.153984,12 H 27.07 L 25.218437,9.0058594 V 12 h -1.03125 V 7.6376953 h 1.344727 l 1.59082,2.4990237 V 7.6376953 h 1.03125 z m 3.47168,0 H 29.070976 V 11.226563 H 29.78582 V 8.4111328 H 29.070976 V 7.6376953 h 2.554688 V 8.4111328 H 30.91082 v 2.8154302 h 0.714844 z m 2.888672,0.08496 q -0.486328,0 -0.899414,-0.143555 -0.410157,-0.143554 -0.706055,-0.427734 -0.295899,-0.28418 -0.459961,-0.708984 -0.161133,-0.424805 -0.161133,-0.9814458 0,-0.5185547 0.155274,-0.9404297 0.155273,-0.421875 0.451171,-0.7236328 0.28418,-0.2900391 0.703125,-0.4482422 0.421875,-0.1582031 0.919922,-0.1582031 0.275391,0 0.495118,0.032226 0.222656,0.029297 0.410156,0.079102 0.196289,0.055664 0.354492,0.1259766 0.161133,0.067383 0.28125,0.1259765 v 1.0576172 h -0.128906 q -0.08203,-0.070312 -0.208008,-0.1669922 -0.123047,-0.09668 -0.28125,-0.1904297 -0.161133,-0.09375 -0.348633,-0.1582031 -0.1875,-0.064453 -0.401367,-0.064453 -0.237305,0 -0.451172,0.076172 -0.213867,0.073242 -0.395508,0.2460937 -0.172851,0.1669922 -0.28125,0.4423828 -0.105469,0.2753907 -0.105469,0.6679688 0,0.4101561 0.114258,0.6855471 0.117188,0.27539 0.292969,0.433594 0.178711,0.161132 0.398438,0.231445 0.219726,0.06738 0.433593,0.06738 0.205078,0 0.404297,-0.06152 0.202149,-0.06152 0.37207,-0.166992 0.143555,-0.08496 0.266602,-0.181641 0.123047,-0.09668 0.202148,-0.166992 h 0.117188 v 1.042969 q -0.164063,0.07324 -0.313477,0.137695 -0.149414,0.06445 -0.313476,0.111328 -0.213867,0.06152 -0.401367,0.09375 -0.1875,0.03223 -0.515625,0.03223 z"
     id="text1"
     style="font-weight:bold;font-size:6px;text-anchor:middle;fill:#ffffff"
     aria-label="ORGANIC" />
  <path
     d="m 23.142338,4.0219678 q 0,0.6132331 -0.358642,0.9674471 -0.356428,0.3520002 -1.002868,0.3520002 -0.646441,0 -1.005083,-0.3520002 -0.356428,-0.354214 -0.356428,-0.9674471 0,-0.6176608 0.358642,-0.969661 0.360856,-0.3520002 1.002869,-0.3520002 0.650868,0 1.005082,0.3542141 0.356428,0.354214 0.356428,0.9674471 z m -0.98073,0.6043777 q 0.07748,-0.095195 0.115119,-0.2280253 0.03985,-0.1350441 0.03985,-0.3719247 0,-0.21917 -0.03985,-0.3674971 -0.03985,-0.1483271 -0.110692,-0.2368807 -0.07084,-0.090767 -0.170465,-0.1284026 -0.09962,-0.037635 -0.214742,-0.037635 -0.11512,0 -0.205887,0.030994 -0.08855,0.030994 -0.170466,0.1239749 -0.07306,0.08634 -0.117333,0.2368807 -0.04206,0.150541 -0.04206,0.3785663 0,0.203673 0.03763,0.354214 0.03764,0.1483271 0.110692,0.2390945 0.07084,0.08634 0.168252,0.1261887 0.09962,0.039849 0.225811,0.039849 0.108478,0 0.205887,-0.035421 0.09962,-0.037635 0.168252,-0.1239749 z m 3.982694,-1.1246296 v 1.7622149 h -0.801409 v -1.241963 q 0,-0.1815347 -0.0089,-0.3077235 -0.0089,-0.1284026 -0.0487,-0.2081007 -0.03985,-0.079698 -0.121761,-0.1151196 -0.0797,-0.037635 -0.225812,-0.037635 -0.117333,0 -0.228025,0.048704 -0.110692,0.046491 -0.199245,0.099623 V 5.2639308 H 23.713508 V 2.7777909 h 0.796982 v 0.2745159 q 0.205886,-0.1616101 0.394063,-0.2523775 0.188176,-0.090767 0.416201,-0.090767 0.245736,0 0.433912,0.1106919 0.188177,0.108478 0.294441,0.3210064 0.239094,-0.2014592 0.464906,-0.3165788 0.225811,-0.1151195 0.442767,-0.1151195 0.402919,0 0.61102,0.2413083 0.210314,0.2413083 0.210314,0.6951451 v 1.6183154 h -0.801409 v -1.241963 q 0,-0.1837486 -0.0089,-0.3099373 -0.0066,-0.1261888 -0.04649,-0.2058869 -0.03763,-0.079698 -0.119547,-0.1151196 -0.08191,-0.037635 -0.230239,-0.037635 -0.09962,0 -0.194818,0.035421 -0.0952,0.033208 -0.232453,0.1129057 z m 4.863802,1.7622149 H 30.206695 V 4.0308231 q 0,-0.1505409 -0.0155,-0.2988681 -0.0155,-0.1505409 -0.05313,-0.2213837 -0.04428,-0.081912 -0.130617,-0.1195473 -0.08413,-0.037635 -0.23688,-0.037635 -0.108478,0 -0.221384,0.035421 -0.110692,0.035421 -0.241309,0.1129057 V 5.2639308 H 28.510895 V 2.7777909 h 0.796981 v 0.2745159 q 0.212529,-0.1660378 0.407347,-0.2545913 0.197031,-0.088553 0.436126,-0.088553 0.402918,0 0.62873,0.2346668 0.228025,0.2346668 0.228025,0.7017866 z m 1.529762,0 H 31.740884 V 2.7777909 h 0.796982 z m 0.02214,-2.8403539 H 31.718746 V 1.8191992 h 0.841258 z m 2.235976,2.1916994 v -0.518038 q -0.16161,0.013283 -0.349786,0.037635 -0.188177,0.022138 -0.285585,0.053132 -0.119548,0.037635 -0.183749,0.1106919 -0.06199,0.070843 -0.06199,0.1881762 0,0.077484 0.01328,0.1261888 0.01328,0.048704 0.06641,0.092981 0.05092,0.044277 0.121761,0.066415 0.07084,0.019925 0.221384,0.019925 0.119547,0 0.241308,-0.048704 0.123975,-0.048704 0.216956,-0.1284026 z m 0,0.3852078 q -0.0642,0.048704 -0.159396,0.1173334 -0.09519,0.068629 -0.179321,0.1084781 -0.117334,0.053132 -0.243522,0.077484 -0.126189,0.026566 -0.27673,0.026566 -0.354214,0 -0.593309,-0.2191699 -0.239094,-0.21917 -0.239094,-0.560101 0,-0.272302 0.121761,-0.4449814 0.121761,-0.1726793 0.345359,-0.272302 0.221384,-0.099623 0.549032,-0.1416856 0.327648,-0.042063 0.679648,-0.061987 v -0.013283 q 0,-0.205887 -0.168252,-0.2833713 -0.168252,-0.079698 -0.4959,-0.079698 -0.197031,0 -0.420629,0.070843 -0.223597,0.068629 -0.321006,0.1062642 h -0.07306 V 2.830923 q 0.126189,-0.033208 0.40956,-0.077484 0.285585,-0.046491 0.57117,-0.046491 0.679648,0 0.98073,0.2103146 0.303296,0.2081008 0.303296,0.655296 v 1.6913721 h -0.79034 z"
     id="text1-9"
     style="font-weight:bold;font-size:4.53394px;text-anchor:middle;fill:#ffffff;stroke-width:0.755657"
     transform="scale(1.0478413,0.954343)"
     aria-label="omnia" />
  <path
     d="m 7.7882614,15.014648 q 0,0.292969 -0.102539,0.574219 -0.1025391,0.278321 -0.2929688,0.46875 -0.2607422,0.257813 -0.5830078,0.389649 -0.3193359,0.131836 -0.796875,0.131836 H 5.3126755 V 18 h -1.125 V 13.637695 H 6.039238 q 0.4160156,0 0.7001953,0.07324 0.2871094,0.07031 0.5068359,0.213867 0.2636719,0.172851 0.4013672,0.442383 0.140625,0.269531 0.140625,0.64746 z m -1.1630859,0.02637 q 0,-0.184571 -0.099609,-0.316407 -0.099609,-0.134765 -0.2314453,-0.1875 -0.1757813,-0.07031 -0.3427734,-0.07617 -0.1669922,-0.0088 -0.4453125,-0.0088 H 5.3126755 v 1.306641 h 0.3222656 q 0.2871094,0 0.4716797,-0.03516 0.1875,-0.03516 0.3134766,-0.140625 0.1083984,-0.09375 0.1552734,-0.222656 0.049805,-0.131836 0.049805,-0.319336 z M 12.616386,18 H 11.4533 L 11.151543,17.118164 H 9.5343552 L 9.2325974,18 H 8.0988083 l 1.6113281,-4.362305 h 1.2949216 z m -1.737304,-1.681641 -0.536133,-1.564453 -0.5361329,1.564453 z m 4.810547,-1.344726 q 0,-0.164063 -0.06738,-0.28125 -0.06738,-0.117188 -0.231446,-0.18457 -0.114257,-0.04687 -0.266601,-0.05567 -0.152344,-0.01172 -0.354492,-0.01172 H 14.36248 v 1.174804 h 0.345703 q 0.269532,0 0.451172,-0.02637 0.181641,-0.02637 0.304688,-0.120117 0.117187,-0.09082 0.169922,-0.199219 0.05566,-0.111328 0.05566,-0.295898 z M 17.444511,18 H 16.070488 L 14.881035,16.400391 H 14.36248 V 18 h -1.11914 v -4.362305 h 1.886718 q 0.386719,0 0.665039,0.04395 0.278321,0.04394 0.521485,0.190429 0.246093,0.146485 0.389648,0.38086 0.146485,0.231445 0.146485,0.583008 0,0.483398 -0.225586,0.788085 -0.222657,0.304688 -0.638672,0.506836 z m 3.905274,-3.518555 H 19.98748 V 18 h -1.125 v -3.518555 h -1.362305 v -0.84375 h 3.84961 z M 24.384941,18 h -2.554687 v -0.773438 h 0.714843 v -2.815429 h -0.714843 v -0.773438 h 2.554687 v 0.773438 h -0.714844 v 2.815429 h 0.714844 z m 2.888672,0.08496 q -0.486328,0 -0.899414,-0.143555 -0.410156,-0.143554 -0.706055,-0.427734 -0.295898,-0.28418 -0.459961,-0.708985 -0.161133,-0.424804 -0.161133,-0.981445 0,-0.518554 0.155274,-0.940429 0.155273,-0.421875 0.451172,-0.723633 0.284179,-0.290039 0.703125,-0.448242 0.421875,-0.158204 0.919922,-0.158204 0.27539,0 0.495117,0.03223 0.222656,0.0293 0.410156,0.0791 0.196289,0.05566 0.354492,0.125976 0.161133,0.06738 0.28125,0.125977 v 1.057617 h -0.128906 q -0.08203,-0.07031 -0.208008,-0.166992 -0.123047,-0.09668 -0.28125,-0.19043 -0.161133,-0.09375 -0.348633,-0.158203 -0.1875,-0.06445 -0.401367,-0.06445 -0.237304,0 -0.451172,0.07617 -0.213867,0.07324 -0.395507,0.246093 -0.172852,0.166993 -0.28125,0.442383 -0.105469,0.275391 -0.105469,0.667969 0,0.410156 0.114258,0.685547 0.117187,0.27539 0.292968,0.433593 0.178711,0.161133 0.398438,0.231446 0.219726,0.06738 0.433594,0.06738 0.205078,0 0.404296,-0.06152 0.202149,-0.06152 0.372071,-0.166992 0.143554,-0.08496 0.266601,-0.181641 0.123047,-0.09668 0.202149,-0.166992 h 0.117187 v 1.042969 q -0.164062,0.07324 -0.313476,0.137695 -0.149414,0.06445 -0.313477,0.111328 -0.213867,0.06152 -0.401367,0.09375 -0.1875,0.03223 -0.515625,0.03223 z M 32.790215,18 H 29.64373 v -4.362305 h 1.125 v 3.518555 h 2.021485 z m 3.832031,0 h -3.155274 v -4.362305 h 3.155274 v 0.84375 h -2.036133 v 0.75293 h 1.889648 v 0.84375 h -1.889648 v 1.078125 h 2.036133 z"
     id="text2"
     style="font-weight:bold;font-size:6px;text-anchor:middle;fill:#ffffff"
     aria-label="PARTICLE" />
  <!-- Labels for controls -->
  <path
     d="M 8.0432129,28.634714 H 7.1240234 v 0.512695 h 0.789795 v 0.214844 h -0.789795 v 0.875244 H 6.8823242 V 28.41987 H 8.0432129 Z M 9.822998,30.237497 H 9.5092773 L 8.9013672,29.514841 H 8.560791 v 0.722656 H 8.3190918 V 28.41987 H 8.828125 q 0.1647949,0 0.2746582,0.02197 0.1098633,0.02075 0.1977539,0.07568 0.098877,0.06226 0.1538086,0.157471 0.056152,0.09399 0.056152,0.239258 0,0.196533 -0.098877,0.32959 -0.098877,0.131836 -0.2722168,0.198974 z M 9.2578125,28.931345 q 0,-0.07813 -0.028076,-0.13794 -0.026855,-0.06104 -0.090332,-0.102539 -0.05249,-0.0354 -0.1245117,-0.04883 -0.072021,-0.01465 -0.1696778,-0.01465 H 8.560791 v 0.686035 h 0.2441406 q 0.1147461,0 0.2001954,-0.01953 0.085449,-0.02075 0.1452636,-0.07568 0.054932,-0.05127 0.080566,-0.117188 0.026855,-0.06714 0.026855,-0.169677 z m 1.9970705,1.306152 h -1.19751 V 28.41987 h 1.19751 v 0.214844 h -0.955811 v 0.498047 h 0.955811 v 0.214843 h -0.955811 v 0.675049 h 0.955811 z m 2.004394,0.445557 q -0.07324,0.01831 -0.145263,0.02563 -0.0708,0.0085 -0.145264,0.0085 -0.212402,0 -0.341797,-0.117187 -0.128174,-0.115967 -0.13916,-0.333252 -0.0293,0.0049 -0.05737,0.0061 -0.02686,0.0024 -0.05249,0.0024 -0.191651,0 -0.349121,-0.06348 -0.15625,-0.06348 -0.266114,-0.184326 -0.109863,-0.12085 -0.169677,-0.296631 -0.05859,-0.175781 -0.05859,-0.401611 0,-0.222168 0.05859,-0.397949 0.05859,-0.177002 0.170898,-0.302735 0.107422,-0.119629 0.266113,-0.183105 0.159912,-0.06348 0.347901,-0.06348 0.195312,0 0.350341,0.0647 0.15625,0.06348 0.264893,0.181884 0.111084,0.122071 0.169678,0.299073 0.05981,0.177001 0.05981,0.401611 0,0.333252 -0.136718,0.561523 -0.135499,0.228272 -0.364991,0.319825 0.0049,0.13916 0.06592,0.216064 0.06103,0.0769 0.222168,0.0769 0.05005,0 0.118408,-0.01587 0.06958,-0.01465 0.09888,-0.02686 h 0.03296 z m -0.288086,-1.35376 q 0,-0.354004 -0.158691,-0.545654 -0.158691,-0.192872 -0.43335,-0.192872 -0.277099,0 -0.435791,0.192872 -0.15747,0.19165 -0.15747,0.545654 0,0.357666 0.161132,0.548096 0.161133,0.189209 0.432129,0.189209 0.270996,0 0.430909,-0.189209 0.161132,-0.19043 0.161132,-0.548096 z"
     id="text3"
     style="font-size:2.5px;text-anchor:middle;fill:#ffffff"
     aria-label="FREQ" />
  <path
     d="m 18.36997,28.969186 q 0,0.12085 -0.04273,0.22461 -0.0415,0.102539 -0.117187,0.178222 -0.09399,0.09399 -0.222168,0.141602 -0.128174,0.04639 -0.323486,0.04639 h -0.2417 v 0.677487 H 17.181 V 28.41987 h 0.493164 q 0.163574,0 0.2771,0.02808 0.113525,0.02686 0.201416,0.08545 0.10376,0.06958 0.159912,0.17334 0.05737,0.10376 0.05737,0.262451 z m -0.251465,0.0061 q 0,-0.09399 -0.03296,-0.163574 -0.03296,-0.06958 -0.100098,-0.113526 -0.05859,-0.03784 -0.134277,-0.05371 -0.07446,-0.01709 -0.189209,-0.01709 h -0.239258 v 0.726318 h 0.203858 q 0.146484,0 0.238037,-0.02564 0.09155,-0.02685 0.148926,-0.08423 0.05737,-0.05859 0.08057,-0.123291 0.02441,-0.0647 0.02441,-0.145264 z m 1.210938,1.262211 H 18.611669 V 30.05195 h 0.238037 V 28.605417 H 18.611669 V 28.41987 h 0.717774 v 0.185547 h -0.238038 v 1.446533 h 0.238038 z m 1.707763,-1.602783 h -0.649414 v 1.602783 H 20.146093 V 28.634714 H 19.496679 V 28.41987 h 1.540527 z m 1.599121,1.470947 q -0.06714,0.0293 -0.12207,0.05493 -0.05371,0.02563 -0.141602,0.05371 -0.07446,0.02319 -0.162353,0.03906 -0.08667,0.01709 -0.19165,0.01709 -0.197754,0 -0.360108,-0.05493 -0.161133,-0.05615 -0.280762,-0.17456 -0.117187,-0.115967 -0.183105,-0.29419 -0.06592,-0.179443 -0.06592,-0.416259 0,-0.22461 0.06348,-0.401612 0.06348,-0.177002 0.183105,-0.299072 0.115967,-0.118408 0.279541,-0.180664 0.164795,-0.06226 0.36499,-0.06226 0.146485,0 0.291748,0.0354 0.146485,0.0354 0.324707,0.124512 v 0.286865 h -0.01831 q -0.150147,-0.125732 -0.297852,-0.183105 -0.147705,-0.05737 -0.316162,-0.05737 -0.137939,0 -0.249023,0.04517 -0.109864,0.04394 -0.196534,0.137939 -0.08423,0.09155 -0.131835,0.231934 -0.04639,0.13916 -0.04639,0.322266 0,0.19165 0.05127,0.329589 0.05249,0.13794 0.134278,0.22461 0.08545,0.09033 0.198974,0.134277 0.114746,0.04272 0.2417,0.04272 0.17456,0 0.327148,-0.05982 0.152588,-0.05981 0.285645,-0.179443 h 0.01709 z m 1.732178,0.131836 h -0.241699 v -0.889893 h -0.906983 v 0.889893 H 22.978124 V 28.41987 h 0.241699 v 0.712891 h 0.906983 V 28.41987 h 0.241699 z"
     id="text5"
     style="font-size:2.5px;text-anchor:middle;fill:#ffffff"
     aria-label="PITCH" />
  <path
     d="m 7.6062012,50.10322 q -0.1489258,0.06836 -0.3259278,0.119629 -0.1757812,0.05005 -0.3405761,0.05005 -0.2124024,0 -0.3894043,-0.05859 -0.177002,-0.05859 -0.3015137,-0.175782 -0.1257324,-0.118408 -0.1940918,-0.29541 -0.068359,-0.178222 -0.068359,-0.41626 0,-0.435791 0.2539063,-0.687255 0.2551269,-0.252686 0.6994629,-0.252686 0.1550293,0 0.3161621,0.03784 0.1623535,0.03662 0.3491211,0.125732 v 0.286866 h -0.021973 q -0.037842,-0.0293 -0.1098633,-0.07691 -0.072021,-0.04761 -0.1416015,-0.07934 -0.084229,-0.03784 -0.1916504,-0.06226 -0.1062012,-0.02564 -0.2416992,-0.02564 -0.3051758,0 -0.4833985,0.196533 -0.1770019,0.195313 -0.1770019,0.529785 0,0.352783 0.1855468,0.549317 0.1855469,0.195312 0.5053711,0.195312 0.1171875,0 0.2331543,-0.02319 0.1171875,-0.02319 0.2050782,-0.05982 V 49.535593 H 6.8798828 V 49.32319 h 0.7263184 z m 1.9262695,0.134277 H 9.21875 L 8.6108398,49.514841 H 8.2702637 v 0.722656 H 8.0285645 V 48.41987 h 0.5090332 q 0.1647949,0 0.2746582,0.02197 0.1098632,0.02075 0.1977539,0.07568 0.098877,0.06226 0.1538086,0.157471 0.056152,0.09399 0.056152,0.239258 0,0.196533 -0.098877,0.32959 -0.098877,0.131836 -0.2722168,0.198974 z M 8.9672852,48.931345 q 0,-0.07813 -0.028076,-0.13794 -0.026855,-0.06104 -0.090332,-0.102539 -0.05249,-0.0354 -0.1245118,-0.04883 -0.072021,-0.01465 -0.1696777,-0.01465 h -0.284424 v 0.686035 h 0.2441406 q 0.1147461,0 0.2001953,-0.01953 0.085449,-0.02075 0.1452637,-0.07568 0.054932,-0.05127 0.080566,-0.117188 0.026855,-0.06714 0.026855,-0.169677 z m 2.2326658,1.306152 H 10.942383 L 10.76416,49.730905 H 9.9780273 L 9.7998047,50.237497 H 9.5544434 L 10.216064,48.41987 h 0.322266 z m -0.510254,-0.714111 -0.318603,-0.892334 -0.319824,0.892334 z m 1.427002,0.714111 H 11.398926 V 50.05195 h 0.238037 V 48.605417 H 11.398926 V 48.41987 h 0.717773 v 0.185547 h -0.238037 v 1.446533 h 0.238037 z m 1.798096,0 H 13.615723 L 12.753906,48.61152 v 1.625977 h -0.22583 V 48.41987 h 0.374756 l 0.786133,1.484375 V 48.41987 h 0.22583 z"
     id="text6"
     style="font-size:2.5px;text-anchor:middle;fill:#ffffff"
     aria-label="GRAIN" />
  <path
     d="m 18.716694,49.330515 q 0,0.247802 -0.108643,0.449218 -0.107422,0.201416 -0.286865,0.3125 -0.124512,0.0769 -0.27832,0.111084 -0.152588,0.03418 -0.402832,0.03418 H 17.181049 V 48.41987 h 0.454102 q 0.266113,0 0.422363,0.03906 0.157471,0.03784 0.266113,0.10498 0.185547,0.115967 0.289307,0.308838 0.10376,0.192871 0.10376,0.457764 z m -0.252686,-0.0037 q 0,-0.213623 -0.07446,-0.360107 -0.07446,-0.146484 -0.222168,-0.230713 -0.107421,-0.06103 -0.228271,-0.08423 -0.12085,-0.02441 -0.289307,-0.02441 h -0.22705 v 1.402587 h 0.22705 q 0.174561,0 0.303955,-0.02563 0.130616,-0.02564 0.239258,-0.09522 0.135498,-0.08667 0.202637,-0.228272 0.06836,-0.141601 0.06836,-0.354004 z m 1.840821,0.910682 h -1.19751 V 48.41987 h 1.19751 v 0.214844 h -0.955811 v 0.498047 h 0.955811 v 0.214843 h -0.955811 v 0.675049 h 0.955811 z m 1.770019,0 H 21.775776 L 20.91396,48.61152 v 1.625977 H 20.688129 V 48.41987 h 0.374756 l 0.786133,1.484375 V 48.41987 h 0.22583 z m 1.804199,-0.518799 q 0,0.106201 -0.05005,0.209961 -0.04883,0.10376 -0.13794,0.175781 -0.09766,0.07813 -0.228271,0.122071 -0.129395,0.04395 -0.3125,0.04395 -0.196534,0 -0.354004,-0.03662 -0.15625,-0.03662 -0.318604,-0.108643 v -0.302734 h 0.01709 q 0.13794,0.114746 0.318604,0.177002 0.180664,0.06226 0.339355,0.06226 0.224609,0 0.349121,-0.08423 0.125733,-0.08423 0.125733,-0.224609 0,-0.12085 -0.05982,-0.178223 -0.05859,-0.05737 -0.179443,-0.08911 -0.09155,-0.02441 -0.198975,-0.04028 -0.106201,-0.01587 -0.22583,-0.04028 -0.241699,-0.05127 -0.358887,-0.17456 -0.115966,-0.124512 -0.115966,-0.323486 0,-0.228272 0.192871,-0.373536 0.192871,-0.146484 0.489502,-0.146484 0.19165,0 0.351562,0.03662 0.159912,0.03662 0.283203,0.09033 v 0.285645 h -0.01709 q -0.103759,-0.08789 -0.273437,-0.145264 -0.168457,-0.05859 -0.345459,-0.05859 -0.194092,0 -0.3125,0.08057 -0.117188,0.08057 -0.117188,0.207519 0,0.113526 0.05859,0.178223 0.05859,0.0647 0.206299,0.09888 0.07813,0.01709 0.222168,0.0415 0.144043,0.02441 0.244141,0.05005 0.202636,0.05371 0.305175,0.162353 0.102539,0.108643 0.102539,0.303955 z"
     id="text7"
     style="font-size:2.5px;text-anchor:middle;fill:#ffffff"
     aria-label="DENS" />
  <path
     d="m 6.6998291,70.105661 q -0.067139,0.0293 -0.1220703,0.05493 -0.053711,0.02563 -0.1416016,0.05371 -0.074463,0.02319 -0.1623535,0.03906 -0.08667,0.01709 -0.1916504,0.01709 -0.1977539,0 -0.3601074,-0.05493 -0.1611328,-0.05615 -0.2807617,-0.17456 -0.1171875,-0.115967 -0.1831055,-0.29419 -0.065918,-0.179443 -0.065918,-0.416259 0,-0.22461 0.063477,-0.401612 0.063477,-0.177002 0.1831055,-0.299072 0.1159668,-0.118408 0.279541,-0.180664 0.1647949,-0.06226 0.3649902,-0.06226 0.1464844,0 0.2917481,0.0354 0.1464843,0.0354 0.324707,0.124512 v 0.286865 h -0.01831 Q 6.5313721,68.707956 6.383667,68.650583 q -0.1477051,-0.05737 -0.3161621,-0.05737 -0.1379395,0 -0.2490235,0.04517 -0.1098632,0.04394 -0.1965332,0.137939 -0.084229,0.09155 -0.1318359,0.231934 -0.046387,0.13916 -0.046387,0.322266 0,0.19165 0.05127,0.329589 0.05249,0.13794 0.1342774,0.22461 0.085449,0.09033 0.1989746,0.134277 0.1147461,0.04273 0.2416992,0.04273 0.1745605,0 0.3271484,-0.05982 0.1525879,-0.05981 0.2856446,-0.179443 h 0.01709 z m 1.7102051,-0.598144 q 0,0.197753 -0.043945,0.345459 -0.042725,0.146484 -0.1416016,0.24414 -0.093994,0.09277 -0.2197266,0.135498 -0.1257324,0.04273 -0.2929687,0.04273 -0.1708984,0 -0.2978516,-0.04517 -0.1269531,-0.04517 -0.213623,-0.133057 -0.098877,-0.100098 -0.1428223,-0.241699 -0.042725,-0.141602 -0.042725,-0.3479 v -1.087647 h 0.2416992 v 1.099854 q 0,0.147705 0.019531,0.233154 0.020752,0.08545 0.068359,0.155029 0.053711,0.07935 0.1452636,0.119629 0.092773,0.04028 0.222168,0.04028 0.1306152,0 0.222168,-0.03906 0.091553,-0.04028 0.1464843,-0.12085 0.047607,-0.06958 0.067139,-0.158691 0.020752,-0.09033 0.020752,-0.223389 V 68.41987 H 8.4100342 Z M 10.167847,68.634714 H 9.5184326 v 1.602783 H 9.2767334 V 68.634714 H 8.6273193 V 68.41987 h 1.5405277 z m 1.538086,-0.0061 q 0.111084,0.122071 0.169677,0.299073 0.05982,0.177001 0.05982,0.401611 0,0.224609 -0.06104,0.402832 -0.05982,0.177002 -0.168457,0.29541 -0.112305,0.123291 -0.266114,0.185547 -0.152588,0.06226 -0.349121,0.06226 -0.19165,0 -0.349121,-0.06348 -0.15625,-0.06348 -0.266113,-0.184326 -0.109863,-0.12085 -0.169678,-0.296631 -0.05859,-0.175781 -0.05859,-0.401611 0,-0.222168 0.05859,-0.397949 0.05859,-0.177002 0.170899,-0.302735 0.107421,-0.119629 0.266113,-0.183105 0.159912,-0.06348 0.3479,-0.06348 0.195313,0 0.350342,0.0647 0.15625,0.06348 0.264893,0.181884 z m -0.02197,0.700684 q 0,-0.354004 -0.158691,-0.545654 -0.158692,-0.192872 -0.43335,-0.192872 -0.2771,0 -0.435791,0.192872 -0.157471,0.19165 -0.157471,0.545654 0,0.357666 0.161133,0.548096 0.161133,0.189209 0.432129,0.189209 0.270996,0 0.430908,-0.189209 0.161133,-0.19043 0.161133,-0.548096 z m 1.795654,-0.69458 h -0.919189 v 0.512695 h 0.789795 v 0.214844 h -0.789798 v 0.87524 H 12.318726 V 68.41987 h 1.160888 z m 1.436768,0 h -0.91919 v 0.512695 h 0.789795 v 0.214844 h -0.789798 v 0.87524 H 13.755493 V 68.41987 h 1.160889 z"
     id="text8"
     style="font-size:2.5px;text-anchor:middle;fill:#ffffff"
     aria-label="CUTOFF" />
  <path
     d="m 19.714008,70.237497 h -0.31372 l -0.607911,-0.722656 h -0.340576 v 0.722656 H 18.210102 V 68.41987 h 0.509033 q 0.164795,0 0.274658,0.02197 0.109864,0.02075 0.197754,0.07568 0.09888,0.06226 0.153809,0.157471 0.05615,0.09399 0.05615,0.239258 0,0.196533 -0.09888,0.32959 -0.09888,0.131836 -0.272216,0.198974 z m -0.565185,-1.306152 q 0,-0.07813 -0.02808,-0.13794 -0.02686,-0.06104 -0.09033,-0.102539 -0.05249,-0.0354 -0.124512,-0.04883 -0.07202,-0.01465 -0.169678,-0.01465 h -0.284424 v 0.686035 h 0.244141 q 0.114746,0 0.200195,-0.01953 0.08545,-0.02075 0.145264,-0.07568 0.05493,-0.05127 0.08057,-0.117188 0.02686,-0.06714 0.02686,-0.169677 z m 1.99707,1.306152 h -1.19751 V 68.41987 h 1.19751 v 0.214844 h -0.95581 v 0.498047 h 0.95581 v 0.214843 h -0.95581 v 0.675049 h 0.95581 z m 1.704102,-0.518799 q 0,0.106201 -0.05005,0.209961 -0.04883,0.10376 -0.13794,0.175781 -0.09766,0.07813 -0.228271,0.122071 -0.129395,0.04395 -0.3125,0.04395 -0.196533,0 -0.354004,-0.03662 -0.15625,-0.03662 -0.318604,-0.108643 v -0.302734 h 0.01709 q 0.13794,0.114746 0.318604,0.177002 0.180664,0.06226 0.339355,0.06226 0.22461,0 0.349121,-0.08423 0.125733,-0.08423 0.125733,-0.224609 0,-0.12085 -0.05982,-0.178223 -0.05859,-0.05737 -0.179443,-0.08911 -0.09155,-0.02441 -0.198975,-0.04028 -0.106201,-0.01587 -0.22583,-0.04028 -0.241699,-0.05127 -0.358886,-0.17456 -0.115967,-0.124512 -0.115967,-0.323486 0,-0.228272 0.192871,-0.373536 0.192871,-0.146484 0.489502,-0.146484 0.19165,0 0.351562,0.03662 0.159912,0.03662 0.283203,0.09033 v 0.285645 h -0.01709 q -0.10376,-0.08789 -0.273438,-0.145264 -0.168457,-0.05859 -0.345459,-0.05859 -0.194092,0 -0.3125,0.08057 -0.117187,0.08057 -0.117187,0.207519 0,0.113526 0.05859,0.178223 0.05859,0.0647 0.206299,0.09888 0.07813,0.01709 0.222168,0.0415 0.144043,0.02441 0.244141,0.05005 0.202637,0.05371 0.305176,0.162353 0.102539,0.108643 0.102539,0.303955 z"
     id="text9"
     style="font-size:2.5px;text-anchor:middle;fill:#ffffff"
     aria-label="RES" />
  <path
     d="m 8.9508057,89.678415 q 0,0.135498 -0.05127,0.239258 -0.05127,0.10376 -0.1379394,0.170898 -0.1025387,0.08057 -0.2258297,0.114746 -0.1220703,0.03418 -0.3112793,0.03418 H 7.5799561 V 88.41987 h 0.53833 q 0.1989746,0 0.2978516,0.01465 0.098877,0.01465 0.189209,0.06104 0.1000976,0.05249 0.1452637,0.135498 0.045166,0.08179 0.045166,0.196533 0,0.129394 -0.065918,0.220947 -0.065918,0.09033 -0.1757813,0.145264 v 0.0098 q 0.1843262,0.03784 0.2905274,0.162354 0.1062012,0.123291 0.1062012,0.3125 z M 8.5443115,88.859323 q 0,-0.06592 -0.021973,-0.111084 -0.021973,-0.04517 -0.070801,-0.07324 -0.057373,-0.03296 -0.1391602,-0.04028 -0.081787,-0.0085 -0.2026367,-0.0085 H 7.8216553 v 0.524902 h 0.3125 q 0.1135254,0 0.180664,-0.01099 0.067139,-0.01221 0.1245118,-0.04883 0.057373,-0.03662 0.080566,-0.09399 0.024414,-0.05859 0.024414,-0.13794 z m 0.1550293,0.828858 q 0,-0.109864 -0.032959,-0.174561 -0.032959,-0.0647 -0.1196289,-0.109863 -0.058594,-0.03052 -0.1428222,-0.03906 -0.083008,-0.0098 -0.2026368,-0.0098 H 7.8216553 v 0.676269 h 0.3198242 q 0.1586914,0 0.2600098,-0.01587 0.1013183,-0.01709 0.1660156,-0.06104 0.068359,-0.04761 0.1000976,-0.108643 0.031738,-0.06104 0.031738,-0.15747 z m 1.7834472,-0.718995 q 0,0.12085 -0.04272,0.22461 -0.0415,0.102539 -0.117187,0.178222 -0.09399,0.09399 -0.222168,0.141602 -0.1281738,0.04639 -0.3234863,0.04639 H 9.5355225 v 0.677487 H 9.2938232 V 88.41987 h 0.4931641 q 0.1635742,0 0.2770997,0.02808 0.113525,0.02686 0.201416,0.08545 0.10376,0.06958 0.159912,0.17334 0.05737,0.10376 0.05737,0.262451 z m -0.251465,0.0061 q 0,-0.09399 -0.03296,-0.163574 -0.03296,-0.06958 -0.100097,-0.113526 -0.05859,-0.03784 -0.1342777,-0.05371 -0.074463,-0.01709 -0.189209,-0.01709 H 9.5355225 v 0.726318 h 0.2038574 q 0.1464844,0 0.2380371,-0.02564 0.091553,-0.02685 0.148926,-0.08423 0.05737,-0.05859 0.08057,-0.123291 0.02441,-0.0647 0.02441,-0.145264 z m 2.188721,1.262211 h -0.241699 v -1.566162 l -0.505371,1.065674 h -0.144043 l -0.501709,-1.065674 v 1.566162 h -0.22583 V 88.41987 h 0.329589 l 0.48462,1.011963 0.46875,-1.011963 h 0.335693 z"
     id="text10"
     style="font-size:2.5px;text-anchor:middle;fill:#ffffff"
     aria-label="BPM" />
  <path
     d="m 19.623066,88.41987 -0.661621,1.817627 H 18.639179 L 17.977558,88.41987 h 0.258789 l 0.570069,1.599121 0.570068,-1.599121 z m 1.630859,0.20874 q 0.111084,0.122071 0.169678,0.299073 0.05982,0.177001 0.05982,0.401611 0,0.224609 -0.06104,0.402832 -0.05981,0.177002 -0.168457,0.29541 -0.112304,0.123291 -0.266113,0.185547 -0.152588,0.06226 -0.349121,0.06226 -0.19165,0 -0.349121,-0.06348 -0.15625,-0.06348 -0.266113,-0.184326 -0.109864,-0.12085 -0.169678,-0.296631 -0.05859,-0.175781 -0.05859,-0.401611 0,-0.222168 0.05859,-0.397949 0.05859,-0.177002 0.170898,-0.302735 0.107422,-0.119629 0.266114,-0.183105 0.159912,-0.06348 0.3479,-0.06348 0.195312,0 0.350342,0.0647 0.15625,0.06348 0.264892,0.181884 z m -0.02197,0.700684 q 0,-0.354004 -0.158692,-0.545654 -0.158691,-0.192872 -0.433349,-0.192872 -0.2771,0 -0.435791,0.192872 -0.157471,0.19165 -0.157471,0.545654 0,0.357666 0.161133,0.548096 0.161133,0.189209 0.432129,0.189209 0.270996,0 0.430908,-0.189209 0.161133,-0.19043 0.161133,-0.548096 z m 1.784666,0.908203 H 21.866718 V 88.41987 h 0.2417 v 1.602783 h 0.908203 z"
     id="text11"
     style="font-size:2.5px;text-anchor:middle;fill:#ffffff"
     aria-label="VOL" />
  <!-- Input/Output labels -->
  <path
     d="m 9.3706055,107.132 q -0.053711,0.0234 -0.097656,0.0439 -0.042969,0.0205 -0.1132812,0.043 -0.05957,0.0186 -0.1298828,0.0312 -0.069336,0.0137 -0.1533204,0.0137 -0.1582031,0 -0.2880859,-0.0439 -0.1289062,-0.0449 -0.2246094,-0.13965 -0.09375,-0.0928 -0.1464843,-0.23535 -0.052734,-0.14355 -0.052734,-0.33301 0,-0.17968 0.050781,-0.32128 0.050781,-0.14161 0.1464844,-0.23926 0.092773,-0.0947 0.2236328,-0.14453 0.131836,-0.0498 0.2919922,-0.0498 0.1171875,0 0.2333984,0.0283 0.1171875,0.0283 0.2597657,0.0996 v 0.22949 H 9.355957 q -0.1201172,-0.10058 -0.2382812,-0.14648 -0.1181641,-0.0459 -0.2529297,-0.0459 -0.1103516,0 -0.1992188,0.0361 -0.087891,0.0352 -0.1572265,0.11035 -0.067383,0.0733 -0.1054688,0.18555 -0.037109,0.11133 -0.037109,0.25781 0,0.15332 0.041016,0.26368 0.041992,0.11035 0.1074219,0.17968 0.068359,0.0723 0.1591796,0.10743 0.091797,0.0342 0.1933594,0.0342 0.1396485,0 0.2617188,-0.0479 0.1220703,-0.0478 0.2285156,-0.14355 h 0.013672 z m 1.1933595,0.10547 H 9.644043 v -1.4541 h 0.1933593 v 1.28223 h 0.7265627 z m 1.362305,0 h -0.250977 l -0.575195,-0.64746 -0.144532,0.1543 v 0.49316 h -0.193359 v -1.4541 h 0.193359 v 0.75879 l 0.706055,-0.75879 h 0.234375 l -0.649414,0.68359 z"
     id="text12"
     style="font-size:2px;text-anchor:middle;fill:#ffffff"
     aria-label="CLK" />
  <path
     d="m 18.91457,105.95524 h -0.735352 v 0.41016 h 0.631836 v 0.17187 h -0.631836 v 0.7002 h -0.193359 v -1.4541 h 0.928711 z m 1.423828,1.28223 h -0.250977 l -0.486328,-0.57812 h -0.272461 v 0.57812 h -0.193359 v -1.4541 H 19.5425 q 0.131835,0 0.219726,0.0176 0.08789,0.0166 0.158203,0.0605 0.0791,0.0498 0.123047,0.12598 0.04492,0.0752 0.04492,0.19141 0,0.15722 -0.0791,0.26367 -0.0791,0.10547 -0.217773,0.15918 z m -0.452148,-1.04492 q 0,-0.0625 -0.02246,-0.11035 -0.02149,-0.0488 -0.07227,-0.082 -0.04199,-0.0283 -0.09961,-0.0391 -0.05762,-0.0117 -0.135743,-0.0117 h -0.227539 v 0.54883 h 0.195313 q 0.0918,0 0.160156,-0.0156 0.06836,-0.0166 0.116211,-0.0606 0.04394,-0.041 0.06445,-0.0937 0.02149,-0.0537 0.02149,-0.13574 z m 1.597656,1.04492 h -0.958008 v -1.4541 h 0.958008 v 0.17187 h -0.764649 v 0.39844 h 0.764649 v 0.17188 h -0.764649 v 0.54004 h 0.764649 z m 1.603515,0.35645 q -0.05859,0.0146 -0.116211,0.0205 -0.05664,0.007 -0.11621,0.007 -0.169922,0 -0.273438,-0.0937 -0.102539,-0.0928 -0.111328,-0.2666 -0.02344,0.004 -0.0459,0.005 -0.02148,0.002 -0.04199,0.002 -0.15332,0 -0.279297,-0.0508 -0.125,-0.0508 -0.21289,-0.14746 -0.08789,-0.0967 -0.135742,-0.2373 -0.04687,-0.14063 -0.04687,-0.32129 0,-0.17774 0.04687,-0.31836 0.04687,-0.1416 0.136718,-0.24219 0.08594,-0.0957 0.212891,-0.14648 0.12793,-0.0508 0.27832,-0.0508 0.15625,0 0.280274,0.0517 0.125,0.0508 0.211914,0.14551 0.08887,0.0977 0.135742,0.23926 0.04785,0.1416 0.04785,0.32129 0,0.2666 -0.109375,0.44922 -0.108399,0.18261 -0.291993,0.25586 0.0039,0.11132 0.05274,0.17285 0.04883,0.0615 0.177734,0.0615 0.04004,0 0.09473,-0.0127 0.05566,-0.0117 0.0791,-0.0215 h 0.02637 z m -0.230468,-1.08301 q 0,-0.28321 -0.126953,-0.43653 -0.126954,-0.15429 -0.34668,-0.15429 -0.22168,0 -0.348633,0.15429 -0.125977,0.15332 -0.125977,0.43653 0,0.28613 0.128907,0.43847 0.128906,0.15137 0.345703,0.15137 0.216797,0 0.344726,-0.15137 0.128907,-0.15234 0.128907,-0.43847 z"
     id="text13"
     style="font-size:2px;text-anchor:middle;fill:#ffffff"
     aria-label="FREQ" />
  <path
     d="m 30.877677,88.783781 -0.529297,1.4541 h -0.257812 l -0.529297,-1.4541 h 0.207031 l 0.456055,1.2793 0.456055,-1.2793 z m 0.733399,1.4541 h -0.574219 v -0.14844 h 0.19043 v -1.15722 h -0.19043 v -0.14844 h 0.574219 v 0.14844 h -0.19043 v 1.15722 h 0.19043 z m 1.366211,-1.28223 h -0.519532 v 1.28223 h -0.193359 v -1.28223 h -0.519531 v -0.17187 h 1.232422 z m 1.224609,1.28223 h -0.206055 l -0.142578,-0.40527 h -0.628906 l -0.142578,0.40527 H 32.88549 l 0.529297,-1.4541 h 0.257812 z m -0.408203,-0.57129 -0.254883,-0.71387 -0.255859,0.71387 z m 1.548828,0.57129 h -0.919922 v -1.4541 h 0.193359 v 1.28223 h 0.726563 z"
     id="text14"
     style="font-size:2px;text-anchor:middle;fill:#ffffff"
     aria-label="VITAL" />
  <path
     d="M 10.558594,125 H 9.6386719 v -1.4541 h 0.1933594 v 1.28223 h 0.7265627 z"
     id="text15"
     style="font-size:2px;text-anchor:middle;fill:#ffffff"
     aria-label="L" />
  <path
     d="M 21.183125,125 H 20.932148 L 20.44582,124.42188 H 20.173359 V 125 H 19.98 v -1.4541 h 0.407226 q 0.131836,0 0.219727,0.0176 0.08789,0.0166 0.158203,0.0605 0.0791,0.0498 0.123047,0.12598 0.04492,0.0752 0.04492,0.19141 0,0.15722 -0.0791,0.26367 -0.0791,0.10547 -0.217773,0.15918 z m -0.452149,-1.04492 q 0,-0.0625 -0.02246,-0.11035 -0.02148,-0.0488 -0.07226,-0.082 -0.04199,-0.0283 -0.09961,-0.0391 -0.05762,-0.0117 -0.135742,-0.0117 h -0.227539 v 0.54883 h 0.195312 q 0.0918,0 0.160157,-0.0156 0.06836,-0.0166 0.116211,-0.0606 0.04395,-0.041 0.06445,-0.0937 0.02148,-0.0537 0.02148,-0.13574 z"
     id="text16"
     style="font-size:2px;text-anchor:middle;fill:#ffffff"
     aria-label="R" />
</svg>
