<?xml version="1.0" encoding="UTF-8" standalone="no"?>
<svg
   width="45.72mm"
   height="128.5mm"
   viewBox="0 0 45.72 128.5"
   version="1.1"
   id="svg1"
   sodipodi:docname="StereoEffects.svg"
   inkscape:version="1.4.3 (0d15f75, 2025-12-25)"
   xmlns:inkscape="http://www.inkscape.org/namespaces/inkscape"
   xmlns:sodipodi="http://sodipodi.sourceforge.net/DTD/sodipodi-0.dtd"
   xmlns="http://www.w3.org/2000/svg"
   xmlns:svg="http://www.w3.org/2000/svg">
  <sodipodi:namedview
     id="namedview1"
     pagecolor="#ffffff"
     bordercolor="#000000"
     borderopacity="0.25"
     inkscape:showpageshadow="2"
     inkscape:pageopacity="0.0"
     inkscape:pagecheckerboard="0"
     inkscape:deskcolor="#d1d1d1"
     inkscape:document-units="mm"
     inkscape:zoom="1.5998541"
     inkscape:cx="86.257866"
     inkscape:cy="242.83464"
     inkscape:window-width="1920"
     inkscape:window-height="991"
     inkscape:window-x="-9"
     inkscape:window-y="-9"
     inkscape:window-maximized="1"
     inkscape:current-layer="svg1" />
  <defs
     id="defs1" />
  <!-- Panel background -->
  <rect
     width="45.72"
     height="128.5"
     fill="#1a237e"
     id="rect1" />
  <!-- Title: Stereo Effects -->
  <path
     d="m 11.320938,11.169922 q 0,0.169922 -0.08008,0.335937 -0.07813,0.166016 -0.220703,0.28125 -0.15625,0.125 -0.365235,0.195313 -0.207031,0.07031 -0.5,0.07031 -0.3144526,0 -0.5664058,-0.05859 -0.25,-0.05859 -0.5097656,-0.173828 v -0.484375 h 0.027344 q 0.2207031,0.183593 0.5097656,0.283203 0.2890625,0.09961 0.542969,0.09961 0.359375,0 0.558593,-0.134766 0.201172,-0.134765 0.201172,-0.359375 0,-0.193359 -0.0957,-0.285156 -0.09375,-0.0918 -0.287109,-0.142578 -0.146485,-0.03906 -0.31836,-0.06445 -0.169921,-0.02539 -0.3613276,-0.06445 -0.3867188,-0.08203 -0.5742188,-0.279297 -0.1855469,-0.199219 -0.1855469,-0.5175782 0,-0.3652344 0.3085938,-0.5976563 0.3085937,-0.234375 0.7832035,-0.234375 0.30664,0 0.5625,0.058594 0.255859,0.058594 0.453125,0.1445312 v 0.4570313 h -0.02734 q -0.166016,-0.140625 -0.4375,-0.2324219 -0.269531,-0.09375 -0.552735,-0.09375 -0.3105464,0 -0.4999995,0.1289062 -0.1875,0.1289063 -0.1875,0.3320313 0,0.1816406 0.09375,0.2851566 0.09375,0.103515 0.3300781,0.158203 0.1250004,0.02734 0.3554684,0.06641 0.230469,0.03906 0.390625,0.08008 0.324219,0.08594 0.488282,0.259766 0.164062,0.173828 0.164062,0.486328 z m 1.724609,0.810547 q -0.103515,0.02734 -0.226562,0.04492 -0.121094,0.01758 -0.216797,0.01758 -0.333984,0 -0.507812,-0.179688 -0.173829,-0.179687 -0.173829,-0.576172 V 10.126953 H 11.672501 V 9.8183594 h 0.248046 V 9.1914063 h 0.367188 v 0.6269531 h 0.757812 v 0.3085936 h -0.757812 v 0.994141 q 0,0.171875 0.0078,0.269531 0.0078,0.0957 0.05469,0.179688 0.04297,0.07813 0.117187,0.115234 0.07617,0.03516 0.230469,0.03516 0.08984,0 0.1875,-0.02539 0.09766,-0.02734 0.140625,-0.04492 h 0.01953 z m 2.269532,-1.033203 h -1.607422 q 0,0.201172 0.06055,0.351562 0.06055,0.148438 0.166015,0.244141 0.101563,0.09375 0.240235,0.140625 0.140625,0.04687 0.308593,0.04687 0.222657,0 0.447266,-0.08789 0.226563,-0.08984 0.322266,-0.175781 h 0.01953 v 0.400391 q -0.185547,0.07813 -0.378906,0.130859 -0.19336,0.05273 -0.40625,0.05273 -0.542969,0 -0.847657,-0.292968 -0.304687,-0.294922 -0.304687,-0.835938 0,-0.535156 0.291016,-0.849609 0.292968,-0.3144535 0.769531,-0.3144535 0.441406,0 0.679687,0.2578125 0.240235,0.257813 0.240235,0.732422 z m -0.357422,-0.28125 q -0.002,-0.289063 -0.146485,-0.447266 -0.142578,-0.158203 -0.435546,-0.158203 -0.294922,0 -0.470704,0.173828 -0.173828,0.173828 -0.197265,0.431641 z m 2.27539,-0.447266 h -0.01953 q -0.08203,-0.01953 -0.160156,-0.02734 -0.07617,-0.0098 -0.181641,-0.0098 -0.169922,0 -0.328125,0.07617 -0.158203,0.07422 -0.304687,0.193359 V 12 H 15.871719 V 9.8183594 h 0.367188 v 0.3222656 q 0.21875,-0.1757812 0.384765,-0.2480469 0.167969,-0.074219 0.341797,-0.074219 0.0957,0 0.138672,0.00586 0.04297,0.00391 0.128906,0.017578 z m 2.171875,0.728516 h -1.607421 q 0,0.201172 0.06055,0.351562 0.06055,0.148438 0.166016,0.244141 0.101563,0.09375 0.240234,0.140625 0.140625,0.04687 0.308594,0.04687 0.222656,0 0.447266,-0.08789 0.226562,-0.08984 0.322265,-0.175781 h 0.01953 v 0.400391 q -0.185547,0.07813 -0.378907,0.130859 -0.193359,0.05273 -0.40625,0.05273 -0.542968,0 -0.847656,-0.292968 -0.304687,-0.294922 -0.304687,-0.835938 0,-0.535156 0.291015,-0.849609 0.292969,-0.3144535 0.769532,-0.3144535 0.441406,0 0.679687,0.2578125 0.240234,0.257813 0.240234,0.732422 z m -0.357421,-0.28125 q -0.002,-0.289063 -0.146485,-0.447266 -0.142578,-0.158203 -0.435547,-0.158203 -0.294922,0 -0.470703,0.173828 -0.173828,0.173828 -0.197265,0.431641 z m 2.773437,0.24414 q 0,0.533203 -0.273437,0.841797 -0.273438,0.308594 -0.732422,0.308594 -0.462891,0 -0.736328,-0.308594 -0.271485,-0.308594 -0.271485,-0.841797 0,-0.533203 0.271485,-0.841797 0.273437,-0.3105465 0.736328,-0.3105465 0.458984,0 0.732422,0.3105465 0.273437,0.308594 0.273437,0.841797 z m -0.378906,0 q 0,-0.423828 -0.166016,-0.628906 -0.166015,-0.207031 -0.460937,-0.207031 -0.298828,0 -0.464844,0.207031 -0.164063,0.205078 -0.164063,0.628906 0,0.410157 0.166016,0.623047 0.166016,0.210938 0.462891,0.210938 0.292968,0 0.458984,-0.208985 0.167969,-0.210937 0.167969,-0.625 z M 25.74086,12 H 23.824844 V 9.0917969 h 1.916016 v 0.34375 h -1.529297 v 0.7968751 h 1.529297 v 0.34375 h -1.529297 v 1.080078 h 1.529297 z m 1.757812,-2.6835937 h -0.01953 q -0.06055,-0.017578 -0.158203,-0.035156 -0.09766,-0.019531 -0.171875,-0.019531 -0.236328,0 -0.34375,0.1054687 -0.105469,0.1035156 -0.105469,0.3769531 v 0.074219 h 0.66211 V 10.126953 H 26.711563 V 12 H 26.344376 V 10.126953 H 26.096329 V 9.8183594 h 0.248047 v -0.072266 q 0,-0.3886719 0.193359,-0.5957032 0.193359,-0.2089843 0.558594,-0.2089843 0.123047,0 0.220703,0.011719 0.09961,0.011719 0.18164,0.027344 z m 1.40625,0 h -0.01953 q -0.06055,-0.017578 -0.158203,-0.035156 -0.09766,-0.019531 -0.171875,-0.019531 -0.236328,0 -0.34375,0.1054687 -0.105469,0.1035156 -0.105469,0.3769531 v 0.074219 h 0.66211 V 10.126953 H 28.117813 V 12 H 27.750626 V 10.126953 H 27.502579 V 9.8183594 h 0.248047 v -0.072266 q 0,-0.3886719 0.193359,-0.5957032 0.193359,-0.2089843 0.558594,-0.2089843 0.123047,0 0.220703,0.011719 0.09961,0.011719 0.18164,0.027344 z m 2.058594,1.6308597 h -1.607422 q 0,0.201172 0.06055,0.351562 0.06055,0.148438 0.166016,0.244141 0.101562,0.09375 0.240234,0.140625 0.140625,0.04687 0.308594,0.04687 0.222656,0 0.447266,-0.08789 0.226562,-0.08984 0.322265,-0.175781 h 0.01953 v 0.400391 q -0.185546,0.07813 -0.378906,0.130859 -0.193359,0.05273 -0.40625,0.05273 -0.542969,0 -0.847656,-0.292968 -0.304688,-0.294922 -0.304688,-0.835938 0,-0.535156 0.291016,-0.849609 0.292969,-0.3144535 0.769531,-0.3144535 0.441407,0 0.679688,0.2578125 0.240234,0.257813 0.240234,0.732422 z m -0.357422,-0.28125 q -0.002,-0.289063 -0.146484,-0.447266 -0.142578,-0.158203 -0.435547,-0.158203 -0.294922,0 -0.470703,0.173828 -0.173828,0.173828 -0.197266,0.431641 z m 2.527344,1.197265 Q 32.949844,11.951172 32.783829,12 q -0.164063,0.04883 -0.34961,0.04883 -0.236328,0 -0.433593,-0.06836 -0.197266,-0.07031 -0.337891,-0.210938 -0.142578,-0.140625 -0.220703,-0.355468 -0.07813,-0.214844 -0.07813,-0.501954 0,-0.535156 0.292969,-0.839843 0.294921,-0.3046879 0.777343,-0.3046879 0.1875,0 0.367188,0.052734 0.18164,0.052734 0.332031,0.1289063 v 0.4082032 h -0.01953 q -0.167969,-0.130859 -0.347656,-0.201172 -0.177735,-0.07031 -0.347657,-0.07031 -0.3125,0 -0.49414,0.210937 -0.179688,0.208984 -0.179688,0.615234 0,0.394532 0.175781,0.607422 0.177735,0.210938 0.498047,0.210938 0.111328,0 0.226563,-0.0293 0.115234,-0.0293 0.207031,-0.07617 0.08008,-0.04102 0.150391,-0.08594 0.07031,-0.04687 0.111328,-0.08008 h 0.01953 z m 1.603516,0.117188 q -0.103516,0.02734 -0.226563,0.04492 -0.121094,0.01758 -0.216797,0.01758 -0.333984,0 -0.507812,-0.179688 -0.173828,-0.179687 -0.173828,-0.576172 V 10.126953 H 33.363907 V 9.8183594 h 0.248047 V 9.1914063 h 0.367187 v 0.6269531 h 0.757813 v 0.3085936 h -0.757813 v 0.994141 q 0,0.171875 0.0078,0.269531 0.0078,0.0957 0.05469,0.179688 0.04297,0.07813 0.117188,0.115234 0.07617,0.03516 0.230468,0.03516 0.08984,0 0.1875,-0.02539 0.09766,-0.02734 0.140625,-0.04492 h 0.01953 z m 2.001953,-0.609375 q 0,0.298828 -0.248047,0.490234 -0.246094,0.191406 -0.673828,0.191406 -0.242188,0 -0.445313,-0.05664 -0.201172,-0.05859 -0.33789,-0.126953 v -0.41211 h 0.01953 q 0.173828,0.13086 0.386719,0.208985 0.21289,0.07617 0.408203,0.07617 0.242187,0 0.378906,-0.07813 0.136719,-0.07813 0.136719,-0.246094 0,-0.128906 -0.07422,-0.195313 -0.07422,-0.06641 -0.285156,-0.113281 -0.07813,-0.01758 -0.205078,-0.04102 -0.125,-0.02344 -0.228516,-0.05078 -0.287109,-0.07617 -0.408203,-0.222656 -0.119141,-0.148438 -0.119141,-0.363281 0,-0.134766 0.05469,-0.253907 0.05664,-0.11914 0.169922,-0.2128902 0.109375,-0.091797 0.277343,-0.1445313 0.169922,-0.054687 0.378907,-0.054687 0.195312,0 0.394531,0.048828 0.201172,0.046875 0.333984,0.1152344 v 0.3925785 h -0.01953 q -0.140625,-0.103516 -0.341797,-0.173828 -0.201172,-0.07227 -0.394531,-0.07227 -0.201172,0 -0.339844,0.07813 -0.138672,0.07617 -0.138672,0.228516 0,0.134765 0.08398,0.203125 0.08203,0.06836 0.265625,0.111328 0.101562,0.02344 0.226562,0.04687 0.126953,0.02344 0.210938,0.04297 0.255859,0.05859 0.394531,0.201172 0.138672,0.144532 0.138672,0.382813 z"
     id="text-title"
     style="font-size:4px;text-anchor:middle;fill:#ffffff"
     aria-label="Stereo Effects" />
  <!-- Level label -->
  <path
     d="m 20.25209,18.295831 h -1.609863 v -2.544678 h 0.338379 v 2.243897 h 1.271484 z m 1.910645,-0.921143 h -1.406494 q 0,0.176026 0.05298,0.307618 0.05298,0.129882 0.145264,0.213623 0.08887,0.08203 0.210205,0.123047 0.123047,0.04102 0.27002,0.04102 0.194824,0 0.391357,-0.0769 0.198242,-0.07861 0.281982,-0.153809 h 0.01709 v 0.350342 q -0.162353,0.06836 -0.331543,0.114502 -0.169189,0.04614 -0.355468,0.04614 -0.475098,0 -0.7417,-0.256348 -0.266601,-0.258057 -0.266601,-0.731445 0,-0.468262 0.254639,-0.743409 0.256347,-0.275146 0.673339,-0.275146 0.386231,0 0.594727,0.225586 0.210205,0.225586 0.210205,0.640869 z m -0.312744,-0.246093 q -0.0017,-0.25293 -0.128174,-0.391358 -0.124756,-0.138427 -0.381103,-0.138427 -0.258057,0 -0.411866,0.152099 -0.152099,0.1521 -0.172607,0.377686 z m 2.450683,-0.7417 -0.77246,1.908936 h -0.322999 l -0.767334,-1.908936 h 0.348633 l 0.591309,1.519288 0.586182,-1.519288 z m 1.987549,0.987793 h -1.406494 q 0,0.176026 0.05298,0.307618 0.05298,0.129882 0.145263,0.213623 0.08887,0.08203 0.210205,0.123047 0.123047,0.04102 0.27002,0.04102 0.194824,0 0.391357,-0.0769 0.198243,-0.07861 0.281983,-0.153809 h 0.01709 v 0.350342 q -0.162354,0.06836 -0.331543,0.114502 -0.16919,0.04614 -0.355469,0.04614 -0.475098,0 -0.741699,-0.256348 -0.266602,-0.258057 -0.266602,-0.731445 0,-0.468262 0.254639,-0.743409 0.256347,-0.275146 0.67334,-0.275146 0.38623,0 0.594726,0.225586 0.210205,0.225586 0.210205,0.640869 z m -0.312744,-0.246093 q -0.0017,-0.25293 -0.128174,-0.391358 -0.124756,-0.138427 -0.381103,-0.138427 -0.258057,0 -0.411865,0.152099 -0.1521,0.1521 -0.172608,0.377686 z m 1.124512,1.167236 h -0.321289 v -2.65918 h 0.321289 z"
     id="text-level"
     style="font-size:3.5px;text-anchor:middle;fill:#ffffff"
     aria-label="Level" />
  <!-- Delay section labels -->
  <path
     d="m 8.7579489,40.911621 q 0,0.297363 -0.1303711,0.539063 -0.1289063,0.241699 -0.3442383,0.375 -0.1494141,0.09228 -0.3339844,0.1333 Q 7.7662497,42 7.4659567,42 H 6.9151754 v -2.181152 h 0.5449219 q 0.319336,0 0.506836,0.04687 0.1889648,0.04541 0.3193359,0.125976 0.2226562,0.13916 0.347168,0.370606 0.1245117,0.231445 0.1245117,0.549316 z m -0.3032227,-0.0044 q 0,-0.256348 -0.089355,-0.432129 Q 8.2760153,40.299316 8.0987692,40.198242 7.9698629,40.125 7.8248434,40.097168 q -0.1450195,-0.0293 -0.347168,-0.0293 H 7.2052145 v 1.683106 h 0.2724609 q 0.2094727,0 0.3647461,-0.03076 0.1567383,-0.03076 0.2871094,-0.114258 0.1625977,-0.104004 0.2431641,-0.273926 0.082031,-0.169922 0.082031,-0.424804 z m 2.1196288,0.303222 H 9.3687887 q 0,0.150879 0.04541,0.263672 0.04541,0.111328 0.1245117,0.183106 0.076172,0.07031 0.1801758,0.105468 0.1054687,0.03516 0.2314453,0.03516 0.1669923,0 0.3354493,-0.06592 0.169922,-0.06738 0.241699,-0.131836 h 0.01465 v 0.300293 q -0.139161,0.05859 -0.28418,0.09814 -0.14502,0.03955 -0.3046876,0.03955 -0.4072266,0 -0.6357422,-0.219727 -0.2285156,-0.221191 -0.2285156,-0.626953 0,-0.401367 0.2182617,-0.637207 0.2197265,-0.23584 0.5771484,-0.23584 0.3310543,0 0.5097653,0.19336 0.180176,0.193359 0.180176,0.549316 z m -0.268066,-0.210937 q -0.0015,-0.216797 -0.109864,-0.33545 -0.106933,-0.118652 -0.3266597,-0.118652 -0.2211914,0 -0.3530274,0.130371 -0.1303711,0.130371 -0.1479492,0.323731 z M 11.270156,42 h -0.275391 v -2.279297 h 0.275391 z m 1.816406,0 h -0.273926 v -0.174316 q -0.03662,0.0249 -0.09961,0.07031 -0.06152,0.04395 -0.120117,0.07031 -0.06885,0.03369 -0.158203,0.05566 -0.08936,0.02344 -0.209473,0.02344 -0.221191,0 -0.375,-0.146484 -0.153809,-0.146485 -0.153809,-0.373535 0,-0.186036 0.0791,-0.300293 0.08057,-0.115723 0.228516,-0.181641 0.149414,-0.06592 0.358886,-0.08935 0.209473,-0.02344 0.449707,-0.03516 v -0.04248 q 0,-0.09375 -0.03369,-0.155274 -0.03223,-0.06152 -0.09375,-0.09668 -0.05859,-0.03369 -0.140625,-0.04541 -0.08203,-0.01172 -0.171387,-0.01172 -0.108398,0 -0.241699,0.0293 -0.133301,0.02783 -0.275391,0.08203 h -0.01465 v -0.279785 q 0.08057,-0.02197 0.23291,-0.04834 0.152344,-0.02637 0.300293,-0.02637 0.172852,0 0.300293,0.0293 0.128906,0.02783 0.222656,0.09668 0.09229,0.06738 0.140625,0.174317 0.04834,0.106933 0.04834,0.265136 z m -0.273926,-0.402832 v -0.455566 q -0.125976,0.0073 -0.297363,0.02197 -0.169922,0.01465 -0.269531,0.04248 -0.118652,0.03369 -0.191895,0.105468 -0.07324,0.07031 -0.07324,0.194825 0,0.140625 0.08496,0.212402 0.08496,0.07031 0.259277,0.07031 0.14502,0 0.265137,-0.05566 0.120117,-0.05713 0.222656,-0.13623 z m 2.195801,-1.233398 -0.955078,2.239746 h -0.294434 l 0.304688,-0.682618 -0.651856,-1.557128 h 0.298829 l 0.502441,1.21289 0.506836,-1.21289 z"
     id="text-delay"
     style="font-size:3px;text-anchor:middle;fill:#ffffff"
     aria-label="Delay" />
  <path
     d="m 9.3267965,54.222215 h -0.649414 v 1.602783 H 8.4356833 V 54.222215 H 7.7862692 v -0.214844 h 1.5405273 z m 0.4724121,0.01099 h -0.258789 v -0.238037 h 0.258789 z m -0.014648,1.591793 H 9.555068 v -1.363525 h 0.2294922 z m 2.4438474,0 h -0.229492 v -0.776367 q 0,-0.08789 -0.0085,-0.169678 -0.0073,-0.08179 -0.03296,-0.130615 -0.02808,-0.05249 -0.08057,-0.07935 -0.05249,-0.02686 -0.151367,-0.02686 -0.09644,0 -0.192871,0.04883 -0.09644,0.04761 -0.192871,0.12207 0.0037,0.02808 0.0061,0.06592 0.0024,0.03662 0.0024,0.07324 v 0.87281 h -0.229492 v -0.776367 q 0,-0.09033 -0.0085,-0.170899 -0.0073,-0.08179 -0.03296,-0.130615 -0.02808,-0.05249 -0.08057,-0.07813 -0.05249,-0.02686 -0.151367,-0.02686 -0.09399,0 -0.189209,0.04639 -0.09399,0.04639 -0.187988,0.118409 v 1.018072 h -0.229492 v -1.363525 h 0.229492 v 0.151367 q 0.107422,-0.08911 0.213623,-0.13916 0.107422,-0.05005 0.228271,-0.05005 0.139161,0 0.235596,0.05859 0.09766,0.05859 0.145264,0.162353 0.13916,-0.117187 0.253906,-0.168457 0.114746,-0.05249 0.245361,-0.05249 0.22461,0 0.330811,0.136719 0.107422,0.135498 0.107422,0.379638 z m 1.583252,-0.657959 h -1.004639 q 0,0.125732 0.03784,0.219727 0.03784,0.09277 0.10376,0.152587 0.06348,0.05859 0.150146,0.08789 0.08789,0.0293 0.192871,0.0293 0.13916,0 0.279541,-0.05493 0.141602,-0.05615 0.201416,-0.109863 h 0.01221 v 0.250244 q -0.115966,0.04883 -0.236816,0.08179 -0.12085,0.03296 -0.253906,0.03296 -0.339356,0 -0.529785,-0.183105 -0.19043,-0.184326 -0.19043,-0.522461 0,-0.334473 0.181885,-0.531006 0.183105,-0.196533 0.480957,-0.196533 0.275879,0 0.424804,0.161133 0.150147,0.161132 0.150147,0.457763 z m -0.223389,-0.175781 q -0.0012,-0.180664 -0.09155,-0.279541 -0.08911,-0.09888 -0.272216,-0.09888 -0.184327,0 -0.29419,0.108642 -0.108642,0.108643 -0.123291,0.269776 z"
     id="text-delay-time"
     style="font-size:2.5px;text-anchor:middle;fill:#ffffff"
     aria-label="Time" />
  <path
     d="M 6.3885641,70.222215 H 5.4693747 v 0.512695 h 0.7897949 v 0.214844 H 5.4693747 v 0.875244 H 5.2276754 v -1.817627 h 1.1608887 z m 1.3378906,0.944824 H 6.7218161 q 0,0.125732 0.037842,0.219727 0.037842,0.09277 0.1037597,0.152587 0.063477,0.05859 0.1501465,0.08789 0.087891,0.0293 0.1928711,0.0293 0.1391602,0 0.279541,-0.05493 0.1416016,-0.05615 0.201416,-0.109863 h 0.012207 v 0.250244 q -0.1159668,0.04883 -0.2368164,0.08179 -0.1208496,0.03296 -0.2539063,0.03296 -0.3393555,0 -0.5297851,-0.183105 -0.1904297,-0.184326 -0.1904297,-0.522461 0,-0.334473 0.1818847,-0.531006 0.1831055,-0.196533 0.4809571,-0.196533 0.2758789,0 0.4248047,0.161133 0.1501464,0.161132 0.1501464,0.457763 z M 7.5030661,70.991258 q -0.00122,-0.180664 -0.091553,-0.279541 -0.089111,-0.09888 -0.2722168,-0.09888 -0.1843261,0 -0.2941894,0.108642 -0.1086426,0.108643 -0.123291,0.269776 z m 1.7126464,0.175781 H 8.2110739 q 0,0.125732 0.037842,0.219727 0.037842,0.09277 0.1037597,0.152587 0.063477,0.05859 0.1501465,0.08789 0.087891,0.0293 0.1928711,0.0293 0.1391602,0 0.279541,-0.05493 0.1416016,-0.05615 0.201416,-0.109863 h 0.012207 v 0.250244 q -0.1159668,0.04883 -0.2368164,0.08179 -0.1208496,0.03296 -0.2539063,0.03296 -0.3393554,0 -0.5297851,-0.183105 -0.1904297,-0.184326 -0.1904297,-0.522461 0,-0.334473 0.1818847,-0.531006 0.1831055,-0.196533 0.4809571,-0.196533 0.2758789,0 0.4248047,0.161133 0.1501464,0.161132 0.1501464,0.457763 z M 8.9923239,70.991258 q -0.00122,-0.180664 -0.091553,-0.279541 -0.089111,-0.09888 -0.2722168,-0.09888 -0.1843261,0 -0.2941894,0.108642 -0.1086426,0.108643 -0.123291,0.269776 z m 1.6772461,0.83374 h -0.229492 v -0.142822 q -0.09888,0.08545 -0.206299,0.133056 -0.107422,0.04761 -0.233154,0.04761 -0.244141,0 -0.3881839,-0.187988 -0.1428223,-0.187989 -0.1428223,-0.521241 0,-0.17334 0.048828,-0.308838 0.050049,-0.135498 0.1342774,-0.230713 0.083008,-0.09277 0.1928711,-0.141601 0.1110839,-0.04883 0.2294927,-0.04883 0.107421,0 0.190429,0.02319 0.08301,0.02197 0.174561,0.06958 v -0.59082 h 0.229492 z m -0.229492,-0.335693 v -0.782471 q -0.09277,-0.0415 -0.166016,-0.05737 -0.07324,-0.01587 -0.159912,-0.01587 -0.192871,0 -0.3002929,0.134277 -0.1074219,0.134277 -0.1074219,0.380859 0,0.24292 0.083008,0.369874 0.083008,0.125732 0.2661128,0.125732 0.09766,0 0.197754,-0.04273 0.100098,-0.04395 0.186768,-0.112304 z m 1.881103,-0.356446 q 0,0.170899 -0.04883,0.307618 -0.04761,0.136718 -0.129394,0.229492 -0.08667,0.09643 -0.19043,0.145263 -0.10376,0.04761 -0.228272,0.04761 -0.115966,0 -0.202636,-0.02808 -0.08667,-0.02686 -0.170899,-0.07324 l -0.01465,0.06348 h -0.21484 v -1.899414 h 0.229492 v 0.678711 q 0.09644,-0.07935 0.205078,-0.129395 0.108643,-0.05127 0.244141,-0.05127 0.241699,0 0.380859,0.185547 0.140381,0.185547 0.140381,0.523682 z m -0.236816,0.0061 q 0,-0.244141 -0.08057,-0.369873 -0.08057,-0.126953 -0.260009,-0.126953 -0.100098,0 -0.202637,0.04395 -0.102539,0.04272 -0.19043,0.111084 v 0.78125 q 0.09766,0.04395 0.167237,0.06104 0.0708,0.01709 0.159912,0.01709 0.190429,0 0.297851,-0.124512 0.108643,-0.125732 0.108643,-0.393066 z m 1.654053,0.686039 h -0.228272 v -0.145264 q -0.03052,0.02075 -0.08301,0.05859 -0.05127,0.03662 -0.100097,0.05859 -0.05737,0.02808 -0.131836,0.04639 -0.07446,0.01953 -0.174561,0.01953 -0.184326,0 -0.3125,-0.122071 -0.128174,-0.12207 -0.128174,-0.311279 0,-0.155029 0.06592,-0.250244 0.06714,-0.09644 0.19043,-0.151367 0.124512,-0.05493 0.299072,-0.07446 0.174561,-0.01953 0.374756,-0.0293 v -0.0354 q 0,-0.07813 -0.02808,-0.129395 -0.02685,-0.05127 -0.07813,-0.08057 -0.04883,-0.02808 -0.117188,-0.03784 -0.06836,-0.0098 -0.142822,-0.0098 -0.09033,0 -0.201416,0.02441 -0.111084,0.02319 -0.229492,0.06836 h -0.01221 v -0.233155 q 0.06714,-0.01831 0.194092,-0.04028 0.126953,-0.02197 0.250244,-0.02197 0.144043,0 0.250244,0.02441 0.107422,0.02319 0.185547,0.08057 0.0769,0.05615 0.117187,0.145264 0.04028,0.08911 0.04028,0.220947 z m -0.228272,-0.335693 v -0.379639 q -0.10498,0.0061 -0.247803,0.01831 -0.141601,0.01221 -0.224609,0.0354 -0.09888,0.02808 -0.159912,0.08789 -0.06104,0.05859 -0.06104,0.162353 0,0.117188 0.0708,0.177002 0.0708,0.05859 0.216064,0.05859 0.12085,0 0.220947,-0.04639 0.100098,-0.04761 0.185547,-0.113525 z m 1.678467,0.250244 q -0.114746,0.05493 -0.218506,0.08545 -0.102539,0.03052 -0.218506,0.03052 -0.147705,0 -0.270996,-0.04273 -0.123291,-0.04394 -0.211182,-0.131836 -0.08911,-0.08789 -0.137939,-0.222168 -0.04883,-0.134277 -0.04883,-0.313721 0,-0.334472 0.183105,-0.524902 0.184327,-0.19043 0.48584,-0.19043 0.117188,0 0.229492,0.03296 0.113526,0.03296 0.20752,0.08057 v 0.255127 h -0.01221 q -0.104981,-0.08179 -0.217285,-0.125733 -0.111084,-0.04394 -0.217285,-0.04394 -0.195313,0 -0.308838,0.131836 -0.112305,0.130615 -0.112305,0.384521 0,0.246582 0.109863,0.379639 0.111084,0.131836 0.31128,0.131836 0.06958,0 0.141601,-0.01831 0.07202,-0.01831 0.129395,-0.04761 0.05005,-0.02563 0.09399,-0.05371 0.04395,-0.0293 0.06958,-0.05005 h 0.01221 z m 1.531982,0.08545 h -0.302734 l -0.546875,-0.596924 -0.148926,0.141602 v 0.455322 h -0.229492 v -1.899414 h 0.229492 v 1.218262 l 0.662842,-0.682373 h 0.289307 l -0.633545,0.629882 z"
     id="text-delay-feedback"
     style="font-size:2.5px;text-anchor:middle;fill:#ffffff"
     aria-label="Feedback" />
  <!-- Reverb section labels -->
  <path
     d="M 19.714981,42 H 19.338516 L 18.609024,41.132812 H 18.200333 V 42 h -0.290039 v -2.181152 h 0.610839 q 0.197754,0 0.32959,0.02637 0.131836,0.0249 0.237305,0.09082 0.118652,0.07471 0.18457,0.188965 0.06738,0.112793 0.06738,0.287109 0,0.23584 -0.118652,0.395508 -0.118653,0.158203 -0.32666,0.23877 z m -0.678223,-1.567383 q 0,-0.09375 -0.03369,-0.165527 -0.03223,-0.07324 -0.108398,-0.123047 -0.06299,-0.04248 -0.149414,-0.05859 -0.08643,-0.01758 -0.203614,-0.01758 h -0.341308 v 0.823242 h 0.292968 q 0.137696,0 0.240235,-0.02344 0.102539,-0.0249 0.174316,-0.09082 0.06592,-0.06152 0.09668,-0.140625 0.03223,-0.08057 0.03223,-0.203613 z m 2.233887,0.777832 h -1.205566 q 0,0.150879 0.04541,0.263672 0.04541,0.111328 0.124512,0.183106 0.07617,0.07031 0.180175,0.105468 0.105469,0.03516 0.231446,0.03516 0.166992,0 0.335449,-0.06592 0.169922,-0.06738 0.241699,-0.131836 h 0.01465 v 0.300293 q -0.139161,0.05859 -0.28418,0.09814 -0.14502,0.03955 -0.304688,0.03955 -0.407226,0 -0.635742,-0.219727 -0.228515,-0.221191 -0.228515,-0.626953 0,-0.401367 0.218261,-0.637207 0.219727,-0.23584 0.577149,-0.23584 0.331054,0 0.509765,0.19336 0.180176,0.193359 0.180176,0.549316 z m -0.268066,-0.210937 q -0.0015,-0.216797 -0.109864,-0.33545 -0.106933,-0.118652 -0.32666,-0.118652 -0.221191,0 -0.353027,0.130371 -0.130371,0.130371 -0.147949,0.323731 z M 23.103165,40.36377 22.441055,42 H 22.1642 l -0.657715,-1.63623 h 0.298828 l 0.506836,1.302246 0.502441,-1.302246 z m 1.703613,0.846679 h -1.205566 q 0,0.150879 0.04541,0.263672 0.04541,0.111328 0.124511,0.183106 0.07617,0.07031 0.180176,0.105468 0.105469,0.03516 0.231446,0.03516 0.166992,0 0.335449,-0.06592 0.169922,-0.06738 0.241699,-0.131836 h 0.01465 v 0.300293 q -0.13916,0.05859 -0.284179,0.09814 -0.14502,0.03955 -0.304688,0.03955 -0.407226,0 -0.635742,-0.219727 -0.228516,-0.221191 -0.228516,-0.626953 0,-0.401367 0.218262,-0.637207 0.219727,-0.23584 0.577149,-0.23584 0.331054,0 0.509765,0.19336 0.180176,0.193359 0.180176,0.549316 z m -0.268066,-0.210937 q -0.0015,-0.216797 -0.109864,-0.33545 -0.106933,-0.118652 -0.32666,-0.118652 -0.221191,0 -0.353027,0.130371 -0.130371,0.130371 -0.147949,0.323731 z m 1.706543,-0.33545 h -0.01465 q -0.06152,-0.01465 -0.120117,-0.02051 -0.05713,-0.0073 -0.136231,-0.0073 -0.127441,0 -0.246093,0.05713 -0.118653,0.05566 -0.228516,0.14502 V 42 h -0.275391 v -1.63623 h 0.275391 v 0.241699 q 0.164063,-0.131836 0.288574,-0.186035 0.125977,-0.05566 0.256348,-0.05566 0.07178,0 0.104004,0.0044 0.03223,0.0029 0.09668,0.01318 z m 1.699218,0.505372 q 0,0.205078 -0.05859,0.36914 -0.05713,0.164063 -0.155274,0.275391 -0.104004,0.115722 -0.228516,0.174316 -0.124511,0.05713 -0.273925,0.05713 -0.13916,0 -0.243164,-0.03369 -0.104004,-0.03223 -0.205079,-0.08789 L 26.762344,42 h -0.257812 v -2.279297 h 0.27539 v 0.814453 q 0.115723,-0.09522 0.246094,-0.155273 0.130371,-0.06152 0.292969,-0.06152 0.290039,0 0.457031,0.222657 0.168457,0.222656 0.168457,0.628418 z m -0.284179,0.0073 q 0,-0.292969 -0.09668,-0.443848 -0.09668,-0.152344 -0.312012,-0.152344 -0.120117,0 -0.243164,0.05274 -0.123047,0.05127 -0.228516,0.133301 v 0.9375 q 0.117188,0.05273 0.200684,0.07324 0.08496,0.02051 0.191895,0.02051 0.228515,0 0.357421,-0.149415 0.130372,-0.150878 0.130372,-0.471679 z"
     id="text-reverb"
     style="font-size:3px;text-anchor:middle;fill:#ffffff"
     aria-label="Reverb" />
  <path
     d="m 21.833389,55.306199 q 0,0.106201 -0.05005,0.209961 -0.04883,0.10376 -0.137939,0.175781 -0.09766,0.07813 -0.228271,0.122071 -0.129395,0.04395 -0.3125,0.04395 -0.196534,0 -0.354004,-0.03662 -0.15625,-0.03662 -0.318604,-0.108643 v -0.302734 h 0.01709 q 0.137939,0.114746 0.318603,0.177002 0.180665,0.06226 0.339356,0.06226 0.224609,0 0.349121,-0.08423 0.125732,-0.08423 0.125732,-0.224609 0,-0.12085 -0.05981,-0.178223 -0.05859,-0.05737 -0.179443,-0.08911 -0.09155,-0.02441 -0.198975,-0.04028 -0.106201,-0.01587 -0.22583,-0.04028 -0.241699,-0.05127 -0.358887,-0.17456 -0.115967,-0.124512 -0.115967,-0.323486 0,-0.228272 0.192872,-0.373536 0.192871,-0.146484 0.489501,-0.146484 0.191651,0 0.351563,0.03662 0.159912,0.03662 0.283203,0.09033 v 0.285645 h -0.01709 q -0.10376,-0.08789 -0.273437,-0.145264 -0.168457,-0.05859 -0.345459,-0.05859 -0.194092,0 -0.3125,0.08057 -0.117188,0.08057 -0.117188,0.207519 0,0.113526 0.05859,0.178223 0.05859,0.0647 0.206299,0.09888 0.07813,0.01709 0.222168,0.0415 0.144043,0.02441 0.24414,0.05005 0.202637,0.05371 0.305176,0.162353 0.102539,0.108643 0.102539,0.303955 z m 0.616455,-1.072998 h -0.258789 v -0.238037 h 0.258789 z m -0.01465,1.591797 h -0.229492 v -1.363525 h 0.229492 z m 1.442871,0 H 22.776991 V 55.65532 l 0.794678,-1.002197 h -0.777588 v -0.19165 h 1.063232 v 0.163574 l -0.79834,1.005859 h 0.819092 z m 1.451416,-0.657959 h -1.004639 q 0,0.125732 0.03784,0.219727 0.03784,0.09277 0.10376,0.152587 0.06348,0.05859 0.150146,0.08789 0.08789,0.0293 0.192872,0.0293 0.13916,0 0.279541,-0.05493 0.141601,-0.05615 0.201416,-0.109863 h 0.01221 v 0.250244 q -0.115967,0.04883 -0.236817,0.08179 -0.120849,0.03296 -0.253906,0.03296 -0.339356,0 -0.529785,-0.183105 -0.19043,-0.184326 -0.19043,-0.522461 0,-0.334473 0.181885,-0.531006 0.183105,-0.196533 0.480957,-0.196533 0.275879,0 0.424805,0.161133 0.150146,0.161132 0.150146,0.457763 z m -0.223389,-0.175781 q -0.0012,-0.180664 -0.09155,-0.279541 -0.08911,-0.09888 -0.272217,-0.09888 -0.184326,0 -0.29419,0.108642 -0.108642,0.108643 -0.123291,0.269776 z"
     id="text-reverb-size"
     style="font-size:2.5px;text-anchor:middle;fill:#ffffff"
     aria-label="Size" />
  <path
     d="m 19.018448,70.918016 q 0,0.247802 -0.108643,0.449218 -0.107422,0.201416 -0.286865,0.3125 -0.124512,0.0769 -0.27832,0.111084 -0.152588,0.03418 -0.402832,0.03418 h -0.458985 v -1.817627 h 0.454102 q 0.266113,0 0.422363,0.03906 0.157471,0.03784 0.266113,0.10498 0.185547,0.115967 0.289307,0.308838 0.10376,0.192871 0.10376,0.457764 z m -0.252686,-0.0037 q 0,-0.213623 -0.07446,-0.360107 -0.07446,-0.146484 -0.222168,-0.230713 -0.107421,-0.06104 -0.228271,-0.08423 -0.12085,-0.02441 -0.289307,-0.02441 h -0.22705 v 1.402587 h 0.22705 q 0.174561,0 0.303955,-0.02563 0.130616,-0.02563 0.239258,-0.09521 0.135498,-0.08667 0.202637,-0.228272 0.06836,-0.141601 0.06836,-0.354004 z m 1.684571,0.910682 h -0.228272 v -0.145264 q -0.03052,0.02075 -0.08301,0.05859 -0.05127,0.03662 -0.100097,0.05859 -0.05737,0.02808 -0.131836,0.04639 -0.07446,0.01953 -0.174561,0.01953 -0.184326,0 -0.3125,-0.122071 -0.128174,-0.12207 -0.128174,-0.311279 0,-0.155029 0.06592,-0.250244 0.06714,-0.09644 0.19043,-0.151367 0.124512,-0.05493 0.299072,-0.07446 0.174561,-0.01953 0.374756,-0.0293 v -0.0354 q 0,-0.07813 -0.02808,-0.129395 -0.02686,-0.05127 -0.07813,-0.08057 -0.04883,-0.02808 -0.117188,-0.03784 -0.06836,-0.0098 -0.142822,-0.0098 -0.09033,0 -0.201416,0.02441 -0.111084,0.02319 -0.229492,0.06836 h -0.01221 v -0.233155 q 0.06714,-0.01831 0.194092,-0.04028 0.126953,-0.02197 0.250244,-0.02197 0.144043,0 0.250244,0.02441 0.107422,0.02319 0.185547,0.08057 0.0769,0.05615 0.117187,0.145264 0.04028,0.08911 0.04028,0.220947 z m -0.228272,-0.335693 v -0.379639 q -0.10498,0.0061 -0.247803,0.01831 -0.141601,0.01221 -0.224609,0.0354 -0.09888,0.02808 -0.159912,0.08789 -0.06104,0.05859 -0.06104,0.162353 0,0.117188 0.0708,0.177002 0.0708,0.05859 0.216064,0.05859 0.12085,0 0.220947,-0.04639 0.100098,-0.04761 0.185547,-0.113525 z m 2.659912,0.335693 h -0.229492 v -0.776367 q 0,-0.08789 -0.0085,-0.169678 -0.0073,-0.08179 -0.03296,-0.130615 -0.02808,-0.05249 -0.08057,-0.07935 -0.05249,-0.02685 -0.151367,-0.02685 -0.09644,0 -0.192872,0.04883 -0.09643,0.04761 -0.192871,0.12207 0.0037,0.02808 0.0061,0.06592 0.0024,0.03662 0.0024,0.07324 v 0.8728 h -0.229492 v -0.776367 q 0,-0.09033 -0.0085,-0.170899 -0.0073,-0.08179 -0.03296,-0.130615 -0.02808,-0.05249 -0.08057,-0.07813 -0.05249,-0.02685 -0.151367,-0.02685 -0.09399,0 -0.189209,0.04639 -0.09399,0.04639 -0.187989,0.118409 v 1.018062 h -0.229492 v -1.363525 h 0.229492 v 0.151367 q 0.107422,-0.08911 0.213623,-0.13916 0.107422,-0.05005 0.228272,-0.05005 0.13916,0 0.235596,0.05859 0.09766,0.05859 0.145263,0.162353 0.13916,-0.117187 0.253907,-0.168457 0.114746,-0.05249 0.245361,-0.05249 0.224609,0 0.33081,0.136719 0.107422,0.135498 0.107422,0.379638 z m 1.641846,-0.698242 q 0,0.166015 -0.04761,0.303955 -0.04761,0.136719 -0.134278,0.231933 -0.08057,0.09033 -0.190429,0.140381 -0.108643,0.04883 -0.230713,0.04883 -0.106202,0 -0.192871,-0.02319 -0.08545,-0.02319 -0.174561,-0.07202 v 0.571289 h -0.229492 v -1.866455 h 0.229492 v 0.142822 q 0.09155,-0.0769 0.205078,-0.128174 0.114746,-0.05249 0.244141,-0.05249 0.246582,0 0.383301,0.186767 0.137939,0.185547 0.137939,0.516358 z m -0.236816,0.0061 q 0,-0.246582 -0.08423,-0.368652 -0.08423,-0.12207 -0.258789,-0.12207 -0.09888,0 -0.198975,0.04272 -0.100097,0.04272 -0.19165,0.112305 v 0.772705 q 0.09766,0.04395 0.167236,0.05981 0.0708,0.01587 0.159912,0.01587 0.191651,0 0.299073,-0.129395 0.107422,-0.129394 0.107422,-0.383301 z m 0.841064,-0.899658 h -0.258789 v -0.238037 h 0.258789 z m -0.01465,1.5918 h -0.229493 v -1.363525 h 0.229493 z m 1.594238,0 h -0.229492 v -0.776367 q 0,-0.09399 -0.01099,-0.175781 -0.01099,-0.08301 -0.04028,-0.129395 -0.03052,-0.05127 -0.08789,-0.07568 -0.05737,-0.02563 -0.148926,-0.02563 -0.09399,0 -0.196533,0.04639 -0.10254,0.04639 -0.196534,0.118409 v 1.018054 h -0.22949 v -1.363525 h 0.229492 v 0.151367 q 0.107422,-0.08911 0.222168,-0.13916 0.114746,-0.05005 0.235596,-0.05005 0.220947,0 0.336914,0.133056 0.115967,0.133057 0.115967,0.383301 z m 1.547851,-0.155029 q 0,0.346679 -0.15747,0.509033 -0.157471,0.162353 -0.484619,0.162353 -0.108643,0 -0.212403,-0.01587 -0.102539,-0.01465 -0.202636,-0.04272 V 72.04839 h 0.01221 q 0.05615,0.02197 0.178222,0.05371 0.122071,0.03296 0.244141,0.03296 0.117187,0 0.194092,-0.02808 0.0769,-0.02808 0.119629,-0.07813 0.04272,-0.04761 0.06104,-0.114746 0.01831,-0.06714 0.01831,-0.150146 v -0.124512 q -0.10376,0.08301 -0.198974,0.124512 -0.09399,0.04028 -0.240479,0.04028 -0.244141,0 -0.388183,-0.175781 -0.142823,-0.177002 -0.142823,-0.498047 0,-0.175781 0.04883,-0.302734 0.05005,-0.128174 0.135498,-0.220948 0.07935,-0.08667 0.192872,-0.134277 0.113525,-0.04883 0.22583,-0.04883 0.118408,0 0.197754,0.02441 0.08057,0.02319 0.169677,0.07202 l 0.01465,-0.05859 h 0.214843 z m -0.229492,-0.219727 v -0.743408 q -0.09155,-0.0415 -0.170898,-0.05859 -0.07813,-0.01831 -0.15625,-0.01831 -0.189209,0 -0.297852,0.126953 -0.108642,0.126953 -0.108642,0.368652 0,0.229492 0.08057,0.3479 0.08057,0.118409 0.267334,0.118409 0.100098,0 0.200195,-0.03784 0.101319,-0.03906 0.185547,-0.10376 z"
     id="text-reverb-damping"
     style="font-size:2.5px;text-anchor:middle;fill:#ffffff"
     aria-label="Damping" />
  <!-- Echo section labels -->
  <path
     d="M 33.000381,42 H 31.56337 v -2.181152 h 1.437011 v 0.257812 h -1.146972 v 0.597656 h 1.146972 v 0.257813 h -1.146972 v 0.810058 h 1.146972 z m 1.64795,-0.102539 Q 34.510635,41.963379 34.386124,42 q -0.123047,0.03662 -0.262207,0.03662 -0.177246,0 -0.325196,-0.05127 -0.147949,-0.05273 -0.253418,-0.158204 -0.106933,-0.105468 -0.165527,-0.266601 -0.05859,-0.161133 -0.05859,-0.376465 0,-0.401367 0.219727,-0.629883 0.221191,-0.228515 0.583008,-0.228515 0.140625,0 0.27539,0.03955 0.136231,0.03955 0.249024,0.09668 v 0.306152 h -0.01465 q -0.125976,-0.09814 -0.260742,-0.150879 -0.133301,-0.05273 -0.260742,-0.05273 -0.234375,0 -0.370606,0.158203 -0.134765,0.156739 -0.134765,0.461426 0,0.295898 0.131836,0.455566 0.133301,0.158204 0.373535,0.158204 0.0835,0 0.169922,-0.02197 0.08643,-0.02197 0.155273,-0.05713 0.06006,-0.03076 0.112793,-0.06445 0.05274,-0.03516 0.0835,-0.06006 h 0.01465 z M 36.369522,42 h -0.275391 v -0.931641 q 0,-0.112793 -0.01318,-0.210937 -0.01318,-0.09961 -0.04834,-0.155274 -0.03662,-0.06152 -0.105469,-0.09082 -0.06885,-0.03076 -0.178711,-0.03076 -0.112793,0 -0.235839,0.05566 -0.123047,0.05567 -0.23584,0.14209 V 42 h -0.275391 v -2.279297 h 0.275391 v 0.824707 q 0.128906,-0.106933 0.266601,-0.166992 0.137696,-0.06006 0.282715,-0.06006 0.265137,0 0.404297,0.159668 0.13916,0.159668 0.13916,0.459961 z m 1.924805,-0.817383 q 0,0.399903 -0.205078,0.631348 -0.205078,0.231445 -0.549317,0.231445 -0.347168,0 -0.552246,-0.231445 -0.203613,-0.231445 -0.203613,-0.631348 0,-0.399902 0.203613,-0.631347 0.205078,-0.232911 0.552246,-0.232911 0.344239,0 0.549317,0.232911 0.205078,0.231445 0.205078,0.631347 z m -0.28418,0 q 0,-0.317871 -0.124512,-0.47168 -0.124511,-0.155273 -0.345703,-0.155273 -0.224121,0 -0.348633,0.155273 -0.123046,0.153809 -0.123046,0.47168 0,0.307617 0.124511,0.467285 0.124512,0.158203 0.347168,0.158203 0.219727,0 0.344239,-0.156738 0.125976,-0.158203 0.125976,-0.46875 z"
     id="text-echo"
     style="font-size:3px;text-anchor:middle;fill:#ffffff"
     aria-label="Echo" />
  <path
     d="m 33.326797,54.222215 h -0.649414 v 1.602783 H 32.435684 V 54.222215 H 31.78627 v -0.214844 h 1.540527 z m 0.472413,0.01099 h -0.258789 v -0.238041 h 0.258789 z m -0.01465,1.591793 h -0.229492 v -1.363525 h 0.229492 z m 2.443848,0 h -0.229492 v -0.776367 q 0,-0.08789 -0.0085,-0.169678 -0.0073,-0.08179 -0.03296,-0.130615 -0.02808,-0.05249 -0.08057,-0.07935 -0.05249,-0.02686 -0.151367,-0.02686 -0.09643,0 -0.192871,0.04883 -0.09644,0.04761 -0.192871,0.12207 0.0037,0.02808 0.0061,0.06592 0.0024,0.03662 0.0024,0.07324 v 0.87281 H 35.11879 v -0.776367 q 0,-0.09033 -0.0085,-0.170899 -0.0073,-0.08179 -0.03296,-0.130615 -0.02808,-0.05249 -0.08057,-0.07813 -0.05249,-0.02686 -0.151367,-0.02686 -0.09399,0 -0.189209,0.04639 -0.09399,0.04639 -0.187988,0.118409 v 1.018072 h -0.229492 v -1.363525 h 0.229492 v 0.151367 q 0.107422,-0.08911 0.213623,-0.13916 0.107422,-0.05005 0.228271,-0.05005 0.139161,0 0.235596,0.05859 0.09766,0.05859 0.145264,0.162353 0.13916,-0.117187 0.253906,-0.168457 0.114746,-0.05249 0.245361,-0.05249 0.22461,0 0.330811,0.136719 0.107422,0.135498 0.107422,0.379638 z m 1.583252,-0.657959 h -1.004639 q 0,0.125732 0.03784,0.219727 0.03784,0.09277 0.10376,0.152587 0.06348,0.05859 0.150146,0.08789 0.08789,0.0293 0.192871,0.0293 0.13916,0 0.279541,-0.05493 0.141602,-0.05615 0.201416,-0.109863 h 0.01221 v 0.250244 q -0.115966,0.04883 -0.236816,0.08179 -0.12085,0.03296 -0.253906,0.03296 -0.339356,0 -0.529786,-0.183105 -0.190429,-0.184326 -0.190429,-0.522461 0,-0.334473 0.181885,-0.531006 0.183105,-0.196533 0.480957,-0.196533 0.275879,0 0.424804,0.161133 0.150147,0.161132 0.150147,0.457763 z m -0.223389,-0.175781 q -0.0012,-0.180664 -0.09155,-0.279541 -0.08911,-0.09888 -0.272216,-0.09888 -0.184327,0 -0.29419,0.108642 -0.108642,0.108643 -0.123291,0.269776 z"
     id="text-echo-time"
     style="font-size:2.5px;text-anchor:middle;fill:#ffffff"
     aria-label="Time" />
  <path
     d="m 30.388565,70.222215 h -0.919189 v 0.512695 h 0.789795 v 0.214844 h -0.789795 v 0.875244 h -0.2417 v -1.817627 h 1.160889 z m 1.337891,0.944824 h -1.004639 q 0,0.125732 0.03784,0.219727 0.03784,0.09277 0.10376,0.152587 0.06348,0.05859 0.150146,0.08789 0.08789,0.0293 0.192871,0.0293 0.13916,0 0.279541,-0.05493 0.141602,-0.05615 0.201416,-0.109863 h 0.01221 v 0.250244 q -0.115967,0.04883 -0.236816,0.08179 -0.12085,0.03296 -0.253906,0.03296 -0.339356,0 -0.529786,-0.183105 -0.190429,-0.184326 -0.190429,-0.522461 0,-0.334473 0.181884,-0.531006 0.183106,-0.196533 0.480958,-0.196533 0.275878,0 0.424804,0.161133 0.150147,0.161132 0.150147,0.457763 z m -0.223389,-0.175781 q -0.0012,-0.180664 -0.09155,-0.279541 -0.08911,-0.09888 -0.272217,-0.09888 -0.184326,0 -0.294189,0.108642 -0.108643,0.108643 -0.123291,0.269776 z m 1.712647,0.175781 h -1.004639 q 0,0.125732 0.03784,0.219727 0.03784,0.09277 0.103759,0.152587 0.06348,0.05859 0.150147,0.08789 0.08789,0.0293 0.192871,0.0293 0.13916,0 0.279541,-0.05493 0.141602,-0.05615 0.201416,-0.109863 h 0.01221 v 0.250244 q -0.115967,0.04883 -0.236816,0.08179 -0.12085,0.03296 -0.253907,0.03296 -0.339355,0 -0.529785,-0.183105 -0.190429,-0.184326 -0.190429,-0.522461 0,-0.334473 0.181884,-0.531006 0.183106,-0.196533 0.480957,-0.196533 0.275879,0 0.424805,0.161133 0.150147,0.161132 0.150147,0.457763 z m -0.223389,-0.175781 q -0.0012,-0.180664 -0.09155,-0.279541 -0.08911,-0.09888 -0.272217,-0.09888 -0.184326,0 -0.294189,0.108642 -0.108643,0.108643 -0.123291,0.269776 z m 1.677246,0.83374 h -0.229492 v -0.142822 q -0.09888,0.08545 -0.206299,0.133056 -0.107422,0.04761 -0.233154,0.04761 -0.244141,0 -0.388184,-0.187988 -0.142822,-0.187989 -0.142822,-0.521241 0,-0.17334 0.04883,-0.308838 0.05005,-0.135498 0.134277,-0.230713 0.08301,-0.09277 0.192871,-0.141601 0.111084,-0.04883 0.229493,-0.04883 0.107421,0 0.190429,0.02319 0.08301,0.02197 0.174561,0.06958 v -0.59082 h 0.229492 z m -0.229492,-0.335693 v -0.782471 q -0.09277,-0.0415 -0.166016,-0.05737 -0.07324,-0.01587 -0.159912,-0.01587 -0.192871,0 -0.300293,0.134277 -0.107422,0.134277 -0.107422,0.380859 0,0.24292 0.08301,0.369874 0.08301,0.125732 0.266113,0.125732 0.09766,0 0.197754,-0.04273 0.100098,-0.04395 0.186768,-0.112304 z m 1.881103,-0.356446 q 0,0.170899 -0.04883,0.307618 -0.04761,0.136718 -0.129394,0.229492 -0.08667,0.09643 -0.19043,0.145263 -0.10376,0.04761 -0.228272,0.04761 -0.115966,0 -0.202636,-0.02808 -0.08667,-0.02686 -0.170899,-0.07324 l -0.01465,0.06348 h -0.214844 v -1.899414 h 0.229492 v 0.678711 q 0.09644,-0.07935 0.205078,-0.129395 0.108643,-0.05127 0.244141,-0.05127 0.241699,0 0.380859,0.185547 0.140381,0.185547 0.140381,0.523682 z m -0.236816,0.0061 q 0,-0.244141 -0.08057,-0.369873 -0.08057,-0.126953 -0.260009,-0.126953 -0.100098,0 -0.202637,0.04395 -0.102539,0.04272 -0.19043,0.111084 v 0.78125 q 0.09766,0.04395 0.167237,0.06104 0.0708,0.01709 0.159912,0.01709 0.190429,0 0.297851,-0.124512 0.108643,-0.125732 0.108643,-0.393066 z m 1.654053,0.686039 h -0.228272 v -0.145264 q -0.03052,0.02075 -0.08301,0.05859 -0.05127,0.03662 -0.100097,0.05859 -0.05737,0.02808 -0.131836,0.04639 -0.07446,0.01953 -0.174561,0.01953 -0.184326,0 -0.3125,-0.122071 -0.128174,-0.12207 -0.128174,-0.311279 0,-0.155029 0.06592,-0.250244 0.06714,-0.09644 0.19043,-0.151367 0.124512,-0.05493 0.299072,-0.07446 0.174561,-0.01953 0.374756,-0.0293 v -0.0354 q 0,-0.07813 -0.02808,-0.129395 -0.02686,-0.05127 -0.07813,-0.08057 -0.04883,-0.02808 -0.117188,-0.03784 -0.06836,-0.0098 -0.142822,-0.0098 -0.09033,0 -0.201416,0.02441 -0.111084,0.02319 -0.229492,0.06836 h -0.01221 v -0.233155 q 0.06714,-0.01831 0.194092,-0.04028 0.126953,-0.02197 0.250244,-0.02197 0.144043,0 0.250244,0.02441 0.107422,0.02319 0.185547,0.08057 0.0769,0.05615 0.117187,0.145264 0.04028,0.08911 0.04028,0.220947 z m -0.228272,-0.335693 v -0.379639 q -0.10498,0.0061 -0.247803,0.01831 -0.141601,0.01221 -0.224609,0.0354 -0.09888,0.02808 -0.159912,0.08789 -0.06103,0.05859 -0.06103,0.162353 0,0.117188 0.0708,0.177002 0.0708,0.05859 0.216064,0.05859 0.12085,0 0.220947,-0.04639 0.100098,-0.04761 0.185547,-0.113525 z m 1.678467,0.250244 q -0.114746,0.05493 -0.218506,0.08545 -0.102539,0.03052 -0.218506,0.03052 -0.147705,0 -0.270996,-0.04273 -0.123291,-0.04394 -0.211182,-0.131836 -0.08911,-0.08789 -0.137939,-0.222168 -0.04883,-0.134277 -0.04883,-0.313721 0,-0.334472 0.183105,-0.524902 0.184327,-0.19043 0.48584,-0.19043 0.117188,0 0.229492,0.03296 0.113526,0.03296 0.20752,0.08057 v 0.255127 h -0.01221 q -0.104981,-0.08179 -0.217285,-0.125733 -0.111084,-0.04394 -0.217285,-0.04394 -0.195313,0 -0.308838,0.131836 -0.112305,0.130615 -0.112305,0.384521 0,0.246582 0.109863,0.379639 0.111084,0.131836 0.31128,0.131836 0.06958,0 0.141601,-0.01831 0.07202,-0.01831 0.129395,-0.04761 0.05005,-0.02563 0.09399,-0.05371 0.04395,-0.0293 0.06958,-0.05005 h 0.01221 z m 1.531982,0.08545 h -0.302734 l -0.546875,-0.596924 -0.148926,0.141602 v 0.455322 h -0.229492 v -1.899414 h 0.229492 v 1.218262 l 0.662842,-0.682373 h 0.289307 l -0.633545,0.629882 z"
     id="text-echo-feedback"
     style="font-size:2.5px;text-anchor:middle;fill:#ffffff"
     aria-label="Feedback" />
  <!-- Input labels -->
  <path
     d="M 9.80165,93.883332 H 8.6517477 v -1.817627 h 0.2416992 v 1.602783 H 9.80165 Z m 1.761475,0 h -0.717774 v -0.185547 h 0.238037 v -1.446533 h -0.238037 v -0.185547 h 0.717774 v 0.185547 h -0.238037 v 1.446533 h 0.238037 z m 1.533203,0 h -0.229492 v -0.776367 q 0,-0.09399 -0.01099,-0.175781 -0.01099,-0.08301 -0.04028,-0.129395 -0.03052,-0.05127 -0.08789,-0.07568 -0.05737,-0.02563 -0.148925,-0.02563 -0.09399,0 -0.196534,0.04639 -0.102539,0.04639 -0.196533,0.118409 v 1.018054 h -0.229492 v -1.363525 h 0.229492 v 0.151367 q 0.107422,-0.08911 0.222168,-0.13916 0.114746,-0.05005 0.235596,-0.05005 0.220947,0 0.336914,0.133056 0.115967,0.133057 0.115967,0.383301 z"
     id="text-input-l"
     style="font-size:2.5px;text-anchor:middle;fill:#ffffff"
     aria-label="L In" />
  <path
     d="m 33.982315,93.883332 h -0.313721 l -0.60791,-0.722656 h -0.340576 v 0.722656 h -0.241699 v -1.817627 h 0.509033 q 0.164795,0 0.274658,0.02197 0.109864,0.02075 0.197754,0.07568 0.09888,0.06226 0.153809,0.157471 0.05615,0.09399 0.05615,0.239258 0,0.196533 -0.09888,0.32959 -0.09888,0.131836 -0.272217,0.198974 z M 33.41713,92.57718 q 0,-0.07813 -0.02808,-0.13794 -0.02685,-0.06104 -0.09033,-0.102539 -0.05249,-0.0354 -0.124511,-0.04883 -0.07202,-0.01465 -0.169678,-0.01465 h -0.284424 v 0.686035 h 0.244141 q 0.114746,0 0.200195,-0.01953 0.08545,-0.02075 0.145264,-0.07568 0.05493,-0.05127 0.08057,-0.117188 0.02686,-0.06714 0.02686,-0.169677 z m 2.319335,1.306152 h -0.717773 v -0.185547 h 0.238037 v -1.446533 h -0.238037 v -0.185547 h 0.717773 v 0.185547 h -0.238037 v 1.446533 h 0.238037 z m 1.533204,0 h -0.229493 v -0.776367 q 0,-0.09399 -0.01099,-0.175781 -0.01099,-0.08301 -0.04028,-0.129395 -0.03052,-0.05127 -0.08789,-0.07568 -0.05737,-0.02563 -0.148926,-0.02563 -0.09399,0 -0.196533,0.04639 -0.102539,0.04639 -0.196533,0.118409 v 1.018054 h -0.229492 v -1.363525 h 0.229492 v 0.151367 q 0.107422,-0.08911 0.222168,-0.13916 0.114746,-0.05005 0.235596,-0.05005 0.220947,0 0.336914,0.133056 0.115967,0.133057 0.115967,0.383301 z"
     id="text-input-r"
     style="font-size:2.5px;text-anchor:middle;fill:#ffffff"
     aria-label="R In" />
  <!-- Output labels -->
  <path
     d="M 8.8513327,108.88332 H 7.7014303 v -1.81763 h 0.2416992 v 1.60279 h 0.9082032 z m 2.4755863,-1.60889 q 0.111084,0.12207 0.169677,0.29908 0.05982,0.177 0.05982,0.40161 0,0.22461 -0.06104,0.40283 -0.05982,0.177 -0.168457,0.29541 -0.112305,0.12329 -0.266114,0.18555 -0.152588,0.0623 -0.349121,0.0623 -0.19165,0 -0.349121,-0.0635 -0.15625,-0.0635 -0.266113,-0.18433 -0.1098634,-0.12085 -0.1696779,-0.29663 -0.058594,-0.17578 -0.058594,-0.40161 0,-0.22217 0.058594,-0.39795 0.058594,-0.177 0.1708989,-0.30274 0.107421,-0.11963 0.266113,-0.1831 0.159912,-0.0635 0.3479,-0.0635 0.195313,0 0.350342,0.0647 0.15625,0.0635 0.264893,0.18188 z m -0.02197,0.70069 q 0,-0.35401 -0.158691,-0.54566 -0.158692,-0.19287 -0.43335,-0.19287 -0.2771,0 -0.435791,0.19287 -0.157471,0.19165 -0.157471,0.54566 0,0.35766 0.161133,0.54809 0.161133,0.18921 0.432129,0.18921 0.270996,0 0.430908,-0.18921 0.161133,-0.19043 0.161133,-0.54809 z m 1.746823,0.9082 H 12.82228 v -0.15137 q -0.115967,0.0916 -0.222168,0.14038 -0.106201,0.0488 -0.234375,0.0488 -0.214844,0 -0.334473,-0.13061 -0.119629,-0.13184 -0.119629,-0.38575 v -0.88501 h 0.229493 v 0.77637 q 0,0.10376 0.0098,0.17822 0.0098,0.0733 0.0415,0.12574 0.03296,0.0537 0.08545,0.0781 0.05249,0.0244 0.152588,0.0244 0.08911,0 0.194092,-0.0464 0.106201,-0.0464 0.197754,-0.11841 v -1.01807 h 0.229492 z m 1.159668,-0.0122 q -0.0647,0.0171 -0.141601,0.0281 -0.07568,0.011 -0.135499,0.011 -0.20874,0 -0.317382,-0.11231 -0.108643,-0.1123 -0.108643,-0.36011 v -0.72509 h -0.155029 v -0.19288 h 0.155029 v -0.39184 h 0.229492 v 0.39184 h 0.473633 v 0.19288 h -0.473633 v 0.62133 q 0,0.10743 0.0049,0.16846 0.0049,0.0598 0.03418,0.11231 0.02685,0.0488 0.07324,0.072 0.04761,0.022 0.144043,0.022 0.05615,0 0.117187,-0.0159 0.06104,-0.0171 0.08789,-0.0281 h 0.01221 z"
     id="text-output-l"
     style="font-size:2.5px;text-anchor:middle;fill:#ffffff"
     aria-label="L Out" />
  <path
     d="m 33.031998,108.88332 h -0.313721 l -0.60791,-0.72266 h -0.340576 v 0.72266 h -0.2417 v -1.81763 h 0.509034 q 0.164795,0 0.274658,0.022 0.109863,0.0207 0.197754,0.0757 0.09888,0.0623 0.153808,0.15747 0.05615,0.094 0.05615,0.23926 0,0.19653 -0.09888,0.32959 -0.09888,0.13183 -0.272217,0.19897 z m -0.565186,-1.30615 q 0,-0.0781 -0.02808,-0.13794 -0.02686,-0.061 -0.09033,-0.10254 -0.05249,-0.0354 -0.124512,-0.0488 -0.07202,-0.0147 -0.169678,-0.0147 h -0.284423 v 0.68604 h 0.24414 q 0.114746,0 0.200196,-0.0195 0.08545,-0.0208 0.145263,-0.0757 0.05493,-0.0513 0.08057,-0.11718 0.02685,-0.0671 0.02685,-0.16968 z m 3.033447,-0.30274 q 0.111084,0.12207 0.169678,0.29908 0.05982,0.177 0.05982,0.40161 0,0.22461 -0.06104,0.40283 -0.05981,0.177 -0.168457,0.29541 -0.112304,0.12329 -0.266113,0.18555 -0.152588,0.0623 -0.349121,0.0623 -0.19165,0 -0.349121,-0.0635 -0.15625,-0.0635 -0.266113,-0.18433 -0.109864,-0.12085 -0.169678,-0.29663 -0.05859,-0.17578 -0.05859,-0.40161 0,-0.22217 0.05859,-0.39795 0.05859,-0.177 0.170898,-0.30274 0.107422,-0.11963 0.266114,-0.1831 0.159912,-0.0635 0.3479,-0.0635 0.195313,0 0.350342,0.0647 0.15625,0.0635 0.264892,0.18188 z m -0.02197,0.70069 q 0,-0.35401 -0.158692,-0.54566 -0.158691,-0.19287 -0.433349,-0.19287 -0.2771,0 -0.435791,0.19287 -0.157471,0.19165 -0.157471,0.54566 0,0.35766 0.161133,0.54809 0.161133,0.18921 0.432129,0.18921 0.270996,0 0.430908,-0.18921 0.161133,-0.19043 0.161133,-0.54809 z m 1.746824,0.9082 h -0.229492 v -0.15137 q -0.115967,0.0916 -0.222168,0.14038 -0.106201,0.0488 -0.234375,0.0488 -0.214844,0 -0.334473,-0.13061 -0.119629,-0.13184 -0.119629,-0.38575 v -0.88501 h 0.229492 v 0.77637 q 0,0.10376 0.0098,0.17822 0.0098,0.0733 0.0415,0.12574 0.03296,0.0537 0.08545,0.0781 0.05249,0.0244 0.152588,0.0244 0.08911,0 0.194092,-0.0464 0.106201,-0.0464 0.197754,-0.11841 v -1.01807 h 0.229492 z m 1.159668,-0.0122 q -0.0647,0.0171 -0.141602,0.0281 -0.07568,0.011 -0.135498,0.011 -0.20874,0 -0.317383,-0.11231 -0.108642,-0.1123 -0.108642,-0.36011 v -0.72509 h -0.155029 v -0.19288 h 0.155029 v -0.39184 h 0.229492 v 0.39184 h 0.473633 v 0.19288 h -0.473633 v 0.62133 q 0,0.10743 0.0049,0.16846 0.0049,0.0598 0.03418,0.11231 0.02685,0.0488 0.07324,0.072 0.04761,0.022 0.144043,0.022 0.05615,0 0.117187,-0.0159 0.06103,-0.0171 0.08789,-0.0281 h 0.01221 z"
     id="text-output-r"
     style="font-size:2.5px;text-anchor:middle;fill:#ffffff"
     aria-label="R Out" />
  <path
     style="font-size:3.52778px;font-family:'Arabic Typesetting';-inkscape-font-specification:'Arabic Typesetting, Normal';fill:#fafafa;stroke-width:0.264583"
     d="m 19.548654,124.59134 q 0.187757,0 0.344509,0.0603 0.158475,0.0586 0.270441,0.16881 0.111965,0.11024 0.173977,0.26699 0.06373,0.15503 0.06373,0.34796 0,0.1912 -0.06201,0.35312 -0.06201,0.1602 -0.173977,0.27733 -0.111966,0.11713 -0.268718,0.18259 -0.156752,0.0655 -0.347954,0.0655 -0.187758,0 -0.34451,-0.0586 -0.156752,-0.0603 -0.27044,-0.17053 -0.111966,-0.11024 -0.1757,-0.26527 -0.06201,-0.15676 -0.06201,-0.34968 0,-0.1912 0.06201,-0.3514 0.06201,-0.16192 0.173977,-0.27905 0.111966,-0.11714 0.268718,-0.18259 0.156752,-0.0655 0.347955,-0.0655 z m -0.01034,0.093 q -0.118856,0 -0.229099,0.0396 -0.10852,0.0379 -0.192925,0.12402 -0.08268,0.0861 -0.132636,0.22393 -0.04995,0.13608 -0.04995,0.33245 0,0.23082 0.05684,0.38758 0.05684,0.15675 0.146416,0.25321 0.08957,0.0947 0.199816,0.13608 0.111966,0.0396 0.222209,0.0396 0.118856,0 0.227376,-0.0379 0.110243,-0.0396 0.192926,-0.12574 0.08441,-0.0861 0.134359,-0.22221 0.04995,-0.1378 0.04995,-0.33417 0,-0.23083 -0.05684,-0.38758 -0.05684,-0.15675 -0.146416,-0.25149 -0.08957,-0.0965 -0.201538,-0.13608 -0.110244,-0.0413 -0.220488,-0.0413 z m 1.03353,-0.0586 q 0.02067,0 0.07062,0.002 0.05168,0 0.113688,0 0.06201,0 0.125746,0.002 0.06374,0 0.110243,0 0.03101,0.0741 0.06201,0.14641 0.03273,0.0724 0.06546,0.14642 l 0.492649,1.0852 0.477146,-1.10759 q 0.02928,-0.0672 0.05684,-0.13436 0.02756,-0.0689 0.05512,-0.13608 0.03273,0 0.09302,0 0.06201,-0.002 0.125746,-0.002 0.06546,0 0.122301,0 0.05684,-0.002 0.08096,-0.002 l 0.0034,0.0586 q -0.07579,0.005 -0.122301,0.0172 -0.04479,0.0103 -0.0689,0.0345 -0.02412,0.0224 -0.031,0.0637 -0.0069,0.0413 -0.0052,0.10507 l 0.03617,1.15928 q 0.0017,0.0413 0.01034,0.0689 0.01033,0.0276 0.03445,0.0465 0.02584,0.0172 0.07062,0.0258 0.04651,0.009 0.122301,0.0121 l -0.0034,0.062 q -0.03101,0 -0.07235,0 -0.04134,-0.002 -0.08785,-0.002 -0.04479,0 -0.0913,0 -0.04651,-0.002 -0.08785,-0.002 -0.03445,0 -0.07235,0.002 -0.03617,0 -0.07235,0 -0.03617,0 -0.0689,0.002 -0.03273,0 -0.05684,0 l -0.0052,-0.0586 q 0.06201,-0.005 0.09819,-0.0155 0.0379,-0.0121 0.05684,-0.0362 0.02067,-0.0241 0.02412,-0.0637 0.0052,-0.0413 0.0034,-0.10508 l -0.03617,-1.09898 q -0.151585,0.34968 -0.299724,0.69419 -0.146416,0.34278 -0.292833,0.69763 l -0.08268,0.0103 q -0.04995,-0.1223 -0.239435,-0.53915 -0.18948,-0.41686 -0.356567,-0.78549 l -0.0379,0.99908 q -0.0034,0.081 0.0034,0.12747 0.0069,0.0448 0.02928,0.0689 0.02239,0.0224 0.06373,0.031 0.04134,0.007 0.106798,0.0121 l -0.0034,0.062 q -0.05512,0 -0.118856,-0.002 -0.06373,-0.002 -0.146416,-0.002 -0.06546,0 -0.137804,0.002 -0.07062,0.002 -0.130914,0.002 l -0.0052,-0.0586 q 0.07062,-0.007 0.11541,-0.0155 0.04479,-0.0103 0.07062,-0.0396 0.02584,-0.0293 0.03617,-0.0878 0.01034,-0.0586 0.01378,-0.16192 l 0.03617,-0.89056 q 0.0017,-0.062 0,-0.10507 -0.0017,-0.0448 -0.0086,-0.0758 -0.0069,-0.0327 -0.01895,-0.0551 -0.01206,-0.0224 -0.03101,-0.0413 -0.03273,-0.0327 -0.08268,-0.0448 -0.04995,-0.0121 -0.115411,-0.0155 z m 3.651803,1.67776 q -0.04479,-0.0637 -0.08957,-0.1223 -0.04479,-0.0603 -0.09474,-0.12058 l -0.928454,-1.10071 v 1.01803 q 0,0.081 0.0086,0.12747 0.01033,0.0448 0.03617,0.0689 0.02584,0.0224 0.0689,0.031 0.04479,0.007 0.115411,0.0121 l -0.0034,0.062 q -0.05512,0 -0.130914,-0.002 -0.07407,-0.002 -0.156752,-0.002 -0.06546,0 -0.137804,0.002 -0.07062,0.002 -0.130914,0.002 l -0.0052,-0.0586 q 0.0689,-0.007 0.113688,-0.0155 0.04479,-0.0103 0.07062,-0.0396 0.02756,-0.0293 0.0379,-0.0878 0.01033,-0.0586 0.01033,-0.16192 v -0.863 q 0,-0.0723 -0.0017,-0.11713 -0.0017,-0.0448 -0.0086,-0.0724 -0.0052,-0.0293 -0.0155,-0.0482 -0.01034,-0.019 -0.02756,-0.0396 -0.01723,-0.0224 -0.03445,-0.0379 -0.01723,-0.0155 -0.03962,-0.0258 -0.02239,-0.0103 -0.05512,-0.0155 -0.03273,-0.005 -0.08096,-0.009 l 0.0034,-0.062 q 0.02067,0 0.06029,0.002 0.04134,0 0.0913,0 0.04995,0 0.103353,0.002 0.0534,0 0.09991,0 l 1.107599,1.29707 v -0.99735 q 0,-0.081 -0.01034,-0.12575 -0.0086,-0.0465 -0.03445,-0.0689 -0.02584,-0.0241 -0.07063,-0.031 -0.04479,-0.009 -0.115411,-0.0138 l 0.0034,-0.062 q 0.05512,0 0.130913,0.002 0.07579,0.002 0.158475,0.002 0.03273,0 0.0689,0 0.03617,-0.002 0.07062,-0.002 0.03617,-0.002 0.06718,-0.002 0.03273,-0.002 0.05684,-0.002 l 0.0017,0.0586 q -0.06718,0.007 -0.110243,0.0172 -0.04306,0.0103 -0.0689,0.0396 -0.02412,0.0293 -0.03445,0.0879 -0.01034,0.0586 -0.01034,0.16192 v 1.29536 z m 0.478869,-0.0827 q 0.06718,-0.005 0.10852,-0.0155 0.04134,-0.0121 0.06374,-0.0344 0.02411,-0.0241 0.03273,-0.0637 0.0086,-0.0413 0.0086,-0.1068 v -1.15927 q 0,-0.0413 -0.0069,-0.0689 -0.0069,-0.0276 -0.03101,-0.0448 -0.02239,-0.019 -0.06546,-0.0276 -0.04306,-0.009 -0.113688,-0.0121 l 0.0034,-0.062 q 0.02756,0 0.06718,0.002 0.03962,0 0.08441,0 0.04651,0 0.09302,0.002 0.04823,0 0.08957,0 0.03273,0 0.07235,0 0.04134,-0.002 0.08096,-0.002 0.03962,0 0.07407,0 0.03617,-0.002 0.06029,-0.002 l 0.0052,0.0586 q -0.06718,0.005 -0.10852,0.0172 -0.04134,0.0103 -0.06546,0.0345 -0.02412,0.0224 -0.03273,0.0637 -0.0086,0.0396 -0.0086,0.10335 v 1.161 q 0,0.0413 0.0069,0.0689 0.0069,0.0276 0.02928,0.0465 0.02412,0.0172 0.06718,0.0258 0.04306,0.009 0.115411,0.0121 l -0.0034,0.062 q -0.02756,0 -0.0689,0 -0.03962,-0.002 -0.08613,-0.002 -0.04479,0 -0.09129,0 -0.04651,-0.002 -0.08785,-0.002 -0.03445,0 -0.07407,0.002 -0.03962,0 -0.07924,0 -0.03962,0 -0.07579,0.002 -0.03445,0 -0.05857,0 z m 1.794896,-0.55294 h -0.573609 l -0.132636,0.33934 q -0.03445,0.0982 -0.03445,0.12403 0,0.0448 0.04134,0.062 0.04306,0.0172 0.151584,0.0224 l -0.0052,0.062 q -0.06374,0 -0.142972,-0.002 -0.07924,-0.002 -0.156752,-0.002 -0.06373,0 -0.132636,0.002 -0.06718,0.002 -0.130914,0.002 l -0.0034,-0.0586 q 0.06718,-0.005 0.110243,-0.0155 0.04306,-0.0121 0.07407,-0.0413 0.03273,-0.031 0.06029,-0.0827 0.02928,-0.0534 0.06718,-0.14125 l 0.494372,-1.16616 q 0.02067,-0.0517 0.03445,-0.0896 0.0155,-0.0396 0.03273,-0.0844 l 0.108521,-0.0138 q 0.01895,0.0827 0.03962,0.15158 0.02239,0.0689 0.04134,0.12575 l 0.387573,1.1231 q 0.02584,0.0758 0.04651,0.11886 0.02067,0.0431 0.04823,0.0672 0.02756,0.0224 0.0689,0.031 0.04306,0.009 0.110243,0.0138 l -0.0052,0.062 q -0.07235,0 -0.160197,-0.002 -0.08613,-0.002 -0.173978,-0.002 -0.07235,0 -0.146416,0.002 -0.07407,0.002 -0.146417,0.002 l -0.0052,-0.0586 q 0.09646,-0.007 0.137804,-0.0224 0.04134,-0.0172 0.04134,-0.062 0,-0.019 -0.0069,-0.0431 -0.0069,-0.0258 -0.01722,-0.0568 z m -0.53399,-0.0999 h 0.501261 l -0.230817,-0.68206 z"
     id="text1"
     aria-label="OMNIA" />
  <rect
     style="fill:#070707;fill-opacity:1;stroke-width:0.360232"
     id="rect2"
     width="46.191067"
     height="17.695616"
     x="-0.10559943"
     y="105.73957"
     ry="0" />
</svg>
