<?xml version="1.0" encoding="UTF-8" standalone="no"?>
<svg
   width="111.76mm"
   height="128.5mm"
   viewBox="0 0 111.76 128.5"
   version="1.1"
   id="svg29"
   sodipodi:docname="WT_SURGE_X.svg"
   inkscape:version="1.4.2 (f4327f4, 2025-05-13)"
   xmlns:inkscape="http://www.inkscape.org/namespaces/inkscape"
   xmlns:sodipodi="http://sodipodi.sourceforge.net/DTD/sodipodi-0.dtd"
   xmlns="http://www.w3.org/2000/svg"
   xmlns:svg="http://www.w3.org/2000/svg">
  <defs
     id="defs29" />
  <sodipodi:namedview
     id="namedview29"
     pagecolor="#ffffff"
     bordercolor="#000000"
     borderopacity="0.25"
     inkscape:showpageshadow="2"
     inkscape:pageopacity="0.0"
     inkscape:pagecheckerboard="0"
     inkscape:deskcolor="#d1d1d1"
     inkscape:document-units="mm"
     inkscape:zoom="2.5058204"
     inkscape:cx="211.30804"
     inkscape:cy="242.83465"
     inkscape:window-width="2560"
     inkscape:window-height="1494"
     inkscape:window-x="-11"
     inkscape:window-y="-11"
     inkscape:window-maximized="1"
     inkscape:current-layer="svg29" />
  <path
     id="bg"
     style="fill:#1a237e"
     d="M 0,0 H 111.76 V 128.5 H 0 Z" />
  <path
     d="M 43.720577,8.3647461 42.741573,12 H 41.703976 L 41.05212,9.6318359 40.417355,12 H 39.379757 L 38.400753,8.3647461 h 0.979004 l 0.559082,2.5024419 0.668945,-2.5024419 h 0.935059 l 0.637207,2.5024419 0.585937,-2.5024419 z m 3.469239,0.703125 H 46.054562 V 12 h -0.9375 V 9.0678711 h -1.135254 v -0.703125 h 3.208008 z m 5.183105,1.7895509 q 0,0.537109 -0.456543,0.874023 -0.454102,0.334473 -1.235352,0.334473 -0.45166,0 -0.788574,-0.07813 -0.334472,-0.08057 -0.627441,-0.202637 v -0.871582 h 0.102539 q 0.290527,0.231934 0.649414,0.356446 0.361328,0.124511 0.693359,0.124511 0.08545,0 0.22461,-0.01465 0.13916,-0.01465 0.22705,-0.04883 0.107422,-0.04395 0.175782,-0.109864 0.0708,-0.06592 0.0708,-0.195312 0,-0.119629 -0.10254,-0.205078 -0.100097,-0.08789 -0.29541,-0.134278 -0.205078,-0.04883 -0.43457,-0.09033 -0.227051,-0.04394 -0.427246,-0.109863 -0.458984,-0.148926 -0.661621,-0.402832 -0.200196,-0.2563476 -0.200196,-0.6347655 0,-0.5078125 0.454102,-0.8276367 0.456543,-0.3222657 1.171875,-0.3222657 0.358887,0 0.708008,0.070801 0.351562,0.068359 0.60791,0.1733399 V 9.3803711 H 52.12878 Q 51.909054,9.2045898 51.58923,9.0874023 51.271847,8.9677734 50.939816,8.9677734 q -0.117188,0 -0.234375,0.01709 -0.114747,0.014648 -0.222168,0.058594 -0.09521,0.036621 -0.163575,0.1123047 -0.06836,0.073242 -0.06836,0.1684571 0,0.1440429 0.109863,0.2221679 0.109864,0.075684 0.415039,0.1391602 0.200196,0.041504 0.383301,0.080566 0.185547,0.039063 0.397949,0.1074219 0.417481,0.1367188 0.615235,0.3735348 0.200195,0.234375 0.200195,0.610352 z m 3.825684,-0.17334 q 0,0.673828 -0.410157,1.032715 -0.410156,0.358887 -1.208496,0.358887 -0.79834,0 -1.208496,-0.358887 -0.407715,-0.358887 -0.407715,-1.030274 V 8.3647461 h 0.942383 v 2.2680669 q 0,0.378417 0.158692,0.563964 0.158691,0.185547 0.515136,0.185547 0.351563,0 0.512696,-0.178222 0.163574,-0.178223 0.163574,-0.571289 V 8.3647461 h 0.942383 z m 2.915039,-1.2060547 q 0,-0.1367187 -0.05615,-0.234375 -0.05615,-0.097656 -0.192871,-0.1538085 -0.09522,-0.039063 -0.222168,-0.046387 -0.126953,-0.00977 -0.29541,-0.00977 h -0.339355 v 0.9790036 h 0.288086 q 0.224609,0 0.375976,-0.021972 0.151367,-0.021973 0.253906,-0.1000977 0.09766,-0.075684 0.141602,-0.1660156 0.04639,-0.092773 0.04639,-0.2465821 z M 60.576046,12 h -1.14502 l -0.99121,-1.333008 H 58.007687 V 12 H 57.075069 V 8.3647461 h 1.572266 q 0.322266,0 0.554199,0.036621 0.231934,0.036621 0.434571,0.1586914 0.205078,0.1220703 0.324707,0.3173828 0.12207,0.1928711 0.12207,0.4858399 0,0.402832 -0.187988,0.6567387 -0.185547,0.253906 -0.532227,0.422363 z m 3.625488,-0.20752 q -0.24414,0.09522 -0.646972,0.19043 -0.402832,0.09277 -0.803223,0.09277 -0.927734,0 -1.452637,-0.50293 -0.524902,-0.505371 -0.524902,-1.394043 0,-0.847168 0.529785,-1.3647462 0.529785,-0.5200195 1.477051,-0.5200195 0.358887,0 0.683594,0.065918 0.324707,0.063477 0.722656,0.2563476 v 0.8520508 h -0.104981 q -0.06836,-0.05127 -0.200195,-0.1440429 -0.131836,-0.095215 -0.253906,-0.1611329 -0.141602,-0.078125 -0.332031,-0.1342773 -0.187989,-0.056152 -0.400391,-0.056152 -0.249024,0 -0.45166,0.073242 -0.202637,0.073242 -0.36377,0.2246094 -0.153808,0.1464844 -0.24414,0.3735352 -0.08789,0.2246093 -0.08789,0.52002 0,0.603027 0.319824,0.922851 0.319824,0.319824 0.944824,0.319824 0.05371,0 0.117188,-0.0024 0.06592,-0.0024 0.119629,-0.0073 V 10.684082 H 62.524288 V 9.9980469 h 1.677246 z M 67.670773,12 H 65.041378 V 8.3647461 h 2.629395 v 0.703125 h -1.696778 v 0.6274414 h 1.574707 v 0.7031255 h -1.574707 v 0.898437 h 1.696778 z m 5.791015,0 H 72.377804 L 71.594112,10.803711 70.795773,12 h -1.035157 l 1.289063,-1.831055 -1.262207,-1.8041989 h 1.081543 l 0.756836,1.1328125 0.778808,-1.1328125 h 1.037598 l -1.269531,1.7675779 z"
     id="text1"
     style="font-weight:bold;font-size:5px;text-anchor:middle;fill:#ffffff"
     aria-label="WT SURGE X" />
  <path
     d="m 36.544064,15.481201 q 0,0.106201 -0.05005,0.209961 -0.04883,0.10376 -0.13794,0.175781 -0.09766,0.07813 -0.228271,0.122071 -0.129395,0.04395 -0.3125,0.04395 -0.196533,0 -0.354004,-0.03662 -0.15625,-0.03662 -0.318604,-0.108643 v -0.302734 h 0.01709 q 0.13794,0.114746 0.318604,0.177002 0.180664,0.06226 0.339355,0.06226 0.22461,0 0.349121,-0.08423 0.125733,-0.08423 0.125733,-0.224609 0,-0.12085 -0.05982,-0.178223 -0.05859,-0.05737 -0.179443,-0.08911 -0.09155,-0.02441 -0.198975,-0.04028 -0.106201,-0.01587 -0.22583,-0.04028 -0.241699,-0.05127 -0.358886,-0.17456 -0.115967,-0.124512 -0.115967,-0.323486 0,-0.228272 0.192871,-0.373536 0.192871,-0.146484 0.489502,-0.146484 0.19165,0 0.351562,0.03662 0.159912,0.03662 0.283203,0.09033 v 0.285645 h -0.01709 q -0.10376,-0.08789 -0.273438,-0.145264 -0.168457,-0.05859 -0.345459,-0.05859 -0.194092,0 -0.3125,0.08057 -0.117187,0.08057 -0.117187,0.207519 0,0.113526 0.05859,0.178223 0.05859,0.0647 0.206299,0.09888 0.07813,0.01709 0.222168,0.0415 0.144043,0.02441 0.244141,0.05005 0.202636,0.05371 0.305176,0.162353 0.102539,0.108643 0.102539,0.303955 z m 1.51123,-0.13916 h -1.004639 q 0,0.125732 0.03784,0.219727 0.03784,0.09277 0.10376,0.152587 0.06348,0.05859 0.150146,0.08789 0.08789,0.0293 0.192872,0.0293 0.13916,0 0.279541,-0.05493 0.141601,-0.05615 0.201416,-0.109863 h 0.01221 v 0.250244 q -0.115967,0.04883 -0.236817,0.08179 -0.120849,0.03296 -0.253906,0.03296 -0.339356,0 -0.529785,-0.183105 -0.19043,-0.184326 -0.19043,-0.522461 0,-0.334473 0.181885,-0.531006 0.183105,-0.196533 0.480957,-0.196533 0.275879,0 0.424805,0.161133 0.150146,0.161132 0.150146,0.457763 z M 37.831905,15.16626 q -0.0012,-0.180664 -0.09155,-0.279541 -0.08911,-0.09888 -0.272217,-0.09888 -0.184326,0 -0.29419,0.108642 -0.108642,0.108643 -0.123291,0.269776 z m 1.42212,-0.279541 h -0.01221 q -0.05127,-0.01221 -0.100097,-0.01709 -0.04761,-0.0061 -0.113526,-0.0061 -0.106201,0 -0.205078,0.04761 -0.09888,0.04639 -0.190429,0.120849 V 16 h -0.229493 v -1.363525 h 0.229493 v 0.201416 q 0.136718,-0.109864 0.240478,-0.15503 0.104981,-0.04639 0.213623,-0.04639 0.05982,0 0.08667,0.0037 0.02686,0.0024 0.08057,0.01099 z M 40.60046,16 h -0.229492 v -0.151367 q -0.115967,0.09155 -0.222168,0.140381 -0.106201,0.04883 -0.234375,0.04883 -0.214844,0 -0.334473,-0.130615 -0.119629,-0.131836 -0.119629,-0.385743 v -0.885009 h 0.229493 v 0.776367 q 0,0.10376 0.0098,0.178222 0.0098,0.07324 0.0415,0.125733 0.03296,0.05371 0.08545,0.07813 0.05249,0.02441 0.152588,0.02441 0.08911,0 0.194092,-0.04639 0.106201,-0.04639 0.197754,-0.118408 v -1.018066 h 0.229492 z m 2.441406,0 h -0.229492 v -0.776367 q 0,-0.08789 -0.0085,-0.169678 -0.0073,-0.08179 -0.03296,-0.130615 -0.02808,-0.05249 -0.08057,-0.07935 -0.05249,-0.02686 -0.151367,-0.02686 -0.09644,0 -0.192871,0.04883 -0.09644,0.04761 -0.192872,0.12207 0.0037,0.02808 0.0061,0.06592 0.0024,0.03662 0.0024,0.07324 V 16 h -0.229492 v -0.776367 q 0,-0.09033 -0.0085,-0.170899 -0.0073,-0.08179 -0.03296,-0.130615 -0.02808,-0.05249 -0.08057,-0.07813 -0.05249,-0.02686 -0.151367,-0.02686 -0.09399,0 -0.189209,0.04639 -0.09399,0.04639 -0.187989,0.118409 V 16 H 41.05212 v -1.363525 h 0.229492 v 0.151367 q 0.107422,-0.08911 0.213623,-0.13916 0.107422,-0.05005 0.228272,-0.05005 0.13916,0 0.235596,0.05859 0.09766,0.05859 0.145263,0.162353 0.13916,-0.117187 0.253907,-0.168457 0.114746,-0.05249 0.245361,-0.05249 0.224609,0 0.33081,0.136719 0.107422,0.135498 0.107422,0.379638 z m 1.164551,-0.684814 h -0.761719 v -0.220948 h 0.761719 z m 1.386719,0.291748 q 0,0.186767 -0.155029,0.306396 -0.153809,0.119629 -0.421143,0.119629 -0.151367,0 -0.27832,-0.0354 -0.125733,-0.03662 -0.211182,-0.07935 v -0.257568 h 0.01221 q 0.108643,0.08179 0.241699,0.130615 0.133057,0.04761 0.255127,0.04761 0.151367,0 0.236817,-0.04883 0.08545,-0.04883 0.08545,-0.153809 0,-0.08057 -0.04639,-0.12207 -0.04639,-0.0415 -0.178223,-0.0708 -0.04883,-0.01099 -0.128173,-0.02563 -0.07813,-0.01465 -0.142823,-0.03174 -0.179443,-0.04761 -0.255127,-0.13916 -0.07446,-0.09277 -0.07446,-0.227051 0,-0.08423 0.03418,-0.158691 0.0354,-0.07446 0.106201,-0.133057 0.06836,-0.05737 0.17334,-0.09033 0.106201,-0.03418 0.236817,-0.03418 0.12207,0 0.246582,0.03052 0.125732,0.0293 0.20874,0.07202 v 0.245361 h -0.01221 q -0.08789,-0.0647 -0.213623,-0.108643 -0.125733,-0.04517 -0.246582,-0.04517 -0.125733,0 -0.212403,0.04883 -0.08667,0.04761 -0.08667,0.142822 0,0.08423 0.05249,0.126953 0.05127,0.04273 0.166015,0.06958 0.06348,0.01465 0.141602,0.0293 0.07935,0.01465 0.131836,0.02685 0.159912,0.03662 0.246582,0.125733 0.08667,0.09033 0.08667,0.239258 z m 1.036377,0.380859 q -0.0647,0.01709 -0.141602,0.02808 -0.07568,0.01099 -0.135498,0.01099 -0.20874,0 -0.317383,-0.112304 -0.108642,-0.112305 -0.108642,-0.360108 v -0.725097 h -0.15503 v -0.192871 h 0.15503 v -0.391846 h 0.229492 v 0.391846 h 0.473633 v 0.192871 H 46.15588 v 0.621338 q 0,0.107421 0.0049,0.168457 0.0049,0.05981 0.03418,0.112304 0.02686,0.04883 0.07324,0.07202 0.04761,0.02197 0.144043,0.02197 0.05615,0 0.117187,-0.01587 0.06103,-0.01709 0.08789,-0.02808 h 0.01221 z m 1.444092,-1.351318 -0.795899,1.866455 h -0.245361 l 0.253906,-0.568848 -0.543213,-1.297607 h 0.249024 l 0.418701,1.010742 0.422363,-1.010742 z M 48.605831,16 h -0.229492 v -1.899414 h 0.229492 z m 1.595459,-0.657959 h -1.004639 q 0,0.125732 0.03784,0.219727 0.03784,0.09277 0.10376,0.152587 0.06348,0.05859 0.150147,0.08789 0.08789,0.0293 0.192871,0.0293 0.13916,0 0.279541,-0.05493 0.141601,-0.05615 0.201416,-0.109863 h 0.01221 v 0.250244 q -0.115967,0.04883 -0.236817,0.08179 -0.120849,0.03296 -0.253906,0.03296 -0.339355,0 -0.529785,-0.183105 -0.19043,-0.184326 -0.19043,-0.522461 0,-0.334473 0.181885,-0.531006 0.183105,-0.196533 0.480957,-0.196533 0.275879,0 0.424805,0.161133 0.150146,0.161132 0.150146,0.457763 z M 49.977901,15.16626 q -0.0012,-0.180664 -0.09155,-0.279541 -0.08911,-0.09888 -0.272217,-0.09888 -0.184326,0 -0.29419,0.108642 -0.108642,0.108643 -0.123291,0.269776 z M 53.561886,14.182373 53.089474,16 H 52.817257 L 52.435177,14.491211 52.061642,16 h -0.266114 l -0.480957,-1.817627 h 0.247803 l 0.38208,1.511231 0.375977,-1.511231 h 0.245361 l 0.379639,1.525879 0.379638,-1.525879 z M 54.837521,16 h -0.228272 v -0.145264 q -0.03052,0.02075 -0.08301,0.05859 -0.05127,0.03662 -0.100097,0.05859 -0.05737,0.02808 -0.131836,0.04639 -0.07446,0.01953 -0.174561,0.01953 -0.184326,0 -0.3125,-0.122071 -0.128174,-0.12207 -0.128174,-0.311279 0,-0.155029 0.06592,-0.250244 0.06714,-0.09643 0.19043,-0.151367 0.124512,-0.05493 0.299072,-0.07446 0.174561,-0.01953 0.374756,-0.0293 v -0.0354 q 0,-0.07813 -0.02808,-0.129395 -0.02686,-0.05127 -0.07813,-0.08057 -0.04883,-0.02808 -0.117188,-0.03784 -0.06836,-0.0098 -0.142822,-0.0098 -0.09033,0 -0.201416,0.02441 -0.111084,0.02319 -0.229492,0.06836 h -0.01221 v -0.233155 q 0.06714,-0.01831 0.194092,-0.04028 0.126953,-0.02197 0.250244,-0.02197 0.144043,0 0.250244,0.02441 0.107422,0.02319 0.185547,0.08057 0.0769,0.05615 0.117187,0.145264 0.04028,0.08911 0.04028,0.220947 z m -0.228272,-0.335693 v -0.379639 q -0.10498,0.0061 -0.247803,0.01831 -0.141601,0.01221 -0.224609,0.0354 -0.09888,0.02808 -0.159912,0.08789 -0.06104,0.05859 -0.06104,0.162353 0,0.117188 0.0708,0.177002 0.0708,0.05859 0.216064,0.05859 0.12085,0 0.220947,-0.04639 0.100098,-0.04761 0.185547,-0.113525 z M 56.439083,14.636475 55.887325,16 h -0.230713 l -0.548095,-1.363525 h 0.249023 l 0.422363,1.085205 0.418702,-1.085205 z m 1.419678,0.705566 h -1.004639 q 0,0.125732 0.03784,0.219727 0.03784,0.09277 0.10376,0.152587 0.06348,0.05859 0.150146,0.08789 0.08789,0.0293 0.192871,0.0293 0.13916,0 0.279541,-0.05493 0.141602,-0.05615 0.201416,-0.109863 h 0.01221 v 0.250244 q -0.115966,0.04883 -0.236816,0.08179 -0.12085,0.03296 -0.253906,0.03296 -0.339356,0 -0.529785,-0.183105 -0.19043,-0.184326 -0.19043,-0.522461 0,-0.334473 0.181885,-0.531006 0.183105,-0.196533 0.480957,-0.196533 0.275879,0 0.424804,0.161133 0.150147,0.161132 0.150147,0.457763 z M 57.635372,15.16626 q -0.0012,-0.180664 -0.09155,-0.279541 -0.08911,-0.09888 -0.272216,-0.09888 -0.184327,0 -0.29419,0.108642 -0.108642,0.108643 -0.123291,0.269776 z m 1.279297,0.821533 q -0.0647,0.01709 -0.141602,0.02808 -0.07568,0.01099 -0.135498,0.01099 -0.20874,0 -0.317382,-0.112304 -0.108643,-0.112305 -0.108643,-0.360108 v -0.725097 h -0.155029 v -0.192871 h 0.155029 v -0.391846 h 0.229492 v 0.391846 h 0.473633 v 0.192871 h -0.473633 v 0.621338 q 0,0.107421 0.0049,0.168457 0.0049,0.05981 0.03418,0.112304 0.02685,0.04883 0.07324,0.07202 0.04761,0.02197 0.144043,0.02197 0.05615,0 0.117187,-0.01587 0.06104,-0.01709 0.08789,-0.02808 h 0.01221 z M 60.251339,16 h -0.228272 v -0.145264 q -0.03052,0.02075 -0.08301,0.05859 -0.05127,0.03662 -0.100098,0.05859 -0.05737,0.02808 -0.131836,0.04639 -0.07446,0.01953 -0.17456,0.01953 -0.184327,0 -0.3125,-0.122071 -0.128174,-0.12207 -0.128174,-0.311279 0,-0.155029 0.06592,-0.250244 0.06714,-0.09643 0.190429,-0.151367 0.124512,-0.05493 0.299073,-0.07446 0.17456,-0.01953 0.374755,-0.0293 v -0.0354 q 0,-0.07813 -0.02808,-0.129395 -0.02685,-0.05127 -0.07813,-0.08057 -0.04883,-0.02808 -0.117187,-0.03784 -0.06836,-0.0098 -0.142822,-0.0098 -0.09033,0 -0.201416,0.02441 -0.111084,0.02319 -0.229493,0.06836 h -0.01221 v -0.233155 q 0.06714,-0.01831 0.194092,-0.04028 0.126953,-0.02197 0.250244,-0.02197 0.144043,0 0.250244,0.02441 0.107422,0.02319 0.185547,0.08057 0.0769,0.05615 0.117188,0.145264 0.04028,0.08911 0.04028,0.220947 z m -0.228272,-0.335693 v -0.379639 q -0.10498,0.0061 -0.247802,0.01831 -0.141602,0.01221 -0.22461,0.0354 -0.09888,0.02808 -0.159912,0.08789 -0.06104,0.05859 -0.06104,0.162353 0,0.117188 0.0708,0.177002 0.0708,0.05859 0.216064,0.05859 0.12085,0 0.220948,-0.04639 0.100097,-0.04761 0.185546,-0.113525 z m 1.870118,-0.356446 q 0,0.170899 -0.04883,0.307618 -0.04761,0.136718 -0.129395,0.229492 -0.08667,0.09644 -0.19043,0.145263 -0.103759,0.04761 -0.228271,0.04761 -0.115967,0 -0.202637,-0.02808 -0.08667,-0.02686 -0.170898,-0.07324 L 60.908077,16 h -0.214844 v -1.899414 h 0.229493 v 0.678711 q 0.09643,-0.07935 0.205078,-0.129395 0.108642,-0.05127 0.24414,-0.05127 0.2417,0 0.38086,0.185547 0.140381,0.185547 0.140381,0.523681 z m -0.236817,0.0061 q 0,-0.244141 -0.08057,-0.369873 -0.08057,-0.126953 -0.26001,-0.126953 -0.100098,0 -0.202637,0.04395 -0.102539,0.04273 -0.190429,0.111084 v 0.78125 q 0.09766,0.04395 0.167236,0.06104 0.0708,0.01709 0.159912,0.01709 0.19043,0 0.297852,-0.124512 0.108642,-0.125732 0.108642,-0.393066 z M 62.482784,16 h -0.229492 v -1.899414 h 0.229492 z m 1.595459,-0.657959 h -1.004638 q 0,0.125732 0.03784,0.219727 0.03784,0.09277 0.10376,0.152587 0.06348,0.05859 0.150147,0.08789 0.08789,0.0293 0.192871,0.0293 0.13916,0 0.279541,-0.05493 0.141601,-0.05615 0.201416,-0.109863 h 0.01221 v 0.250244 q -0.115967,0.04883 -0.236817,0.08179 -0.120849,0.03296 -0.253906,0.03296 -0.339355,0 -0.529785,-0.183105 -0.19043,-0.184326 -0.19043,-0.522461 0,-0.334473 0.181885,-0.531006 0.183106,-0.196533 0.480957,-0.196533 0.275879,0 0.424805,0.161133 0.150146,0.161132 0.150146,0.457763 z M 63.854855,15.16626 q -0.0012,-0.180664 -0.09155,-0.279541 -0.08911,-0.09888 -0.272217,-0.09888 -0.184326,0 -0.294189,0.108642 -0.108643,0.108643 -0.123291,0.269776 z m 2.823486,-0.775147 q 0.111084,0.122071 0.169678,0.299073 0.05981,0.177002 0.05981,0.401611 0,0.224609 -0.06103,0.402832 -0.05982,0.177002 -0.168457,0.29541 -0.112305,0.123291 -0.266113,0.185547 -0.152588,0.06226 -0.349121,0.06226 -0.191651,0 -0.349122,-0.06348 -0.15625,-0.06348 -0.266113,-0.184326 -0.109863,-0.12085 -0.169678,-0.296631 -0.05859,-0.175781 -0.05859,-0.401611 0,-0.222168 0.05859,-0.397949 0.05859,-0.177002 0.170899,-0.302735 0.107422,-0.119629 0.266113,-0.183105 0.159912,-0.06348 0.347901,-0.06348 0.195312,0 0.350341,0.0647 0.15625,0.06348 0.264893,0.181884 z m -0.02197,0.700684 q 0,-0.354004 -0.158691,-0.545654 -0.158692,-0.192872 -0.43335,-0.192872 -0.277099,0 -0.435791,0.192872 -0.15747,0.19165 -0.15747,0.545654 0,0.357666 0.161132,0.548096 0.161133,0.189209 0.432129,0.189209 0.270996,0 0.430908,-0.189209 0.161133,-0.19043 0.161133,-0.548096 z m 1.590576,0.515137 q 0,0.186767 -0.155029,0.306396 -0.153808,0.119629 -0.421142,0.119629 -0.151368,0 -0.278321,-0.0354 -0.125732,-0.03662 -0.211181,-0.07935 v -0.257568 h 0.01221 q 0.108642,0.08179 0.241699,0.130615 0.133056,0.04761 0.255127,0.04761 0.151367,0 0.236816,-0.04883 0.08545,-0.04883 0.08545,-0.153809 0,-0.08057 -0.04639,-0.12207 -0.04639,-0.0415 -0.178223,-0.0708 -0.04883,-0.01099 -0.128174,-0.02563 -0.07813,-0.01465 -0.142822,-0.03174 -0.179443,-0.04761 -0.255127,-0.13916 -0.07446,-0.09277 -0.07446,-0.227051 0,-0.08423 0.03418,-0.158691 0.0354,-0.07446 0.106201,-0.133057 0.06836,-0.05737 0.17334,-0.09033 0.106201,-0.03418 0.236816,-0.03418 0.122071,0 0.246582,0.03052 0.125733,0.0293 0.20874,0.07202 v 0.245361 h -0.01221 q -0.08789,-0.0647 -0.213623,-0.108643 -0.125732,-0.04517 -0.246582,-0.04517 -0.125732,0 -0.212402,0.04883 -0.08667,0.04761 -0.08667,0.142822 0,0.08423 0.05249,0.126953 0.05127,0.04273 0.166016,0.06958 0.06348,0.01465 0.141602,0.0293 0.07935,0.01465 0.131835,0.02685 0.159913,0.03662 0.246583,0.125733 0.08667,0.09033 0.08667,0.239258 z m 1.33667,0.307617 Q 69.468868,15.969482 69.365108,16 q -0.102539,0.03052 -0.218505,0.03052 -0.147705,0 -0.270996,-0.04273 -0.123291,-0.04395 -0.211182,-0.131836 -0.08911,-0.08789 -0.13794,-0.222168 -0.04883,-0.134277 -0.04883,-0.313721 0,-0.334472 0.183106,-0.524902 0.184326,-0.19043 0.48584,-0.19043 0.117187,0 0.229492,0.03296 0.113525,0.03296 0.207519,0.08057 v 0.255127 h -0.01221 q -0.10498,-0.08179 -0.217285,-0.125733 -0.111084,-0.04395 -0.217285,-0.04395 -0.195312,0 -0.308838,0.131836 -0.112305,0.130615 -0.112305,0.384521 0,0.246582 0.109864,0.379639 0.111084,0.131836 0.311279,0.131836 0.06958,0 0.141602,-0.01831 0.07202,-0.01831 0.129394,-0.04761 0.05005,-0.02563 0.09399,-0.05371 0.04395,-0.0293 0.06958,-0.05005 h 0.01221 z m 0.540772,-1.506348 h -0.258789 v -0.238037 h 0.258789 z M 70.109737,16 h -0.229492 v -1.363525 h 0.229492 z m 0.686036,0 H 70.56628 v -1.899414 h 0.229493 z m 0.686035,0 h -0.229492 v -1.899414 h 0.229492 z m 1.513672,0 h -0.228272 v -0.145264 q -0.03052,0.02075 -0.08301,0.05859 -0.05127,0.03662 -0.100097,0.05859 -0.05737,0.02808 -0.131836,0.04639 -0.07446,0.01953 -0.174561,0.01953 -0.184326,0 -0.3125,-0.122071 -0.128174,-0.12207 -0.128174,-0.311279 0,-0.155029 0.06592,-0.250244 0.06714,-0.09643 0.19043,-0.151367 0.124512,-0.05493 0.299072,-0.07446 0.174561,-0.01953 0.374756,-0.0293 v -0.0354 q 0,-0.07813 -0.02808,-0.129395 -0.02686,-0.05127 -0.07813,-0.08057 -0.04883,-0.02808 -0.117188,-0.03784 -0.06836,-0.0098 -0.142822,-0.0098 -0.09033,0 -0.201416,0.02441 -0.111084,0.02319 -0.229492,0.06836 h -0.01221 v -0.233155 q 0.06714,-0.01831 0.194092,-0.04028 0.126953,-0.02197 0.250244,-0.02197 0.144043,0 0.250244,0.02441 0.107422,0.02319 0.185547,0.08057 0.0769,0.05615 0.117187,0.145264 0.04028,0.08911 0.04028,0.220947 z m -0.228272,-0.335693 v -0.379639 q -0.10498,0.0061 -0.247803,0.01831 -0.141601,0.01221 -0.224609,0.0354 -0.09888,0.02808 -0.159912,0.08789 -0.06104,0.05859 -0.06104,0.162353 0,0.117188 0.0708,0.177002 0.0708,0.05859 0.216064,0.05859 0.12085,0 0.220947,-0.04639 0.100098,-0.04761 0.185547,-0.113525 z m 1.378174,0.323486 q -0.0647,0.01709 -0.141602,0.02808 -0.07568,0.01099 -0.135498,0.01099 -0.20874,0 -0.317382,-0.112304 -0.108643,-0.112305 -0.108643,-0.360108 v -0.725097 h -0.155029 v -0.192871 h 0.155029 v -0.391846 h 0.229492 v 0.391846 h 0.473633 v 0.192871 h -0.473633 v 0.621338 q 0,0.107421 0.0049,0.168457 0.0049,0.05981 0.03418,0.112304 0.02685,0.04883 0.07324,0.07202 0.04761,0.02197 0.144043,0.02197 0.05615,0 0.117187,-0.01587 0.06104,-0.01709 0.08789,-0.02808 h 0.01221 z m 1.439209,-0.668945 q 0,0.333252 -0.170899,0.526123 -0.170898,0.192871 -0.457763,0.192871 -0.289307,0 -0.460205,-0.192871 -0.169678,-0.192871 -0.169678,-0.526123 0,-0.333252 0.169678,-0.526123 0.170898,-0.194092 0.460205,-0.194092 0.286865,0 0.457763,0.194092 0.170899,0.192871 0.170899,0.526123 z m -0.236816,0 q 0,-0.264893 -0.10376,-0.393067 -0.10376,-0.129394 -0.288086,-0.129394 -0.186768,0 -0.290528,0.129394 -0.102539,0.128174 -0.102539,0.393067 0,0.256347 0.10376,0.389404 0.10376,0.131836 0.289307,0.131836 0.183105,0 0.286865,-0.130615 0.104981,-0.131836 0.104981,-0.390625 z m 1.442871,-0.432129 h -0.01221 q -0.05127,-0.01221 -0.100098,-0.01709 -0.04761,-0.0061 -0.113525,-0.0061 -0.106202,0 -0.205079,0.04761 -0.09888,0.04639 -0.190429,0.120849 V 16 h -0.229492 v -1.363525 h 0.229492 v 0.201416 q 0.136718,-0.109864 0.240478,-0.15503 0.104981,-0.04639 0.213623,-0.04639 0.05982,0 0.08667,0.0037 0.02686,0.0024 0.08057,0.01099 z"
     id="text2"
     style="font-size:2.5px;text-anchor:middle;fill:#bdbdbd"
     aria-label="Serum-style Wavetable Oscillator" />
  <!-- Row 1: Pitch / FM / Sync -->
  <path
     d="m 19.883789,18.767219 q 0,0.106347 -0.0376,0.197656 -0.03652,0.09023 -0.103125,0.156836 -0.08271,0.08272 -0.195507,0.124609 -0.112793,0.04082 -0.284668,0.04082 h -0.212694 v 0.596192 H 18.8375 V 18.28382 h 0.433984 q 0.143946,0 0.243848,0.02471 0.0999,0.02363 0.177246,0.0752 0.09131,0.06123 0.140723,0.152539 0.05049,0.09131 0.05049,0.230957 z m -0.221289,0.0054 q 0,-0.08272 -0.029,-0.143946 -0.029,-0.06123 -0.08809,-0.0999 -0.05156,-0.0333 -0.118164,-0.04726 -0.06553,-0.01504 -0.166504,-0.01504 h -0.210547 v 0.639161 h 0.179395 q 0.128906,0 0.209472,-0.02256 0.08057,-0.02363 0.131055,-0.07412 0.05049,-0.05156 0.0709,-0.108496 0.02148,-0.05693 0.02148,-0.127832 z m 1.065625,1.110713 h -0.631641 v -0.163281 h 0.209473 V 18.447102 H 20.096484 V 18.28382 h 0.631641 v 0.163282 h -0.209473 v 1.272949 h 0.209473 z m 1.502832,-1.410449 h -0.571484 v 1.410449 H 21.446777 V 18.472883 H 20.875293 V 18.28382 h 1.355664 z m 1.407227,1.294433 q -0.05908,0.02578 -0.107422,0.04834 -0.04727,0.02256 -0.12461,0.04727 -0.06553,0.02041 -0.142871,0.03437 -0.07627,0.01504 -0.168652,0.01504 -0.174023,0 -0.316895,-0.04834 -0.141796,-0.04941 -0.24707,-0.153613 -0.103125,-0.102051 -0.161133,-0.258887 -0.05801,-0.15791 -0.05801,-0.366309 0,-0.197656 0.05586,-0.353418 0.05586,-0.155761 0.161133,-0.263183 0.10205,-0.104199 0.245996,-0.158985 0.145019,-0.05479 0.321191,-0.05479 0.128906,0 0.256739,0.03115 0.128906,0.03115 0.285742,0.10957 v 0.252441 h -0.01611 q -0.132128,-0.110644 -0.262109,-0.161132 -0.12998,-0.05049 -0.278223,-0.05049 -0.121386,0 -0.21914,0.03975 -0.09668,0.03867 -0.172949,0.121387 -0.07412,0.08057 -0.116016,0.204102 -0.04082,0.122461 -0.04082,0.283593 0,0.168653 0.04512,0.29004 0.04619,0.121386 0.118164,0.197656 0.0752,0.07949 0.175097,0.118164 0.100977,0.0376 0.212696,0.0376 0.153613,0 0.28789,-0.05264 0.134278,-0.05264 0.251368,-0.15791 h 0.01504 z M 25.1625,19.883332 H 24.949805 V 19.100227 H 24.15166 v 0.783105 H 23.938965 V 18.28382 h 0.212695 v 0.627344 h 0.798145 V 18.28382 H 25.1625 Z"
     id="text3"
     style="font-size:2.2px;text-anchor:middle;fill:#9a9a9a"
     aria-label="PITCH" />
  <path
     d="m 32.852002,19.767316 q -0.05908,0.02578 -0.107422,0.04834 -0.04727,0.02256 -0.124609,0.04727 -0.06553,0.02041 -0.142871,0.03437 -0.07627,0.01504 -0.168653,0.01504 -0.174023,0 -0.316894,-0.04834 -0.141797,-0.04941 -0.247071,-0.153613 -0.103125,-0.102051 -0.161132,-0.258887 -0.05801,-0.15791 -0.05801,-0.366309 0,-0.197656 0.05586,-0.353418 0.05586,-0.155761 0.161133,-0.263183 0.102051,-0.104199 0.245996,-0.158985 0.14502,-0.05479 0.321191,-0.05479 0.128907,0 0.256739,0.03115 0.128906,0.03115 0.285742,0.10957 v 0.252441 h -0.01611 q -0.132129,-0.110644 -0.26211,-0.161132 -0.12998,-0.05049 -0.278222,-0.05049 -0.121387,0 -0.219141,0.03975 -0.09668,0.03867 -0.172949,0.121387 -0.07412,0.08057 -0.116016,0.204102 -0.04082,0.122461 -0.04082,0.283593 0,0.168653 0.04512,0.29004 0.04619,0.121386 0.118164,0.197656 0.0752,0.07949 0.175098,0.118164 0.100976,0.0376 0.212695,0.0376 0.153613,0 0.287891,-0.05264 0.134277,-0.05264 0.251367,-0.15791 h 0.01504 z m 1.493164,-1.299804 q 0.09775,0.107422 0.149316,0.263183 0.05264,0.155762 0.05264,0.353418 0,0.197656 -0.05371,0.354492 -0.05264,0.155762 -0.148242,0.259961 -0.09883,0.108496 -0.23418,0.163282 -0.134277,0.05479 -0.307226,0.05479 -0.168653,0 -0.307227,-0.05586 -0.1375,-0.05586 -0.23418,-0.162207 -0.09668,-0.106347 -0.149316,-0.261035 -0.05156,-0.154687 -0.05156,-0.353418 0,-0.195508 0.05156,-0.350195 0.05156,-0.155762 0.150391,-0.266406 0.09453,-0.105274 0.234179,-0.161133 0.140723,-0.05586 0.306153,-0.05586 0.171875,0 0.3083,0.05693 0.1375,0.05586 0.233106,0.160059 z m -0.01934,0.616601 q 0,-0.311523 -0.139648,-0.480176 -0.139649,-0.169726 -0.381348,-0.169726 -0.243848,0 -0.383496,0.169726 -0.138574,0.168653 -0.138574,0.480176 0,0.314746 0.141796,0.482324 0.141797,0.166504 0.380274,0.166504 0.238476,0 0.379199,-0.166504 0.141797,-0.167578 0.141797,-0.482324 z m 1.819731,0.799219 h -0.22666 l -0.156836,-0.445801 h -0.691797 l -0.156836,0.445801 H 34.69751 l 0.582226,-1.599512 h 0.283594 z m -0.449024,-0.628418 -0.280371,-0.785254 -0.281445,0.785254 z m 2.015235,0.628418 h -0.276075 l -0.53496,-0.635938 h -0.299708 v 0.635938 H 36.38833 V 18.28382 h 0.447949 q 0.14502,0 0.2417,0.01934 0.09668,0.01826 0.174023,0.0666 0.08701,0.05478 0.135352,0.138574 0.04941,0.08272 0.04941,0.210547 0,0.172949 -0.08701,0.290039 -0.08701,0.116016 -0.239551,0.175098 z m -0.497364,-1.149414 q 0,-0.06875 -0.02471,-0.121387 -0.02363,-0.05371 -0.07949,-0.09023 -0.04619,-0.03115 -0.10957,-0.04297 -0.06338,-0.01289 -0.149317,-0.01289 h -0.250293 v 0.603711 h 0.214844 q 0.100977,0 0.176172,-0.01719 0.0752,-0.01826 0.127832,-0.0666 0.04834,-0.04512 0.0709,-0.103125 0.02363,-0.05908 0.02363,-0.149316 z m 1.865918,0.692871 q 0,0.09346 -0.04404,0.184766 -0.04297,0.09131 -0.121386,0.154687 -0.08594,0.06875 -0.200879,0.107422 -0.113868,0.03867 -0.275,0.03867 -0.17295,0 -0.311524,-0.03223 -0.1375,-0.03223 -0.280371,-0.09561 v -0.266406 h 0.01504 q 0.121387,0.100976 0.280371,0.155761 0.158985,0.05478 0.298633,0.05478 0.197656,0 0.307227,-0.07412 0.110644,-0.07412 0.110644,-0.197656 0,-0.106348 -0.05264,-0.156836 -0.05156,-0.05049 -0.157911,-0.07842 -0.08057,-0.02148 -0.175097,-0.03545 -0.09346,-0.01396 -0.198731,-0.03545 -0.212695,-0.04512 -0.31582,-0.153613 -0.102051,-0.109571 -0.102051,-0.284668 0,-0.200879 0.169727,-0.328711 0.169726,-0.128907 0.430761,-0.128907 0.168653,0 0.309375,0.03223 0.140723,0.03223 0.249219,0.07949 v 0.251367 h -0.01504 q -0.09131,-0.07734 -0.240625,-0.127832 -0.148242,-0.05156 -0.304004,-0.05156 -0.170801,0 -0.275,0.0709 -0.103125,0.0709 -0.103125,0.182617 0,0.0999 0.05156,0.156836 0.05156,0.05693 0.181543,0.08701 0.06875,0.01504 0.195507,0.03652 0.126758,0.02149 0.214844,0.04404 0.178321,0.04727 0.268555,0.142872 0.09023,0.0956 0.09023,0.26748 z m 1.39541,0.456543 H 39.421924 V 18.28382 h 1.053808 v 0.189063 h -0.841113 v 0.438281 h 0.841113 v 0.189063 h -0.841113 v 0.594042 h 0.841113 z"
     id="text4"
     style="font-size:2.2px;text-anchor:middle;fill:#9a9a9a"
     aria-label="COARSE" />
  <path
     d="m 48.622852,18.472883 h -0.808887 v 0.451172 h 0.695019 v 0.189062 h -0.695019 v 0.770215 H 47.601269 V 18.28382 h 1.021583 z m 0.806738,1.410449 h -0.631641 v -0.163281 h 0.209473 V 18.447102 H 48.797949 V 18.28382 h 0.631641 v 0.163282 h -0.209473 v 1.272949 h 0.209473 z m 1.582324,0 h -0.263183 l -0.758399,-1.430859 v 1.430859 h -0.19873 V 18.28382 h 0.329785 l 0.691797,1.30625 v -1.30625 h 0.19873 z m 1.479199,0 H 51.437305 V 18.28382 h 1.053808 v 0.189063 H 51.65 v 0.438281 h 0.841113 v 0.189063 H 51.65 v 0.594042 h 0.841113 z"
     id="text5"
     style="font-size:2.2px;text-anchor:middle;fill:#9a9a9a"
     aria-label="FINE" />
  <path
     d="m 63.677197,18.472883 h -0.808886 v 0.451172 h 0.695019 v 0.189062 h -0.695019 v 0.770215 H 62.655615 V 18.28382 h 1.021582 z m 1.667188,1.410449 H 65.13169 v -1.378223 l -0.444727,0.937793 h -0.126758 l -0.441504,-0.937793 v 1.378223 h -0.19873 V 18.28382 h 0.290039 l 0.426465,0.890528 0.4125,-0.890528 h 0.29541 z"
     id="text6"
     style="font-size:2.2px;text-anchor:middle;fill:#9a9a9a"
     aria-label="FM" />
  <path
     d="M 77.119141,19.883332 H 76.89248 l -0.156835,-0.445801 h -0.691797 l -0.156836,0.445801 H 75.671094 L 76.25332,18.28382 h 0.283594 z m -0.449024,-0.628418 -0.280371,-0.785254 -0.281445,0.785254 z m 2.116211,0.628418 h -0.212695 v -1.378223 l -0.444727,0.937793 h -0.126758 l -0.441504,-0.937793 v 1.378223 h -0.19873 V 18.28382 h 0.290039 l 0.426465,0.890528 0.4125,-0.890528 h 0.29541 z m 1.570508,-1.410449 h -0.571484 v 1.410449 H 79.572656 V 18.472883 H 79.001172 V 18.28382 h 1.355664 z"
     id="text7"
     style="font-size:2.2px;text-anchor:middle;fill:#9a9a9a"
     aria-label="AMT" />
  <path
     d="m 90.357519,19.426789 q 0,0.09346 -0.04404,0.184766 -0.04297,0.09131 -0.121387,0.154687 -0.08594,0.06875 -0.200879,0.107422 -0.113867,0.03867 -0.275,0.03867 -0.172949,0 -0.311524,-0.03223 -0.1375,-0.03223 -0.280371,-0.09561 v -0.266406 h 0.01504 q 0.121387,0.100976 0.280372,0.155761 0.158984,0.05478 0.298632,0.05478 0.197657,0 0.307227,-0.07412 0.110644,-0.07412 0.110644,-0.197656 0,-0.106348 -0.05264,-0.156836 -0.05156,-0.05049 -0.15791,-0.07842 -0.08057,-0.02148 -0.175098,-0.03545 -0.09346,-0.01396 -0.198731,-0.03545 -0.212695,-0.04512 -0.31582,-0.153613 -0.102051,-0.109571 -0.102051,-0.284668 0,-0.200879 0.169727,-0.328711 0.169726,-0.128907 0.430762,-0.128907 0.168652,0 0.309375,0.03223 0.140722,0.03223 0.249218,0.07949 v 0.251367 h -0.01504 q -0.09131,-0.07734 -0.240625,-0.127832 -0.148242,-0.05156 -0.304004,-0.05156 -0.1708,0 -0.275,0.0709 -0.103125,0.0709 -0.103125,0.182617 0,0.0999 0.05156,0.156836 0.05156,0.05693 0.181543,0.08701 0.06875,0.01504 0.195508,0.03652 0.126757,0.02149 0.214843,0.04404 0.178321,0.04727 0.268555,0.142872 0.09023,0.0956 0.09023,0.26748 z m 1.473829,-1.142969 -0.562891,0.898047 v 0.701465 H 91.055762 V 19.204426 L 90.490723,18.28382 h 0.235254 l 0.437207,0.71543 0.441503,-0.71543 z m 1.441601,1.599512 h -0.263183 l -0.758399,-1.430859 v 1.430859 h -0.19873 V 18.28382 h 0.329785 l 0.691797,1.30625 v -1.30625 h 0.19873 z m 1.660743,-0.116016 q -0.05908,0.02578 -0.107422,0.04834 -0.04727,0.02256 -0.12461,0.04727 -0.06553,0.02041 -0.142871,0.03437 -0.07627,0.01504 -0.168652,0.01504 -0.174024,0 -0.316895,-0.04834 -0.141797,-0.04941 -0.24707,-0.153613 -0.103125,-0.102051 -0.161133,-0.258887 -0.05801,-0.15791 -0.05801,-0.366309 0,-0.197656 0.05586,-0.353418 0.05586,-0.155761 0.161133,-0.263183 0.10205,-0.104199 0.245996,-0.158985 0.145019,-0.05479 0.321191,-0.05479 0.128906,0 0.256738,0.03115 0.128907,0.03115 0.285743,0.10957 v 0.252441 h -0.01611 q -0.132129,-0.110644 -0.262109,-0.161132 -0.129981,-0.05049 -0.278223,-0.05049 -0.121386,0 -0.21914,0.03975 -0.09668,0.03867 -0.17295,0.121387 -0.07412,0.08057 -0.116015,0.204102 -0.04082,0.122461 -0.04082,0.283593 0,0.168653 0.04512,0.29004 0.04619,0.121386 0.118164,0.197656 0.07519,0.07949 0.175097,0.118164 0.100977,0.0376 0.212696,0.0376 0.153613,0 0.28789,-0.05264 0.134278,-0.05264 0.251368,-0.15791 h 0.01504 z"
     id="text8"
     style="font-size:2.2px;text-anchor:middle;fill:#9a9a9a"
     aria-label="SYNC" />
  <!-- Row 2: Wavetable -->
  <path
     d="m 19.701172,41.28382 -0.552149,0.790625 0.551075,0.808887 h -0.245996 l -0.436133,-0.658496 -0.446875,0.658496 h -0.232032 l 0.55752,-0.799219 -0.544629,-0.800293 h 0.244922 l 0.430762,0.649903 0.440429,-0.649903 z m 1.474902,1.921778 h -1.407226 v -0.128907 h 1.407226 z m 1.256836,-1.438379 q 0,0.106347 -0.0376,0.197656 -0.03652,0.09023 -0.103125,0.156836 -0.08271,0.08272 -0.195507,0.124609 -0.112793,0.04082 -0.284668,0.04082 h -0.212694 v 0.596192 H 21.386621 V 41.28382 h 0.433984 q 0.143946,0 0.243848,0.02471 0.0999,0.02363 0.177246,0.0752 0.09131,0.06123 0.140723,0.152539 0.05049,0.09131 0.05049,0.230957 z m -0.221289,0.0054 q 0,-0.08272 -0.029,-0.143946 -0.029,-0.06123 -0.08809,-0.0999 -0.05156,-0.0333 -0.118164,-0.04726 -0.06553,-0.01504 -0.166504,-0.01504 h -0.210547 v 0.639161 h 0.179395 q 0.128906,0 0.209473,-0.02256 0.08057,-0.02363 0.131054,-0.07412 0.05049,-0.05156 0.0709,-0.108496 0.02148,-0.05693 0.02148,-0.127832 z m 1.694043,-0.305078 q 0.09775,0.107422 0.149316,0.263183 0.05264,0.155762 0.05264,0.353418 0,0.197656 -0.05371,0.354492 -0.05264,0.155762 -0.148242,0.259961 -0.09883,0.108496 -0.23418,0.163282 -0.134277,0.05479 -0.307226,0.05479 -0.168653,0 -0.307227,-0.05586 -0.1375,-0.05586 -0.23418,-0.162207 -0.09668,-0.106347 -0.149316,-0.261035 -0.05156,-0.154687 -0.05156,-0.353418 0,-0.195508 0.05156,-0.350195 0.05156,-0.155762 0.150391,-0.266406 0.09453,-0.105274 0.234179,-0.161133 0.140723,-0.05586 0.306153,-0.05586 0.171875,0 0.308301,0.05693 0.1375,0.05586 0.233105,0.160059 z m -0.01934,0.616601 q 0,-0.311523 -0.139648,-0.480176 -0.139649,-0.169726 -0.381348,-0.169726 -0.243848,0 -0.383496,0.169726 -0.138574,0.168653 -0.138574,0.480176 0,0.314746 0.141797,0.482324 0.141796,0.166504 0.380273,0.166504 0.238477,0 0.379199,-0.166504 0.141797,-0.167578 0.141797,-0.482324 z m 1.720899,0.342676 q 0,0.09346 -0.04404,0.184766 -0.04297,0.09131 -0.121387,0.154687 -0.08594,0.06875 -0.200879,0.107422 -0.113867,0.03867 -0.275,0.03867 -0.172949,0 -0.311523,-0.03223 -0.1375,-0.03223 -0.280371,-0.0956 v -0.266406 h 0.01504 q 0.121386,0.100976 0.280371,0.155761 0.158984,0.05479 0.298633,0.05479 0.197656,0 0.307226,-0.07412 0.110645,-0.07412 0.110645,-0.197656 0,-0.106348 -0.05264,-0.156836 -0.05156,-0.05049 -0.15791,-0.07842 -0.08057,-0.02148 -0.175098,-0.03545 -0.09346,-0.01396 -0.19873,-0.03545 -0.212696,-0.04512 -0.315821,-0.153613 -0.10205,-0.109571 -0.10205,-0.284668 0,-0.200879 0.169726,-0.328711 0.169727,-0.128907 0.430762,-0.128907 0.168652,0 0.309375,0.03223 0.140722,0.03223 0.249219,0.07949 v 0.251367 h -0.01504 q -0.09131,-0.07734 -0.240625,-0.127832 -0.148243,-0.05156 -0.304004,-0.05156 -0.170801,0 -0.275,0.0709 -0.103125,0.0709 -0.103125,0.182617 0,0.0999 0.05156,0.156836 0.05156,0.05693 0.181543,0.08701 0.06875,0.01504 0.195508,0.03652 0.126758,0.02148 0.214844,0.04404 0.17832,0.04727 0.268554,0.142872 0.09024,0.0956 0.09024,0.26748 z"
     id="text9"
     style="font-size:2.2px;text-anchor:middle;fill:#9a9a9a"
     aria-label="X_POS" />
  <path
     d="m 34.858105,41.28382 -0.415722,1.599512 h -0.239551 l -0.33623,-1.327734 -0.328711,1.327734 h -0.23418 L 32.880469,41.28382 h 0.218066 l 0.336231,1.329883 0.330859,-1.329883 h 0.215918 l 0.334082,1.342774 0.334082,-1.342774 z m 1.454493,0.189063 h -0.571485 v 1.410449 H 35.528418 V 41.472883 H 34.956934 V 41.28382 h 1.355664 z m 1.402929,1.732715 h -1.407226 v -0.128907 h 1.407226 z m 1.43086,-1.921778 -0.552148,0.790625 0.551074,0.808887 h -0.245996 l -0.436133,-0.658496 -0.446875,0.658496 h -0.232031 l 0.557519,-0.799219 -0.544629,-0.800293 h 0.244922 l 0.430762,0.649903 0.44043,-0.649903 z"
     id="text10"
     style="font-size:2.2px;text-anchor:middle;fill:#9a9a9a"
     aria-label="WT_X" />
  <path
     d="m 47.689893,41.28382 -0.562891,0.898047 v 0.701465 h -0.212695 v -0.678906 l -0.56504,-0.920606 h 0.235254 l 0.437207,0.71543 0.441504,-0.71543 z m 1.409375,1.921778 h -1.407227 v -0.128907 h 1.407227 z m 1.256836,-1.438379 q 0,0.106347 -0.0376,0.197656 -0.03652,0.09023 -0.103125,0.156836 -0.08272,0.08272 -0.195508,0.124609 -0.112793,0.04082 -0.284668,0.04082 H 49.52251 v 0.596192 H 49.309815 V 41.28382 h 0.433984 q 0.143945,0 0.243848,0.02471 0.0999,0.02363 0.177246,0.0752 0.09131,0.06123 0.140722,0.152539 0.05049,0.09131 0.05049,0.230957 z m -0.221289,0.0054 q 0,-0.08272 -0.029,-0.143946 -0.029,-0.06123 -0.08809,-0.0999 -0.05156,-0.0333 -0.118164,-0.04726 -0.06553,-0.01504 -0.166504,-0.01504 H 49.52251 v 0.639161 h 0.179394 q 0.128907,0 0.209473,-0.02256 0.08057,-0.02363 0.131055,-0.07412 0.05049,-0.05156 0.0709,-0.108496 0.02149,-0.05693 0.02149,-0.127832 z m 1.694043,-0.305078 q 0.09775,0.107422 0.149316,0.263183 0.05264,0.155762 0.05264,0.353418 0,0.197656 -0.05371,0.354492 -0.05264,0.155762 -0.148242,0.259961 -0.09883,0.108496 -0.23418,0.163282 -0.134277,0.05479 -0.307227,0.05479 -0.168652,0 -0.307226,-0.05586 -0.1375,-0.05586 -0.23418,-0.162207 -0.09668,-0.106347 -0.149316,-0.261035 -0.05156,-0.154687 -0.05156,-0.353418 0,-0.195508 0.05156,-0.350195 0.05156,-0.155762 0.15039,-0.266406 0.09453,-0.105274 0.23418,-0.161133 0.140723,-0.05586 0.306152,-0.05586 0.171875,0 0.308301,0.05693 0.1375,0.05586 0.233106,0.160059 z m -0.01934,0.616601 q 0,-0.311523 -0.139649,-0.480176 -0.139648,-0.169726 -0.381347,-0.169726 -0.243848,0 -0.383497,0.169726 -0.138574,0.168653 -0.138574,0.480176 0,0.314746 0.141797,0.482324 0.141797,0.166504 0.380274,0.166504 0.238476,0 0.379199,-0.166504 0.141797,-0.167578 0.141797,-0.482324 z m 1.720898,0.342676 q 0,0.09346 -0.04404,0.184766 -0.04297,0.09131 -0.121386,0.154687 -0.08594,0.06875 -0.200879,0.107422 -0.113868,0.03867 -0.275,0.03867 -0.17295,0 -0.311524,-0.03223 -0.1375,-0.03223 -0.280371,-0.0956 v -0.266406 h 0.01504 q 0.121387,0.100976 0.280371,0.155761 0.158985,0.05479 0.298633,0.05479 0.197656,0 0.307227,-0.07412 0.110644,-0.07412 0.110644,-0.197656 0,-0.106348 -0.05264,-0.156836 -0.05156,-0.05049 -0.15791,-0.07842 -0.08057,-0.02148 -0.175097,-0.03545 -0.09346,-0.01396 -0.198731,-0.03545 -0.212695,-0.04512 -0.31582,-0.153613 -0.102051,-0.109571 -0.102051,-0.284668 0,-0.200879 0.169727,-0.328711 0.169726,-0.128907 0.430761,-0.128907 0.168653,0 0.309375,0.03223 0.140723,0.03223 0.249219,0.07949 v 0.251367 h -0.01504 q -0.09131,-0.07734 -0.240625,-0.127832 -0.148242,-0.05156 -0.304004,-0.05156 -0.170801,0 -0.275,0.0709 -0.103125,0.0709 -0.103125,0.182617 0,0.0999 0.05156,0.156836 0.05156,0.05693 0.181543,0.08701 0.06875,0.01504 0.195507,0.03652 0.126758,0.02148 0.214844,0.04404 0.178321,0.04727 0.268555,0.142872 0.09023,0.0956 0.09023,0.26748 z"
     id="text11"
     style="font-size:2.2px;text-anchor:middle;fill:#9a9a9a"
     aria-label="Y_POS" />
  <path
     d="m 62.934912,41.28382 -0.415723,1.599512 h -0.23955 l -0.336231,-1.327734 -0.328711,1.327734 H 61.380518 L 60.957275,41.28382 h 0.218067 l 0.33623,1.329883 0.33086,-1.329883 h 0.215918 l 0.334082,1.342774 0.334082,-1.342774 z m 1.454492,0.189063 H 63.81792 v 1.410449 H 63.605225 V 41.472883 H 63.03374 V 41.28382 h 1.355664 z m 1.40293,1.732715 h -1.407226 v -0.128907 h 1.407226 z m 1.342774,-1.921778 -0.562891,0.898047 v 0.701465 H 66.359522 V 42.204426 L 65.794483,41.28382 h 0.235254 l 0.437207,0.71543 0.441504,-0.71543 z"
     id="text12"
     style="font-size:2.2px;text-anchor:middle;fill:#9a9a9a"
     aria-label="WT_Y" />
  <path
     d="m 75.808057,41.28382 -0.552149,0.790625 0.551074,0.808887 h -0.245996 l -0.436133,-0.658496 -0.446875,0.658496 h -0.232031 l 0.55752,-0.799219 -0.544629,-0.800293 h 0.244922 l 0.430761,0.649903 0.44043,-0.649903 z m 1.308398,0.189063 h -0.808887 v 0.451172 h 0.69502 v 0.189062 h -0.69502 v 0.770215 H 76.094873 V 41.28382 h 1.021582 z m 1.396484,1.410449 h -0.22666 l -0.156836,-0.445801 h -0.691797 l -0.156836,0.445801 h -0.215917 l 0.582226,-1.599512 h 0.283594 z M 78.063916,42.254914 77.783545,41.46966 77.5021,42.254914 Z m 2.043164,-0.169727 q 0,0.218067 -0.0956,0.395313 -0.09453,0.177246 -0.252442,0.275 -0.10957,0.06768 -0.244922,0.09775 -0.134282,0.03008 -0.354497,0.03008 h -0.403906 v -1.599512 h 0.399609 q 0.23418,0 0.37168,0.03437 0.138574,0.0333 0.23418,0.09238 0.163281,0.102051 0.254589,0.271777 0.09131,0.169727 0.09131,0.402832 z m -0.222363,-0.0032 q 0,-0.187988 -0.06553,-0.316895 -0.06553,-0.128906 -0.195507,-0.203027 -0.09453,-0.05371 -0.200879,-0.07412 -0.106348,-0.02148 -0.25459,-0.02148 h -0.199805 v 1.234278 h 0.199805 q 0.153613,0 0.26748,-0.02256 0.114942,-0.02256 0.210547,-0.08379 0.119238,-0.07627 0.17832,-0.200879 0.06016,-0.124609 0.06016,-0.311523 z m 1.619922,0.801345 H 80.45083 V 41.28382 h 1.053809 v 0.189063 h -0.841113 v 0.438281 h 0.841113 v 0.189063 h -0.841113 v 0.594042 h 0.841113 z"
     id="text13"
     style="font-size:2.2px;text-anchor:middle;fill:#9a9a9a"
     aria-label="XFADE" />
  <path
     d="m 89.808057,41.28382 -0.552149,0.790625 0.551074,0.808887 h -0.245996 l -0.436133,-0.658496 -0.446875,0.658496 h -0.232031 l 0.55752,-0.799219 -0.544629,-0.800293 h 0.244922 l 0.430761,0.649903 0.44043,-0.649903 z m 1.308398,0.189063 h -0.808887 v 0.451172 h 0.69502 v 0.189062 h -0.69502 v 0.770215 H 90.094873 V 41.28382 h 1.021582 z m 1.396484,1.410449 h -0.22666 l -0.156836,-0.445801 h -0.691797 l -0.156836,0.445801 h -0.215917 l 0.582226,-1.599512 h 0.283594 z M 92.063916,42.254914 91.783545,41.46966 91.5021,42.254914 Z m 2.043164,-0.169727 q 0,0.218067 -0.0956,0.395313 -0.09453,0.177246 -0.252442,0.275 -0.10957,0.06768 -0.244922,0.09775 -0.134282,0.03008 -0.354497,0.03008 h -0.403906 v -1.599512 h 0.399609 q 0.23418,0 0.37168,0.03437 0.138574,0.0333 0.23418,0.09238 0.163281,0.102051 0.254589,0.271777 0.09131,0.169727 0.09131,0.402832 z m -0.222363,-0.0032 q 0,-0.187988 -0.06553,-0.316895 -0.06553,-0.128906 -0.195507,-0.203027 -0.09453,-0.05371 -0.200879,-0.07412 -0.106348,-0.02148 -0.25459,-0.02148 h -0.199805 v 1.234278 h 0.199805 q 0.153613,0 0.26748,-0.02256 0.114942,-0.02256 0.210547,-0.08379 0.119238,-0.07627 0.17832,-0.200879 0.06016,-0.124609 0.06016,-0.311523 z m 1.619922,0.801345 H 94.45083 V 41.28382 h 1.053809 v 0.189063 h -0.841113 v 0.438281 h 0.841113 v 0.189063 h -0.841113 v 0.594042 h 0.841113 z"
     id="text14"
     style="font-size:2.2px;text-anchor:middle;fill:#9a9a9a"
     aria-label="XFADE" />
  <!-- Row 3: Warp -->
  <path
     d="m 19.1646,70.883332 h -0.212696 v -1.378223 l -0.444726,0.937793 H 18.38042 l -0.441504,-0.937793 v 1.378223 H 17.740185 V 69.28382 h 0.29004 l 0.426464,0.890528 0.4125,-0.890528 H 19.1646 Z m 1.62207,-1.41582 q 0.09775,0.107422 0.149316,0.263183 0.05264,0.155762 0.05264,0.353418 0,0.197656 -0.05371,0.354492 -0.05264,0.155762 -0.148242,0.259961 -0.09883,0.108496 -0.23418,0.163282 -0.134277,0.05478 -0.307226,0.05478 -0.168653,0 -0.307227,-0.05586 -0.1375,-0.05586 -0.23418,-0.162207 -0.09668,-0.106347 -0.149316,-0.261035 -0.05156,-0.154687 -0.05156,-0.353418 0,-0.195508 0.05156,-0.350195 0.05156,-0.155762 0.150391,-0.266406 0.09453,-0.105274 0.234179,-0.161133 0.140723,-0.05586 0.306153,-0.05586 0.171875,0 0.3083,0.05693 0.1375,0.05586 0.233106,0.160059 z m -0.01934,0.616601 q 0,-0.311523 -0.139648,-0.480176 -0.139649,-0.169726 -0.381348,-0.169726 -0.243848,0 -0.383496,0.169726 -0.138574,0.168653 -0.138574,0.480176 0,0.314746 0.141796,0.482324 0.141797,0.166504 0.380274,0.166504 0.238476,0 0.379199,-0.166504 0.141797,-0.167578 0.141797,-0.482324 z m 1.909961,0.0011 q 0,0.218067 -0.09561,0.395313 -0.09453,0.177246 -0.252442,0.275 -0.10957,0.06768 -0.244922,0.09775 -0.134268,0.03006 -0.354483,0.03006 h -0.403906 v -1.599512 h 0.399609 q 0.23418,0 0.37168,0.03438 0.138574,0.0333 0.23418,0.09238 0.163281,0.102051 0.25459,0.271777 0.09131,0.169727 0.09131,0.402832 z m -0.222363,-0.0032 q 0,-0.187988 -0.06553,-0.316895 -0.06553,-0.128906 -0.195508,-0.203027 -0.09453,-0.05371 -0.200879,-0.07412 -0.106348,-0.02148 -0.25459,-0.02148 h -0.199805 v 1.234278 h 0.199805 q 0.153613,0 0.26748,-0.02256 0.114942,-0.02256 0.210547,-0.08379 0.119239,-0.07627 0.178321,-0.200879 0.06016,-0.124609 0.06016,-0.311523 z m 1.619926,0.801319 H 23.021045 V 69.28382 h 1.053809 v 0.189063 H 23.23374 v 0.438281 h 0.841114 v 0.189063 H 23.23374 v 0.594042 h 0.841114 z m 2.371875,0 H 26.220068 L 26.063232,70.437531 H 25.371436 L 25.2146,70.883332 h -0.215918 l 0.582226,-1.599512 h 0.283594 z m -0.449024,-0.628418 -0.280371,-0.785254 -0.281445,0.785254 z"
     id="text15"
     style="font-size:2.2px;text-anchor:middle;fill:#9a9a9a"
     aria-label="MODE A" />
  <path
     d="M 35.119141,70.883332 H 34.89248 l -0.156835,-0.445801 h -0.691797 l -0.156836,0.445801 H 33.671094 L 34.25332,69.28382 h 0.283594 z m -0.449024,-0.628418 -0.280371,-0.785254 -0.281445,0.785254 z m 2.116211,0.628418 h -0.212695 v -1.378223 l -0.444727,0.937793 h -0.126758 l -0.441504,-0.937793 v 1.378223 h -0.19873 V 69.28382 h 0.290039 l 0.426465,0.890528 0.4125,-0.890528 h 0.29541 z m 1.570508,-1.410449 h -0.571484 v 1.410449 H 37.572656 V 69.472883 H 37.001172 V 69.28382 h 1.355664 z"
     id="text16"
     style="font-size:2.2px;text-anchor:middle;fill:#9a9a9a"
     aria-label="AMT" />
  <path
     d="m 49.930176,70.767316 q -0.05908,0.02578 -0.107422,0.04834 -0.04727,0.02256 -0.124609,0.04727 -0.06553,0.02041 -0.142872,0.03437 -0.07627,0.01504 -0.168652,0.01504 -0.174023,0 -0.316894,-0.04834 -0.141797,-0.04941 -0.247071,-0.153613 -0.103125,-0.102051 -0.161133,-0.258887 -0.05801,-0.15791 -0.05801,-0.366309 0,-0.197656 0.05586,-0.353418 0.05586,-0.155761 0.161133,-0.263183 0.102051,-0.104199 0.245996,-0.158985 0.145019,-0.05479 0.321191,-0.05479 0.128907,0 0.256739,0.03115 0.128906,0.03115 0.285742,0.10957 v 0.252441 h -0.01611 q -0.132128,-0.110644 -0.262109,-0.161132 -0.12998,-0.05049 -0.278223,-0.05049 -0.121386,0 -0.21914,0.03975 -0.09668,0.03867 -0.172949,0.121387 -0.07412,0.08057 -0.116016,0.204102 -0.04082,0.122461 -0.04082,0.283593 0,0.168653 0.04512,0.29004 0.04619,0.121386 0.118164,0.197656 0.0752,0.07949 0.175098,0.118164 0.100976,0.0376 0.212695,0.0376 0.153613,0 0.287891,-0.05264 0.134277,-0.05264 0.251367,-0.15791 h 0.01504 z M 51.49209,69.28382 50.909863,70.883332 H 50.62627 L 50.044043,69.28382 h 0.227734 l 0.50166,1.407227 0.501661,-1.407227 z"
     id="text17"
     style="font-size:2.2px;text-anchor:middle;fill:#9a9a9a"
     aria-label="CV" />
  <path
     d="m 61.162451,70.883332 h -0.212695 v -1.378223 l -0.444727,0.937793 h -0.126758 l -0.441504,-0.937793 v 1.378223 h -0.19873 V 69.28382 h 0.290039 l 0.426465,0.890528 0.4125,-0.890528 h 0.29541 z m 1.622071,-1.41582 q 0.09775,0.107422 0.149316,0.263183 0.05264,0.155762 0.05264,0.353418 0,0.197656 -0.05371,0.354492 -0.05264,0.155762 -0.148242,0.259961 -0.09883,0.108496 -0.23418,0.163282 -0.134278,0.05478 -0.307227,0.05478 -0.168652,0 -0.307226,-0.05586 -0.1375,-0.05586 -0.23418,-0.162207 -0.09668,-0.106347 -0.149316,-0.261035 -0.05156,-0.154687 -0.05156,-0.353418 0,-0.195508 0.05156,-0.350195 0.05156,-0.155762 0.15039,-0.266406 0.09453,-0.105274 0.23418,-0.161133 0.140723,-0.05586 0.306152,-0.05586 0.171875,0 0.308301,0.05693 0.1375,0.05586 0.233106,0.160059 z m -0.01934,0.616601 q 0,-0.311523 -0.139649,-0.480176 -0.139648,-0.169726 -0.381348,-0.169726 -0.243847,0 -0.383496,0.169726 -0.138574,0.168653 -0.138574,0.480176 0,0.314746 0.141797,0.482324 0.141797,0.166504 0.380273,0.166504 0.238477,0 0.3792,-0.166504 0.141797,-0.167578 0.141797,-0.482324 z m 1.909961,0.0011 q 0,0.218067 -0.09561,0.395313 -0.09453,0.177246 -0.252441,0.275 -0.10957,0.06768 -0.244922,0.09775 -0.134269,0.03006 -0.354484,0.03006 h -0.403907 v -1.599512 h 0.39961 q 0.23418,0 0.37168,0.03438 0.138574,0.0333 0.234179,0.09238 0.163282,0.102051 0.25459,0.271777 0.09131,0.169727 0.09131,0.402832 z m -0.222364,-0.0032 q 0,-0.187988 -0.06553,-0.316895 -0.06553,-0.128906 -0.195508,-0.203027 -0.09453,-0.05371 -0.200879,-0.07412 -0.106347,-0.02148 -0.25459,-0.02148 h -0.199804 v 1.234278 h 0.199804 q 0.153614,0 0.267481,-0.02256 0.114941,-0.02256 0.210547,-0.08379 0.119238,-0.07627 0.17832,-0.200879 0.06016,-0.124609 0.06016,-0.311523 z m 1.619926,0.801319 H 65.018896 V 69.28382 h 1.053809 v 0.189063 h -0.841113 v 0.438281 h 0.841113 v 0.189063 h -0.841113 v 0.594042 h 0.841113 z m 2.31709,-0.491992 q 0,0.119238 -0.04512,0.210547 -0.04512,0.09131 -0.121387,0.15039 -0.09023,0.0709 -0.19873,0.100977 -0.107419,0.03008 -0.273923,0.03008 h -0.567188 v -1.599512 h 0.473731 q 0.175097,0 0.262109,0.01289 0.08701,0.01289 0.166504,0.05371 0.08809,0.04619 0.127832,0.119238 0.03975,0.07197 0.03975,0.172949 0,0.113868 -0.05801,0.194434 -0.05801,0.07949 -0.154687,0.127832 v 0.0086 q 0.162207,0.0333 0.255664,0.142871 0.09346,0.108496 0.09346,0.275 z M 68.03208,69.670539 q 0,-0.05801 -0.01934,-0.09775 -0.01934,-0.03975 -0.0623,-0.06445 -0.05049,-0.029 -0.12246,-0.03545 -0.07197,-0.0075 -0.178321,-0.0075 h -0.253515 v 0.461914 h 0.275 q 0.0999,0 0.158984,-0.0097 0.05908,-0.01074 0.10957,-0.04297 0.05049,-0.03223 0.0709,-0.08272 0.02148,-0.05156 0.02148,-0.121387 z m 0.136426,0.729395 q 0,-0.09668 -0.029,-0.153614 -0.029,-0.05693 -0.105273,-0.09668 -0.05156,-0.02686 -0.125684,-0.03438 -0.07305,-0.0086 -0.17832,-0.0086 h -0.334082 v 0.595117 h 0.281445 q 0.139648,0 0.228809,-0.01396 0.08916,-0.01504 0.146093,-0.05371 0.06016,-0.04189 0.08809,-0.09561 0.02793,-0.05371 0.02793,-0.138574 z"
     id="text18"
     style="font-size:2.2px;text-anchor:middle;fill:#9a9a9a"
     aria-label="MODE B" />
  <path
     d="M 77.119141,70.883332 H 76.89248 l -0.156835,-0.445801 h -0.691797 l -0.156836,0.445801 H 75.671094 L 76.25332,69.28382 h 0.283594 z m -0.449024,-0.628418 -0.280371,-0.785254 -0.281445,0.785254 z m 2.116211,0.628418 h -0.212695 v -1.378223 l -0.444727,0.937793 h -0.126758 l -0.441504,-0.937793 v 1.378223 h -0.19873 V 69.28382 h 0.290039 l 0.426465,0.890528 0.4125,-0.890528 h 0.29541 z m 1.570508,-1.410449 h -0.571484 v 1.410449 H 79.572656 V 69.472883 H 79.001172 V 69.28382 h 1.355664 z"
     id="text19"
     style="font-size:2.2px;text-anchor:middle;fill:#9a9a9a"
     aria-label="AMT" />
  <path
     d="m 91.930176,70.767316 q -0.05908,0.02578 -0.107422,0.04834 -0.04727,0.02256 -0.124609,0.04727 -0.06553,0.02041 -0.142872,0.03437 -0.07627,0.01504 -0.168652,0.01504 -0.174023,0 -0.316894,-0.04834 -0.141797,-0.04941 -0.247071,-0.153613 -0.103125,-0.102051 -0.161133,-0.258887 -0.05801,-0.15791 -0.05801,-0.366309 0,-0.197656 0.05586,-0.353418 0.05586,-0.155761 0.161133,-0.263183 0.102051,-0.104199 0.245996,-0.158985 0.145019,-0.05479 0.321191,-0.05479 0.128907,0 0.256739,0.03115 0.128906,0.03115 0.285742,0.10957 v 0.252441 h -0.01611 q -0.132128,-0.110644 -0.262109,-0.161132 -0.12998,-0.05049 -0.278223,-0.05049 -0.121386,0 -0.21914,0.03975 -0.09668,0.03867 -0.172949,0.121387 -0.07412,0.08057 -0.116016,0.204102 -0.04082,0.122461 -0.04082,0.283593 0,0.168653 0.04512,0.29004 0.04619,0.121386 0.118164,0.197656 0.0752,0.07949 0.175098,0.118164 0.100976,0.0376 0.212695,0.0376 0.153613,0 0.287891,-0.05264 0.134277,-0.05264 0.251367,-0.15791 h 0.01504 z M 93.49209,69.28382 92.909863,70.883332 H 92.62627 L 92.044043,69.28382 h 0.227734 l 0.50166,1.407227 0.501661,-1.407227 z"
     id="text20"
     style="font-size:2.2px;text-anchor:middle;fill:#9a9a9a"
     aria-label="CV" />
  <!-- Row 4: Unison / Output -->
  <path
     d="m 20.887451,94.240949 q 0,0.174024 -0.03867,0.304004 -0.0376,0.128906 -0.124609,0.214844 -0.08272,0.08164 -0.19336,0.119238 -0.110644,0.0376 -0.257812,0.0376 -0.150391,0 -0.262109,-0.03975 -0.111719,-0.03975 -0.187989,-0.11709 -0.08701,-0.08809 -0.125683,-0.212695 -0.0376,-0.12461 -0.0376,-0.306153 v -0.957129 h 0.212695 v 0.967871 q 0,0.129981 0.01719,0.205176 0.01826,0.07519 0.06016,0.136426 0.04727,0.06982 0.127832,0.105273 0.08164,0.03545 0.195508,0.03545 0.114941,0 0.195508,-0.03437 0.08057,-0.03545 0.128906,-0.106348 0.0419,-0.06123 0.05908,-0.139649 0.01826,-0.07949 0.01826,-0.196582 v -0.973242 h 0.212695 z m 1.626367,0.642383 h -0.263183 l -0.758399,-1.430859 v 1.430859 h -0.19873 V 93.28382 h 0.329785 l 0.691797,1.30625 v -1.30625 h 0.19873 z m 0.989356,0 h -0.631641 v -0.163281 h 0.209473 V 93.447102 H 22.871533 V 93.28382 h 0.631641 v 0.163282 h -0.209473 v 1.272949 h 0.209473 z m 1.524316,-0.456543 q 0,0.09346 -0.04404,0.184766 -0.04297,0.09131 -0.121386,0.154687 -0.08594,0.06875 -0.200879,0.107422 -0.113867,0.03867 -0.275,0.03867 -0.172949,0 -0.311524,-0.03223 -0.1375,-0.03223 -0.280371,-0.0956 v -0.266406 h 0.01504 q 0.121387,0.100976 0.280371,0.155761 0.158985,0.05479 0.298633,0.05479 0.197657,0 0.307227,-0.07412 0.110644,-0.07412 0.110644,-0.197656 0,-0.106348 -0.05264,-0.156836 -0.05156,-0.05049 -0.15791,-0.07842 -0.08057,-0.02148 -0.175098,-0.03545 -0.09346,-0.01396 -0.198731,-0.03545 -0.212695,-0.04512 -0.31582,-0.153613 -0.102051,-0.109571 -0.102051,-0.284668 0,-0.200879 0.169727,-0.328711 0.169726,-0.128907 0.430762,-0.128907 0.168652,0 0.309375,0.03223 0.140722,0.03223 0.249218,0.07949 v 0.251367 h -0.01504 q -0.09131,-0.07734 -0.240625,-0.127832 -0.148242,-0.05156 -0.304004,-0.05156 -0.1708,0 -0.275,0.0709 -0.103125,0.0709 -0.103125,0.182617 0,0.0999 0.05156,0.156836 0.05156,0.05693 0.181543,0.08701 0.06875,0.01504 0.195508,0.03652 0.126757,0.02148 0.214843,0.04404 0.178321,0.04727 0.268555,0.142872 0.09023,0.09561 0.09023,0.26748 z m 1.533985,-0.959277 q 0.09775,0.107422 0.149316,0.263183 0.05264,0.155762 0.05264,0.353418 0,0.197656 -0.05371,0.354492 -0.05264,0.155762 -0.148242,0.259961 -0.09883,0.108496 -0.23418,0.163282 -0.134277,0.05478 -0.307226,0.05478 -0.168653,0 -0.307227,-0.05586 -0.1375,-0.05586 -0.23418,-0.162207 -0.09668,-0.106347 -0.149316,-0.261035 -0.05156,-0.154687 -0.05156,-0.353418 0,-0.195508 0.05156,-0.350195 0.05156,-0.155762 0.150391,-0.266406 0.09453,-0.105274 0.234179,-0.161133 0.140723,-0.05586 0.306153,-0.05586 0.171875,0 0.3083,0.05693 0.1375,0.05586 0.233106,0.160059 z m -0.01934,0.616601 q 0,-0.311523 -0.139649,-0.480176 -0.139648,-0.169726 -0.381347,-0.169726 -0.243848,0 -0.383496,0.169726 -0.138575,0.168653 -0.138575,0.480176 0,0.314746 0.141797,0.482324 0.141797,0.166504 0.380274,0.166504 0.238476,0 0.379199,-0.166504 0.141797,-0.167578 0.141797,-0.482324 z m 1.77891,0.799219 h -0.263184 l -0.758398,-1.430859 v 1.430859 H 27.100732 V 93.28382 h 0.329785 l 0.691797,1.30625 v -1.30625 h 0.198731 z"
     id="text21"
     style="font-size:2.2px;text-anchor:middle;fill:#9a9a9a"
     aria-label="UNISON" />
  <path
     d="m 37.021728,94.085187 q 0,0.218067 -0.09561,0.395313 -0.09453,0.177246 -0.252441,0.275 -0.109571,0.06768 -0.244922,0.09775 -0.134273,0.03008 -0.354488,0.03008 h -0.403906 v -1.599512 h 0.39961 q 0.234179,0 0.371679,0.03438 0.138575,0.0333 0.23418,0.09238 0.163281,0.102051 0.25459,0.271777 0.09131,0.169727 0.09131,0.402832 z m -0.222363,-0.0032 q 0,-0.187988 -0.06553,-0.316895 -0.06553,-0.128906 -0.195508,-0.203027 -0.09453,-0.05371 -0.200879,-0.07412 -0.106348,-0.02148 -0.25459,-0.02148 h -0.199804 v 1.234278 h 0.199804 q 0.153614,0 0.267481,-0.02256 0.114941,-0.02256 0.210547,-0.08379 0.119238,-0.07627 0.17832,-0.200879 0.06016,-0.124609 0.06016,-0.311523 z m 1.619922,0.801345 H 37.365478 V 93.28382 h 1.053809 v 0.189063 h -0.841113 v 0.438281 h 0.841113 v 0.189063 h -0.841113 v 0.594042 h 0.841113 z m 1.478125,-1.410449 h -0.571484 v 1.410449 H 39.113232 V 93.472883 H 38.541748 V 93.28382 h 1.355664 z m 1.419043,0.768066 q 0,0.174024 -0.03867,0.304004 -0.0376,0.128906 -0.124609,0.214844 -0.08272,0.08164 -0.19336,0.119238 -0.110644,0.0376 -0.257812,0.0376 -0.150391,0 -0.26211,-0.03975 -0.111718,-0.03975 -0.187988,-0.11709 -0.08701,-0.08809 -0.125683,-0.212695 -0.0376,-0.12461 -0.0376,-0.306153 v -0.957129 h 0.212695 v 0.967871 q 0,0.129981 0.01719,0.205176 0.01826,0.07519 0.06016,0.136426 0.04727,0.06982 0.127832,0.105273 0.08164,0.03545 0.195508,0.03545 0.114941,0 0.195508,-0.03437 0.08057,-0.03545 0.128906,-0.106348 0.04189,-0.06123 0.05908,-0.139649 0.01826,-0.07949 0.01826,-0.196582 v -0.973242 h 0.212695 z m 1.626368,0.642383 h -0.263184 l -0.758398,-1.430859 v 1.430859 H 41.72251 V 93.28382 h 0.329785 l 0.691797,1.30625 v -1.30625 h 0.198731 z m 1.479199,0 H 43.368213 V 93.28382 h 1.053809 v 0.189063 h -0.841114 v 0.438281 h 0.841114 v 0.189063 h -0.841114 v 0.594042 h 0.841114 z"
     id="text22"
     style="font-size:2.2px;text-anchor:middle;fill:#9a9a9a"
     aria-label="DETUNE" />
  <path
     d="m 52.901953,94.426789 q 0,0.09346 -0.04404,0.184766 -0.04297,0.09131 -0.121387,0.154687 -0.08594,0.06875 -0.200879,0.107422 -0.113867,0.03867 -0.275,0.03867 -0.172949,0 -0.311523,-0.03223 -0.1375,-0.03223 -0.280371,-0.0956 v -0.266406 h 0.01504 q 0.121387,0.100976 0.280371,0.155761 0.158984,0.05479 0.298633,0.05479 0.197656,0 0.307226,-0.07412 0.110645,-0.07412 0.110645,-0.197656 0,-0.106348 -0.05264,-0.156836 -0.05156,-0.05049 -0.15791,-0.07842 -0.08057,-0.02148 -0.175098,-0.03545 -0.09346,-0.01396 -0.19873,-0.03545 -0.212695,-0.04512 -0.31582,-0.153613 -0.102051,-0.109571 -0.102051,-0.284668 0,-0.200879 0.169726,-0.328711 0.169727,-0.128907 0.430762,-0.128907 0.168653,0 0.309375,0.03223 0.140723,0.03223 0.249219,0.07949 v 0.251367 h -0.01504 q -0.09131,-0.07734 -0.240625,-0.127832 -0.148242,-0.05156 -0.304004,-0.05156 -0.170801,0 -0.275,0.0709 -0.103125,0.0709 -0.103125,0.182617 0,0.0999 0.05156,0.156836 0.05156,0.05693 0.181543,0.08701 0.06875,0.01504 0.195508,0.03652 0.126758,0.02148 0.214844,0.04404 0.17832,0.04727 0.268555,0.142872 0.09023,0.09561 0.09023,0.26748 z m 1.387891,-0.65957 q 0,0.106347 -0.0376,0.197656 -0.03652,0.09023 -0.103125,0.156836 -0.08272,0.08272 -0.195508,0.124609 -0.112793,0.04082 -0.284668,0.04082 H 53.45625 v 0.596192 H 53.243555 V 93.28382 h 0.433984 q 0.143945,0 0.243848,0.02471 0.0999,0.02363 0.177246,0.0752 0.09131,0.06123 0.140722,0.152539 0.05049,0.09131 0.05049,0.230957 z m -0.221289,0.0054 q 0,-0.08271 -0.029,-0.143946 -0.029,-0.06123 -0.08809,-0.0999 -0.05156,-0.0333 -0.118164,-0.04726 -0.06553,-0.01504 -0.166504,-0.01504 H 53.45625 v 0.639161 h 0.179394 q 0.128907,0 0.209473,-0.02256 0.08057,-0.02363 0.131055,-0.07412 0.05049,-0.05156 0.0709,-0.108496 0.02149,-0.05693 0.02149,-0.127832 z m 1.825097,1.110713 H 55.617578 L 55.082617,94.247394 H 54.78291 v 0.635938 H 54.570215 V 93.28382 h 0.447949 q 0.14502,0 0.241699,0.01934 0.09668,0.01826 0.174024,0.0666 0.08701,0.05479 0.135351,0.138574 0.04941,0.08271 0.04941,0.210547 0,0.172949 -0.08701,0.290039 -0.08701,0.116016 -0.239551,0.175098 z m -0.497363,-1.149414 q 0,-0.06875 -0.02471,-0.121387 -0.02363,-0.05371 -0.07949,-0.09023 -0.04619,-0.03115 -0.109571,-0.04297 -0.06338,-0.01289 -0.149316,-0.01289 H 54.78291 v 0.603711 h 0.214844 q 0.100976,0 0.176172,-0.01719 0.0752,-0.01826 0.127832,-0.0666 0.04834,-0.04512 0.0709,-0.103125 0.02363,-0.05908 0.02363,-0.149316 z m 1.757422,1.149414 H 56.099902 V 93.28382 h 1.053809 v 0.189063 h -0.841114 v 0.438281 h 0.841114 v 0.189063 h -0.841114 v 0.594042 h 0.841114 z m 1.598437,0 h -0.22666 l -0.156836,-0.445801 h -0.691797 l -0.156836,0.445801 h -0.215918 l 0.582227,-1.599512 h 0.283594 z m -0.449023,-0.628418 -0.280371,-0.785254 -0.281446,0.785254 z m 2.043164,-0.169727 q 0,0.218067 -0.09561,0.395313 -0.09453,0.177246 -0.252441,0.275 -0.10957,0.06768 -0.244922,0.09775 -0.134273,0.03008 -0.354488,0.03008 h -0.403906 v -1.599512 h 0.399609 q 0.23418,0 0.37168,0.03438 0.138574,0.0333 0.234179,0.09238 0.163282,0.102051 0.25459,0.271777 0.09131,0.169727 0.09131,0.402832 z m -0.222363,-0.0032 q 0,-0.187988 -0.06553,-0.316895 -0.06553,-0.128906 -0.195508,-0.203027 -0.09453,-0.05371 -0.200878,-0.07412 -0.106348,-0.02148 -0.25459,-0.02148 h -0.199805 v 1.234278 h 0.199805 q 0.153613,0 0.26748,-0.02256 0.114942,-0.02256 0.210547,-0.08379 0.119238,-0.07627 0.17832,-0.200879 0.06016,-0.124609 0.06016,-0.311523 z"
     id="text23"
     style="font-size:2.2px;text-anchor:middle;fill:#9a9a9a"
     aria-label="SPREAD" />
  <path
     d="m 68.793994,95.275422 q -0.06445,0.01611 -0.127832,0.02256 -0.0623,0.0075 -0.127832,0.0075 -0.186914,0 -0.300781,-0.103125 -0.112793,-0.102051 -0.122461,-0.293262 -0.02578,0.0043 -0.05049,0.0054 -0.02363,0.0021 -0.04619,0.0021 -0.168652,0 -0.307226,-0.05586 -0.1375,-0.05586 -0.23418,-0.162207 -0.09668,-0.106347 -0.149317,-0.261035 -0.05156,-0.154687 -0.05156,-0.353418 0,-0.195508 0.05156,-0.350195 0.05156,-0.155762 0.150391,-0.266406 0.09453,-0.105274 0.23418,-0.161133 0.140722,-0.05586 0.306152,-0.05586 0.171875,0 0.308301,0.05693 0.1375,0.05586 0.233105,0.160059 0.09775,0.107422 0.149317,0.263183 0.05264,0.155762 0.05264,0.353418 0,0.293262 -0.120313,0.494141 -0.119238,0.200879 -0.321191,0.281445 0.0043,0.122461 0.05801,0.190137 0.05371,0.06768 0.195508,0.06768 0.04404,0 0.104199,-0.01396 0.06123,-0.01289 0.08701,-0.02363 h 0.029 z m -0.253516,-1.191309 q 0,-0.311523 -0.139648,-0.480176 -0.139648,-0.169726 -0.381348,-0.169726 -0.243847,0 -0.383496,0.169726 -0.138574,0.168653 -0.138574,0.480176 0,0.314746 0.141797,0.482324 0.141797,0.166504 0.380273,0.166504 0.238477,0 0.3792,-0.166504 0.141796,-0.167578 0.141796,-0.482324 z m 1.762793,0.156836 q 0,0.174024 -0.03867,0.304004 -0.0376,0.128906 -0.12461,0.214844 -0.08271,0.08164 -0.193359,0.119238 -0.110645,0.0376 -0.257813,0.0376 -0.15039,0 -0.262109,-0.03975 -0.111719,-0.03975 -0.187988,-0.11709 -0.08701,-0.08809 -0.125684,-0.212695 -0.0376,-0.12461 -0.0376,-0.306153 v -0.957129 h 0.212696 v 0.967871 q 0,0.129981 0.01719,0.205176 0.01826,0.07519 0.06016,0.136426 0.04727,0.06982 0.127833,0.105273 0.08164,0.03545 0.195507,0.03545 0.114942,0 0.195508,-0.03437 0.08057,-0.03545 0.128906,-0.106348 0.04189,-0.06123 0.05908,-0.139649 0.01826,-0.07949 0.01826,-0.196582 v -0.973242 h 0.212695 z m 1.656446,0.642383 h -0.22666 l -0.156836,-0.445801 h -0.691797 l -0.156836,0.445801 H 70.51167 l 0.582226,-1.599512 h 0.283594 z m -0.449024,-0.628418 -0.280371,-0.785254 -0.281445,0.785254 z m 1.703711,0.628418 H 72.20249 V 93.28382 h 0.212696 v 1.410449 h 0.799218 z m 0.77666,0 h -0.63164 v -0.163281 h 0.209472 V 93.447102 H 73.359424 V 93.28382 h 0.63164 v 0.163282 h -0.209472 v 1.272949 h 0.209472 z m 1.502833,-1.410449 h -0.571485 v 1.410449 H 74.709717 V 93.472883 H 74.138233 V 93.28382 h 1.355664 z m 1.34707,-0.189063 -0.562891,0.898047 v 0.701465 H 76.065381 V 94.204426 L 75.500342,93.28382 h 0.235254 l 0.437207,0.71543 0.441504,-0.71543 z"
     id="text24"
     style="font-size:2.2px;text-anchor:middle;fill:#9a9a9a"
     aria-label="QUALITY" />
  <path
     d="M 85.859082,94.883332 H 84.847168 V 93.28382 h 0.212695 v 1.410449 h 0.799219 z m 1.266504,0 H 86.071777 V 93.28382 h 1.053809 v 0.189063 h -0.841113 v 0.438281 h 0.841113 v 0.189063 h -0.841113 v 0.594042 h 0.841113 z m 1.598437,-1.599512 -0.582226,1.599512 H 87.858203 L 87.275976,93.28382 h 0.227735 l 0.50166,1.407227 0.50166,-1.407227 z m 1.296582,1.599512 H 88.966797 V 93.28382 h 1.053808 v 0.189063 h -0.841113 v 0.438281 h 0.841113 v 0.189063 h -0.841113 v 0.594042 h 0.841113 z m 1.349219,0 H 90.35791 V 93.28382 h 0.212695 v 1.410449 h 0.799219 z"
     id="text25"
     style="font-size:2.2px;text-anchor:middle;fill:#9a9a9a"
     aria-label="LEVEL" />
  <!-- Row 5: Phase -->
  <text
     x="22"
     y="111"
     text-anchor="middle"
     fill="#9a9a9a"
     font-size="2.2"
     id="text26">PHASE</text>
  <!-- Row 6: Outputs -->
  <text
     x="38"
     y="114"
     text-anchor="middle"
     fill="#9a9a9a"
     font-size="2.2"
     id="text27">L</text>
  <text
     x="74"
     y="114"
     text-anchor="middle"
     fill="#9a9a9a"
     font-size="2.2"
     id="text28">R</text>
  <rect
     x="0"
     y="107.36"
     width="111.76"
     height="21.14"
     fill="#070707"
     ry="0"
     id="rect28" />
  <path
     d="m 52.024532,120.74756 q 0.155518,0.1709 0.237549,0.4187 0.08374,0.2478 0.08374,0.56226 0,0.31445 -0.08545,0.56396 -0.08374,0.2478 -0.23584,0.41357 -0.157226,0.17261 -0.372558,0.25977 -0.213623,0.0872 -0.48877,0.0872 -0.26831,0 -0.488769,-0.0889 -0.21875,-0.0889 -0.372559,-0.25806 -0.153809,-0.16918 -0.237549,-0.41528 -0.08203,-0.24609 -0.08203,-0.56225 0,-0.31104 0.08203,-0.55713 0.08203,-0.24781 0.239258,-0.42383 0.150391,-0.16748 0.372559,-0.25635 0.223877,-0.0889 0.48706,-0.0889 0.273438,0 0.490479,0.0906 0.21875,0.0889 0.370849,0.25464 z m -0.03076,0.98096 q 0,-0.49561 -0.222168,-0.76392 -0.222168,-0.27002 -0.60669,-0.27002 -0.387939,0 -0.610107,0.27002 -0.220459,0.26831 -0.220459,0.76392 0,0.50073 0.225586,0.76733 0.225586,0.26489 0.60498,0.26489 0.379395,0 0.603272,-0.26489 0.225586,-0.2666 0.225586,-0.76733 z M 55.148556,123 h -0.338379 v -2.19263 l -0.70752,1.49195 h -0.20166 l -0.702392,-1.49195 V 123 h -0.316163 v -2.54468 h 0.461426 l 0.678467,1.41675 0.65625,-1.41675 h 0.469971 z m 2.625,0 h -0.418701 l -1.206543,-2.27637 V 123 H 55.83215 v -2.54468 h 0.524658 l 1.100586,2.07813 v -2.07813 h 0.316162 z m 1.573974,0 h -1.004882 v -0.25977 H 58.6759 v -2.02514 h -0.333252 v -0.25977 h 1.004882 v 0.25977 h -0.333252 v 2.02514 h 0.333252 z m 2.582276,0 H 61.56921 l -0.249512,-0.70923 H 60.219112 L 59.969601,123 h -0.343506 l 0.926269,-2.54468 h 0.451172 z m -0.714356,-0.99976 -0.446045,-1.24926 -0.447754,1.24926 z"
     id="text29"
     style="font-size:3.5px;text-anchor:middle;fill:#fafafa"
     aria-label="OMNIA" />
</svg>
